%TF.GenerationSoftware,KiCad,Pcbnew,5.1.12-84ad8e8a86~92~ubuntu20.04.1*%
%TF.CreationDate,2022-07-31T12:46:28-07:00*%
%TF.ProjectId,MPPTSolarPwrModule,4d505054-536f-46c6-9172-5077724d6f64,rev?*%
%TF.SameCoordinates,Original*%
%TF.FileFunction,Paste,Top*%
%TF.FilePolarity,Positive*%
%FSLAX46Y46*%
G04 Gerber Fmt 4.6, Leading zero omitted, Abs format (unit mm)*
G04 Created by KiCad (PCBNEW 5.1.12-84ad8e8a86~92~ubuntu20.04.1) date 2022-07-31 12:46:28*
%MOMM*%
%LPD*%
G01*
G04 APERTURE LIST*
%ADD10R,2.350000X5.100000*%
%ADD11R,7.340000X6.350000*%
%ADD12R,0.900000X0.800000*%
%ADD13R,2.500000X1.800000*%
%ADD14R,0.900000X1.200000*%
%ADD15R,2.900000X5.400000*%
%ADD16R,5.100000X2.350000*%
%ADD17R,1.060000X0.650000*%
G04 APERTURE END LIST*
%TO.C,U2*%
G36*
G01*
X130639600Y-92954700D02*
X130639600Y-92529700D01*
G75*
G02*
X130852100Y-92317200I212500J0D01*
G01*
X131277100Y-92317200D01*
G75*
G02*
X131489600Y-92529700I0J-212500D01*
G01*
X131489600Y-92954700D01*
G75*
G02*
X131277100Y-93167200I-212500J0D01*
G01*
X130852100Y-93167200D01*
G75*
G02*
X130639600Y-92954700I0J212500D01*
G01*
G37*
G36*
G01*
X130639600Y-91904700D02*
X130639600Y-91479700D01*
G75*
G02*
X130852100Y-91267200I212500J0D01*
G01*
X131277100Y-91267200D01*
G75*
G02*
X131489600Y-91479700I0J-212500D01*
G01*
X131489600Y-91904700D01*
G75*
G02*
X131277100Y-92117200I-212500J0D01*
G01*
X130852100Y-92117200D01*
G75*
G02*
X130639600Y-91904700I0J212500D01*
G01*
G37*
G36*
G01*
X129589600Y-92954700D02*
X129589600Y-92529700D01*
G75*
G02*
X129802100Y-92317200I212500J0D01*
G01*
X130227100Y-92317200D01*
G75*
G02*
X130439600Y-92529700I0J-212500D01*
G01*
X130439600Y-92954700D01*
G75*
G02*
X130227100Y-93167200I-212500J0D01*
G01*
X129802100Y-93167200D01*
G75*
G02*
X129589600Y-92954700I0J212500D01*
G01*
G37*
G36*
G01*
X129589600Y-91904700D02*
X129589600Y-91479700D01*
G75*
G02*
X129802100Y-91267200I212500J0D01*
G01*
X130227100Y-91267200D01*
G75*
G02*
X130439600Y-91479700I0J-212500D01*
G01*
X130439600Y-91904700D01*
G75*
G02*
X130227100Y-92117200I-212500J0D01*
G01*
X129802100Y-92117200D01*
G75*
G02*
X129589600Y-91904700I0J212500D01*
G01*
G37*
G36*
G01*
X129389600Y-90779700D02*
X129389600Y-89929700D01*
G75*
G02*
X129477100Y-89842200I87500J0D01*
G01*
X129652100Y-89842200D01*
G75*
G02*
X129739600Y-89929700I0J-87500D01*
G01*
X129739600Y-90779700D01*
G75*
G02*
X129652100Y-90867200I-87500J0D01*
G01*
X129477100Y-90867200D01*
G75*
G02*
X129389600Y-90779700I0J87500D01*
G01*
G37*
G36*
G01*
X130039600Y-90779700D02*
X130039600Y-89929700D01*
G75*
G02*
X130127100Y-89842200I87500J0D01*
G01*
X130302100Y-89842200D01*
G75*
G02*
X130389600Y-89929700I0J-87500D01*
G01*
X130389600Y-90779700D01*
G75*
G02*
X130302100Y-90867200I-87500J0D01*
G01*
X130127100Y-90867200D01*
G75*
G02*
X130039600Y-90779700I0J87500D01*
G01*
G37*
G36*
G01*
X130689600Y-90779700D02*
X130689600Y-89929700D01*
G75*
G02*
X130777100Y-89842200I87500J0D01*
G01*
X130952100Y-89842200D01*
G75*
G02*
X131039600Y-89929700I0J-87500D01*
G01*
X131039600Y-90779700D01*
G75*
G02*
X130952100Y-90867200I-87500J0D01*
G01*
X130777100Y-90867200D01*
G75*
G02*
X130689600Y-90779700I0J87500D01*
G01*
G37*
G36*
G01*
X131339600Y-90779700D02*
X131339600Y-89929700D01*
G75*
G02*
X131427100Y-89842200I87500J0D01*
G01*
X131602100Y-89842200D01*
G75*
G02*
X131689600Y-89929700I0J-87500D01*
G01*
X131689600Y-90779700D01*
G75*
G02*
X131602100Y-90867200I-87500J0D01*
G01*
X131427100Y-90867200D01*
G75*
G02*
X131339600Y-90779700I0J87500D01*
G01*
G37*
G36*
G01*
X131889600Y-91329700D02*
X131889600Y-91154700D01*
G75*
G02*
X131977100Y-91067200I87500J0D01*
G01*
X132827100Y-91067200D01*
G75*
G02*
X132914600Y-91154700I0J-87500D01*
G01*
X132914600Y-91329700D01*
G75*
G02*
X132827100Y-91417200I-87500J0D01*
G01*
X131977100Y-91417200D01*
G75*
G02*
X131889600Y-91329700I0J87500D01*
G01*
G37*
G36*
G01*
X131889600Y-91979700D02*
X131889600Y-91804700D01*
G75*
G02*
X131977100Y-91717200I87500J0D01*
G01*
X132827100Y-91717200D01*
G75*
G02*
X132914600Y-91804700I0J-87500D01*
G01*
X132914600Y-91979700D01*
G75*
G02*
X132827100Y-92067200I-87500J0D01*
G01*
X131977100Y-92067200D01*
G75*
G02*
X131889600Y-91979700I0J87500D01*
G01*
G37*
G36*
G01*
X131889600Y-92629700D02*
X131889600Y-92454700D01*
G75*
G02*
X131977100Y-92367200I87500J0D01*
G01*
X132827100Y-92367200D01*
G75*
G02*
X132914600Y-92454700I0J-87500D01*
G01*
X132914600Y-92629700D01*
G75*
G02*
X132827100Y-92717200I-87500J0D01*
G01*
X131977100Y-92717200D01*
G75*
G02*
X131889600Y-92629700I0J87500D01*
G01*
G37*
G36*
G01*
X131889600Y-93279700D02*
X131889600Y-93104700D01*
G75*
G02*
X131977100Y-93017200I87500J0D01*
G01*
X132827100Y-93017200D01*
G75*
G02*
X132914600Y-93104700I0J-87500D01*
G01*
X132914600Y-93279700D01*
G75*
G02*
X132827100Y-93367200I-87500J0D01*
G01*
X131977100Y-93367200D01*
G75*
G02*
X131889600Y-93279700I0J87500D01*
G01*
G37*
G36*
G01*
X131339600Y-94504700D02*
X131339600Y-93654700D01*
G75*
G02*
X131427100Y-93567200I87500J0D01*
G01*
X131602100Y-93567200D01*
G75*
G02*
X131689600Y-93654700I0J-87500D01*
G01*
X131689600Y-94504700D01*
G75*
G02*
X131602100Y-94592200I-87500J0D01*
G01*
X131427100Y-94592200D01*
G75*
G02*
X131339600Y-94504700I0J87500D01*
G01*
G37*
G36*
G01*
X130689600Y-94504700D02*
X130689600Y-93654700D01*
G75*
G02*
X130777100Y-93567200I87500J0D01*
G01*
X130952100Y-93567200D01*
G75*
G02*
X131039600Y-93654700I0J-87500D01*
G01*
X131039600Y-94504700D01*
G75*
G02*
X130952100Y-94592200I-87500J0D01*
G01*
X130777100Y-94592200D01*
G75*
G02*
X130689600Y-94504700I0J87500D01*
G01*
G37*
G36*
G01*
X130039600Y-94504700D02*
X130039600Y-93654700D01*
G75*
G02*
X130127100Y-93567200I87500J0D01*
G01*
X130302100Y-93567200D01*
G75*
G02*
X130389600Y-93654700I0J-87500D01*
G01*
X130389600Y-94504700D01*
G75*
G02*
X130302100Y-94592200I-87500J0D01*
G01*
X130127100Y-94592200D01*
G75*
G02*
X130039600Y-94504700I0J87500D01*
G01*
G37*
G36*
G01*
X129389600Y-94504700D02*
X129389600Y-93654700D01*
G75*
G02*
X129477100Y-93567200I87500J0D01*
G01*
X129652100Y-93567200D01*
G75*
G02*
X129739600Y-93654700I0J-87500D01*
G01*
X129739600Y-94504700D01*
G75*
G02*
X129652100Y-94592200I-87500J0D01*
G01*
X129477100Y-94592200D01*
G75*
G02*
X129389600Y-94504700I0J87500D01*
G01*
G37*
G36*
G01*
X128164600Y-93279700D02*
X128164600Y-93104700D01*
G75*
G02*
X128252100Y-93017200I87500J0D01*
G01*
X129102100Y-93017200D01*
G75*
G02*
X129189600Y-93104700I0J-87500D01*
G01*
X129189600Y-93279700D01*
G75*
G02*
X129102100Y-93367200I-87500J0D01*
G01*
X128252100Y-93367200D01*
G75*
G02*
X128164600Y-93279700I0J87500D01*
G01*
G37*
G36*
G01*
X128164600Y-92629700D02*
X128164600Y-92454700D01*
G75*
G02*
X128252100Y-92367200I87500J0D01*
G01*
X129102100Y-92367200D01*
G75*
G02*
X129189600Y-92454700I0J-87500D01*
G01*
X129189600Y-92629700D01*
G75*
G02*
X129102100Y-92717200I-87500J0D01*
G01*
X128252100Y-92717200D01*
G75*
G02*
X128164600Y-92629700I0J87500D01*
G01*
G37*
G36*
G01*
X128164600Y-91979700D02*
X128164600Y-91804700D01*
G75*
G02*
X128252100Y-91717200I87500J0D01*
G01*
X129102100Y-91717200D01*
G75*
G02*
X129189600Y-91804700I0J-87500D01*
G01*
X129189600Y-91979700D01*
G75*
G02*
X129102100Y-92067200I-87500J0D01*
G01*
X128252100Y-92067200D01*
G75*
G02*
X128164600Y-91979700I0J87500D01*
G01*
G37*
G36*
G01*
X128164600Y-91329700D02*
X128164600Y-91154700D01*
G75*
G02*
X128252100Y-91067200I87500J0D01*
G01*
X129102100Y-91067200D01*
G75*
G02*
X129189600Y-91154700I0J-87500D01*
G01*
X129189600Y-91329700D01*
G75*
G02*
X129102100Y-91417200I-87500J0D01*
G01*
X128252100Y-91417200D01*
G75*
G02*
X128164600Y-91329700I0J87500D01*
G01*
G37*
%TD*%
D10*
%TO.C,L2*%
X140527600Y-77896000D03*
X144677600Y-77896000D03*
%TD*%
D11*
%TO.C,BT1*%
X176057400Y-49219400D03*
X97397400Y-49219400D03*
%TD*%
%TO.C,D1*%
G36*
G01*
X102202500Y-94253750D02*
X102202500Y-95166250D01*
G75*
G02*
X101958750Y-95410000I-243750J0D01*
G01*
X101471250Y-95410000D01*
G75*
G02*
X101227500Y-95166250I0J243750D01*
G01*
X101227500Y-94253750D01*
G75*
G02*
X101471250Y-94010000I243750J0D01*
G01*
X101958750Y-94010000D01*
G75*
G02*
X102202500Y-94253750I0J-243750D01*
G01*
G37*
G36*
G01*
X104077500Y-94253750D02*
X104077500Y-95166250D01*
G75*
G02*
X103833750Y-95410000I-243750J0D01*
G01*
X103346250Y-95410000D01*
G75*
G02*
X103102500Y-95166250I0J243750D01*
G01*
X103102500Y-94253750D01*
G75*
G02*
X103346250Y-94010000I243750J0D01*
G01*
X103833750Y-94010000D01*
G75*
G02*
X104077500Y-94253750I0J-243750D01*
G01*
G37*
%TD*%
%TO.C,D2*%
G36*
G01*
X104052500Y-98153750D02*
X104052500Y-99066250D01*
G75*
G02*
X103808750Y-99310000I-243750J0D01*
G01*
X103321250Y-99310000D01*
G75*
G02*
X103077500Y-99066250I0J243750D01*
G01*
X103077500Y-98153750D01*
G75*
G02*
X103321250Y-97910000I243750J0D01*
G01*
X103808750Y-97910000D01*
G75*
G02*
X104052500Y-98153750I0J-243750D01*
G01*
G37*
G36*
G01*
X102177500Y-98153750D02*
X102177500Y-99066250D01*
G75*
G02*
X101933750Y-99310000I-243750J0D01*
G01*
X101446250Y-99310000D01*
G75*
G02*
X101202500Y-99066250I0J243750D01*
G01*
X101202500Y-98153750D01*
G75*
G02*
X101446250Y-97910000I243750J0D01*
G01*
X101933750Y-97910000D01*
G75*
G02*
X102177500Y-98153750I0J-243750D01*
G01*
G37*
%TD*%
D12*
%TO.C,D3*%
X113826000Y-69514000D03*
X111826000Y-70464000D03*
X111826000Y-68564000D03*
%TD*%
%TO.C,D4*%
X134390000Y-79410000D03*
X134390000Y-77510000D03*
X132390000Y-78460000D03*
%TD*%
D13*
%TO.C,D5*%
X164840000Y-81260000D03*
X160840000Y-81260000D03*
%TD*%
D14*
%TO.C,D6*%
X152490000Y-75560000D03*
X149190000Y-75560000D03*
%TD*%
D13*
%TO.C,D7*%
X161640000Y-68910000D03*
X165640000Y-68910000D03*
%TD*%
%TO.C,D8*%
X165640000Y-63860000D03*
X161640000Y-63860000D03*
%TD*%
D15*
%TO.C,L1*%
X130000000Y-69020000D03*
X120300000Y-69020000D03*
%TD*%
D16*
%TO.C,L3*%
X171290000Y-77160000D03*
X171290000Y-81310000D03*
%TD*%
%TO.C,R19*%
G36*
G01*
X122665000Y-79562400D02*
X122665000Y-78312400D01*
G75*
G02*
X122915000Y-78062400I250000J0D01*
G01*
X123715000Y-78062400D01*
G75*
G02*
X123965000Y-78312400I0J-250000D01*
G01*
X123965000Y-79562400D01*
G75*
G02*
X123715000Y-79812400I-250000J0D01*
G01*
X122915000Y-79812400D01*
G75*
G02*
X122665000Y-79562400I0J250000D01*
G01*
G37*
G36*
G01*
X125765000Y-79562400D02*
X125765000Y-78312400D01*
G75*
G02*
X126015000Y-78062400I250000J0D01*
G01*
X126815000Y-78062400D01*
G75*
G02*
X127065000Y-78312400I0J-250000D01*
G01*
X127065000Y-79562400D01*
G75*
G02*
X126815000Y-79812400I-250000J0D01*
G01*
X126015000Y-79812400D01*
G75*
G02*
X125765000Y-79562400I0J250000D01*
G01*
G37*
%TD*%
%TO.C,U1*%
G36*
G01*
X107605000Y-77965000D02*
X107605000Y-77765000D01*
G75*
G02*
X107705000Y-77665000I100000J0D01*
G01*
X108955000Y-77665000D01*
G75*
G02*
X109055000Y-77765000I0J-100000D01*
G01*
X109055000Y-77965000D01*
G75*
G02*
X108955000Y-78065000I-100000J0D01*
G01*
X107705000Y-78065000D01*
G75*
G02*
X107605000Y-77965000I0J100000D01*
G01*
G37*
G36*
G01*
X107605000Y-78615000D02*
X107605000Y-78415000D01*
G75*
G02*
X107705000Y-78315000I100000J0D01*
G01*
X108955000Y-78315000D01*
G75*
G02*
X109055000Y-78415000I0J-100000D01*
G01*
X109055000Y-78615000D01*
G75*
G02*
X108955000Y-78715000I-100000J0D01*
G01*
X107705000Y-78715000D01*
G75*
G02*
X107605000Y-78615000I0J100000D01*
G01*
G37*
G36*
G01*
X107605000Y-79265000D02*
X107605000Y-79065000D01*
G75*
G02*
X107705000Y-78965000I100000J0D01*
G01*
X108955000Y-78965000D01*
G75*
G02*
X109055000Y-79065000I0J-100000D01*
G01*
X109055000Y-79265000D01*
G75*
G02*
X108955000Y-79365000I-100000J0D01*
G01*
X107705000Y-79365000D01*
G75*
G02*
X107605000Y-79265000I0J100000D01*
G01*
G37*
G36*
G01*
X107605000Y-79915000D02*
X107605000Y-79715000D01*
G75*
G02*
X107705000Y-79615000I100000J0D01*
G01*
X108955000Y-79615000D01*
G75*
G02*
X109055000Y-79715000I0J-100000D01*
G01*
X109055000Y-79915000D01*
G75*
G02*
X108955000Y-80015000I-100000J0D01*
G01*
X107705000Y-80015000D01*
G75*
G02*
X107605000Y-79915000I0J100000D01*
G01*
G37*
G36*
G01*
X107605000Y-80565000D02*
X107605000Y-80365000D01*
G75*
G02*
X107705000Y-80265000I100000J0D01*
G01*
X108955000Y-80265000D01*
G75*
G02*
X109055000Y-80365000I0J-100000D01*
G01*
X109055000Y-80565000D01*
G75*
G02*
X108955000Y-80665000I-100000J0D01*
G01*
X107705000Y-80665000D01*
G75*
G02*
X107605000Y-80565000I0J100000D01*
G01*
G37*
G36*
G01*
X107605000Y-81215000D02*
X107605000Y-81015000D01*
G75*
G02*
X107705000Y-80915000I100000J0D01*
G01*
X108955000Y-80915000D01*
G75*
G02*
X109055000Y-81015000I0J-100000D01*
G01*
X109055000Y-81215000D01*
G75*
G02*
X108955000Y-81315000I-100000J0D01*
G01*
X107705000Y-81315000D01*
G75*
G02*
X107605000Y-81215000I0J100000D01*
G01*
G37*
G36*
G01*
X111905000Y-81215000D02*
X111905000Y-81015000D01*
G75*
G02*
X112005000Y-80915000I100000J0D01*
G01*
X113255000Y-80915000D01*
G75*
G02*
X113355000Y-81015000I0J-100000D01*
G01*
X113355000Y-81215000D01*
G75*
G02*
X113255000Y-81315000I-100000J0D01*
G01*
X112005000Y-81315000D01*
G75*
G02*
X111905000Y-81215000I0J100000D01*
G01*
G37*
G36*
G01*
X111905000Y-80565000D02*
X111905000Y-80365000D01*
G75*
G02*
X112005000Y-80265000I100000J0D01*
G01*
X113255000Y-80265000D01*
G75*
G02*
X113355000Y-80365000I0J-100000D01*
G01*
X113355000Y-80565000D01*
G75*
G02*
X113255000Y-80665000I-100000J0D01*
G01*
X112005000Y-80665000D01*
G75*
G02*
X111905000Y-80565000I0J100000D01*
G01*
G37*
G36*
G01*
X111905000Y-79915000D02*
X111905000Y-79715000D01*
G75*
G02*
X112005000Y-79615000I100000J0D01*
G01*
X113255000Y-79615000D01*
G75*
G02*
X113355000Y-79715000I0J-100000D01*
G01*
X113355000Y-79915000D01*
G75*
G02*
X113255000Y-80015000I-100000J0D01*
G01*
X112005000Y-80015000D01*
G75*
G02*
X111905000Y-79915000I0J100000D01*
G01*
G37*
G36*
G01*
X111905000Y-79265000D02*
X111905000Y-79065000D01*
G75*
G02*
X112005000Y-78965000I100000J0D01*
G01*
X113255000Y-78965000D01*
G75*
G02*
X113355000Y-79065000I0J-100000D01*
G01*
X113355000Y-79265000D01*
G75*
G02*
X113255000Y-79365000I-100000J0D01*
G01*
X112005000Y-79365000D01*
G75*
G02*
X111905000Y-79265000I0J100000D01*
G01*
G37*
G36*
G01*
X111905000Y-78615000D02*
X111905000Y-78415000D01*
G75*
G02*
X112005000Y-78315000I100000J0D01*
G01*
X113255000Y-78315000D01*
G75*
G02*
X113355000Y-78415000I0J-100000D01*
G01*
X113355000Y-78615000D01*
G75*
G02*
X113255000Y-78715000I-100000J0D01*
G01*
X112005000Y-78715000D01*
G75*
G02*
X111905000Y-78615000I0J100000D01*
G01*
G37*
G36*
G01*
X111905000Y-77965000D02*
X111905000Y-77765000D01*
G75*
G02*
X112005000Y-77665000I100000J0D01*
G01*
X113255000Y-77665000D01*
G75*
G02*
X113355000Y-77765000I0J-100000D01*
G01*
X113355000Y-77965000D01*
G75*
G02*
X113255000Y-78065000I-100000J0D01*
G01*
X112005000Y-78065000D01*
G75*
G02*
X111905000Y-77965000I0J100000D01*
G01*
G37*
G36*
G01*
X109735000Y-79187500D02*
X109735000Y-78372500D01*
G75*
G02*
X109902500Y-78205000I167500J0D01*
G01*
X110237500Y-78205000D01*
G75*
G02*
X110405000Y-78372500I0J-167500D01*
G01*
X110405000Y-79187500D01*
G75*
G02*
X110237500Y-79355000I-167500J0D01*
G01*
X109902500Y-79355000D01*
G75*
G02*
X109735000Y-79187500I0J167500D01*
G01*
G37*
G36*
G01*
X109735000Y-80607500D02*
X109735000Y-79792500D01*
G75*
G02*
X109902500Y-79625000I167500J0D01*
G01*
X110237500Y-79625000D01*
G75*
G02*
X110405000Y-79792500I0J-167500D01*
G01*
X110405000Y-80607500D01*
G75*
G02*
X110237500Y-80775000I-167500J0D01*
G01*
X109902500Y-80775000D01*
G75*
G02*
X109735000Y-80607500I0J167500D01*
G01*
G37*
G36*
G01*
X110555000Y-79187500D02*
X110555000Y-78372500D01*
G75*
G02*
X110722500Y-78205000I167500J0D01*
G01*
X111057500Y-78205000D01*
G75*
G02*
X111225000Y-78372500I0J-167500D01*
G01*
X111225000Y-79187500D01*
G75*
G02*
X111057500Y-79355000I-167500J0D01*
G01*
X110722500Y-79355000D01*
G75*
G02*
X110555000Y-79187500I0J167500D01*
G01*
G37*
G36*
G01*
X110555000Y-80607500D02*
X110555000Y-79792500D01*
G75*
G02*
X110722500Y-79625000I167500J0D01*
G01*
X111057500Y-79625000D01*
G75*
G02*
X111225000Y-79792500I0J-167500D01*
G01*
X111225000Y-80607500D01*
G75*
G02*
X111057500Y-80775000I-167500J0D01*
G01*
X110722500Y-80775000D01*
G75*
G02*
X110555000Y-80607500I0J167500D01*
G01*
G37*
%TD*%
%TO.C,U3*%
G36*
G01*
X156990000Y-89005000D02*
X156990000Y-88705000D01*
G75*
G02*
X157140000Y-88555000I150000J0D01*
G01*
X158790000Y-88555000D01*
G75*
G02*
X158940000Y-88705000I0J-150000D01*
G01*
X158940000Y-89005000D01*
G75*
G02*
X158790000Y-89155000I-150000J0D01*
G01*
X157140000Y-89155000D01*
G75*
G02*
X156990000Y-89005000I0J150000D01*
G01*
G37*
G36*
G01*
X156990000Y-90275000D02*
X156990000Y-89975000D01*
G75*
G02*
X157140000Y-89825000I150000J0D01*
G01*
X158790000Y-89825000D01*
G75*
G02*
X158940000Y-89975000I0J-150000D01*
G01*
X158940000Y-90275000D01*
G75*
G02*
X158790000Y-90425000I-150000J0D01*
G01*
X157140000Y-90425000D01*
G75*
G02*
X156990000Y-90275000I0J150000D01*
G01*
G37*
G36*
G01*
X156990000Y-91545000D02*
X156990000Y-91245000D01*
G75*
G02*
X157140000Y-91095000I150000J0D01*
G01*
X158790000Y-91095000D01*
G75*
G02*
X158940000Y-91245000I0J-150000D01*
G01*
X158940000Y-91545000D01*
G75*
G02*
X158790000Y-91695000I-150000J0D01*
G01*
X157140000Y-91695000D01*
G75*
G02*
X156990000Y-91545000I0J150000D01*
G01*
G37*
G36*
G01*
X156990000Y-92815000D02*
X156990000Y-92515000D01*
G75*
G02*
X157140000Y-92365000I150000J0D01*
G01*
X158790000Y-92365000D01*
G75*
G02*
X158940000Y-92515000I0J-150000D01*
G01*
X158940000Y-92815000D01*
G75*
G02*
X158790000Y-92965000I-150000J0D01*
G01*
X157140000Y-92965000D01*
G75*
G02*
X156990000Y-92815000I0J150000D01*
G01*
G37*
G36*
G01*
X161940000Y-92815000D02*
X161940000Y-92515000D01*
G75*
G02*
X162090000Y-92365000I150000J0D01*
G01*
X163740000Y-92365000D01*
G75*
G02*
X163890000Y-92515000I0J-150000D01*
G01*
X163890000Y-92815000D01*
G75*
G02*
X163740000Y-92965000I-150000J0D01*
G01*
X162090000Y-92965000D01*
G75*
G02*
X161940000Y-92815000I0J150000D01*
G01*
G37*
G36*
G01*
X161940000Y-91545000D02*
X161940000Y-91245000D01*
G75*
G02*
X162090000Y-91095000I150000J0D01*
G01*
X163740000Y-91095000D01*
G75*
G02*
X163890000Y-91245000I0J-150000D01*
G01*
X163890000Y-91545000D01*
G75*
G02*
X163740000Y-91695000I-150000J0D01*
G01*
X162090000Y-91695000D01*
G75*
G02*
X161940000Y-91545000I0J150000D01*
G01*
G37*
G36*
G01*
X161940000Y-90275000D02*
X161940000Y-89975000D01*
G75*
G02*
X162090000Y-89825000I150000J0D01*
G01*
X163740000Y-89825000D01*
G75*
G02*
X163890000Y-89975000I0J-150000D01*
G01*
X163890000Y-90275000D01*
G75*
G02*
X163740000Y-90425000I-150000J0D01*
G01*
X162090000Y-90425000D01*
G75*
G02*
X161940000Y-90275000I0J150000D01*
G01*
G37*
G36*
G01*
X161940000Y-89005000D02*
X161940000Y-88705000D01*
G75*
G02*
X162090000Y-88555000I150000J0D01*
G01*
X163740000Y-88555000D01*
G75*
G02*
X163890000Y-88705000I0J-150000D01*
G01*
X163890000Y-89005000D01*
G75*
G02*
X163740000Y-89155000I-150000J0D01*
G01*
X162090000Y-89155000D01*
G75*
G02*
X161940000Y-89005000I0J150000D01*
G01*
G37*
%TD*%
D17*
%TO.C,U4*%
X146217200Y-71850800D03*
X146217200Y-70900800D03*
X146217200Y-69950800D03*
X144017200Y-69950800D03*
X144017200Y-71850800D03*
%TD*%
%TO.C,C1*%
G36*
G01*
X108765000Y-73284999D02*
X108765000Y-75485001D01*
G75*
G02*
X108515001Y-75735000I-249999J0D01*
G01*
X107864999Y-75735000D01*
G75*
G02*
X107615000Y-75485001I0J249999D01*
G01*
X107615000Y-73284999D01*
G75*
G02*
X107864999Y-73035000I249999J0D01*
G01*
X108515001Y-73035000D01*
G75*
G02*
X108765000Y-73284999I0J-249999D01*
G01*
G37*
G36*
G01*
X105815000Y-73284999D02*
X105815000Y-75485001D01*
G75*
G02*
X105565001Y-75735000I-249999J0D01*
G01*
X104914999Y-75735000D01*
G75*
G02*
X104665000Y-75485001I0J249999D01*
G01*
X104665000Y-73284999D01*
G75*
G02*
X104914999Y-73035000I249999J0D01*
G01*
X105565001Y-73035000D01*
G75*
G02*
X105815000Y-73284999I0J-249999D01*
G01*
G37*
%TD*%
%TO.C,C2*%
G36*
G01*
X106840000Y-85335000D02*
X106840000Y-86285000D01*
G75*
G02*
X106590000Y-86535000I-250000J0D01*
G01*
X106090000Y-86535000D01*
G75*
G02*
X105840000Y-86285000I0J250000D01*
G01*
X105840000Y-85335000D01*
G75*
G02*
X106090000Y-85085000I250000J0D01*
G01*
X106590000Y-85085000D01*
G75*
G02*
X106840000Y-85335000I0J-250000D01*
G01*
G37*
G36*
G01*
X108740000Y-85335000D02*
X108740000Y-86285000D01*
G75*
G02*
X108490000Y-86535000I-250000J0D01*
G01*
X107990000Y-86535000D01*
G75*
G02*
X107740000Y-86285000I0J250000D01*
G01*
X107740000Y-85335000D01*
G75*
G02*
X107990000Y-85085000I250000J0D01*
G01*
X108490000Y-85085000D01*
G75*
G02*
X108740000Y-85335000I0J-250000D01*
G01*
G37*
%TD*%
%TO.C,C8*%
G36*
G01*
X114502500Y-76485000D02*
X114502500Y-75535000D01*
G75*
G02*
X114752500Y-75285000I250000J0D01*
G01*
X115252500Y-75285000D01*
G75*
G02*
X115502500Y-75535000I0J-250000D01*
G01*
X115502500Y-76485000D01*
G75*
G02*
X115252500Y-76735000I-250000J0D01*
G01*
X114752500Y-76735000D01*
G75*
G02*
X114502500Y-76485000I0J250000D01*
G01*
G37*
G36*
G01*
X116402500Y-76485000D02*
X116402500Y-75535000D01*
G75*
G02*
X116652500Y-75285000I250000J0D01*
G01*
X117152500Y-75285000D01*
G75*
G02*
X117402500Y-75535000I0J-250000D01*
G01*
X117402500Y-76485000D01*
G75*
G02*
X117152500Y-76735000I-250000J0D01*
G01*
X116652500Y-76735000D01*
G75*
G02*
X116402500Y-76485000I0J250000D01*
G01*
G37*
%TD*%
%TO.C,R6*%
G36*
G01*
X98190000Y-76559999D02*
X98190000Y-77460001D01*
G75*
G02*
X97940001Y-77710000I-249999J0D01*
G01*
X97414999Y-77710000D01*
G75*
G02*
X97165000Y-77460001I0J249999D01*
G01*
X97165000Y-76559999D01*
G75*
G02*
X97414999Y-76310000I249999J0D01*
G01*
X97940001Y-76310000D01*
G75*
G02*
X98190000Y-76559999I0J-249999D01*
G01*
G37*
G36*
G01*
X100015000Y-76559999D02*
X100015000Y-77460001D01*
G75*
G02*
X99765001Y-77710000I-249999J0D01*
G01*
X99239999Y-77710000D01*
G75*
G02*
X98990000Y-77460001I0J249999D01*
G01*
X98990000Y-76559999D01*
G75*
G02*
X99239999Y-76310000I249999J0D01*
G01*
X99765001Y-76310000D01*
G75*
G02*
X100015000Y-76559999I0J-249999D01*
G01*
G37*
%TD*%
%TO.C,R13*%
G36*
G01*
X118279801Y-86133900D02*
X117379799Y-86133900D01*
G75*
G02*
X117129800Y-85883901I0J249999D01*
G01*
X117129800Y-85358899D01*
G75*
G02*
X117379799Y-85108900I249999J0D01*
G01*
X118279801Y-85108900D01*
G75*
G02*
X118529800Y-85358899I0J-249999D01*
G01*
X118529800Y-85883901D01*
G75*
G02*
X118279801Y-86133900I-249999J0D01*
G01*
G37*
G36*
G01*
X118279801Y-87958900D02*
X117379799Y-87958900D01*
G75*
G02*
X117129800Y-87708901I0J249999D01*
G01*
X117129800Y-87183899D01*
G75*
G02*
X117379799Y-86933900I249999J0D01*
G01*
X118279801Y-86933900D01*
G75*
G02*
X118529800Y-87183899I0J-249999D01*
G01*
X118529800Y-87708901D01*
G75*
G02*
X118279801Y-87958900I-249999J0D01*
G01*
G37*
%TD*%
%TO.C,R14*%
G36*
G01*
X120889999Y-81715000D02*
X121790001Y-81715000D01*
G75*
G02*
X122040000Y-81964999I0J-249999D01*
G01*
X122040000Y-82490001D01*
G75*
G02*
X121790001Y-82740000I-249999J0D01*
G01*
X120889999Y-82740000D01*
G75*
G02*
X120640000Y-82490001I0J249999D01*
G01*
X120640000Y-81964999D01*
G75*
G02*
X120889999Y-81715000I249999J0D01*
G01*
G37*
G36*
G01*
X120889999Y-83540000D02*
X121790001Y-83540000D01*
G75*
G02*
X122040000Y-83789999I0J-249999D01*
G01*
X122040000Y-84315001D01*
G75*
G02*
X121790001Y-84565000I-249999J0D01*
G01*
X120889999Y-84565000D01*
G75*
G02*
X120640000Y-84315001I0J249999D01*
G01*
X120640000Y-83789999D01*
G75*
G02*
X120889999Y-83540000I249999J0D01*
G01*
G37*
%TD*%
%TO.C,R15*%
G36*
G01*
X120884999Y-86933900D02*
X121785001Y-86933900D01*
G75*
G02*
X122035000Y-87183899I0J-249999D01*
G01*
X122035000Y-87708901D01*
G75*
G02*
X121785001Y-87958900I-249999J0D01*
G01*
X120884999Y-87958900D01*
G75*
G02*
X120635000Y-87708901I0J249999D01*
G01*
X120635000Y-87183899D01*
G75*
G02*
X120884999Y-86933900I249999J0D01*
G01*
G37*
G36*
G01*
X120884999Y-88758900D02*
X121785001Y-88758900D01*
G75*
G02*
X122035000Y-89008899I0J-249999D01*
G01*
X122035000Y-89533901D01*
G75*
G02*
X121785001Y-89783900I-249999J0D01*
G01*
X120884999Y-89783900D01*
G75*
G02*
X120635000Y-89533901I0J249999D01*
G01*
X120635000Y-89008899D01*
G75*
G02*
X120884999Y-88758900I249999J0D01*
G01*
G37*
%TD*%
%TO.C,C3*%
G36*
G01*
X171902500Y-72460000D02*
X171902500Y-72960000D01*
G75*
G02*
X171677500Y-73185000I-225000J0D01*
G01*
X171227500Y-73185000D01*
G75*
G02*
X171002500Y-72960000I0J225000D01*
G01*
X171002500Y-72460000D01*
G75*
G02*
X171227500Y-72235000I225000J0D01*
G01*
X171677500Y-72235000D01*
G75*
G02*
X171902500Y-72460000I0J-225000D01*
G01*
G37*
G36*
G01*
X170352500Y-72460000D02*
X170352500Y-72960000D01*
G75*
G02*
X170127500Y-73185000I-225000J0D01*
G01*
X169677500Y-73185000D01*
G75*
G02*
X169452500Y-72960000I0J225000D01*
G01*
X169452500Y-72460000D01*
G75*
G02*
X169677500Y-72235000I225000J0D01*
G01*
X170127500Y-72235000D01*
G75*
G02*
X170352500Y-72460000I0J-225000D01*
G01*
G37*
%TD*%
%TO.C,C4*%
G36*
G01*
X138328300Y-90761400D02*
X138328300Y-91261400D01*
G75*
G02*
X138103300Y-91486400I-225000J0D01*
G01*
X137653300Y-91486400D01*
G75*
G02*
X137428300Y-91261400I0J225000D01*
G01*
X137428300Y-90761400D01*
G75*
G02*
X137653300Y-90536400I225000J0D01*
G01*
X138103300Y-90536400D01*
G75*
G02*
X138328300Y-90761400I0J-225000D01*
G01*
G37*
G36*
G01*
X139878300Y-90761400D02*
X139878300Y-91261400D01*
G75*
G02*
X139653300Y-91486400I-225000J0D01*
G01*
X139203300Y-91486400D01*
G75*
G02*
X138978300Y-91261400I0J225000D01*
G01*
X138978300Y-90761400D01*
G75*
G02*
X139203300Y-90536400I225000J0D01*
G01*
X139653300Y-90536400D01*
G75*
G02*
X139878300Y-90761400I0J-225000D01*
G01*
G37*
%TD*%
%TO.C,C5*%
G36*
G01*
X125149000Y-90959400D02*
X125649000Y-90959400D01*
G75*
G02*
X125874000Y-91184400I0J-225000D01*
G01*
X125874000Y-91634400D01*
G75*
G02*
X125649000Y-91859400I-225000J0D01*
G01*
X125149000Y-91859400D01*
G75*
G02*
X124924000Y-91634400I0J225000D01*
G01*
X124924000Y-91184400D01*
G75*
G02*
X125149000Y-90959400I225000J0D01*
G01*
G37*
G36*
G01*
X125149000Y-89409400D02*
X125649000Y-89409400D01*
G75*
G02*
X125874000Y-89634400I0J-225000D01*
G01*
X125874000Y-90084400D01*
G75*
G02*
X125649000Y-90309400I-225000J0D01*
G01*
X125149000Y-90309400D01*
G75*
G02*
X124924000Y-90084400I0J225000D01*
G01*
X124924000Y-89634400D01*
G75*
G02*
X125149000Y-89409400I225000J0D01*
G01*
G37*
%TD*%
%TO.C,C6*%
G36*
G01*
X151040001Y-83722500D02*
X148839999Y-83722500D01*
G75*
G02*
X148590000Y-83472501I0J249999D01*
G01*
X148590000Y-82822499D01*
G75*
G02*
X148839999Y-82572500I249999J0D01*
G01*
X151040001Y-82572500D01*
G75*
G02*
X151290000Y-82822499I0J-249999D01*
G01*
X151290000Y-83472501D01*
G75*
G02*
X151040001Y-83722500I-249999J0D01*
G01*
G37*
G36*
G01*
X151040001Y-80772500D02*
X148839999Y-80772500D01*
G75*
G02*
X148590000Y-80522501I0J249999D01*
G01*
X148590000Y-79872499D01*
G75*
G02*
X148839999Y-79622500I249999J0D01*
G01*
X151040001Y-79622500D01*
G75*
G02*
X151290000Y-79872499I0J-249999D01*
G01*
X151290000Y-80522501D01*
G75*
G02*
X151040001Y-80772500I-249999J0D01*
G01*
G37*
%TD*%
%TO.C,C7*%
G36*
G01*
X155690001Y-83722500D02*
X153489999Y-83722500D01*
G75*
G02*
X153240000Y-83472501I0J249999D01*
G01*
X153240000Y-82822499D01*
G75*
G02*
X153489999Y-82572500I249999J0D01*
G01*
X155690001Y-82572500D01*
G75*
G02*
X155940000Y-82822499I0J-249999D01*
G01*
X155940000Y-83472501D01*
G75*
G02*
X155690001Y-83722500I-249999J0D01*
G01*
G37*
G36*
G01*
X155690001Y-80772500D02*
X153489999Y-80772500D01*
G75*
G02*
X153240000Y-80522501I0J249999D01*
G01*
X153240000Y-79872499D01*
G75*
G02*
X153489999Y-79622500I249999J0D01*
G01*
X155690001Y-79622500D01*
G75*
G02*
X155940000Y-79872499I0J-249999D01*
G01*
X155940000Y-80522501D01*
G75*
G02*
X155690001Y-80772500I-249999J0D01*
G01*
G37*
%TD*%
%TO.C,C9*%
G36*
G01*
X154196440Y-86168360D02*
X154696440Y-86168360D01*
G75*
G02*
X154921440Y-86393360I0J-225000D01*
G01*
X154921440Y-86843360D01*
G75*
G02*
X154696440Y-87068360I-225000J0D01*
G01*
X154196440Y-87068360D01*
G75*
G02*
X153971440Y-86843360I0J225000D01*
G01*
X153971440Y-86393360D01*
G75*
G02*
X154196440Y-86168360I225000J0D01*
G01*
G37*
G36*
G01*
X154196440Y-87718360D02*
X154696440Y-87718360D01*
G75*
G02*
X154921440Y-87943360I0J-225000D01*
G01*
X154921440Y-88393360D01*
G75*
G02*
X154696440Y-88618360I-225000J0D01*
G01*
X154196440Y-88618360D01*
G75*
G02*
X153971440Y-88393360I0J225000D01*
G01*
X153971440Y-87943360D01*
G75*
G02*
X154196440Y-87718360I225000J0D01*
G01*
G37*
%TD*%
%TO.C,C10*%
G36*
G01*
X130189999Y-86472500D02*
X132390001Y-86472500D01*
G75*
G02*
X132640000Y-86722499I0J-249999D01*
G01*
X132640000Y-87372501D01*
G75*
G02*
X132390001Y-87622500I-249999J0D01*
G01*
X130189999Y-87622500D01*
G75*
G02*
X129940000Y-87372501I0J249999D01*
G01*
X129940000Y-86722499D01*
G75*
G02*
X130189999Y-86472500I249999J0D01*
G01*
G37*
G36*
G01*
X130189999Y-83522500D02*
X132390001Y-83522500D01*
G75*
G02*
X132640000Y-83772499I0J-249999D01*
G01*
X132640000Y-84422501D01*
G75*
G02*
X132390001Y-84672500I-249999J0D01*
G01*
X130189999Y-84672500D01*
G75*
G02*
X129940000Y-84422501I0J249999D01*
G01*
X129940000Y-83772499D01*
G75*
G02*
X130189999Y-83522500I249999J0D01*
G01*
G37*
%TD*%
%TO.C,C11*%
G36*
G01*
X170065320Y-92728520D02*
X170065320Y-93228520D01*
G75*
G02*
X169840320Y-93453520I-225000J0D01*
G01*
X169390320Y-93453520D01*
G75*
G02*
X169165320Y-93228520I0J225000D01*
G01*
X169165320Y-92728520D01*
G75*
G02*
X169390320Y-92503520I225000J0D01*
G01*
X169840320Y-92503520D01*
G75*
G02*
X170065320Y-92728520I0J-225000D01*
G01*
G37*
G36*
G01*
X168515320Y-92728520D02*
X168515320Y-93228520D01*
G75*
G02*
X168290320Y-93453520I-225000J0D01*
G01*
X167840320Y-93453520D01*
G75*
G02*
X167615320Y-93228520I0J225000D01*
G01*
X167615320Y-92728520D01*
G75*
G02*
X167840320Y-92503520I225000J0D01*
G01*
X168290320Y-92503520D01*
G75*
G02*
X168515320Y-92728520I0J-225000D01*
G01*
G37*
%TD*%
%TO.C,C12*%
G36*
G01*
X125329999Y-86472500D02*
X127530001Y-86472500D01*
G75*
G02*
X127780000Y-86722499I0J-249999D01*
G01*
X127780000Y-87372501D01*
G75*
G02*
X127530001Y-87622500I-249999J0D01*
G01*
X125329999Y-87622500D01*
G75*
G02*
X125080000Y-87372501I0J249999D01*
G01*
X125080000Y-86722499D01*
G75*
G02*
X125329999Y-86472500I249999J0D01*
G01*
G37*
G36*
G01*
X125329999Y-83522500D02*
X127530001Y-83522500D01*
G75*
G02*
X127780000Y-83772499I0J-249999D01*
G01*
X127780000Y-84422501D01*
G75*
G02*
X127530001Y-84672500I-249999J0D01*
G01*
X125329999Y-84672500D01*
G75*
G02*
X125080000Y-84422501I0J249999D01*
G01*
X125080000Y-83772499D01*
G75*
G02*
X125329999Y-83522500I249999J0D01*
G01*
G37*
%TD*%
%TO.C,C13*%
G36*
G01*
X125123600Y-94109000D02*
X125623600Y-94109000D01*
G75*
G02*
X125848600Y-94334000I0J-225000D01*
G01*
X125848600Y-94784000D01*
G75*
G02*
X125623600Y-95009000I-225000J0D01*
G01*
X125123600Y-95009000D01*
G75*
G02*
X124898600Y-94784000I0J225000D01*
G01*
X124898600Y-94334000D01*
G75*
G02*
X125123600Y-94109000I225000J0D01*
G01*
G37*
G36*
G01*
X125123600Y-92559000D02*
X125623600Y-92559000D01*
G75*
G02*
X125848600Y-92784000I0J-225000D01*
G01*
X125848600Y-93234000D01*
G75*
G02*
X125623600Y-93459000I-225000J0D01*
G01*
X125123600Y-93459000D01*
G75*
G02*
X124898600Y-93234000I0J225000D01*
G01*
X124898600Y-92784000D01*
G75*
G02*
X125123600Y-92559000I225000J0D01*
G01*
G37*
%TD*%
%TO.C,C14*%
G36*
G01*
X168315920Y-89018480D02*
X167815920Y-89018480D01*
G75*
G02*
X167590920Y-88793480I0J225000D01*
G01*
X167590920Y-88343480D01*
G75*
G02*
X167815920Y-88118480I225000J0D01*
G01*
X168315920Y-88118480D01*
G75*
G02*
X168540920Y-88343480I0J-225000D01*
G01*
X168540920Y-88793480D01*
G75*
G02*
X168315920Y-89018480I-225000J0D01*
G01*
G37*
G36*
G01*
X168315920Y-90568480D02*
X167815920Y-90568480D01*
G75*
G02*
X167590920Y-90343480I0J225000D01*
G01*
X167590920Y-89893480D01*
G75*
G02*
X167815920Y-89668480I225000J0D01*
G01*
X168315920Y-89668480D01*
G75*
G02*
X168540920Y-89893480I0J-225000D01*
G01*
X168540920Y-90343480D01*
G75*
G02*
X168315920Y-90568480I-225000J0D01*
G01*
G37*
%TD*%
%TO.C,C15*%
G36*
G01*
X155742920Y-95317680D02*
X155242920Y-95317680D01*
G75*
G02*
X155017920Y-95092680I0J225000D01*
G01*
X155017920Y-94642680D01*
G75*
G02*
X155242920Y-94417680I225000J0D01*
G01*
X155742920Y-94417680D01*
G75*
G02*
X155967920Y-94642680I0J-225000D01*
G01*
X155967920Y-95092680D01*
G75*
G02*
X155742920Y-95317680I-225000J0D01*
G01*
G37*
G36*
G01*
X155742920Y-96867680D02*
X155242920Y-96867680D01*
G75*
G02*
X155017920Y-96642680I0J225000D01*
G01*
X155017920Y-96192680D01*
G75*
G02*
X155242920Y-95967680I225000J0D01*
G01*
X155742920Y-95967680D01*
G75*
G02*
X155967920Y-96192680I0J-225000D01*
G01*
X155967920Y-96642680D01*
G75*
G02*
X155742920Y-96867680I-225000J0D01*
G01*
G37*
%TD*%
%TO.C,C16*%
G36*
G01*
X140265801Y-69960200D02*
X138065799Y-69960200D01*
G75*
G02*
X137815800Y-69710201I0J249999D01*
G01*
X137815800Y-69060199D01*
G75*
G02*
X138065799Y-68810200I249999J0D01*
G01*
X140265801Y-68810200D01*
G75*
G02*
X140515800Y-69060199I0J-249999D01*
G01*
X140515800Y-69710201D01*
G75*
G02*
X140265801Y-69960200I-249999J0D01*
G01*
G37*
G36*
G01*
X140265801Y-72910200D02*
X138065799Y-72910200D01*
G75*
G02*
X137815800Y-72660201I0J249999D01*
G01*
X137815800Y-72010199D01*
G75*
G02*
X138065799Y-71760200I249999J0D01*
G01*
X140265801Y-71760200D01*
G75*
G02*
X140515800Y-72010199I0J-249999D01*
G01*
X140515800Y-72660201D01*
G75*
G02*
X140265801Y-72910200I-249999J0D01*
G01*
G37*
%TD*%
%TO.C,C17*%
G36*
G01*
X159077880Y-85387920D02*
X159077880Y-85887920D01*
G75*
G02*
X158852880Y-86112920I-225000J0D01*
G01*
X158402880Y-86112920D01*
G75*
G02*
X158177880Y-85887920I0J225000D01*
G01*
X158177880Y-85387920D01*
G75*
G02*
X158402880Y-85162920I225000J0D01*
G01*
X158852880Y-85162920D01*
G75*
G02*
X159077880Y-85387920I0J-225000D01*
G01*
G37*
G36*
G01*
X157527880Y-85387920D02*
X157527880Y-85887920D01*
G75*
G02*
X157302880Y-86112920I-225000J0D01*
G01*
X156852880Y-86112920D01*
G75*
G02*
X156627880Y-85887920I0J225000D01*
G01*
X156627880Y-85387920D01*
G75*
G02*
X156852880Y-85162920I225000J0D01*
G01*
X157302880Y-85162920D01*
G75*
G02*
X157527880Y-85387920I0J-225000D01*
G01*
G37*
%TD*%
%TO.C,C18*%
G36*
G01*
X163689999Y-72797500D02*
X164990001Y-72797500D01*
G75*
G02*
X165240000Y-73047499I0J-249999D01*
G01*
X165240000Y-73697501D01*
G75*
G02*
X164990001Y-73947500I-249999J0D01*
G01*
X163689999Y-73947500D01*
G75*
G02*
X163440000Y-73697501I0J249999D01*
G01*
X163440000Y-73047499D01*
G75*
G02*
X163689999Y-72797500I249999J0D01*
G01*
G37*
G36*
G01*
X163689999Y-75747500D02*
X164990001Y-75747500D01*
G75*
G02*
X165240000Y-75997499I0J-249999D01*
G01*
X165240000Y-76647501D01*
G75*
G02*
X164990001Y-76897500I-249999J0D01*
G01*
X163689999Y-76897500D01*
G75*
G02*
X163440000Y-76647501I0J249999D01*
G01*
X163440000Y-75997499D01*
G75*
G02*
X163689999Y-75747500I249999J0D01*
G01*
G37*
%TD*%
%TO.C,C19*%
G36*
G01*
X159489999Y-75710000D02*
X160790001Y-75710000D01*
G75*
G02*
X161040000Y-75959999I0J-249999D01*
G01*
X161040000Y-76610001D01*
G75*
G02*
X160790001Y-76860000I-249999J0D01*
G01*
X159489999Y-76860000D01*
G75*
G02*
X159240000Y-76610001I0J249999D01*
G01*
X159240000Y-75959999D01*
G75*
G02*
X159489999Y-75710000I249999J0D01*
G01*
G37*
G36*
G01*
X159489999Y-72760000D02*
X160790001Y-72760000D01*
G75*
G02*
X161040000Y-73009999I0J-249999D01*
G01*
X161040000Y-73660001D01*
G75*
G02*
X160790001Y-73910000I-249999J0D01*
G01*
X159489999Y-73910000D01*
G75*
G02*
X159240000Y-73660001I0J249999D01*
G01*
X159240000Y-73009999D01*
G75*
G02*
X159489999Y-72760000I249999J0D01*
G01*
G37*
%TD*%
%TO.C,C20*%
G36*
G01*
X150213200Y-67587600D02*
X150213200Y-68087600D01*
G75*
G02*
X149988200Y-68312600I-225000J0D01*
G01*
X149538200Y-68312600D01*
G75*
G02*
X149313200Y-68087600I0J225000D01*
G01*
X149313200Y-67587600D01*
G75*
G02*
X149538200Y-67362600I225000J0D01*
G01*
X149988200Y-67362600D01*
G75*
G02*
X150213200Y-67587600I0J-225000D01*
G01*
G37*
G36*
G01*
X148663200Y-67587600D02*
X148663200Y-68087600D01*
G75*
G02*
X148438200Y-68312600I-225000J0D01*
G01*
X147988200Y-68312600D01*
G75*
G02*
X147763200Y-68087600I0J225000D01*
G01*
X147763200Y-67587600D01*
G75*
G02*
X147988200Y-67362600I225000J0D01*
G01*
X148438200Y-67362600D01*
G75*
G02*
X148663200Y-67587600I0J-225000D01*
G01*
G37*
%TD*%
%TO.C,C21*%
G36*
G01*
X153052500Y-69809999D02*
X153052500Y-72010001D01*
G75*
G02*
X152802501Y-72260000I-249999J0D01*
G01*
X152152499Y-72260000D01*
G75*
G02*
X151902500Y-72010001I0J249999D01*
G01*
X151902500Y-69809999D01*
G75*
G02*
X152152499Y-69560000I249999J0D01*
G01*
X152802501Y-69560000D01*
G75*
G02*
X153052500Y-69809999I0J-249999D01*
G01*
G37*
G36*
G01*
X150102500Y-69809999D02*
X150102500Y-72010001D01*
G75*
G02*
X149852501Y-72260000I-249999J0D01*
G01*
X149202499Y-72260000D01*
G75*
G02*
X148952500Y-72010001I0J249999D01*
G01*
X148952500Y-69809999D01*
G75*
G02*
X149202499Y-69560000I249999J0D01*
G01*
X149852501Y-69560000D01*
G75*
G02*
X150102500Y-69809999I0J-249999D01*
G01*
G37*
%TD*%
%TO.C,C22*%
G36*
G01*
X151542200Y-64887200D02*
X151542200Y-64387200D01*
G75*
G02*
X151767200Y-64162200I225000J0D01*
G01*
X152217200Y-64162200D01*
G75*
G02*
X152442200Y-64387200I0J-225000D01*
G01*
X152442200Y-64887200D01*
G75*
G02*
X152217200Y-65112200I-225000J0D01*
G01*
X151767200Y-65112200D01*
G75*
G02*
X151542200Y-64887200I0J225000D01*
G01*
G37*
G36*
G01*
X153092200Y-64887200D02*
X153092200Y-64387200D01*
G75*
G02*
X153317200Y-64162200I225000J0D01*
G01*
X153767200Y-64162200D01*
G75*
G02*
X153992200Y-64387200I0J-225000D01*
G01*
X153992200Y-64887200D01*
G75*
G02*
X153767200Y-65112200I-225000J0D01*
G01*
X153317200Y-65112200D01*
G75*
G02*
X153092200Y-64887200I0J225000D01*
G01*
G37*
%TD*%
%TO.C,R1*%
G36*
G01*
X96515000Y-95160001D02*
X96515000Y-94259999D01*
G75*
G02*
X96764999Y-94010000I249999J0D01*
G01*
X97290001Y-94010000D01*
G75*
G02*
X97540000Y-94259999I0J-249999D01*
G01*
X97540000Y-95160001D01*
G75*
G02*
X97290001Y-95410000I-249999J0D01*
G01*
X96764999Y-95410000D01*
G75*
G02*
X96515000Y-95160001I0J249999D01*
G01*
G37*
G36*
G01*
X98340000Y-95160001D02*
X98340000Y-94259999D01*
G75*
G02*
X98589999Y-94010000I249999J0D01*
G01*
X99115001Y-94010000D01*
G75*
G02*
X99365000Y-94259999I0J-249999D01*
G01*
X99365000Y-95160001D01*
G75*
G02*
X99115001Y-95410000I-249999J0D01*
G01*
X98589999Y-95410000D01*
G75*
G02*
X98340000Y-95160001I0J249999D01*
G01*
G37*
%TD*%
%TO.C,R2*%
G36*
G01*
X96515000Y-99060001D02*
X96515000Y-98159999D01*
G75*
G02*
X96764999Y-97910000I249999J0D01*
G01*
X97290001Y-97910000D01*
G75*
G02*
X97540000Y-98159999I0J-249999D01*
G01*
X97540000Y-99060001D01*
G75*
G02*
X97290001Y-99310000I-249999J0D01*
G01*
X96764999Y-99310000D01*
G75*
G02*
X96515000Y-99060001I0J249999D01*
G01*
G37*
G36*
G01*
X98340000Y-99060001D02*
X98340000Y-98159999D01*
G75*
G02*
X98589999Y-97910000I249999J0D01*
G01*
X99115001Y-97910000D01*
G75*
G02*
X99365000Y-98159999I0J-249999D01*
G01*
X99365000Y-99060001D01*
G75*
G02*
X99115001Y-99310000I-249999J0D01*
G01*
X98589999Y-99310000D01*
G75*
G02*
X98340000Y-99060001I0J249999D01*
G01*
G37*
%TD*%
%TO.C,R3*%
G36*
G01*
X171390000Y-64485001D02*
X171390000Y-63234999D01*
G75*
G02*
X171639999Y-62985000I249999J0D01*
G01*
X172265001Y-62985000D01*
G75*
G02*
X172515000Y-63234999I0J-249999D01*
G01*
X172515000Y-64485001D01*
G75*
G02*
X172265001Y-64735000I-249999J0D01*
G01*
X171639999Y-64735000D01*
G75*
G02*
X171390000Y-64485001I0J249999D01*
G01*
G37*
G36*
G01*
X168465000Y-64485001D02*
X168465000Y-63234999D01*
G75*
G02*
X168714999Y-62985000I249999J0D01*
G01*
X169340001Y-62985000D01*
G75*
G02*
X169590000Y-63234999I0J-249999D01*
G01*
X169590000Y-64485001D01*
G75*
G02*
X169340001Y-64735000I-249999J0D01*
G01*
X168714999Y-64735000D01*
G75*
G02*
X168465000Y-64485001I0J249999D01*
G01*
G37*
%TD*%
%TO.C,R4*%
G36*
G01*
X136596700Y-84337601D02*
X136596700Y-83087599D01*
G75*
G02*
X136846699Y-82837600I249999J0D01*
G01*
X137471701Y-82837600D01*
G75*
G02*
X137721700Y-83087599I0J-249999D01*
G01*
X137721700Y-84337601D01*
G75*
G02*
X137471701Y-84587600I-249999J0D01*
G01*
X136846699Y-84587600D01*
G75*
G02*
X136596700Y-84337601I0J249999D01*
G01*
G37*
G36*
G01*
X139521700Y-84337601D02*
X139521700Y-83087599D01*
G75*
G02*
X139771699Y-82837600I249999J0D01*
G01*
X140396701Y-82837600D01*
G75*
G02*
X140646700Y-83087599I0J-249999D01*
G01*
X140646700Y-84337601D01*
G75*
G02*
X140396701Y-84587600I-249999J0D01*
G01*
X139771699Y-84587600D01*
G75*
G02*
X139521700Y-84337601I0J249999D01*
G01*
G37*
%TD*%
%TO.C,R5*%
G36*
G01*
X104690000Y-70410001D02*
X104690000Y-69159999D01*
G75*
G02*
X104939999Y-68910000I249999J0D01*
G01*
X105565001Y-68910000D01*
G75*
G02*
X105815000Y-69159999I0J-249999D01*
G01*
X105815000Y-70410001D01*
G75*
G02*
X105565001Y-70660000I-249999J0D01*
G01*
X104939999Y-70660000D01*
G75*
G02*
X104690000Y-70410001I0J249999D01*
G01*
G37*
G36*
G01*
X107615000Y-70410001D02*
X107615000Y-69159999D01*
G75*
G02*
X107864999Y-68910000I249999J0D01*
G01*
X108490001Y-68910000D01*
G75*
G02*
X108740000Y-69159999I0J-249999D01*
G01*
X108740000Y-70410001D01*
G75*
G02*
X108490001Y-70660000I-249999J0D01*
G01*
X107864999Y-70660000D01*
G75*
G02*
X107615000Y-70410001I0J249999D01*
G01*
G37*
%TD*%
%TO.C,R7*%
G36*
G01*
X169565000Y-68672500D02*
X169015000Y-68672500D01*
G75*
G02*
X168815000Y-68472500I0J200000D01*
G01*
X168815000Y-68072500D01*
G75*
G02*
X169015000Y-67872500I200000J0D01*
G01*
X169565000Y-67872500D01*
G75*
G02*
X169765000Y-68072500I0J-200000D01*
G01*
X169765000Y-68472500D01*
G75*
G02*
X169565000Y-68672500I-200000J0D01*
G01*
G37*
G36*
G01*
X169565000Y-70322500D02*
X169015000Y-70322500D01*
G75*
G02*
X168815000Y-70122500I0J200000D01*
G01*
X168815000Y-69722500D01*
G75*
G02*
X169015000Y-69522500I200000J0D01*
G01*
X169565000Y-69522500D01*
G75*
G02*
X169765000Y-69722500I0J-200000D01*
G01*
X169765000Y-70122500D01*
G75*
G02*
X169565000Y-70322500I-200000J0D01*
G01*
G37*
%TD*%
%TO.C,R8*%
G36*
G01*
X172415000Y-70322500D02*
X171865000Y-70322500D01*
G75*
G02*
X171665000Y-70122500I0J200000D01*
G01*
X171665000Y-69722500D01*
G75*
G02*
X171865000Y-69522500I200000J0D01*
G01*
X172415000Y-69522500D01*
G75*
G02*
X172615000Y-69722500I0J-200000D01*
G01*
X172615000Y-70122500D01*
G75*
G02*
X172415000Y-70322500I-200000J0D01*
G01*
G37*
G36*
G01*
X172415000Y-68672500D02*
X171865000Y-68672500D01*
G75*
G02*
X171665000Y-68472500I0J200000D01*
G01*
X171665000Y-68072500D01*
G75*
G02*
X171865000Y-67872500I200000J0D01*
G01*
X172415000Y-67872500D01*
G75*
G02*
X172615000Y-68072500I0J-200000D01*
G01*
X172615000Y-68472500D01*
G75*
G02*
X172415000Y-68672500I-200000J0D01*
G01*
G37*
%TD*%
%TO.C,R9*%
G36*
G01*
X137265800Y-87048900D02*
X136715800Y-87048900D01*
G75*
G02*
X136515800Y-86848900I0J200000D01*
G01*
X136515800Y-86448900D01*
G75*
G02*
X136715800Y-86248900I200000J0D01*
G01*
X137265800Y-86248900D01*
G75*
G02*
X137465800Y-86448900I0J-200000D01*
G01*
X137465800Y-86848900D01*
G75*
G02*
X137265800Y-87048900I-200000J0D01*
G01*
G37*
G36*
G01*
X137265800Y-88698900D02*
X136715800Y-88698900D01*
G75*
G02*
X136515800Y-88498900I0J200000D01*
G01*
X136515800Y-88098900D01*
G75*
G02*
X136715800Y-87898900I200000J0D01*
G01*
X137265800Y-87898900D01*
G75*
G02*
X137465800Y-88098900I0J-200000D01*
G01*
X137465800Y-88498900D01*
G75*
G02*
X137265800Y-88698900I-200000J0D01*
G01*
G37*
%TD*%
%TO.C,R10*%
G36*
G01*
X140615800Y-88698900D02*
X140065800Y-88698900D01*
G75*
G02*
X139865800Y-88498900I0J200000D01*
G01*
X139865800Y-88098900D01*
G75*
G02*
X140065800Y-87898900I200000J0D01*
G01*
X140615800Y-87898900D01*
G75*
G02*
X140815800Y-88098900I0J-200000D01*
G01*
X140815800Y-88498900D01*
G75*
G02*
X140615800Y-88698900I-200000J0D01*
G01*
G37*
G36*
G01*
X140615800Y-87048900D02*
X140065800Y-87048900D01*
G75*
G02*
X139865800Y-86848900I0J200000D01*
G01*
X139865800Y-86448900D01*
G75*
G02*
X140065800Y-86248900I200000J0D01*
G01*
X140615800Y-86248900D01*
G75*
G02*
X140815800Y-86448900I0J-200000D01*
G01*
X140815800Y-86848900D01*
G75*
G02*
X140615800Y-87048900I-200000J0D01*
G01*
G37*
%TD*%
%TO.C,R11*%
G36*
G01*
X104815000Y-65797500D02*
X105365000Y-65797500D01*
G75*
G02*
X105565000Y-65997500I0J-200000D01*
G01*
X105565000Y-66397500D01*
G75*
G02*
X105365000Y-66597500I-200000J0D01*
G01*
X104815000Y-66597500D01*
G75*
G02*
X104615000Y-66397500I0J200000D01*
G01*
X104615000Y-65997500D01*
G75*
G02*
X104815000Y-65797500I200000J0D01*
G01*
G37*
G36*
G01*
X104815000Y-64147500D02*
X105365000Y-64147500D01*
G75*
G02*
X105565000Y-64347500I0J-200000D01*
G01*
X105565000Y-64747500D01*
G75*
G02*
X105365000Y-64947500I-200000J0D01*
G01*
X104815000Y-64947500D01*
G75*
G02*
X104615000Y-64747500I0J200000D01*
G01*
X104615000Y-64347500D01*
G75*
G02*
X104815000Y-64147500I200000J0D01*
G01*
G37*
%TD*%
%TO.C,R12*%
G36*
G01*
X107915000Y-64185000D02*
X108465000Y-64185000D01*
G75*
G02*
X108665000Y-64385000I0J-200000D01*
G01*
X108665000Y-64785000D01*
G75*
G02*
X108465000Y-64985000I-200000J0D01*
G01*
X107915000Y-64985000D01*
G75*
G02*
X107715000Y-64785000I0J200000D01*
G01*
X107715000Y-64385000D01*
G75*
G02*
X107915000Y-64185000I200000J0D01*
G01*
G37*
G36*
G01*
X107915000Y-65835000D02*
X108465000Y-65835000D01*
G75*
G02*
X108665000Y-66035000I0J-200000D01*
G01*
X108665000Y-66435000D01*
G75*
G02*
X108465000Y-66635000I-200000J0D01*
G01*
X107915000Y-66635000D01*
G75*
G02*
X107715000Y-66435000I0J200000D01*
G01*
X107715000Y-66035000D01*
G75*
G02*
X107915000Y-65835000I200000J0D01*
G01*
G37*
%TD*%
%TO.C,R16*%
G36*
G01*
X151878079Y-89818060D02*
X152778081Y-89818060D01*
G75*
G02*
X153028080Y-90068059I0J-249999D01*
G01*
X153028080Y-90593061D01*
G75*
G02*
X152778081Y-90843060I-249999J0D01*
G01*
X151878079Y-90843060D01*
G75*
G02*
X151628080Y-90593061I0J249999D01*
G01*
X151628080Y-90068059D01*
G75*
G02*
X151878079Y-89818060I249999J0D01*
G01*
G37*
G36*
G01*
X151878079Y-91643060D02*
X152778081Y-91643060D01*
G75*
G02*
X153028080Y-91893059I0J-249999D01*
G01*
X153028080Y-92418061D01*
G75*
G02*
X152778081Y-92668060I-249999J0D01*
G01*
X151878079Y-92668060D01*
G75*
G02*
X151628080Y-92418061I0J249999D01*
G01*
X151628080Y-91893059D01*
G75*
G02*
X151878079Y-91643060I249999J0D01*
G01*
G37*
%TD*%
%TO.C,R17*%
G36*
G01*
X151883159Y-95905180D02*
X152783161Y-95905180D01*
G75*
G02*
X153033160Y-96155179I0J-249999D01*
G01*
X153033160Y-96680181D01*
G75*
G02*
X152783161Y-96930180I-249999J0D01*
G01*
X151883159Y-96930180D01*
G75*
G02*
X151633160Y-96680181I0J249999D01*
G01*
X151633160Y-96155179D01*
G75*
G02*
X151883159Y-95905180I249999J0D01*
G01*
G37*
G36*
G01*
X151883159Y-94080180D02*
X152783161Y-94080180D01*
G75*
G02*
X153033160Y-94330179I0J-249999D01*
G01*
X153033160Y-94855181D01*
G75*
G02*
X152783161Y-95105180I-249999J0D01*
G01*
X151883159Y-95105180D01*
G75*
G02*
X151633160Y-94855181I0J249999D01*
G01*
X151633160Y-94330179D01*
G75*
G02*
X151883159Y-94080180I249999J0D01*
G01*
G37*
%TD*%
%TO.C,R18*%
G36*
G01*
X119044600Y-96037400D02*
X118494600Y-96037400D01*
G75*
G02*
X118294600Y-95837400I0J200000D01*
G01*
X118294600Y-95437400D01*
G75*
G02*
X118494600Y-95237400I200000J0D01*
G01*
X119044600Y-95237400D01*
G75*
G02*
X119244600Y-95437400I0J-200000D01*
G01*
X119244600Y-95837400D01*
G75*
G02*
X119044600Y-96037400I-200000J0D01*
G01*
G37*
G36*
G01*
X119044600Y-94387400D02*
X118494600Y-94387400D01*
G75*
G02*
X118294600Y-94187400I0J200000D01*
G01*
X118294600Y-93787400D01*
G75*
G02*
X118494600Y-93587400I200000J0D01*
G01*
X119044600Y-93587400D01*
G75*
G02*
X119244600Y-93787400I0J-200000D01*
G01*
X119244600Y-94187400D01*
G75*
G02*
X119044600Y-94387400I-200000J0D01*
G01*
G37*
%TD*%
%TO.C,R20*%
G36*
G01*
X144287452Y-97711013D02*
X144837452Y-97711013D01*
G75*
G02*
X145037452Y-97911013I0J-200000D01*
G01*
X145037452Y-98311013D01*
G75*
G02*
X144837452Y-98511013I-200000J0D01*
G01*
X144287452Y-98511013D01*
G75*
G02*
X144087452Y-98311013I0J200000D01*
G01*
X144087452Y-97911013D01*
G75*
G02*
X144287452Y-97711013I200000J0D01*
G01*
G37*
G36*
G01*
X144287452Y-96061013D02*
X144837452Y-96061013D01*
G75*
G02*
X145037452Y-96261013I0J-200000D01*
G01*
X145037452Y-96661013D01*
G75*
G02*
X144837452Y-96861013I-200000J0D01*
G01*
X144287452Y-96861013D01*
G75*
G02*
X144087452Y-96661013I0J200000D01*
G01*
X144087452Y-96261013D01*
G75*
G02*
X144287452Y-96061013I200000J0D01*
G01*
G37*
%TD*%
%TO.C,R21*%
G36*
G01*
X174280879Y-89626300D02*
X175180881Y-89626300D01*
G75*
G02*
X175430880Y-89876299I0J-249999D01*
G01*
X175430880Y-90401301D01*
G75*
G02*
X175180881Y-90651300I-249999J0D01*
G01*
X174280879Y-90651300D01*
G75*
G02*
X174030880Y-90401301I0J249999D01*
G01*
X174030880Y-89876299D01*
G75*
G02*
X174280879Y-89626300I249999J0D01*
G01*
G37*
G36*
G01*
X174280879Y-87801300D02*
X175180881Y-87801300D01*
G75*
G02*
X175430880Y-88051299I0J-249999D01*
G01*
X175430880Y-88576301D01*
G75*
G02*
X175180881Y-88826300I-249999J0D01*
G01*
X174280879Y-88826300D01*
G75*
G02*
X174030880Y-88576301I0J249999D01*
G01*
X174030880Y-88051299D01*
G75*
G02*
X174280879Y-87801300I249999J0D01*
G01*
G37*
%TD*%
%TO.C,R22*%
G36*
G01*
X141556106Y-96077946D02*
X142106106Y-96077946D01*
G75*
G02*
X142306106Y-96277946I0J-200000D01*
G01*
X142306106Y-96677946D01*
G75*
G02*
X142106106Y-96877946I-200000J0D01*
G01*
X141556106Y-96877946D01*
G75*
G02*
X141356106Y-96677946I0J200000D01*
G01*
X141356106Y-96277946D01*
G75*
G02*
X141556106Y-96077946I200000J0D01*
G01*
G37*
G36*
G01*
X141556106Y-97727946D02*
X142106106Y-97727946D01*
G75*
G02*
X142306106Y-97927946I0J-200000D01*
G01*
X142306106Y-98327946D01*
G75*
G02*
X142106106Y-98527946I-200000J0D01*
G01*
X141556106Y-98527946D01*
G75*
G02*
X141356106Y-98327946I0J200000D01*
G01*
X141356106Y-97927946D01*
G75*
G02*
X141556106Y-97727946I200000J0D01*
G01*
G37*
%TD*%
%TO.C,R23*%
G36*
G01*
X138824760Y-97744879D02*
X139374760Y-97744879D01*
G75*
G02*
X139574760Y-97944879I0J-200000D01*
G01*
X139574760Y-98344879D01*
G75*
G02*
X139374760Y-98544879I-200000J0D01*
G01*
X138824760Y-98544879D01*
G75*
G02*
X138624760Y-98344879I0J200000D01*
G01*
X138624760Y-97944879D01*
G75*
G02*
X138824760Y-97744879I200000J0D01*
G01*
G37*
G36*
G01*
X138824760Y-96094879D02*
X139374760Y-96094879D01*
G75*
G02*
X139574760Y-96294879I0J-200000D01*
G01*
X139574760Y-96694879D01*
G75*
G02*
X139374760Y-96894879I-200000J0D01*
G01*
X138824760Y-96894879D01*
G75*
G02*
X138624760Y-96694879I0J200000D01*
G01*
X138624760Y-96294879D01*
G75*
G02*
X138824760Y-96094879I200000J0D01*
G01*
G37*
%TD*%
%TO.C,R24*%
G36*
G01*
X147018800Y-96044080D02*
X147568800Y-96044080D01*
G75*
G02*
X147768800Y-96244080I0J-200000D01*
G01*
X147768800Y-96644080D01*
G75*
G02*
X147568800Y-96844080I-200000J0D01*
G01*
X147018800Y-96844080D01*
G75*
G02*
X146818800Y-96644080I0J200000D01*
G01*
X146818800Y-96244080D01*
G75*
G02*
X147018800Y-96044080I200000J0D01*
G01*
G37*
G36*
G01*
X147018800Y-97694080D02*
X147568800Y-97694080D01*
G75*
G02*
X147768800Y-97894080I0J-200000D01*
G01*
X147768800Y-98294080D01*
G75*
G02*
X147568800Y-98494080I-200000J0D01*
G01*
X147018800Y-98494080D01*
G75*
G02*
X146818800Y-98294080I0J200000D01*
G01*
X146818800Y-97894080D01*
G75*
G02*
X147018800Y-97694080I200000J0D01*
G01*
G37*
%TD*%
%TO.C,R25*%
G36*
G01*
X164389320Y-97038120D02*
X164389320Y-96488120D01*
G75*
G02*
X164589320Y-96288120I200000J0D01*
G01*
X164989320Y-96288120D01*
G75*
G02*
X165189320Y-96488120I0J-200000D01*
G01*
X165189320Y-97038120D01*
G75*
G02*
X164989320Y-97238120I-200000J0D01*
G01*
X164589320Y-97238120D01*
G75*
G02*
X164389320Y-97038120I0J200000D01*
G01*
G37*
G36*
G01*
X162739320Y-97038120D02*
X162739320Y-96488120D01*
G75*
G02*
X162939320Y-96288120I200000J0D01*
G01*
X163339320Y-96288120D01*
G75*
G02*
X163539320Y-96488120I0J-200000D01*
G01*
X163539320Y-97038120D01*
G75*
G02*
X163339320Y-97238120I-200000J0D01*
G01*
X162939320Y-97238120D01*
G75*
G02*
X162739320Y-97038120I0J200000D01*
G01*
G37*
%TD*%
%TO.C,R26*%
G36*
G01*
X164399740Y-99834660D02*
X164399740Y-99284660D01*
G75*
G02*
X164599740Y-99084660I200000J0D01*
G01*
X164999740Y-99084660D01*
G75*
G02*
X165199740Y-99284660I0J-200000D01*
G01*
X165199740Y-99834660D01*
G75*
G02*
X164999740Y-100034660I-200000J0D01*
G01*
X164599740Y-100034660D01*
G75*
G02*
X164399740Y-99834660I0J200000D01*
G01*
G37*
G36*
G01*
X162749740Y-99834660D02*
X162749740Y-99284660D01*
G75*
G02*
X162949740Y-99084660I200000J0D01*
G01*
X163349740Y-99084660D01*
G75*
G02*
X163549740Y-99284660I0J-200000D01*
G01*
X163549740Y-99834660D01*
G75*
G02*
X163349740Y-100034660I-200000J0D01*
G01*
X162949740Y-100034660D01*
G75*
G02*
X162749740Y-99834660I0J200000D01*
G01*
G37*
%TD*%
%TO.C,R27*%
G36*
G01*
X142690600Y-67223600D02*
X142690600Y-66673600D01*
G75*
G02*
X142890600Y-66473600I200000J0D01*
G01*
X143290600Y-66473600D01*
G75*
G02*
X143490600Y-66673600I0J-200000D01*
G01*
X143490600Y-67223600D01*
G75*
G02*
X143290600Y-67423600I-200000J0D01*
G01*
X142890600Y-67423600D01*
G75*
G02*
X142690600Y-67223600I0J200000D01*
G01*
G37*
G36*
G01*
X144340600Y-67223600D02*
X144340600Y-66673600D01*
G75*
G02*
X144540600Y-66473600I200000J0D01*
G01*
X144940600Y-66473600D01*
G75*
G02*
X145140600Y-66673600I0J-200000D01*
G01*
X145140600Y-67223600D01*
G75*
G02*
X144940600Y-67423600I-200000J0D01*
G01*
X144540600Y-67423600D01*
G75*
G02*
X144340600Y-67223600I0J200000D01*
G01*
G37*
%TD*%
%TO.C,R28*%
G36*
G01*
X149403800Y-62435700D02*
X149403800Y-61885700D01*
G75*
G02*
X149603800Y-61685700I200000J0D01*
G01*
X150003800Y-61685700D01*
G75*
G02*
X150203800Y-61885700I0J-200000D01*
G01*
X150203800Y-62435700D01*
G75*
G02*
X150003800Y-62635700I-200000J0D01*
G01*
X149603800Y-62635700D01*
G75*
G02*
X149403800Y-62435700I0J200000D01*
G01*
G37*
G36*
G01*
X147753800Y-62435700D02*
X147753800Y-61885700D01*
G75*
G02*
X147953800Y-61685700I200000J0D01*
G01*
X148353800Y-61685700D01*
G75*
G02*
X148553800Y-61885700I0J-200000D01*
G01*
X148553800Y-62435700D01*
G75*
G02*
X148353800Y-62635700I-200000J0D01*
G01*
X147953800Y-62635700D01*
G75*
G02*
X147753800Y-62435700I0J200000D01*
G01*
G37*
%TD*%
%TO.C,R29*%
G36*
G01*
X150144400Y-64832100D02*
X150144400Y-65382100D01*
G75*
G02*
X149944400Y-65582100I-200000J0D01*
G01*
X149544400Y-65582100D01*
G75*
G02*
X149344400Y-65382100I0J200000D01*
G01*
X149344400Y-64832100D01*
G75*
G02*
X149544400Y-64632100I200000J0D01*
G01*
X149944400Y-64632100D01*
G75*
G02*
X150144400Y-64832100I0J-200000D01*
G01*
G37*
G36*
G01*
X148494400Y-64832100D02*
X148494400Y-65382100D01*
G75*
G02*
X148294400Y-65582100I-200000J0D01*
G01*
X147894400Y-65582100D01*
G75*
G02*
X147694400Y-65382100I0J200000D01*
G01*
X147694400Y-64832100D01*
G75*
G02*
X147894400Y-64632100I200000J0D01*
G01*
X148294400Y-64632100D01*
G75*
G02*
X148494400Y-64832100I0J-200000D01*
G01*
G37*
%TD*%
%TO.C,R30*%
G36*
G01*
X172493820Y-84832319D02*
X172493820Y-85732321D01*
G75*
G02*
X172243821Y-85982320I-249999J0D01*
G01*
X171718819Y-85982320D01*
G75*
G02*
X171468820Y-85732321I0J249999D01*
G01*
X171468820Y-84832319D01*
G75*
G02*
X171718819Y-84582320I249999J0D01*
G01*
X172243821Y-84582320D01*
G75*
G02*
X172493820Y-84832319I0J-249999D01*
G01*
G37*
G36*
G01*
X174318820Y-84832319D02*
X174318820Y-85732321D01*
G75*
G02*
X174068821Y-85982320I-249999J0D01*
G01*
X173543819Y-85982320D01*
G75*
G02*
X173293820Y-85732321I0J249999D01*
G01*
X173293820Y-84832319D01*
G75*
G02*
X173543819Y-84582320I249999J0D01*
G01*
X174068821Y-84582320D01*
G75*
G02*
X174318820Y-84832319I0J-249999D01*
G01*
G37*
%TD*%
%TO.C,R31*%
G36*
G01*
X170968719Y-87789240D02*
X171868721Y-87789240D01*
G75*
G02*
X172118720Y-88039239I0J-249999D01*
G01*
X172118720Y-88564241D01*
G75*
G02*
X171868721Y-88814240I-249999J0D01*
G01*
X170968719Y-88814240D01*
G75*
G02*
X170718720Y-88564241I0J249999D01*
G01*
X170718720Y-88039239D01*
G75*
G02*
X170968719Y-87789240I249999J0D01*
G01*
G37*
G36*
G01*
X170968719Y-89614240D02*
X171868721Y-89614240D01*
G75*
G02*
X172118720Y-89864239I0J-249999D01*
G01*
X172118720Y-90389241D01*
G75*
G02*
X171868721Y-90639240I-249999J0D01*
G01*
X170968719Y-90639240D01*
G75*
G02*
X170718720Y-90389241I0J249999D01*
G01*
X170718720Y-89864239D01*
G75*
G02*
X170968719Y-89614240I249999J0D01*
G01*
G37*
%TD*%
M02*
