%TF.GenerationSoftware,KiCad,Pcbnew,5.1.12-84ad8e8a86~92~ubuntu20.04.1*%
%TF.CreationDate,2022-07-31T12:46:28-07:00*%
%TF.ProjectId,MPPTSolarPwrModule,4d505054-536f-46c6-9172-5077724d6f64,rev?*%
%TF.SameCoordinates,Original*%
%TF.FileFunction,Copper,L1,Top*%
%TF.FilePolarity,Positive*%
%FSLAX46Y46*%
G04 Gerber Fmt 4.6, Leading zero omitted, Abs format (unit mm)*
G04 Created by KiCad (PCBNEW 5.1.12-84ad8e8a86~92~ubuntu20.04.1) date 2022-07-31 12:46:28*
%MOMM*%
%LPD*%
G01*
G04 APERTURE LIST*
%TA.AperFunction,SMDPad,CuDef*%
%ADD10R,2.100000X2.100000*%
%TD*%
%TA.AperFunction,SMDPad,CuDef*%
%ADD11R,2.350000X5.100000*%
%TD*%
%TA.AperFunction,SMDPad,CuDef*%
%ADD12R,7.340000X6.350000*%
%TD*%
%TA.AperFunction,SMDPad,CuDef*%
%ADD13R,0.900000X0.800000*%
%TD*%
%TA.AperFunction,SMDPad,CuDef*%
%ADD14R,2.500000X1.800000*%
%TD*%
%TA.AperFunction,SMDPad,CuDef*%
%ADD15R,0.900000X1.200000*%
%TD*%
%TA.AperFunction,ComponentPad*%
%ADD16R,1.700000X1.700000*%
%TD*%
%TA.AperFunction,ComponentPad*%
%ADD17O,1.700000X1.700000*%
%TD*%
%TA.AperFunction,ComponentPad*%
%ADD18O,2.000000X1.700000*%
%TD*%
%TA.AperFunction,SMDPad,CuDef*%
%ADD19R,2.900000X5.400000*%
%TD*%
%TA.AperFunction,SMDPad,CuDef*%
%ADD20R,5.100000X2.350000*%
%TD*%
%TA.AperFunction,SMDPad,CuDef*%
%ADD21R,1.650000X2.850000*%
%TD*%
%TA.AperFunction,SMDPad,CuDef*%
%ADD22R,1.060000X0.650000*%
%TD*%
%TA.AperFunction,SMDPad,CuDef*%
%ADD23C,0.100000*%
%TD*%
%TA.AperFunction,ComponentPad*%
%ADD24R,2.200000X2.200000*%
%TD*%
%TA.AperFunction,ComponentPad*%
%ADD25C,2.200000*%
%TD*%
%TA.AperFunction,ComponentPad*%
%ADD26C,1.440000*%
%TD*%
%TA.AperFunction,ComponentPad*%
%ADD27R,1.500000X1.500000*%
%TD*%
%TA.AperFunction,ComponentPad*%
%ADD28O,1.700000X1.950000*%
%TD*%
%TA.AperFunction,ViaPad*%
%ADD29C,0.800000*%
%TD*%
%TA.AperFunction,Conductor*%
%ADD30C,0.508000*%
%TD*%
%TA.AperFunction,Conductor*%
%ADD31C,0.250000*%
%TD*%
%TA.AperFunction,Conductor*%
%ADD32C,0.381000*%
%TD*%
%TA.AperFunction,Conductor*%
%ADD33C,1.016000*%
%TD*%
%TA.AperFunction,Conductor*%
%ADD34C,0.635000*%
%TD*%
%TA.AperFunction,Conductor*%
%ADD35C,0.254000*%
%TD*%
%TA.AperFunction,Conductor*%
%ADD36C,0.100000*%
%TD*%
G04 APERTURE END LIST*
D10*
%TO.P,U2,17*%
%TO.N,GND*%
X130539600Y-92217200D03*
%TO.P,U2,16*%
%TO.N,/VPU_D*%
%TA.AperFunction,SMDPad,CuDef*%
G36*
G01*
X129389600Y-90779700D02*
X129389600Y-89929700D01*
G75*
G02*
X129477100Y-89842200I87500J0D01*
G01*
X129652100Y-89842200D01*
G75*
G02*
X129739600Y-89929700I0J-87500D01*
G01*
X129739600Y-90779700D01*
G75*
G02*
X129652100Y-90867200I-87500J0D01*
G01*
X129477100Y-90867200D01*
G75*
G02*
X129389600Y-90779700I0J87500D01*
G01*
G37*
%TD.AperFunction*%
%TO.P,U2,15*%
%TO.N,Net-(C4-Pad2)*%
%TA.AperFunction,SMDPad,CuDef*%
G36*
G01*
X130039600Y-90779700D02*
X130039600Y-89929700D01*
G75*
G02*
X130127100Y-89842200I87500J0D01*
G01*
X130302100Y-89842200D01*
G75*
G02*
X130389600Y-89929700I0J-87500D01*
G01*
X130389600Y-90779700D01*
G75*
G02*
X130302100Y-90867200I-87500J0D01*
G01*
X130127100Y-90867200D01*
G75*
G02*
X130039600Y-90779700I0J87500D01*
G01*
G37*
%TD.AperFunction*%
%TO.P,U2,14*%
%TO.N,Net-(C4-Pad1)*%
%TA.AperFunction,SMDPad,CuDef*%
G36*
G01*
X130689600Y-90779700D02*
X130689600Y-89929700D01*
G75*
G02*
X130777100Y-89842200I87500J0D01*
G01*
X130952100Y-89842200D01*
G75*
G02*
X131039600Y-89929700I0J-87500D01*
G01*
X131039600Y-90779700D01*
G75*
G02*
X130952100Y-90867200I-87500J0D01*
G01*
X130777100Y-90867200D01*
G75*
G02*
X130689600Y-90779700I0J87500D01*
G01*
G37*
%TD.AperFunction*%
%TO.P,U2,13*%
%TO.N,/TC*%
%TA.AperFunction,SMDPad,CuDef*%
G36*
G01*
X131339600Y-90779700D02*
X131339600Y-89929700D01*
G75*
G02*
X131427100Y-89842200I87500J0D01*
G01*
X131602100Y-89842200D01*
G75*
G02*
X131689600Y-89929700I0J-87500D01*
G01*
X131689600Y-90779700D01*
G75*
G02*
X131602100Y-90867200I-87500J0D01*
G01*
X131427100Y-90867200D01*
G75*
G02*
X131339600Y-90779700I0J87500D01*
G01*
G37*
%TD.AperFunction*%
%TO.P,U2,12*%
%TO.N,Net-(C3-Pad2)*%
%TA.AperFunction,SMDPad,CuDef*%
G36*
G01*
X131889600Y-91329700D02*
X131889600Y-91154700D01*
G75*
G02*
X131977100Y-91067200I87500J0D01*
G01*
X132827100Y-91067200D01*
G75*
G02*
X132914600Y-91154700I0J-87500D01*
G01*
X132914600Y-91329700D01*
G75*
G02*
X132827100Y-91417200I-87500J0D01*
G01*
X131977100Y-91417200D01*
G75*
G02*
X131889600Y-91329700I0J87500D01*
G01*
G37*
%TD.AperFunction*%
%TO.P,U2,11*%
%TO.N,Net-(C3-Pad1)*%
%TA.AperFunction,SMDPad,CuDef*%
G36*
G01*
X131889600Y-91979700D02*
X131889600Y-91804700D01*
G75*
G02*
X131977100Y-91717200I87500J0D01*
G01*
X132827100Y-91717200D01*
G75*
G02*
X132914600Y-91804700I0J-87500D01*
G01*
X132914600Y-91979700D01*
G75*
G02*
X132827100Y-92067200I-87500J0D01*
G01*
X131977100Y-92067200D01*
G75*
G02*
X131889600Y-91979700I0J87500D01*
G01*
G37*
%TD.AperFunction*%
%TO.P,U2,10*%
%TO.N,/PV*%
%TA.AperFunction,SMDPad,CuDef*%
G36*
G01*
X131889600Y-92629700D02*
X131889600Y-92454700D01*
G75*
G02*
X131977100Y-92367200I87500J0D01*
G01*
X132827100Y-92367200D01*
G75*
G02*
X132914600Y-92454700I0J-87500D01*
G01*
X132914600Y-92629700D01*
G75*
G02*
X132827100Y-92717200I-87500J0D01*
G01*
X131977100Y-92717200D01*
G75*
G02*
X131889600Y-92629700I0J87500D01*
G01*
G37*
%TD.AperFunction*%
%TO.P,U2,9*%
%TO.N,/CRIT*%
%TA.AperFunction,SMDPad,CuDef*%
G36*
G01*
X131889600Y-93279700D02*
X131889600Y-93104700D01*
G75*
G02*
X131977100Y-93017200I87500J0D01*
G01*
X132827100Y-93017200D01*
G75*
G02*
X132914600Y-93104700I0J-87500D01*
G01*
X132914600Y-93279700D01*
G75*
G02*
X132827100Y-93367200I-87500J0D01*
G01*
X131977100Y-93367200D01*
G75*
G02*
X131889600Y-93279700I0J87500D01*
G01*
G37*
%TD.AperFunction*%
%TO.P,U2,8*%
%TO.N,/WARN*%
%TA.AperFunction,SMDPad,CuDef*%
G36*
G01*
X131339600Y-94504700D02*
X131339600Y-93654700D01*
G75*
G02*
X131427100Y-93567200I87500J0D01*
G01*
X131602100Y-93567200D01*
G75*
G02*
X131689600Y-93654700I0J-87500D01*
G01*
X131689600Y-94504700D01*
G75*
G02*
X131602100Y-94592200I-87500J0D01*
G01*
X131427100Y-94592200D01*
G75*
G02*
X131339600Y-94504700I0J87500D01*
G01*
G37*
%TD.AperFunction*%
%TO.P,U2,7*%
%TO.N,/SDA*%
%TA.AperFunction,SMDPad,CuDef*%
G36*
G01*
X130689600Y-94504700D02*
X130689600Y-93654700D01*
G75*
G02*
X130777100Y-93567200I87500J0D01*
G01*
X130952100Y-93567200D01*
G75*
G02*
X131039600Y-93654700I0J-87500D01*
G01*
X131039600Y-94504700D01*
G75*
G02*
X130952100Y-94592200I-87500J0D01*
G01*
X130777100Y-94592200D01*
G75*
G02*
X130689600Y-94504700I0J87500D01*
G01*
G37*
%TD.AperFunction*%
%TO.P,U2,6*%
%TO.N,/SCL*%
%TA.AperFunction,SMDPad,CuDef*%
G36*
G01*
X130039600Y-94504700D02*
X130039600Y-93654700D01*
G75*
G02*
X130127100Y-93567200I87500J0D01*
G01*
X130302100Y-93567200D01*
G75*
G02*
X130389600Y-93654700I0J-87500D01*
G01*
X130389600Y-94504700D01*
G75*
G02*
X130302100Y-94592200I-87500J0D01*
G01*
X130127100Y-94592200D01*
G75*
G02*
X130039600Y-94504700I0J87500D01*
G01*
G37*
%TD.AperFunction*%
%TO.P,U2,5*%
%TO.N,Net-(JP1-Pad1)*%
%TA.AperFunction,SMDPad,CuDef*%
G36*
G01*
X129389600Y-94504700D02*
X129389600Y-93654700D01*
G75*
G02*
X129477100Y-93567200I87500J0D01*
G01*
X129652100Y-93567200D01*
G75*
G02*
X129739600Y-93654700I0J-87500D01*
G01*
X129739600Y-94504700D01*
G75*
G02*
X129652100Y-94592200I-87500J0D01*
G01*
X129477100Y-94592200D01*
G75*
G02*
X129389600Y-94504700I0J87500D01*
G01*
G37*
%TD.AperFunction*%
%TO.P,U2,4*%
%TO.N,/VS*%
%TA.AperFunction,SMDPad,CuDef*%
G36*
G01*
X128164600Y-93279700D02*
X128164600Y-93104700D01*
G75*
G02*
X128252100Y-93017200I87500J0D01*
G01*
X129102100Y-93017200D01*
G75*
G02*
X129189600Y-93104700I0J-87500D01*
G01*
X129189600Y-93279700D01*
G75*
G02*
X129102100Y-93367200I-87500J0D01*
G01*
X128252100Y-93367200D01*
G75*
G02*
X128164600Y-93279700I0J87500D01*
G01*
G37*
%TD.AperFunction*%
%TO.P,U2,3*%
%TO.N,GND*%
%TA.AperFunction,SMDPad,CuDef*%
G36*
G01*
X128164600Y-92629700D02*
X128164600Y-92454700D01*
G75*
G02*
X128252100Y-92367200I87500J0D01*
G01*
X129102100Y-92367200D01*
G75*
G02*
X129189600Y-92454700I0J-87500D01*
G01*
X129189600Y-92629700D01*
G75*
G02*
X129102100Y-92717200I-87500J0D01*
G01*
X128252100Y-92717200D01*
G75*
G02*
X128164600Y-92629700I0J87500D01*
G01*
G37*
%TD.AperFunction*%
%TO.P,U2,2*%
%TO.N,Net-(C5-Pad2)*%
%TA.AperFunction,SMDPad,CuDef*%
G36*
G01*
X128164600Y-91979700D02*
X128164600Y-91804700D01*
G75*
G02*
X128252100Y-91717200I87500J0D01*
G01*
X129102100Y-91717200D01*
G75*
G02*
X129189600Y-91804700I0J-87500D01*
G01*
X129189600Y-91979700D01*
G75*
G02*
X129102100Y-92067200I-87500J0D01*
G01*
X128252100Y-92067200D01*
G75*
G02*
X128164600Y-91979700I0J87500D01*
G01*
G37*
%TD.AperFunction*%
%TO.P,U2,1*%
%TO.N,Net-(C5-Pad1)*%
%TA.AperFunction,SMDPad,CuDef*%
G36*
G01*
X128164600Y-91329700D02*
X128164600Y-91154700D01*
G75*
G02*
X128252100Y-91067200I87500J0D01*
G01*
X129102100Y-91067200D01*
G75*
G02*
X129189600Y-91154700I0J-87500D01*
G01*
X129189600Y-91329700D01*
G75*
G02*
X129102100Y-91417200I-87500J0D01*
G01*
X128252100Y-91417200D01*
G75*
G02*
X128164600Y-91329700I0J87500D01*
G01*
G37*
%TD.AperFunction*%
%TD*%
D11*
%TO.P,L2,2*%
%TO.N,/VBAT-*%
X140527600Y-77896000D03*
%TO.P,L2,1*%
%TO.N,Net-(D6-Pad2)*%
X144677600Y-77896000D03*
%TD*%
D12*
%TO.P,BT1,1*%
%TO.N,/VBAT+*%
X176057400Y-49219400D03*
%TO.P,BT1,2*%
%TO.N,GND*%
X97397400Y-49219400D03*
%TD*%
%TO.P,D1,2*%
%TO.N,Net-(D1-Pad2)*%
%TA.AperFunction,SMDPad,CuDef*%
G36*
G01*
X102202500Y-94253750D02*
X102202500Y-95166250D01*
G75*
G02*
X101958750Y-95410000I-243750J0D01*
G01*
X101471250Y-95410000D01*
G75*
G02*
X101227500Y-95166250I0J243750D01*
G01*
X101227500Y-94253750D01*
G75*
G02*
X101471250Y-94010000I243750J0D01*
G01*
X101958750Y-94010000D01*
G75*
G02*
X102202500Y-94253750I0J-243750D01*
G01*
G37*
%TD.AperFunction*%
%TO.P,D1,1*%
%TO.N,/FAULT*%
%TA.AperFunction,SMDPad,CuDef*%
G36*
G01*
X104077500Y-94253750D02*
X104077500Y-95166250D01*
G75*
G02*
X103833750Y-95410000I-243750J0D01*
G01*
X103346250Y-95410000D01*
G75*
G02*
X103102500Y-95166250I0J243750D01*
G01*
X103102500Y-94253750D01*
G75*
G02*
X103346250Y-94010000I243750J0D01*
G01*
X103833750Y-94010000D01*
G75*
G02*
X104077500Y-94253750I0J-243750D01*
G01*
G37*
%TD.AperFunction*%
%TD*%
%TO.P,D2,1*%
%TO.N,/CHRG*%
%TA.AperFunction,SMDPad,CuDef*%
G36*
G01*
X104052500Y-98153750D02*
X104052500Y-99066250D01*
G75*
G02*
X103808750Y-99310000I-243750J0D01*
G01*
X103321250Y-99310000D01*
G75*
G02*
X103077500Y-99066250I0J243750D01*
G01*
X103077500Y-98153750D01*
G75*
G02*
X103321250Y-97910000I243750J0D01*
G01*
X103808750Y-97910000D01*
G75*
G02*
X104052500Y-98153750I0J-243750D01*
G01*
G37*
%TD.AperFunction*%
%TO.P,D2,2*%
%TO.N,Net-(D2-Pad2)*%
%TA.AperFunction,SMDPad,CuDef*%
G36*
G01*
X102177500Y-98153750D02*
X102177500Y-99066250D01*
G75*
G02*
X101933750Y-99310000I-243750J0D01*
G01*
X101446250Y-99310000D01*
G75*
G02*
X101202500Y-99066250I0J243750D01*
G01*
X101202500Y-98153750D01*
G75*
G02*
X101446250Y-97910000I243750J0D01*
G01*
X101933750Y-97910000D01*
G75*
G02*
X102177500Y-98153750I0J-243750D01*
G01*
G37*
%TD.AperFunction*%
%TD*%
D13*
%TO.P,D3,1*%
%TO.N,Net-(C8-Pad1)*%
X113826000Y-69514000D03*
%TO.P,D3,*%
%TO.N,*%
X111826000Y-70464000D03*
%TO.P,D3,2*%
%TO.N,GND*%
X111826000Y-68564000D03*
%TD*%
%TO.P,D4,2*%
%TO.N,/VBAT+*%
X134390000Y-79410000D03*
%TO.P,D4,*%
%TO.N,*%
X134390000Y-77510000D03*
%TO.P,D4,1*%
%TO.N,Net-(C8-Pad2)*%
X132390000Y-78460000D03*
%TD*%
D14*
%TO.P,D5,1*%
%TO.N,Net-(C17-Pad1)*%
X164840000Y-81260000D03*
%TO.P,D5,2*%
%TO.N,GND*%
X160840000Y-81260000D03*
%TD*%
D15*
%TO.P,D6,1*%
%TO.N,Net-(C20-Pad1)*%
X152490000Y-75560000D03*
%TO.P,D6,2*%
%TO.N,Net-(D6-Pad2)*%
X149190000Y-75560000D03*
%TD*%
D14*
%TO.P,D7,2*%
%TO.N,Net-(D7-Pad2)*%
X161640000Y-68910000D03*
%TO.P,D7,1*%
%TO.N,/VOUT+*%
X165640000Y-68910000D03*
%TD*%
%TO.P,D8,1*%
%TO.N,/VOUT+*%
X165640000Y-63860000D03*
%TO.P,D8,2*%
%TO.N,Net-(C20-Pad1)*%
X161640000Y-63860000D03*
%TD*%
D16*
%TO.P,J2,1*%
%TO.N,/NTC*%
X113490000Y-86870000D03*
D17*
%TO.P,J2,2*%
%TO.N,GND*%
X113490000Y-89410000D03*
%TD*%
D16*
%TO.P,J4,1*%
%TO.N,Net-(C2-Pad1)*%
X108240000Y-91910000D03*
D17*
%TO.P,J4,2*%
%TO.N,GND*%
X108240000Y-94450000D03*
%TD*%
%TO.P,J5,2*%
%TO.N,GND*%
X146519100Y-91637400D03*
D16*
%TO.P,J5,1*%
%TO.N,Net-(J5-Pad1)*%
X146519100Y-89097400D03*
%TD*%
%TO.P,J9,1*%
%TO.N,/VSP+*%
X156690000Y-63760000D03*
D17*
%TO.P,J9,2*%
%TO.N,Net-(D7-Pad2)*%
X156690000Y-66300000D03*
%TO.P,J9,3*%
%TO.N,/V_SPBC+*%
X156690000Y-68840000D03*
%TD*%
D18*
%TO.P,J10,2*%
%TO.N,GND*%
X177740000Y-69210000D03*
%TO.P,J10,1*%
%TO.N,/VOUT-*%
%TA.AperFunction,ComponentPad*%
G36*
G01*
X176990000Y-65860000D02*
X178490000Y-65860000D01*
G75*
G02*
X178740000Y-66110000I0J-250000D01*
G01*
X178740000Y-67310000D01*
G75*
G02*
X178490000Y-67560000I-250000J0D01*
G01*
X176990000Y-67560000D01*
G75*
G02*
X176740000Y-67310000I0J250000D01*
G01*
X176740000Y-66110000D01*
G75*
G02*
X176990000Y-65860000I250000J0D01*
G01*
G37*
%TD.AperFunction*%
%TD*%
D19*
%TO.P,L1,2*%
%TO.N,Net-(L1-Pad2)*%
X130000000Y-69020000D03*
%TO.P,L1,1*%
%TO.N,Net-(C8-Pad1)*%
X120300000Y-69020000D03*
%TD*%
D20*
%TO.P,L3,1*%
%TO.N,/V_SPBC+*%
X171290000Y-77160000D03*
%TO.P,L3,2*%
%TO.N,Net-(C17-Pad1)*%
X171290000Y-81310000D03*
%TD*%
%TO.P,R19,1*%
%TO.N,Net-(L1-Pad2)*%
%TA.AperFunction,SMDPad,CuDef*%
G36*
G01*
X122665000Y-79562400D02*
X122665000Y-78312400D01*
G75*
G02*
X122915000Y-78062400I250000J0D01*
G01*
X123715000Y-78062400D01*
G75*
G02*
X123965000Y-78312400I0J-250000D01*
G01*
X123965000Y-79562400D01*
G75*
G02*
X123715000Y-79812400I-250000J0D01*
G01*
X122915000Y-79812400D01*
G75*
G02*
X122665000Y-79562400I0J250000D01*
G01*
G37*
%TD.AperFunction*%
%TO.P,R19,2*%
%TO.N,/VBAT+*%
%TA.AperFunction,SMDPad,CuDef*%
G36*
G01*
X125765000Y-79562400D02*
X125765000Y-78312400D01*
G75*
G02*
X126015000Y-78062400I250000J0D01*
G01*
X126815000Y-78062400D01*
G75*
G02*
X127065000Y-78312400I0J-250000D01*
G01*
X127065000Y-79562400D01*
G75*
G02*
X126815000Y-79812400I-250000J0D01*
G01*
X126015000Y-79812400D01*
G75*
G02*
X125765000Y-79562400I0J250000D01*
G01*
G37*
%TD.AperFunction*%
%TD*%
%TO.P,U1,1*%
%TO.N,/VSP-*%
%TA.AperFunction,SMDPad,CuDef*%
G36*
G01*
X107605000Y-77965000D02*
X107605000Y-77765000D01*
G75*
G02*
X107705000Y-77665000I100000J0D01*
G01*
X108955000Y-77665000D01*
G75*
G02*
X109055000Y-77765000I0J-100000D01*
G01*
X109055000Y-77965000D01*
G75*
G02*
X108955000Y-78065000I-100000J0D01*
G01*
X107705000Y-78065000D01*
G75*
G02*
X107605000Y-77965000I0J100000D01*
G01*
G37*
%TD.AperFunction*%
%TO.P,U1,2*%
%TO.N,/VIN_SET*%
%TA.AperFunction,SMDPad,CuDef*%
G36*
G01*
X107605000Y-78615000D02*
X107605000Y-78415000D01*
G75*
G02*
X107705000Y-78315000I100000J0D01*
G01*
X108955000Y-78315000D01*
G75*
G02*
X109055000Y-78415000I0J-100000D01*
G01*
X109055000Y-78615000D01*
G75*
G02*
X108955000Y-78715000I-100000J0D01*
G01*
X107705000Y-78715000D01*
G75*
G02*
X107605000Y-78615000I0J100000D01*
G01*
G37*
%TD.AperFunction*%
%TO.P,U1,3*%
%TO.N,Net-(R6-Pad2)*%
%TA.AperFunction,SMDPad,CuDef*%
G36*
G01*
X107605000Y-79265000D02*
X107605000Y-79065000D01*
G75*
G02*
X107705000Y-78965000I100000J0D01*
G01*
X108955000Y-78965000D01*
G75*
G02*
X109055000Y-79065000I0J-100000D01*
G01*
X109055000Y-79265000D01*
G75*
G02*
X108955000Y-79365000I-100000J0D01*
G01*
X107705000Y-79365000D01*
G75*
G02*
X107605000Y-79265000I0J100000D01*
G01*
G37*
%TD.AperFunction*%
%TO.P,U1,4*%
%TO.N,/CHRG*%
%TA.AperFunction,SMDPad,CuDef*%
G36*
G01*
X107605000Y-79915000D02*
X107605000Y-79715000D01*
G75*
G02*
X107705000Y-79615000I100000J0D01*
G01*
X108955000Y-79615000D01*
G75*
G02*
X109055000Y-79715000I0J-100000D01*
G01*
X109055000Y-79915000D01*
G75*
G02*
X108955000Y-80015000I-100000J0D01*
G01*
X107705000Y-80015000D01*
G75*
G02*
X107605000Y-79915000I0J100000D01*
G01*
G37*
%TD.AperFunction*%
%TO.P,U1,5*%
%TO.N,/FAULT*%
%TA.AperFunction,SMDPad,CuDef*%
G36*
G01*
X107605000Y-80565000D02*
X107605000Y-80365000D01*
G75*
G02*
X107705000Y-80265000I100000J0D01*
G01*
X108955000Y-80265000D01*
G75*
G02*
X109055000Y-80365000I0J-100000D01*
G01*
X109055000Y-80565000D01*
G75*
G02*
X108955000Y-80665000I-100000J0D01*
G01*
X107705000Y-80665000D01*
G75*
G02*
X107605000Y-80565000I0J100000D01*
G01*
G37*
%TD.AperFunction*%
%TO.P,U1,6*%
%TO.N,Net-(C2-Pad1)*%
%TA.AperFunction,SMDPad,CuDef*%
G36*
G01*
X107605000Y-81215000D02*
X107605000Y-81015000D01*
G75*
G02*
X107705000Y-80915000I100000J0D01*
G01*
X108955000Y-80915000D01*
G75*
G02*
X109055000Y-81015000I0J-100000D01*
G01*
X109055000Y-81215000D01*
G75*
G02*
X108955000Y-81315000I-100000J0D01*
G01*
X107705000Y-81315000D01*
G75*
G02*
X107605000Y-81215000I0J100000D01*
G01*
G37*
%TD.AperFunction*%
%TO.P,U1,7*%
%TO.N,Net-(R13-Pad2)*%
%TA.AperFunction,SMDPad,CuDef*%
G36*
G01*
X111905000Y-81215000D02*
X111905000Y-81015000D01*
G75*
G02*
X112005000Y-80915000I100000J0D01*
G01*
X113255000Y-80915000D01*
G75*
G02*
X113355000Y-81015000I0J-100000D01*
G01*
X113355000Y-81215000D01*
G75*
G02*
X113255000Y-81315000I-100000J0D01*
G01*
X112005000Y-81315000D01*
G75*
G02*
X111905000Y-81215000I0J100000D01*
G01*
G37*
%TD.AperFunction*%
%TO.P,U1,8*%
%TO.N,/NTC*%
%TA.AperFunction,SMDPad,CuDef*%
G36*
G01*
X111905000Y-80565000D02*
X111905000Y-80365000D01*
G75*
G02*
X112005000Y-80265000I100000J0D01*
G01*
X113255000Y-80265000D01*
G75*
G02*
X113355000Y-80365000I0J-100000D01*
G01*
X113355000Y-80565000D01*
G75*
G02*
X113255000Y-80665000I-100000J0D01*
G01*
X112005000Y-80665000D01*
G75*
G02*
X111905000Y-80565000I0J100000D01*
G01*
G37*
%TD.AperFunction*%
%TO.P,U1,9*%
%TO.N,/VBAT+*%
%TA.AperFunction,SMDPad,CuDef*%
G36*
G01*
X111905000Y-79915000D02*
X111905000Y-79715000D01*
G75*
G02*
X112005000Y-79615000I100000J0D01*
G01*
X113255000Y-79615000D01*
G75*
G02*
X113355000Y-79715000I0J-100000D01*
G01*
X113355000Y-79915000D01*
G75*
G02*
X113255000Y-80015000I-100000J0D01*
G01*
X112005000Y-80015000D01*
G75*
G02*
X111905000Y-79915000I0J100000D01*
G01*
G37*
%TD.AperFunction*%
%TO.P,U1,10*%
%TO.N,Net-(L1-Pad2)*%
%TA.AperFunction,SMDPad,CuDef*%
G36*
G01*
X111905000Y-79265000D02*
X111905000Y-79065000D01*
G75*
G02*
X112005000Y-78965000I100000J0D01*
G01*
X113255000Y-78965000D01*
G75*
G02*
X113355000Y-79065000I0J-100000D01*
G01*
X113355000Y-79265000D01*
G75*
G02*
X113255000Y-79365000I-100000J0D01*
G01*
X112005000Y-79365000D01*
G75*
G02*
X111905000Y-79265000I0J100000D01*
G01*
G37*
%TD.AperFunction*%
%TO.P,U1,11*%
%TO.N,Net-(C8-Pad2)*%
%TA.AperFunction,SMDPad,CuDef*%
G36*
G01*
X111905000Y-78615000D02*
X111905000Y-78415000D01*
G75*
G02*
X112005000Y-78315000I100000J0D01*
G01*
X113255000Y-78315000D01*
G75*
G02*
X113355000Y-78415000I0J-100000D01*
G01*
X113355000Y-78615000D01*
G75*
G02*
X113255000Y-78715000I-100000J0D01*
G01*
X112005000Y-78715000D01*
G75*
G02*
X111905000Y-78615000I0J100000D01*
G01*
G37*
%TD.AperFunction*%
%TO.P,U1,12*%
%TO.N,Net-(C8-Pad1)*%
%TA.AperFunction,SMDPad,CuDef*%
G36*
G01*
X111905000Y-77965000D02*
X111905000Y-77765000D01*
G75*
G02*
X112005000Y-77665000I100000J0D01*
G01*
X113255000Y-77665000D01*
G75*
G02*
X113355000Y-77765000I0J-100000D01*
G01*
X113355000Y-77965000D01*
G75*
G02*
X113255000Y-78065000I-100000J0D01*
G01*
X112005000Y-78065000D01*
G75*
G02*
X111905000Y-77965000I0J100000D01*
G01*
G37*
%TD.AperFunction*%
D21*
%TO.P,U1,13*%
%TO.N,GND*%
X110480000Y-79490000D03*
%TD*%
%TO.P,U3,1*%
%TO.N,Net-(C17-Pad2)*%
%TA.AperFunction,SMDPad,CuDef*%
G36*
G01*
X156990000Y-89005000D02*
X156990000Y-88705000D01*
G75*
G02*
X157140000Y-88555000I150000J0D01*
G01*
X158790000Y-88555000D01*
G75*
G02*
X158940000Y-88705000I0J-150000D01*
G01*
X158940000Y-89005000D01*
G75*
G02*
X158790000Y-89155000I-150000J0D01*
G01*
X157140000Y-89155000D01*
G75*
G02*
X156990000Y-89005000I0J150000D01*
G01*
G37*
%TD.AperFunction*%
%TO.P,U3,2*%
%TO.N,/VSP-*%
%TA.AperFunction,SMDPad,CuDef*%
G36*
G01*
X156990000Y-90275000D02*
X156990000Y-89975000D01*
G75*
G02*
X157140000Y-89825000I150000J0D01*
G01*
X158790000Y-89825000D01*
G75*
G02*
X158940000Y-89975000I0J-150000D01*
G01*
X158940000Y-90275000D01*
G75*
G02*
X158790000Y-90425000I-150000J0D01*
G01*
X157140000Y-90425000D01*
G75*
G02*
X156990000Y-90275000I0J150000D01*
G01*
G37*
%TD.AperFunction*%
%TO.P,U3,3*%
%TO.N,Net-(J5-Pad1)*%
%TA.AperFunction,SMDPad,CuDef*%
G36*
G01*
X156990000Y-91545000D02*
X156990000Y-91245000D01*
G75*
G02*
X157140000Y-91095000I150000J0D01*
G01*
X158790000Y-91095000D01*
G75*
G02*
X158940000Y-91245000I0J-150000D01*
G01*
X158940000Y-91545000D01*
G75*
G02*
X158790000Y-91695000I-150000J0D01*
G01*
X157140000Y-91695000D01*
G75*
G02*
X156990000Y-91545000I0J150000D01*
G01*
G37*
%TD.AperFunction*%
%TO.P,U3,4*%
%TO.N,Net-(C15-Pad2)*%
%TA.AperFunction,SMDPad,CuDef*%
G36*
G01*
X156990000Y-92815000D02*
X156990000Y-92515000D01*
G75*
G02*
X157140000Y-92365000I150000J0D01*
G01*
X158790000Y-92365000D01*
G75*
G02*
X158940000Y-92515000I0J-150000D01*
G01*
X158940000Y-92815000D01*
G75*
G02*
X158790000Y-92965000I-150000J0D01*
G01*
X157140000Y-92965000D01*
G75*
G02*
X156990000Y-92815000I0J150000D01*
G01*
G37*
%TD.AperFunction*%
%TO.P,U3,5*%
%TO.N,Net-(R30-Pad2)*%
%TA.AperFunction,SMDPad,CuDef*%
G36*
G01*
X161940000Y-92815000D02*
X161940000Y-92515000D01*
G75*
G02*
X162090000Y-92365000I150000J0D01*
G01*
X163740000Y-92365000D01*
G75*
G02*
X163890000Y-92515000I0J-150000D01*
G01*
X163890000Y-92815000D01*
G75*
G02*
X163740000Y-92965000I-150000J0D01*
G01*
X162090000Y-92965000D01*
G75*
G02*
X161940000Y-92815000I0J150000D01*
G01*
G37*
%TD.AperFunction*%
%TO.P,U3,6*%
%TO.N,Net-(C11-Pad2)*%
%TA.AperFunction,SMDPad,CuDef*%
G36*
G01*
X161940000Y-91545000D02*
X161940000Y-91245000D01*
G75*
G02*
X162090000Y-91095000I150000J0D01*
G01*
X163740000Y-91095000D01*
G75*
G02*
X163890000Y-91245000I0J-150000D01*
G01*
X163890000Y-91545000D01*
G75*
G02*
X163740000Y-91695000I-150000J0D01*
G01*
X162090000Y-91695000D01*
G75*
G02*
X161940000Y-91545000I0J150000D01*
G01*
G37*
%TD.AperFunction*%
%TO.P,U3,7*%
%TO.N,GND*%
%TA.AperFunction,SMDPad,CuDef*%
G36*
G01*
X161940000Y-90275000D02*
X161940000Y-89975000D01*
G75*
G02*
X162090000Y-89825000I150000J0D01*
G01*
X163740000Y-89825000D01*
G75*
G02*
X163890000Y-89975000I0J-150000D01*
G01*
X163890000Y-90275000D01*
G75*
G02*
X163740000Y-90425000I-150000J0D01*
G01*
X162090000Y-90425000D01*
G75*
G02*
X161940000Y-90275000I0J150000D01*
G01*
G37*
%TD.AperFunction*%
%TO.P,U3,8*%
%TO.N,Net-(C17-Pad1)*%
%TA.AperFunction,SMDPad,CuDef*%
G36*
G01*
X161940000Y-89005000D02*
X161940000Y-88705000D01*
G75*
G02*
X162090000Y-88555000I150000J0D01*
G01*
X163740000Y-88555000D01*
G75*
G02*
X163890000Y-88705000I0J-150000D01*
G01*
X163890000Y-89005000D01*
G75*
G02*
X163740000Y-89155000I-150000J0D01*
G01*
X162090000Y-89155000D01*
G75*
G02*
X161940000Y-89005000I0J150000D01*
G01*
G37*
%TD.AperFunction*%
%TD*%
D22*
%TO.P,U4,1*%
%TO.N,Net-(D6-Pad2)*%
X146217200Y-71850800D03*
%TO.P,U4,2*%
%TO.N,GND*%
X146217200Y-70900800D03*
%TO.P,U4,3*%
%TO.N,Net-(C20-Pad2)*%
X146217200Y-69950800D03*
%TO.P,U4,4*%
%TO.N,Net-(J11-Pad1)*%
X144017200Y-69950800D03*
%TO.P,U4,5*%
%TO.N,/VBAT-*%
X144017200Y-71850800D03*
%TD*%
%TA.AperFunction,SMDPad,CuDef*%
D23*
%TO.P,JP1,1*%
%TO.N,Net-(JP1-Pad1)*%
G36*
X116014400Y-94987800D02*
G01*
X116014400Y-95487800D01*
X116013798Y-95487800D01*
X116013798Y-95512334D01*
X116008988Y-95561165D01*
X115999416Y-95609290D01*
X115985172Y-95656245D01*
X115966395Y-95701578D01*
X115943264Y-95744851D01*
X115916004Y-95785650D01*
X115884876Y-95823579D01*
X115850179Y-95858276D01*
X115812250Y-95889404D01*
X115771451Y-95916664D01*
X115728178Y-95939795D01*
X115682845Y-95958572D01*
X115635890Y-95972816D01*
X115587765Y-95982388D01*
X115538934Y-95987198D01*
X115514400Y-95987198D01*
X115514400Y-95987800D01*
X115014400Y-95987800D01*
X115014400Y-95987198D01*
X114989866Y-95987198D01*
X114941035Y-95982388D01*
X114892910Y-95972816D01*
X114845955Y-95958572D01*
X114800622Y-95939795D01*
X114757349Y-95916664D01*
X114716550Y-95889404D01*
X114678621Y-95858276D01*
X114643924Y-95823579D01*
X114612796Y-95785650D01*
X114585536Y-95744851D01*
X114562405Y-95701578D01*
X114543628Y-95656245D01*
X114529384Y-95609290D01*
X114519812Y-95561165D01*
X114515002Y-95512334D01*
X114515002Y-95487800D01*
X114514400Y-95487800D01*
X114514400Y-94987800D01*
X116014400Y-94987800D01*
G37*
%TD.AperFunction*%
%TA.AperFunction,SMDPad,CuDef*%
%TO.P,JP1,2*%
%TO.N,GND*%
G36*
X114515002Y-94187800D02*
G01*
X114515002Y-94163266D01*
X114519812Y-94114435D01*
X114529384Y-94066310D01*
X114543628Y-94019355D01*
X114562405Y-93974022D01*
X114585536Y-93930749D01*
X114612796Y-93889950D01*
X114643924Y-93852021D01*
X114678621Y-93817324D01*
X114716550Y-93786196D01*
X114757349Y-93758936D01*
X114800622Y-93735805D01*
X114845955Y-93717028D01*
X114892910Y-93702784D01*
X114941035Y-93693212D01*
X114989866Y-93688402D01*
X115014400Y-93688402D01*
X115014400Y-93687800D01*
X115514400Y-93687800D01*
X115514400Y-93688402D01*
X115538934Y-93688402D01*
X115587765Y-93693212D01*
X115635890Y-93702784D01*
X115682845Y-93717028D01*
X115728178Y-93735805D01*
X115771451Y-93758936D01*
X115812250Y-93786196D01*
X115850179Y-93817324D01*
X115884876Y-93852021D01*
X115916004Y-93889950D01*
X115943264Y-93930749D01*
X115966395Y-93974022D01*
X115985172Y-94019355D01*
X115999416Y-94066310D01*
X116008988Y-94114435D01*
X116013798Y-94163266D01*
X116013798Y-94187800D01*
X116014400Y-94187800D01*
X116014400Y-94687800D01*
X114514400Y-94687800D01*
X114514400Y-94187800D01*
X114515002Y-94187800D01*
G37*
%TD.AperFunction*%
%TD*%
D24*
%TO.P,J1,1*%
%TO.N,/VSP+*%
X97240000Y-69760000D03*
D25*
%TO.P,J1,2*%
%TO.N,GND*%
X97240000Y-72300000D03*
%TD*%
D26*
%TO.P,RV1,3*%
%TO.N,GND*%
X101295000Y-83085000D03*
%TO.P,RV1,2*%
%TO.N,/VIN_SET*%
X98755000Y-88165000D03*
%TO.P,RV1,1*%
%TO.N,/VSP-*%
X96215000Y-83085000D03*
%TD*%
D16*
%TO.P,J6,1*%
%TO.N,/VBAT+*%
X121258800Y-99486000D03*
D17*
%TO.P,J6,2*%
%TO.N,/VPU_D*%
X123798800Y-99486000D03*
%TO.P,J6,3*%
%TO.N,/VPU*%
X126338800Y-99486000D03*
%TD*%
D27*
%TO.P,TP1,1*%
%TO.N,/VIN_SET*%
X102970800Y-103981800D03*
%TD*%
%TO.P,C1,1*%
%TO.N,/VSP-*%
%TA.AperFunction,SMDPad,CuDef*%
G36*
G01*
X108765000Y-73284999D02*
X108765000Y-75485001D01*
G75*
G02*
X108515001Y-75735000I-249999J0D01*
G01*
X107864999Y-75735000D01*
G75*
G02*
X107615000Y-75485001I0J249999D01*
G01*
X107615000Y-73284999D01*
G75*
G02*
X107864999Y-73035000I249999J0D01*
G01*
X108515001Y-73035000D01*
G75*
G02*
X108765000Y-73284999I0J-249999D01*
G01*
G37*
%TD.AperFunction*%
%TO.P,C1,2*%
%TO.N,GND*%
%TA.AperFunction,SMDPad,CuDef*%
G36*
G01*
X105815000Y-73284999D02*
X105815000Y-75485001D01*
G75*
G02*
X105565001Y-75735000I-249999J0D01*
G01*
X104914999Y-75735000D01*
G75*
G02*
X104665000Y-75485001I0J249999D01*
G01*
X104665000Y-73284999D01*
G75*
G02*
X104914999Y-73035000I249999J0D01*
G01*
X105565001Y-73035000D01*
G75*
G02*
X105815000Y-73284999I0J-249999D01*
G01*
G37*
%TD.AperFunction*%
%TD*%
%TO.P,C2,2*%
%TO.N,GND*%
%TA.AperFunction,SMDPad,CuDef*%
G36*
G01*
X106840000Y-85335000D02*
X106840000Y-86285000D01*
G75*
G02*
X106590000Y-86535000I-250000J0D01*
G01*
X106090000Y-86535000D01*
G75*
G02*
X105840000Y-86285000I0J250000D01*
G01*
X105840000Y-85335000D01*
G75*
G02*
X106090000Y-85085000I250000J0D01*
G01*
X106590000Y-85085000D01*
G75*
G02*
X106840000Y-85335000I0J-250000D01*
G01*
G37*
%TD.AperFunction*%
%TO.P,C2,1*%
%TO.N,Net-(C2-Pad1)*%
%TA.AperFunction,SMDPad,CuDef*%
G36*
G01*
X108740000Y-85335000D02*
X108740000Y-86285000D01*
G75*
G02*
X108490000Y-86535000I-250000J0D01*
G01*
X107990000Y-86535000D01*
G75*
G02*
X107740000Y-86285000I0J250000D01*
G01*
X107740000Y-85335000D01*
G75*
G02*
X107990000Y-85085000I250000J0D01*
G01*
X108490000Y-85085000D01*
G75*
G02*
X108740000Y-85335000I0J-250000D01*
G01*
G37*
%TD.AperFunction*%
%TD*%
%TO.P,C8,1*%
%TO.N,Net-(C8-Pad1)*%
%TA.AperFunction,SMDPad,CuDef*%
G36*
G01*
X114502500Y-76485000D02*
X114502500Y-75535000D01*
G75*
G02*
X114752500Y-75285000I250000J0D01*
G01*
X115252500Y-75285000D01*
G75*
G02*
X115502500Y-75535000I0J-250000D01*
G01*
X115502500Y-76485000D01*
G75*
G02*
X115252500Y-76735000I-250000J0D01*
G01*
X114752500Y-76735000D01*
G75*
G02*
X114502500Y-76485000I0J250000D01*
G01*
G37*
%TD.AperFunction*%
%TO.P,C8,2*%
%TO.N,Net-(C8-Pad2)*%
%TA.AperFunction,SMDPad,CuDef*%
G36*
G01*
X116402500Y-76485000D02*
X116402500Y-75535000D01*
G75*
G02*
X116652500Y-75285000I250000J0D01*
G01*
X117152500Y-75285000D01*
G75*
G02*
X117402500Y-75535000I0J-250000D01*
G01*
X117402500Y-76485000D01*
G75*
G02*
X117152500Y-76735000I-250000J0D01*
G01*
X116652500Y-76735000D01*
G75*
G02*
X116402500Y-76485000I0J250000D01*
G01*
G37*
%TD.AperFunction*%
%TD*%
%TO.P,R6,2*%
%TO.N,Net-(R6-Pad2)*%
%TA.AperFunction,SMDPad,CuDef*%
G36*
G01*
X98190000Y-76559999D02*
X98190000Y-77460001D01*
G75*
G02*
X97940001Y-77710000I-249999J0D01*
G01*
X97414999Y-77710000D01*
G75*
G02*
X97165000Y-77460001I0J249999D01*
G01*
X97165000Y-76559999D01*
G75*
G02*
X97414999Y-76310000I249999J0D01*
G01*
X97940001Y-76310000D01*
G75*
G02*
X98190000Y-76559999I0J-249999D01*
G01*
G37*
%TD.AperFunction*%
%TO.P,R6,1*%
%TO.N,/VSP-*%
%TA.AperFunction,SMDPad,CuDef*%
G36*
G01*
X100015000Y-76559999D02*
X100015000Y-77460001D01*
G75*
G02*
X99765001Y-77710000I-249999J0D01*
G01*
X99239999Y-77710000D01*
G75*
G02*
X98990000Y-77460001I0J249999D01*
G01*
X98990000Y-76559999D01*
G75*
G02*
X99239999Y-76310000I249999J0D01*
G01*
X99765001Y-76310000D01*
G75*
G02*
X100015000Y-76559999I0J-249999D01*
G01*
G37*
%TD.AperFunction*%
%TD*%
%TO.P,R13,2*%
%TO.N,Net-(R13-Pad2)*%
%TA.AperFunction,SMDPad,CuDef*%
G36*
G01*
X118279801Y-86133900D02*
X117379799Y-86133900D01*
G75*
G02*
X117129800Y-85883901I0J249999D01*
G01*
X117129800Y-85358899D01*
G75*
G02*
X117379799Y-85108900I249999J0D01*
G01*
X118279801Y-85108900D01*
G75*
G02*
X118529800Y-85358899I0J-249999D01*
G01*
X118529800Y-85883901D01*
G75*
G02*
X118279801Y-86133900I-249999J0D01*
G01*
G37*
%TD.AperFunction*%
%TO.P,R13,1*%
%TO.N,Net-(R13-Pad1)*%
%TA.AperFunction,SMDPad,CuDef*%
G36*
G01*
X118279801Y-87958900D02*
X117379799Y-87958900D01*
G75*
G02*
X117129800Y-87708901I0J249999D01*
G01*
X117129800Y-87183899D01*
G75*
G02*
X117379799Y-86933900I249999J0D01*
G01*
X118279801Y-86933900D01*
G75*
G02*
X118529800Y-87183899I0J-249999D01*
G01*
X118529800Y-87708901D01*
G75*
G02*
X118279801Y-87958900I-249999J0D01*
G01*
G37*
%TD.AperFunction*%
%TD*%
%TO.P,R14,1*%
%TO.N,/VBAT+*%
%TA.AperFunction,SMDPad,CuDef*%
G36*
G01*
X120889999Y-81715000D02*
X121790001Y-81715000D01*
G75*
G02*
X122040000Y-81964999I0J-249999D01*
G01*
X122040000Y-82490001D01*
G75*
G02*
X121790001Y-82740000I-249999J0D01*
G01*
X120889999Y-82740000D01*
G75*
G02*
X120640000Y-82490001I0J249999D01*
G01*
X120640000Y-81964999D01*
G75*
G02*
X120889999Y-81715000I249999J0D01*
G01*
G37*
%TD.AperFunction*%
%TO.P,R14,2*%
%TO.N,Net-(R13-Pad1)*%
%TA.AperFunction,SMDPad,CuDef*%
G36*
G01*
X120889999Y-83540000D02*
X121790001Y-83540000D01*
G75*
G02*
X122040000Y-83789999I0J-249999D01*
G01*
X122040000Y-84315001D01*
G75*
G02*
X121790001Y-84565000I-249999J0D01*
G01*
X120889999Y-84565000D01*
G75*
G02*
X120640000Y-84315001I0J249999D01*
G01*
X120640000Y-83789999D01*
G75*
G02*
X120889999Y-83540000I249999J0D01*
G01*
G37*
%TD.AperFunction*%
%TD*%
%TO.P,R15,1*%
%TO.N,Net-(R13-Pad1)*%
%TA.AperFunction,SMDPad,CuDef*%
G36*
G01*
X120884999Y-86933900D02*
X121785001Y-86933900D01*
G75*
G02*
X122035000Y-87183899I0J-249999D01*
G01*
X122035000Y-87708901D01*
G75*
G02*
X121785001Y-87958900I-249999J0D01*
G01*
X120884999Y-87958900D01*
G75*
G02*
X120635000Y-87708901I0J249999D01*
G01*
X120635000Y-87183899D01*
G75*
G02*
X120884999Y-86933900I249999J0D01*
G01*
G37*
%TD.AperFunction*%
%TO.P,R15,2*%
%TO.N,GND*%
%TA.AperFunction,SMDPad,CuDef*%
G36*
G01*
X120884999Y-88758900D02*
X121785001Y-88758900D01*
G75*
G02*
X122035000Y-89008899I0J-249999D01*
G01*
X122035000Y-89533901D01*
G75*
G02*
X121785001Y-89783900I-249999J0D01*
G01*
X120884999Y-89783900D01*
G75*
G02*
X120635000Y-89533901I0J249999D01*
G01*
X120635000Y-89008899D01*
G75*
G02*
X120884999Y-88758900I249999J0D01*
G01*
G37*
%TD.AperFunction*%
%TD*%
%TO.P,C3,1*%
%TO.N,Net-(C3-Pad1)*%
%TA.AperFunction,SMDPad,CuDef*%
G36*
G01*
X171902500Y-72460000D02*
X171902500Y-72960000D01*
G75*
G02*
X171677500Y-73185000I-225000J0D01*
G01*
X171227500Y-73185000D01*
G75*
G02*
X171002500Y-72960000I0J225000D01*
G01*
X171002500Y-72460000D01*
G75*
G02*
X171227500Y-72235000I225000J0D01*
G01*
X171677500Y-72235000D01*
G75*
G02*
X171902500Y-72460000I0J-225000D01*
G01*
G37*
%TD.AperFunction*%
%TO.P,C3,2*%
%TO.N,Net-(C3-Pad2)*%
%TA.AperFunction,SMDPad,CuDef*%
G36*
G01*
X170352500Y-72460000D02*
X170352500Y-72960000D01*
G75*
G02*
X170127500Y-73185000I-225000J0D01*
G01*
X169677500Y-73185000D01*
G75*
G02*
X169452500Y-72960000I0J225000D01*
G01*
X169452500Y-72460000D01*
G75*
G02*
X169677500Y-72235000I225000J0D01*
G01*
X170127500Y-72235000D01*
G75*
G02*
X170352500Y-72460000I0J-225000D01*
G01*
G37*
%TD.AperFunction*%
%TD*%
%TO.P,C4,2*%
%TO.N,Net-(C4-Pad2)*%
%TA.AperFunction,SMDPad,CuDef*%
G36*
G01*
X138328300Y-90761400D02*
X138328300Y-91261400D01*
G75*
G02*
X138103300Y-91486400I-225000J0D01*
G01*
X137653300Y-91486400D01*
G75*
G02*
X137428300Y-91261400I0J225000D01*
G01*
X137428300Y-90761400D01*
G75*
G02*
X137653300Y-90536400I225000J0D01*
G01*
X138103300Y-90536400D01*
G75*
G02*
X138328300Y-90761400I0J-225000D01*
G01*
G37*
%TD.AperFunction*%
%TO.P,C4,1*%
%TO.N,Net-(C4-Pad1)*%
%TA.AperFunction,SMDPad,CuDef*%
G36*
G01*
X139878300Y-90761400D02*
X139878300Y-91261400D01*
G75*
G02*
X139653300Y-91486400I-225000J0D01*
G01*
X139203300Y-91486400D01*
G75*
G02*
X138978300Y-91261400I0J225000D01*
G01*
X138978300Y-90761400D01*
G75*
G02*
X139203300Y-90536400I225000J0D01*
G01*
X139653300Y-90536400D01*
G75*
G02*
X139878300Y-90761400I0J-225000D01*
G01*
G37*
%TD.AperFunction*%
%TD*%
%TO.P,C5,2*%
%TO.N,Net-(C5-Pad2)*%
%TA.AperFunction,SMDPad,CuDef*%
G36*
G01*
X125149000Y-90959400D02*
X125649000Y-90959400D01*
G75*
G02*
X125874000Y-91184400I0J-225000D01*
G01*
X125874000Y-91634400D01*
G75*
G02*
X125649000Y-91859400I-225000J0D01*
G01*
X125149000Y-91859400D01*
G75*
G02*
X124924000Y-91634400I0J225000D01*
G01*
X124924000Y-91184400D01*
G75*
G02*
X125149000Y-90959400I225000J0D01*
G01*
G37*
%TD.AperFunction*%
%TO.P,C5,1*%
%TO.N,Net-(C5-Pad1)*%
%TA.AperFunction,SMDPad,CuDef*%
G36*
G01*
X125149000Y-89409400D02*
X125649000Y-89409400D01*
G75*
G02*
X125874000Y-89634400I0J-225000D01*
G01*
X125874000Y-90084400D01*
G75*
G02*
X125649000Y-90309400I-225000J0D01*
G01*
X125149000Y-90309400D01*
G75*
G02*
X124924000Y-90084400I0J225000D01*
G01*
X124924000Y-89634400D01*
G75*
G02*
X125149000Y-89409400I225000J0D01*
G01*
G37*
%TD.AperFunction*%
%TD*%
%TO.P,C6,1*%
%TO.N,/VSP-*%
%TA.AperFunction,SMDPad,CuDef*%
G36*
G01*
X151040001Y-83722500D02*
X148839999Y-83722500D01*
G75*
G02*
X148590000Y-83472501I0J249999D01*
G01*
X148590000Y-82822499D01*
G75*
G02*
X148839999Y-82572500I249999J0D01*
G01*
X151040001Y-82572500D01*
G75*
G02*
X151290000Y-82822499I0J-249999D01*
G01*
X151290000Y-83472501D01*
G75*
G02*
X151040001Y-83722500I-249999J0D01*
G01*
G37*
%TD.AperFunction*%
%TO.P,C6,2*%
%TO.N,GND*%
%TA.AperFunction,SMDPad,CuDef*%
G36*
G01*
X151040001Y-80772500D02*
X148839999Y-80772500D01*
G75*
G02*
X148590000Y-80522501I0J249999D01*
G01*
X148590000Y-79872499D01*
G75*
G02*
X148839999Y-79622500I249999J0D01*
G01*
X151040001Y-79622500D01*
G75*
G02*
X151290000Y-79872499I0J-249999D01*
G01*
X151290000Y-80522501D01*
G75*
G02*
X151040001Y-80772500I-249999J0D01*
G01*
G37*
%TD.AperFunction*%
%TD*%
%TO.P,C7,1*%
%TO.N,/VSP-*%
%TA.AperFunction,SMDPad,CuDef*%
G36*
G01*
X155690001Y-83722500D02*
X153489999Y-83722500D01*
G75*
G02*
X153240000Y-83472501I0J249999D01*
G01*
X153240000Y-82822499D01*
G75*
G02*
X153489999Y-82572500I249999J0D01*
G01*
X155690001Y-82572500D01*
G75*
G02*
X155940000Y-82822499I0J-249999D01*
G01*
X155940000Y-83472501D01*
G75*
G02*
X155690001Y-83722500I-249999J0D01*
G01*
G37*
%TD.AperFunction*%
%TO.P,C7,2*%
%TO.N,GND*%
%TA.AperFunction,SMDPad,CuDef*%
G36*
G01*
X155690001Y-80772500D02*
X153489999Y-80772500D01*
G75*
G02*
X153240000Y-80522501I0J249999D01*
G01*
X153240000Y-79872499D01*
G75*
G02*
X153489999Y-79622500I249999J0D01*
G01*
X155690001Y-79622500D01*
G75*
G02*
X155940000Y-79872499I0J-249999D01*
G01*
X155940000Y-80522501D01*
G75*
G02*
X155690001Y-80772500I-249999J0D01*
G01*
G37*
%TD.AperFunction*%
%TD*%
%TO.P,C9,1*%
%TO.N,GND*%
%TA.AperFunction,SMDPad,CuDef*%
G36*
G01*
X154196440Y-86168360D02*
X154696440Y-86168360D01*
G75*
G02*
X154921440Y-86393360I0J-225000D01*
G01*
X154921440Y-86843360D01*
G75*
G02*
X154696440Y-87068360I-225000J0D01*
G01*
X154196440Y-87068360D01*
G75*
G02*
X153971440Y-86843360I0J225000D01*
G01*
X153971440Y-86393360D01*
G75*
G02*
X154196440Y-86168360I225000J0D01*
G01*
G37*
%TD.AperFunction*%
%TO.P,C9,2*%
%TO.N,/VSP-*%
%TA.AperFunction,SMDPad,CuDef*%
G36*
G01*
X154196440Y-87718360D02*
X154696440Y-87718360D01*
G75*
G02*
X154921440Y-87943360I0J-225000D01*
G01*
X154921440Y-88393360D01*
G75*
G02*
X154696440Y-88618360I-225000J0D01*
G01*
X154196440Y-88618360D01*
G75*
G02*
X153971440Y-88393360I0J225000D01*
G01*
X153971440Y-87943360D01*
G75*
G02*
X154196440Y-87718360I225000J0D01*
G01*
G37*
%TD.AperFunction*%
%TD*%
%TO.P,C10,2*%
%TO.N,GND*%
%TA.AperFunction,SMDPad,CuDef*%
G36*
G01*
X130189999Y-86472500D02*
X132390001Y-86472500D01*
G75*
G02*
X132640000Y-86722499I0J-249999D01*
G01*
X132640000Y-87372501D01*
G75*
G02*
X132390001Y-87622500I-249999J0D01*
G01*
X130189999Y-87622500D01*
G75*
G02*
X129940000Y-87372501I0J249999D01*
G01*
X129940000Y-86722499D01*
G75*
G02*
X130189999Y-86472500I249999J0D01*
G01*
G37*
%TD.AperFunction*%
%TO.P,C10,1*%
%TO.N,/VBAT+*%
%TA.AperFunction,SMDPad,CuDef*%
G36*
G01*
X130189999Y-83522500D02*
X132390001Y-83522500D01*
G75*
G02*
X132640000Y-83772499I0J-249999D01*
G01*
X132640000Y-84422501D01*
G75*
G02*
X132390001Y-84672500I-249999J0D01*
G01*
X130189999Y-84672500D01*
G75*
G02*
X129940000Y-84422501I0J249999D01*
G01*
X129940000Y-83772499D01*
G75*
G02*
X130189999Y-83522500I249999J0D01*
G01*
G37*
%TD.AperFunction*%
%TD*%
%TO.P,C11,1*%
%TO.N,Net-(C11-Pad1)*%
%TA.AperFunction,SMDPad,CuDef*%
G36*
G01*
X170065320Y-92728520D02*
X170065320Y-93228520D01*
G75*
G02*
X169840320Y-93453520I-225000J0D01*
G01*
X169390320Y-93453520D01*
G75*
G02*
X169165320Y-93228520I0J225000D01*
G01*
X169165320Y-92728520D01*
G75*
G02*
X169390320Y-92503520I225000J0D01*
G01*
X169840320Y-92503520D01*
G75*
G02*
X170065320Y-92728520I0J-225000D01*
G01*
G37*
%TD.AperFunction*%
%TO.P,C11,2*%
%TO.N,Net-(C11-Pad2)*%
%TA.AperFunction,SMDPad,CuDef*%
G36*
G01*
X168515320Y-92728520D02*
X168515320Y-93228520D01*
G75*
G02*
X168290320Y-93453520I-225000J0D01*
G01*
X167840320Y-93453520D01*
G75*
G02*
X167615320Y-93228520I0J225000D01*
G01*
X167615320Y-92728520D01*
G75*
G02*
X167840320Y-92503520I225000J0D01*
G01*
X168290320Y-92503520D01*
G75*
G02*
X168515320Y-92728520I0J-225000D01*
G01*
G37*
%TD.AperFunction*%
%TD*%
%TO.P,C12,2*%
%TO.N,GND*%
%TA.AperFunction,SMDPad,CuDef*%
G36*
G01*
X125329999Y-86472500D02*
X127530001Y-86472500D01*
G75*
G02*
X127780000Y-86722499I0J-249999D01*
G01*
X127780000Y-87372501D01*
G75*
G02*
X127530001Y-87622500I-249999J0D01*
G01*
X125329999Y-87622500D01*
G75*
G02*
X125080000Y-87372501I0J249999D01*
G01*
X125080000Y-86722499D01*
G75*
G02*
X125329999Y-86472500I249999J0D01*
G01*
G37*
%TD.AperFunction*%
%TO.P,C12,1*%
%TO.N,/VBAT+*%
%TA.AperFunction,SMDPad,CuDef*%
G36*
G01*
X125329999Y-83522500D02*
X127530001Y-83522500D01*
G75*
G02*
X127780000Y-83772499I0J-249999D01*
G01*
X127780000Y-84422501D01*
G75*
G02*
X127530001Y-84672500I-249999J0D01*
G01*
X125329999Y-84672500D01*
G75*
G02*
X125080000Y-84422501I0J249999D01*
G01*
X125080000Y-83772499D01*
G75*
G02*
X125329999Y-83522500I249999J0D01*
G01*
G37*
%TD.AperFunction*%
%TD*%
%TO.P,C13,2*%
%TO.N,/VS*%
%TA.AperFunction,SMDPad,CuDef*%
G36*
G01*
X125123600Y-94109000D02*
X125623600Y-94109000D01*
G75*
G02*
X125848600Y-94334000I0J-225000D01*
G01*
X125848600Y-94784000D01*
G75*
G02*
X125623600Y-95009000I-225000J0D01*
G01*
X125123600Y-95009000D01*
G75*
G02*
X124898600Y-94784000I0J225000D01*
G01*
X124898600Y-94334000D01*
G75*
G02*
X125123600Y-94109000I225000J0D01*
G01*
G37*
%TD.AperFunction*%
%TO.P,C13,1*%
%TO.N,GND*%
%TA.AperFunction,SMDPad,CuDef*%
G36*
G01*
X125123600Y-92559000D02*
X125623600Y-92559000D01*
G75*
G02*
X125848600Y-92784000I0J-225000D01*
G01*
X125848600Y-93234000D01*
G75*
G02*
X125623600Y-93459000I-225000J0D01*
G01*
X125123600Y-93459000D01*
G75*
G02*
X124898600Y-93234000I0J225000D01*
G01*
X124898600Y-92784000D01*
G75*
G02*
X125123600Y-92559000I225000J0D01*
G01*
G37*
%TD.AperFunction*%
%TD*%
%TO.P,C14,2*%
%TO.N,Net-(C11-Pad2)*%
%TA.AperFunction,SMDPad,CuDef*%
G36*
G01*
X168315920Y-89018480D02*
X167815920Y-89018480D01*
G75*
G02*
X167590920Y-88793480I0J225000D01*
G01*
X167590920Y-88343480D01*
G75*
G02*
X167815920Y-88118480I225000J0D01*
G01*
X168315920Y-88118480D01*
G75*
G02*
X168540920Y-88343480I0J-225000D01*
G01*
X168540920Y-88793480D01*
G75*
G02*
X168315920Y-89018480I-225000J0D01*
G01*
G37*
%TD.AperFunction*%
%TO.P,C14,1*%
%TO.N,GND*%
%TA.AperFunction,SMDPad,CuDef*%
G36*
G01*
X168315920Y-90568480D02*
X167815920Y-90568480D01*
G75*
G02*
X167590920Y-90343480I0J225000D01*
G01*
X167590920Y-89893480D01*
G75*
G02*
X167815920Y-89668480I225000J0D01*
G01*
X168315920Y-89668480D01*
G75*
G02*
X168540920Y-89893480I0J-225000D01*
G01*
X168540920Y-90343480D01*
G75*
G02*
X168315920Y-90568480I-225000J0D01*
G01*
G37*
%TD.AperFunction*%
%TD*%
%TO.P,C15,2*%
%TO.N,Net-(C15-Pad2)*%
%TA.AperFunction,SMDPad,CuDef*%
G36*
G01*
X155742920Y-95317680D02*
X155242920Y-95317680D01*
G75*
G02*
X155017920Y-95092680I0J225000D01*
G01*
X155017920Y-94642680D01*
G75*
G02*
X155242920Y-94417680I225000J0D01*
G01*
X155742920Y-94417680D01*
G75*
G02*
X155967920Y-94642680I0J-225000D01*
G01*
X155967920Y-95092680D01*
G75*
G02*
X155742920Y-95317680I-225000J0D01*
G01*
G37*
%TD.AperFunction*%
%TO.P,C15,1*%
%TO.N,GND*%
%TA.AperFunction,SMDPad,CuDef*%
G36*
G01*
X155742920Y-96867680D02*
X155242920Y-96867680D01*
G75*
G02*
X155017920Y-96642680I0J225000D01*
G01*
X155017920Y-96192680D01*
G75*
G02*
X155242920Y-95967680I225000J0D01*
G01*
X155742920Y-95967680D01*
G75*
G02*
X155967920Y-96192680I0J-225000D01*
G01*
X155967920Y-96642680D01*
G75*
G02*
X155742920Y-96867680I-225000J0D01*
G01*
G37*
%TD.AperFunction*%
%TD*%
%TO.P,C16,2*%
%TO.N,GND*%
%TA.AperFunction,SMDPad,CuDef*%
G36*
G01*
X140265801Y-69960200D02*
X138065799Y-69960200D01*
G75*
G02*
X137815800Y-69710201I0J249999D01*
G01*
X137815800Y-69060199D01*
G75*
G02*
X138065799Y-68810200I249999J0D01*
G01*
X140265801Y-68810200D01*
G75*
G02*
X140515800Y-69060199I0J-249999D01*
G01*
X140515800Y-69710201D01*
G75*
G02*
X140265801Y-69960200I-249999J0D01*
G01*
G37*
%TD.AperFunction*%
%TO.P,C16,1*%
%TO.N,/VBAT-*%
%TA.AperFunction,SMDPad,CuDef*%
G36*
G01*
X140265801Y-72910200D02*
X138065799Y-72910200D01*
G75*
G02*
X137815800Y-72660201I0J249999D01*
G01*
X137815800Y-72010199D01*
G75*
G02*
X138065799Y-71760200I249999J0D01*
G01*
X140265801Y-71760200D01*
G75*
G02*
X140515800Y-72010199I0J-249999D01*
G01*
X140515800Y-72660201D01*
G75*
G02*
X140265801Y-72910200I-249999J0D01*
G01*
G37*
%TD.AperFunction*%
%TD*%
%TO.P,C17,1*%
%TO.N,Net-(C17-Pad1)*%
%TA.AperFunction,SMDPad,CuDef*%
G36*
G01*
X159077880Y-85387920D02*
X159077880Y-85887920D01*
G75*
G02*
X158852880Y-86112920I-225000J0D01*
G01*
X158402880Y-86112920D01*
G75*
G02*
X158177880Y-85887920I0J225000D01*
G01*
X158177880Y-85387920D01*
G75*
G02*
X158402880Y-85162920I225000J0D01*
G01*
X158852880Y-85162920D01*
G75*
G02*
X159077880Y-85387920I0J-225000D01*
G01*
G37*
%TD.AperFunction*%
%TO.P,C17,2*%
%TO.N,Net-(C17-Pad2)*%
%TA.AperFunction,SMDPad,CuDef*%
G36*
G01*
X157527880Y-85387920D02*
X157527880Y-85887920D01*
G75*
G02*
X157302880Y-86112920I-225000J0D01*
G01*
X156852880Y-86112920D01*
G75*
G02*
X156627880Y-85887920I0J225000D01*
G01*
X156627880Y-85387920D01*
G75*
G02*
X156852880Y-85162920I225000J0D01*
G01*
X157302880Y-85162920D01*
G75*
G02*
X157527880Y-85387920I0J-225000D01*
G01*
G37*
%TD.AperFunction*%
%TD*%
%TO.P,C18,1*%
%TO.N,/V_SPBC+*%
%TA.AperFunction,SMDPad,CuDef*%
G36*
G01*
X163689999Y-72797500D02*
X164990001Y-72797500D01*
G75*
G02*
X165240000Y-73047499I0J-249999D01*
G01*
X165240000Y-73697501D01*
G75*
G02*
X164990001Y-73947500I-249999J0D01*
G01*
X163689999Y-73947500D01*
G75*
G02*
X163440000Y-73697501I0J249999D01*
G01*
X163440000Y-73047499D01*
G75*
G02*
X163689999Y-72797500I249999J0D01*
G01*
G37*
%TD.AperFunction*%
%TO.P,C18,2*%
%TO.N,GND*%
%TA.AperFunction,SMDPad,CuDef*%
G36*
G01*
X163689999Y-75747500D02*
X164990001Y-75747500D01*
G75*
G02*
X165240000Y-75997499I0J-249999D01*
G01*
X165240000Y-76647501D01*
G75*
G02*
X164990001Y-76897500I-249999J0D01*
G01*
X163689999Y-76897500D01*
G75*
G02*
X163440000Y-76647501I0J249999D01*
G01*
X163440000Y-75997499D01*
G75*
G02*
X163689999Y-75747500I249999J0D01*
G01*
G37*
%TD.AperFunction*%
%TD*%
%TO.P,C19,2*%
%TO.N,GND*%
%TA.AperFunction,SMDPad,CuDef*%
G36*
G01*
X159489999Y-75710000D02*
X160790001Y-75710000D01*
G75*
G02*
X161040000Y-75959999I0J-249999D01*
G01*
X161040000Y-76610001D01*
G75*
G02*
X160790001Y-76860000I-249999J0D01*
G01*
X159489999Y-76860000D01*
G75*
G02*
X159240000Y-76610001I0J249999D01*
G01*
X159240000Y-75959999D01*
G75*
G02*
X159489999Y-75710000I249999J0D01*
G01*
G37*
%TD.AperFunction*%
%TO.P,C19,1*%
%TO.N,/V_SPBC+*%
%TA.AperFunction,SMDPad,CuDef*%
G36*
G01*
X159489999Y-72760000D02*
X160790001Y-72760000D01*
G75*
G02*
X161040000Y-73009999I0J-249999D01*
G01*
X161040000Y-73660001D01*
G75*
G02*
X160790001Y-73910000I-249999J0D01*
G01*
X159489999Y-73910000D01*
G75*
G02*
X159240000Y-73660001I0J249999D01*
G01*
X159240000Y-73009999D01*
G75*
G02*
X159489999Y-72760000I249999J0D01*
G01*
G37*
%TD.AperFunction*%
%TD*%
%TO.P,C20,1*%
%TO.N,Net-(C20-Pad1)*%
%TA.AperFunction,SMDPad,CuDef*%
G36*
G01*
X150213200Y-67587600D02*
X150213200Y-68087600D01*
G75*
G02*
X149988200Y-68312600I-225000J0D01*
G01*
X149538200Y-68312600D01*
G75*
G02*
X149313200Y-68087600I0J225000D01*
G01*
X149313200Y-67587600D01*
G75*
G02*
X149538200Y-67362600I225000J0D01*
G01*
X149988200Y-67362600D01*
G75*
G02*
X150213200Y-67587600I0J-225000D01*
G01*
G37*
%TD.AperFunction*%
%TO.P,C20,2*%
%TO.N,Net-(C20-Pad2)*%
%TA.AperFunction,SMDPad,CuDef*%
G36*
G01*
X148663200Y-67587600D02*
X148663200Y-68087600D01*
G75*
G02*
X148438200Y-68312600I-225000J0D01*
G01*
X147988200Y-68312600D01*
G75*
G02*
X147763200Y-68087600I0J225000D01*
G01*
X147763200Y-67587600D01*
G75*
G02*
X147988200Y-67362600I225000J0D01*
G01*
X148438200Y-67362600D01*
G75*
G02*
X148663200Y-67587600I0J-225000D01*
G01*
G37*
%TD.AperFunction*%
%TD*%
%TO.P,C21,1*%
%TO.N,Net-(C20-Pad1)*%
%TA.AperFunction,SMDPad,CuDef*%
G36*
G01*
X153052500Y-69809999D02*
X153052500Y-72010001D01*
G75*
G02*
X152802501Y-72260000I-249999J0D01*
G01*
X152152499Y-72260000D01*
G75*
G02*
X151902500Y-72010001I0J249999D01*
G01*
X151902500Y-69809999D01*
G75*
G02*
X152152499Y-69560000I249999J0D01*
G01*
X152802501Y-69560000D01*
G75*
G02*
X153052500Y-69809999I0J-249999D01*
G01*
G37*
%TD.AperFunction*%
%TO.P,C21,2*%
%TO.N,GND*%
%TA.AperFunction,SMDPad,CuDef*%
G36*
G01*
X150102500Y-69809999D02*
X150102500Y-72010001D01*
G75*
G02*
X149852501Y-72260000I-249999J0D01*
G01*
X149202499Y-72260000D01*
G75*
G02*
X148952500Y-72010001I0J249999D01*
G01*
X148952500Y-69809999D01*
G75*
G02*
X149202499Y-69560000I249999J0D01*
G01*
X149852501Y-69560000D01*
G75*
G02*
X150102500Y-69809999I0J-249999D01*
G01*
G37*
%TD.AperFunction*%
%TD*%
%TO.P,C22,1*%
%TO.N,Net-(C20-Pad1)*%
%TA.AperFunction,SMDPad,CuDef*%
G36*
G01*
X151542200Y-64887200D02*
X151542200Y-64387200D01*
G75*
G02*
X151767200Y-64162200I225000J0D01*
G01*
X152217200Y-64162200D01*
G75*
G02*
X152442200Y-64387200I0J-225000D01*
G01*
X152442200Y-64887200D01*
G75*
G02*
X152217200Y-65112200I-225000J0D01*
G01*
X151767200Y-65112200D01*
G75*
G02*
X151542200Y-64887200I0J225000D01*
G01*
G37*
%TD.AperFunction*%
%TO.P,C22,2*%
%TO.N,GND*%
%TA.AperFunction,SMDPad,CuDef*%
G36*
G01*
X153092200Y-64887200D02*
X153092200Y-64387200D01*
G75*
G02*
X153317200Y-64162200I225000J0D01*
G01*
X153767200Y-64162200D01*
G75*
G02*
X153992200Y-64387200I0J-225000D01*
G01*
X153992200Y-64887200D01*
G75*
G02*
X153767200Y-65112200I-225000J0D01*
G01*
X153317200Y-65112200D01*
G75*
G02*
X153092200Y-64887200I0J225000D01*
G01*
G37*
%TD.AperFunction*%
%TD*%
%TO.P,R1,1*%
%TO.N,/VSP+*%
%TA.AperFunction,SMDPad,CuDef*%
G36*
G01*
X96515000Y-95160001D02*
X96515000Y-94259999D01*
G75*
G02*
X96764999Y-94010000I249999J0D01*
G01*
X97290001Y-94010000D01*
G75*
G02*
X97540000Y-94259999I0J-249999D01*
G01*
X97540000Y-95160001D01*
G75*
G02*
X97290001Y-95410000I-249999J0D01*
G01*
X96764999Y-95410000D01*
G75*
G02*
X96515000Y-95160001I0J249999D01*
G01*
G37*
%TD.AperFunction*%
%TO.P,R1,2*%
%TO.N,Net-(D1-Pad2)*%
%TA.AperFunction,SMDPad,CuDef*%
G36*
G01*
X98340000Y-95160001D02*
X98340000Y-94259999D01*
G75*
G02*
X98589999Y-94010000I249999J0D01*
G01*
X99115001Y-94010000D01*
G75*
G02*
X99365000Y-94259999I0J-249999D01*
G01*
X99365000Y-95160001D01*
G75*
G02*
X99115001Y-95410000I-249999J0D01*
G01*
X98589999Y-95410000D01*
G75*
G02*
X98340000Y-95160001I0J249999D01*
G01*
G37*
%TD.AperFunction*%
%TD*%
%TO.P,R2,1*%
%TO.N,/VSP+*%
%TA.AperFunction,SMDPad,CuDef*%
G36*
G01*
X96515000Y-99060001D02*
X96515000Y-98159999D01*
G75*
G02*
X96764999Y-97910000I249999J0D01*
G01*
X97290001Y-97910000D01*
G75*
G02*
X97540000Y-98159999I0J-249999D01*
G01*
X97540000Y-99060001D01*
G75*
G02*
X97290001Y-99310000I-249999J0D01*
G01*
X96764999Y-99310000D01*
G75*
G02*
X96515000Y-99060001I0J249999D01*
G01*
G37*
%TD.AperFunction*%
%TO.P,R2,2*%
%TO.N,Net-(D2-Pad2)*%
%TA.AperFunction,SMDPad,CuDef*%
G36*
G01*
X98340000Y-99060001D02*
X98340000Y-98159999D01*
G75*
G02*
X98589999Y-97910000I249999J0D01*
G01*
X99115001Y-97910000D01*
G75*
G02*
X99365000Y-98159999I0J-249999D01*
G01*
X99365000Y-99060001D01*
G75*
G02*
X99115001Y-99310000I-249999J0D01*
G01*
X98589999Y-99310000D01*
G75*
G02*
X98340000Y-99060001I0J249999D01*
G01*
G37*
%TD.AperFunction*%
%TD*%
%TO.P,R3,2*%
%TO.N,/VOUT-*%
%TA.AperFunction,SMDPad,CuDef*%
G36*
G01*
X171390000Y-64485001D02*
X171390000Y-63234999D01*
G75*
G02*
X171639999Y-62985000I249999J0D01*
G01*
X172265001Y-62985000D01*
G75*
G02*
X172515000Y-63234999I0J-249999D01*
G01*
X172515000Y-64485001D01*
G75*
G02*
X172265001Y-64735000I-249999J0D01*
G01*
X171639999Y-64735000D01*
G75*
G02*
X171390000Y-64485001I0J249999D01*
G01*
G37*
%TD.AperFunction*%
%TO.P,R3,1*%
%TO.N,/VOUT+*%
%TA.AperFunction,SMDPad,CuDef*%
G36*
G01*
X168465000Y-64485001D02*
X168465000Y-63234999D01*
G75*
G02*
X168714999Y-62985000I249999J0D01*
G01*
X169340001Y-62985000D01*
G75*
G02*
X169590000Y-63234999I0J-249999D01*
G01*
X169590000Y-64485001D01*
G75*
G02*
X169340001Y-64735000I-249999J0D01*
G01*
X168714999Y-64735000D01*
G75*
G02*
X168465000Y-64485001I0J249999D01*
G01*
G37*
%TD.AperFunction*%
%TD*%
%TO.P,R4,1*%
%TO.N,/VBAT+*%
%TA.AperFunction,SMDPad,CuDef*%
G36*
G01*
X136596700Y-84337601D02*
X136596700Y-83087599D01*
G75*
G02*
X136846699Y-82837600I249999J0D01*
G01*
X137471701Y-82837600D01*
G75*
G02*
X137721700Y-83087599I0J-249999D01*
G01*
X137721700Y-84337601D01*
G75*
G02*
X137471701Y-84587600I-249999J0D01*
G01*
X136846699Y-84587600D01*
G75*
G02*
X136596700Y-84337601I0J249999D01*
G01*
G37*
%TD.AperFunction*%
%TO.P,R4,2*%
%TO.N,/VBAT-*%
%TA.AperFunction,SMDPad,CuDef*%
G36*
G01*
X139521700Y-84337601D02*
X139521700Y-83087599D01*
G75*
G02*
X139771699Y-82837600I249999J0D01*
G01*
X140396701Y-82837600D01*
G75*
G02*
X140646700Y-83087599I0J-249999D01*
G01*
X140646700Y-84337601D01*
G75*
G02*
X140396701Y-84587600I-249999J0D01*
G01*
X139771699Y-84587600D01*
G75*
G02*
X139521700Y-84337601I0J249999D01*
G01*
G37*
%TD.AperFunction*%
%TD*%
%TO.P,R5,1*%
%TO.N,/VSP+*%
%TA.AperFunction,SMDPad,CuDef*%
G36*
G01*
X104690000Y-70410001D02*
X104690000Y-69159999D01*
G75*
G02*
X104939999Y-68910000I249999J0D01*
G01*
X105565001Y-68910000D01*
G75*
G02*
X105815000Y-69159999I0J-249999D01*
G01*
X105815000Y-70410001D01*
G75*
G02*
X105565001Y-70660000I-249999J0D01*
G01*
X104939999Y-70660000D01*
G75*
G02*
X104690000Y-70410001I0J249999D01*
G01*
G37*
%TD.AperFunction*%
%TO.P,R5,2*%
%TO.N,/VSP-*%
%TA.AperFunction,SMDPad,CuDef*%
G36*
G01*
X107615000Y-70410001D02*
X107615000Y-69159999D01*
G75*
G02*
X107864999Y-68910000I249999J0D01*
G01*
X108490001Y-68910000D01*
G75*
G02*
X108740000Y-69159999I0J-249999D01*
G01*
X108740000Y-70410001D01*
G75*
G02*
X108490001Y-70660000I-249999J0D01*
G01*
X107864999Y-70660000D01*
G75*
G02*
X107615000Y-70410001I0J249999D01*
G01*
G37*
%TD.AperFunction*%
%TD*%
%TO.P,R7,2*%
%TO.N,/VOUT+*%
%TA.AperFunction,SMDPad,CuDef*%
G36*
G01*
X169565000Y-68672500D02*
X169015000Y-68672500D01*
G75*
G02*
X168815000Y-68472500I0J200000D01*
G01*
X168815000Y-68072500D01*
G75*
G02*
X169015000Y-67872500I200000J0D01*
G01*
X169565000Y-67872500D01*
G75*
G02*
X169765000Y-68072500I0J-200000D01*
G01*
X169765000Y-68472500D01*
G75*
G02*
X169565000Y-68672500I-200000J0D01*
G01*
G37*
%TD.AperFunction*%
%TO.P,R7,1*%
%TO.N,Net-(C3-Pad2)*%
%TA.AperFunction,SMDPad,CuDef*%
G36*
G01*
X169565000Y-70322500D02*
X169015000Y-70322500D01*
G75*
G02*
X168815000Y-70122500I0J200000D01*
G01*
X168815000Y-69722500D01*
G75*
G02*
X169015000Y-69522500I200000J0D01*
G01*
X169565000Y-69522500D01*
G75*
G02*
X169765000Y-69722500I0J-200000D01*
G01*
X169765000Y-70122500D01*
G75*
G02*
X169565000Y-70322500I-200000J0D01*
G01*
G37*
%TD.AperFunction*%
%TD*%
%TO.P,R8,1*%
%TO.N,Net-(C3-Pad1)*%
%TA.AperFunction,SMDPad,CuDef*%
G36*
G01*
X172415000Y-70322500D02*
X171865000Y-70322500D01*
G75*
G02*
X171665000Y-70122500I0J200000D01*
G01*
X171665000Y-69722500D01*
G75*
G02*
X171865000Y-69522500I200000J0D01*
G01*
X172415000Y-69522500D01*
G75*
G02*
X172615000Y-69722500I0J-200000D01*
G01*
X172615000Y-70122500D01*
G75*
G02*
X172415000Y-70322500I-200000J0D01*
G01*
G37*
%TD.AperFunction*%
%TO.P,R8,2*%
%TO.N,/VOUT-*%
%TA.AperFunction,SMDPad,CuDef*%
G36*
G01*
X172415000Y-68672500D02*
X171865000Y-68672500D01*
G75*
G02*
X171665000Y-68472500I0J200000D01*
G01*
X171665000Y-68072500D01*
G75*
G02*
X171865000Y-67872500I200000J0D01*
G01*
X172415000Y-67872500D01*
G75*
G02*
X172615000Y-68072500I0J-200000D01*
G01*
X172615000Y-68472500D01*
G75*
G02*
X172415000Y-68672500I-200000J0D01*
G01*
G37*
%TD.AperFunction*%
%TD*%
%TO.P,R9,2*%
%TO.N,/VBAT+*%
%TA.AperFunction,SMDPad,CuDef*%
G36*
G01*
X137265800Y-87048900D02*
X136715800Y-87048900D01*
G75*
G02*
X136515800Y-86848900I0J200000D01*
G01*
X136515800Y-86448900D01*
G75*
G02*
X136715800Y-86248900I200000J0D01*
G01*
X137265800Y-86248900D01*
G75*
G02*
X137465800Y-86448900I0J-200000D01*
G01*
X137465800Y-86848900D01*
G75*
G02*
X137265800Y-87048900I-200000J0D01*
G01*
G37*
%TD.AperFunction*%
%TO.P,R9,1*%
%TO.N,Net-(C4-Pad2)*%
%TA.AperFunction,SMDPad,CuDef*%
G36*
G01*
X137265800Y-88698900D02*
X136715800Y-88698900D01*
G75*
G02*
X136515800Y-88498900I0J200000D01*
G01*
X136515800Y-88098900D01*
G75*
G02*
X136715800Y-87898900I200000J0D01*
G01*
X137265800Y-87898900D01*
G75*
G02*
X137465800Y-88098900I0J-200000D01*
G01*
X137465800Y-88498900D01*
G75*
G02*
X137265800Y-88698900I-200000J0D01*
G01*
G37*
%TD.AperFunction*%
%TD*%
%TO.P,R10,1*%
%TO.N,Net-(C4-Pad1)*%
%TA.AperFunction,SMDPad,CuDef*%
G36*
G01*
X140615800Y-88698900D02*
X140065800Y-88698900D01*
G75*
G02*
X139865800Y-88498900I0J200000D01*
G01*
X139865800Y-88098900D01*
G75*
G02*
X140065800Y-87898900I200000J0D01*
G01*
X140615800Y-87898900D01*
G75*
G02*
X140815800Y-88098900I0J-200000D01*
G01*
X140815800Y-88498900D01*
G75*
G02*
X140615800Y-88698900I-200000J0D01*
G01*
G37*
%TD.AperFunction*%
%TO.P,R10,2*%
%TO.N,/VBAT-*%
%TA.AperFunction,SMDPad,CuDef*%
G36*
G01*
X140615800Y-87048900D02*
X140065800Y-87048900D01*
G75*
G02*
X139865800Y-86848900I0J200000D01*
G01*
X139865800Y-86448900D01*
G75*
G02*
X140065800Y-86248900I200000J0D01*
G01*
X140615800Y-86248900D01*
G75*
G02*
X140815800Y-86448900I0J-200000D01*
G01*
X140815800Y-86848900D01*
G75*
G02*
X140615800Y-87048900I-200000J0D01*
G01*
G37*
%TD.AperFunction*%
%TD*%
%TO.P,R11,2*%
%TO.N,/VSP+*%
%TA.AperFunction,SMDPad,CuDef*%
G36*
G01*
X104815000Y-65797500D02*
X105365000Y-65797500D01*
G75*
G02*
X105565000Y-65997500I0J-200000D01*
G01*
X105565000Y-66397500D01*
G75*
G02*
X105365000Y-66597500I-200000J0D01*
G01*
X104815000Y-66597500D01*
G75*
G02*
X104615000Y-66397500I0J200000D01*
G01*
X104615000Y-65997500D01*
G75*
G02*
X104815000Y-65797500I200000J0D01*
G01*
G37*
%TD.AperFunction*%
%TO.P,R11,1*%
%TO.N,Net-(C5-Pad2)*%
%TA.AperFunction,SMDPad,CuDef*%
G36*
G01*
X104815000Y-64147500D02*
X105365000Y-64147500D01*
G75*
G02*
X105565000Y-64347500I0J-200000D01*
G01*
X105565000Y-64747500D01*
G75*
G02*
X105365000Y-64947500I-200000J0D01*
G01*
X104815000Y-64947500D01*
G75*
G02*
X104615000Y-64747500I0J200000D01*
G01*
X104615000Y-64347500D01*
G75*
G02*
X104815000Y-64147500I200000J0D01*
G01*
G37*
%TD.AperFunction*%
%TD*%
%TO.P,R12,1*%
%TO.N,Net-(C5-Pad1)*%
%TA.AperFunction,SMDPad,CuDef*%
G36*
G01*
X107915000Y-64185000D02*
X108465000Y-64185000D01*
G75*
G02*
X108665000Y-64385000I0J-200000D01*
G01*
X108665000Y-64785000D01*
G75*
G02*
X108465000Y-64985000I-200000J0D01*
G01*
X107915000Y-64985000D01*
G75*
G02*
X107715000Y-64785000I0J200000D01*
G01*
X107715000Y-64385000D01*
G75*
G02*
X107915000Y-64185000I200000J0D01*
G01*
G37*
%TD.AperFunction*%
%TO.P,R12,2*%
%TO.N,/VSP-*%
%TA.AperFunction,SMDPad,CuDef*%
G36*
G01*
X107915000Y-65835000D02*
X108465000Y-65835000D01*
G75*
G02*
X108665000Y-66035000I0J-200000D01*
G01*
X108665000Y-66435000D01*
G75*
G02*
X108465000Y-66635000I-200000J0D01*
G01*
X107915000Y-66635000D01*
G75*
G02*
X107715000Y-66435000I0J200000D01*
G01*
X107715000Y-66035000D01*
G75*
G02*
X107915000Y-65835000I200000J0D01*
G01*
G37*
%TD.AperFunction*%
%TD*%
%TO.P,R16,1*%
%TO.N,/VSP-*%
%TA.AperFunction,SMDPad,CuDef*%
G36*
G01*
X151878079Y-89818060D02*
X152778081Y-89818060D01*
G75*
G02*
X153028080Y-90068059I0J-249999D01*
G01*
X153028080Y-90593061D01*
G75*
G02*
X152778081Y-90843060I-249999J0D01*
G01*
X151878079Y-90843060D01*
G75*
G02*
X151628080Y-90593061I0J249999D01*
G01*
X151628080Y-90068059D01*
G75*
G02*
X151878079Y-89818060I249999J0D01*
G01*
G37*
%TD.AperFunction*%
%TO.P,R16,2*%
%TO.N,Net-(J5-Pad1)*%
%TA.AperFunction,SMDPad,CuDef*%
G36*
G01*
X151878079Y-91643060D02*
X152778081Y-91643060D01*
G75*
G02*
X153028080Y-91893059I0J-249999D01*
G01*
X153028080Y-92418061D01*
G75*
G02*
X152778081Y-92668060I-249999J0D01*
G01*
X151878079Y-92668060D01*
G75*
G02*
X151628080Y-92418061I0J249999D01*
G01*
X151628080Y-91893059D01*
G75*
G02*
X151878079Y-91643060I249999J0D01*
G01*
G37*
%TD.AperFunction*%
%TD*%
%TO.P,R17,2*%
%TO.N,GND*%
%TA.AperFunction,SMDPad,CuDef*%
G36*
G01*
X151883159Y-95905180D02*
X152783161Y-95905180D01*
G75*
G02*
X153033160Y-96155179I0J-249999D01*
G01*
X153033160Y-96680181D01*
G75*
G02*
X152783161Y-96930180I-249999J0D01*
G01*
X151883159Y-96930180D01*
G75*
G02*
X151633160Y-96680181I0J249999D01*
G01*
X151633160Y-96155179D01*
G75*
G02*
X151883159Y-95905180I249999J0D01*
G01*
G37*
%TD.AperFunction*%
%TO.P,R17,1*%
%TO.N,Net-(J5-Pad1)*%
%TA.AperFunction,SMDPad,CuDef*%
G36*
G01*
X151883159Y-94080180D02*
X152783161Y-94080180D01*
G75*
G02*
X153033160Y-94330179I0J-249999D01*
G01*
X153033160Y-94855181D01*
G75*
G02*
X152783161Y-95105180I-249999J0D01*
G01*
X151883159Y-95105180D01*
G75*
G02*
X151633160Y-94855181I0J249999D01*
G01*
X151633160Y-94330179D01*
G75*
G02*
X151883159Y-94080180I249999J0D01*
G01*
G37*
%TD.AperFunction*%
%TD*%
%TO.P,R18,1*%
%TO.N,Net-(JP1-Pad1)*%
%TA.AperFunction,SMDPad,CuDef*%
G36*
G01*
X119044600Y-96037400D02*
X118494600Y-96037400D01*
G75*
G02*
X118294600Y-95837400I0J200000D01*
G01*
X118294600Y-95437400D01*
G75*
G02*
X118494600Y-95237400I200000J0D01*
G01*
X119044600Y-95237400D01*
G75*
G02*
X119244600Y-95437400I0J-200000D01*
G01*
X119244600Y-95837400D01*
G75*
G02*
X119044600Y-96037400I-200000J0D01*
G01*
G37*
%TD.AperFunction*%
%TO.P,R18,2*%
%TO.N,/VS*%
%TA.AperFunction,SMDPad,CuDef*%
G36*
G01*
X119044600Y-94387400D02*
X118494600Y-94387400D01*
G75*
G02*
X118294600Y-94187400I0J200000D01*
G01*
X118294600Y-93787400D01*
G75*
G02*
X118494600Y-93587400I200000J0D01*
G01*
X119044600Y-93587400D01*
G75*
G02*
X119244600Y-93787400I0J-200000D01*
G01*
X119244600Y-94187400D01*
G75*
G02*
X119044600Y-94387400I-200000J0D01*
G01*
G37*
%TD.AperFunction*%
%TD*%
%TO.P,R20,2*%
%TO.N,/PV*%
%TA.AperFunction,SMDPad,CuDef*%
G36*
G01*
X144287452Y-97711013D02*
X144837452Y-97711013D01*
G75*
G02*
X145037452Y-97911013I0J-200000D01*
G01*
X145037452Y-98311013D01*
G75*
G02*
X144837452Y-98511013I-200000J0D01*
G01*
X144287452Y-98511013D01*
G75*
G02*
X144087452Y-98311013I0J200000D01*
G01*
X144087452Y-97911013D01*
G75*
G02*
X144287452Y-97711013I200000J0D01*
G01*
G37*
%TD.AperFunction*%
%TO.P,R20,1*%
%TO.N,/VS*%
%TA.AperFunction,SMDPad,CuDef*%
G36*
G01*
X144287452Y-96061013D02*
X144837452Y-96061013D01*
G75*
G02*
X145037452Y-96261013I0J-200000D01*
G01*
X145037452Y-96661013D01*
G75*
G02*
X144837452Y-96861013I-200000J0D01*
G01*
X144287452Y-96861013D01*
G75*
G02*
X144087452Y-96661013I0J200000D01*
G01*
X144087452Y-96261013D01*
G75*
G02*
X144287452Y-96061013I200000J0D01*
G01*
G37*
%TD.AperFunction*%
%TD*%
%TO.P,R21,2*%
%TO.N,GND*%
%TA.AperFunction,SMDPad,CuDef*%
G36*
G01*
X174280879Y-89626300D02*
X175180881Y-89626300D01*
G75*
G02*
X175430880Y-89876299I0J-249999D01*
G01*
X175430880Y-90401301D01*
G75*
G02*
X175180881Y-90651300I-249999J0D01*
G01*
X174280879Y-90651300D01*
G75*
G02*
X174030880Y-90401301I0J249999D01*
G01*
X174030880Y-89876299D01*
G75*
G02*
X174280879Y-89626300I249999J0D01*
G01*
G37*
%TD.AperFunction*%
%TO.P,R21,1*%
%TO.N,Net-(C11-Pad1)*%
%TA.AperFunction,SMDPad,CuDef*%
G36*
G01*
X174280879Y-87801300D02*
X175180881Y-87801300D01*
G75*
G02*
X175430880Y-88051299I0J-249999D01*
G01*
X175430880Y-88576301D01*
G75*
G02*
X175180881Y-88826300I-249999J0D01*
G01*
X174280879Y-88826300D01*
G75*
G02*
X174030880Y-88576301I0J249999D01*
G01*
X174030880Y-88051299D01*
G75*
G02*
X174280879Y-87801300I249999J0D01*
G01*
G37*
%TD.AperFunction*%
%TD*%
%TO.P,R22,1*%
%TO.N,/VS*%
%TA.AperFunction,SMDPad,CuDef*%
G36*
G01*
X141556106Y-96077946D02*
X142106106Y-96077946D01*
G75*
G02*
X142306106Y-96277946I0J-200000D01*
G01*
X142306106Y-96677946D01*
G75*
G02*
X142106106Y-96877946I-200000J0D01*
G01*
X141556106Y-96877946D01*
G75*
G02*
X141356106Y-96677946I0J200000D01*
G01*
X141356106Y-96277946D01*
G75*
G02*
X141556106Y-96077946I200000J0D01*
G01*
G37*
%TD.AperFunction*%
%TO.P,R22,2*%
%TO.N,/CRIT*%
%TA.AperFunction,SMDPad,CuDef*%
G36*
G01*
X141556106Y-97727946D02*
X142106106Y-97727946D01*
G75*
G02*
X142306106Y-97927946I0J-200000D01*
G01*
X142306106Y-98327946D01*
G75*
G02*
X142106106Y-98527946I-200000J0D01*
G01*
X141556106Y-98527946D01*
G75*
G02*
X141356106Y-98327946I0J200000D01*
G01*
X141356106Y-97927946D01*
G75*
G02*
X141556106Y-97727946I200000J0D01*
G01*
G37*
%TD.AperFunction*%
%TD*%
%TO.P,R23,2*%
%TO.N,/WARN*%
%TA.AperFunction,SMDPad,CuDef*%
G36*
G01*
X138824760Y-97744879D02*
X139374760Y-97744879D01*
G75*
G02*
X139574760Y-97944879I0J-200000D01*
G01*
X139574760Y-98344879D01*
G75*
G02*
X139374760Y-98544879I-200000J0D01*
G01*
X138824760Y-98544879D01*
G75*
G02*
X138624760Y-98344879I0J200000D01*
G01*
X138624760Y-97944879D01*
G75*
G02*
X138824760Y-97744879I200000J0D01*
G01*
G37*
%TD.AperFunction*%
%TO.P,R23,1*%
%TO.N,/VS*%
%TA.AperFunction,SMDPad,CuDef*%
G36*
G01*
X138824760Y-96094879D02*
X139374760Y-96094879D01*
G75*
G02*
X139574760Y-96294879I0J-200000D01*
G01*
X139574760Y-96694879D01*
G75*
G02*
X139374760Y-96894879I-200000J0D01*
G01*
X138824760Y-96894879D01*
G75*
G02*
X138624760Y-96694879I0J200000D01*
G01*
X138624760Y-96294879D01*
G75*
G02*
X138824760Y-96094879I200000J0D01*
G01*
G37*
%TD.AperFunction*%
%TD*%
%TO.P,R24,1*%
%TO.N,/VS*%
%TA.AperFunction,SMDPad,CuDef*%
G36*
G01*
X147018800Y-96044080D02*
X147568800Y-96044080D01*
G75*
G02*
X147768800Y-96244080I0J-200000D01*
G01*
X147768800Y-96644080D01*
G75*
G02*
X147568800Y-96844080I-200000J0D01*
G01*
X147018800Y-96844080D01*
G75*
G02*
X146818800Y-96644080I0J200000D01*
G01*
X146818800Y-96244080D01*
G75*
G02*
X147018800Y-96044080I200000J0D01*
G01*
G37*
%TD.AperFunction*%
%TO.P,R24,2*%
%TO.N,/TC*%
%TA.AperFunction,SMDPad,CuDef*%
G36*
G01*
X147018800Y-97694080D02*
X147568800Y-97694080D01*
G75*
G02*
X147768800Y-97894080I0J-200000D01*
G01*
X147768800Y-98294080D01*
G75*
G02*
X147568800Y-98494080I-200000J0D01*
G01*
X147018800Y-98494080D01*
G75*
G02*
X146818800Y-98294080I0J200000D01*
G01*
X146818800Y-97894080D01*
G75*
G02*
X147018800Y-97694080I200000J0D01*
G01*
G37*
%TD.AperFunction*%
%TD*%
%TO.P,R25,2*%
%TO.N,/SDA*%
%TA.AperFunction,SMDPad,CuDef*%
G36*
G01*
X164389320Y-97038120D02*
X164389320Y-96488120D01*
G75*
G02*
X164589320Y-96288120I200000J0D01*
G01*
X164989320Y-96288120D01*
G75*
G02*
X165189320Y-96488120I0J-200000D01*
G01*
X165189320Y-97038120D01*
G75*
G02*
X164989320Y-97238120I-200000J0D01*
G01*
X164589320Y-97238120D01*
G75*
G02*
X164389320Y-97038120I0J200000D01*
G01*
G37*
%TD.AperFunction*%
%TO.P,R25,1*%
%TO.N,/VS*%
%TA.AperFunction,SMDPad,CuDef*%
G36*
G01*
X162739320Y-97038120D02*
X162739320Y-96488120D01*
G75*
G02*
X162939320Y-96288120I200000J0D01*
G01*
X163339320Y-96288120D01*
G75*
G02*
X163539320Y-96488120I0J-200000D01*
G01*
X163539320Y-97038120D01*
G75*
G02*
X163339320Y-97238120I-200000J0D01*
G01*
X162939320Y-97238120D01*
G75*
G02*
X162739320Y-97038120I0J200000D01*
G01*
G37*
%TD.AperFunction*%
%TD*%
%TO.P,R26,2*%
%TO.N,/SCL*%
%TA.AperFunction,SMDPad,CuDef*%
G36*
G01*
X164399740Y-99834660D02*
X164399740Y-99284660D01*
G75*
G02*
X164599740Y-99084660I200000J0D01*
G01*
X164999740Y-99084660D01*
G75*
G02*
X165199740Y-99284660I0J-200000D01*
G01*
X165199740Y-99834660D01*
G75*
G02*
X164999740Y-100034660I-200000J0D01*
G01*
X164599740Y-100034660D01*
G75*
G02*
X164399740Y-99834660I0J200000D01*
G01*
G37*
%TD.AperFunction*%
%TO.P,R26,1*%
%TO.N,/VS*%
%TA.AperFunction,SMDPad,CuDef*%
G36*
G01*
X162749740Y-99834660D02*
X162749740Y-99284660D01*
G75*
G02*
X162949740Y-99084660I200000J0D01*
G01*
X163349740Y-99084660D01*
G75*
G02*
X163549740Y-99284660I0J-200000D01*
G01*
X163549740Y-99834660D01*
G75*
G02*
X163349740Y-100034660I-200000J0D01*
G01*
X162949740Y-100034660D01*
G75*
G02*
X162749740Y-99834660I0J200000D01*
G01*
G37*
%TD.AperFunction*%
%TD*%
%TO.P,R27,1*%
%TO.N,/VBAT-*%
%TA.AperFunction,SMDPad,CuDef*%
G36*
G01*
X142690600Y-67223600D02*
X142690600Y-66673600D01*
G75*
G02*
X142890600Y-66473600I200000J0D01*
G01*
X143290600Y-66473600D01*
G75*
G02*
X143490600Y-66673600I0J-200000D01*
G01*
X143490600Y-67223600D01*
G75*
G02*
X143290600Y-67423600I-200000J0D01*
G01*
X142890600Y-67423600D01*
G75*
G02*
X142690600Y-67223600I0J200000D01*
G01*
G37*
%TD.AperFunction*%
%TO.P,R27,2*%
%TO.N,Net-(J11-Pad1)*%
%TA.AperFunction,SMDPad,CuDef*%
G36*
G01*
X144340600Y-67223600D02*
X144340600Y-66673600D01*
G75*
G02*
X144540600Y-66473600I200000J0D01*
G01*
X144940600Y-66473600D01*
G75*
G02*
X145140600Y-66673600I0J-200000D01*
G01*
X145140600Y-67223600D01*
G75*
G02*
X144940600Y-67423600I-200000J0D01*
G01*
X144540600Y-67423600D01*
G75*
G02*
X144340600Y-67223600I0J200000D01*
G01*
G37*
%TD.AperFunction*%
%TD*%
%TO.P,R28,2*%
%TO.N,GND*%
%TA.AperFunction,SMDPad,CuDef*%
G36*
G01*
X149403800Y-62435700D02*
X149403800Y-61885700D01*
G75*
G02*
X149603800Y-61685700I200000J0D01*
G01*
X150003800Y-61685700D01*
G75*
G02*
X150203800Y-61885700I0J-200000D01*
G01*
X150203800Y-62435700D01*
G75*
G02*
X150003800Y-62635700I-200000J0D01*
G01*
X149603800Y-62635700D01*
G75*
G02*
X149403800Y-62435700I0J200000D01*
G01*
G37*
%TD.AperFunction*%
%TO.P,R28,1*%
%TO.N,Net-(C20-Pad2)*%
%TA.AperFunction,SMDPad,CuDef*%
G36*
G01*
X147753800Y-62435700D02*
X147753800Y-61885700D01*
G75*
G02*
X147953800Y-61685700I200000J0D01*
G01*
X148353800Y-61685700D01*
G75*
G02*
X148553800Y-61885700I0J-200000D01*
G01*
X148553800Y-62435700D01*
G75*
G02*
X148353800Y-62635700I-200000J0D01*
G01*
X147953800Y-62635700D01*
G75*
G02*
X147753800Y-62435700I0J200000D01*
G01*
G37*
%TD.AperFunction*%
%TD*%
%TO.P,R29,1*%
%TO.N,Net-(C20-Pad1)*%
%TA.AperFunction,SMDPad,CuDef*%
G36*
G01*
X150144400Y-64832100D02*
X150144400Y-65382100D01*
G75*
G02*
X149944400Y-65582100I-200000J0D01*
G01*
X149544400Y-65582100D01*
G75*
G02*
X149344400Y-65382100I0J200000D01*
G01*
X149344400Y-64832100D01*
G75*
G02*
X149544400Y-64632100I200000J0D01*
G01*
X149944400Y-64632100D01*
G75*
G02*
X150144400Y-64832100I0J-200000D01*
G01*
G37*
%TD.AperFunction*%
%TO.P,R29,2*%
%TO.N,Net-(C20-Pad2)*%
%TA.AperFunction,SMDPad,CuDef*%
G36*
G01*
X148494400Y-64832100D02*
X148494400Y-65382100D01*
G75*
G02*
X148294400Y-65582100I-200000J0D01*
G01*
X147894400Y-65582100D01*
G75*
G02*
X147694400Y-65382100I0J200000D01*
G01*
X147694400Y-64832100D01*
G75*
G02*
X147894400Y-64632100I200000J0D01*
G01*
X148294400Y-64632100D01*
G75*
G02*
X148494400Y-64832100I0J-200000D01*
G01*
G37*
%TD.AperFunction*%
%TD*%
%TO.P,R30,2*%
%TO.N,Net-(R30-Pad2)*%
%TA.AperFunction,SMDPad,CuDef*%
G36*
G01*
X172493820Y-84832319D02*
X172493820Y-85732321D01*
G75*
G02*
X172243821Y-85982320I-249999J0D01*
G01*
X171718819Y-85982320D01*
G75*
G02*
X171468820Y-85732321I0J249999D01*
G01*
X171468820Y-84832319D01*
G75*
G02*
X171718819Y-84582320I249999J0D01*
G01*
X172243821Y-84582320D01*
G75*
G02*
X172493820Y-84832319I0J-249999D01*
G01*
G37*
%TD.AperFunction*%
%TO.P,R30,1*%
%TO.N,/V_SPBC+*%
%TA.AperFunction,SMDPad,CuDef*%
G36*
G01*
X174318820Y-84832319D02*
X174318820Y-85732321D01*
G75*
G02*
X174068821Y-85982320I-249999J0D01*
G01*
X173543819Y-85982320D01*
G75*
G02*
X173293820Y-85732321I0J249999D01*
G01*
X173293820Y-84832319D01*
G75*
G02*
X173543819Y-84582320I249999J0D01*
G01*
X174068821Y-84582320D01*
G75*
G02*
X174318820Y-84832319I0J-249999D01*
G01*
G37*
%TD.AperFunction*%
%TD*%
%TO.P,R31,1*%
%TO.N,Net-(R30-Pad2)*%
%TA.AperFunction,SMDPad,CuDef*%
G36*
G01*
X170968719Y-87789240D02*
X171868721Y-87789240D01*
G75*
G02*
X172118720Y-88039239I0J-249999D01*
G01*
X172118720Y-88564241D01*
G75*
G02*
X171868721Y-88814240I-249999J0D01*
G01*
X170968719Y-88814240D01*
G75*
G02*
X170718720Y-88564241I0J249999D01*
G01*
X170718720Y-88039239D01*
G75*
G02*
X170968719Y-87789240I249999J0D01*
G01*
G37*
%TD.AperFunction*%
%TO.P,R31,2*%
%TO.N,GND*%
%TA.AperFunction,SMDPad,CuDef*%
G36*
G01*
X170968719Y-89614240D02*
X171868721Y-89614240D01*
G75*
G02*
X172118720Y-89864239I0J-249999D01*
G01*
X172118720Y-90389241D01*
G75*
G02*
X171868721Y-90639240I-249999J0D01*
G01*
X170968719Y-90639240D01*
G75*
G02*
X170718720Y-90389241I0J249999D01*
G01*
X170718720Y-89864239D01*
G75*
G02*
X170968719Y-89614240I249999J0D01*
G01*
G37*
%TD.AperFunction*%
%TD*%
D16*
%TO.P,J11,1*%
%TO.N,Net-(J11-Pad1)*%
X139165800Y-63418000D03*
D17*
%TO.P,J11,2*%
%TO.N,GND*%
X139165800Y-65958000D03*
%TD*%
%TO.P,J7,1*%
%TO.N,/VS*%
%TA.AperFunction,ComponentPad*%
G36*
G01*
X160540800Y-103436800D02*
X160540800Y-101986800D01*
G75*
G02*
X160790800Y-101736800I250000J0D01*
G01*
X161990800Y-101736800D01*
G75*
G02*
X162240800Y-101986800I0J-250000D01*
G01*
X162240800Y-103436800D01*
G75*
G02*
X161990800Y-103686800I-250000J0D01*
G01*
X160790800Y-103686800D01*
G75*
G02*
X160540800Y-103436800I0J250000D01*
G01*
G37*
%TD.AperFunction*%
D28*
%TO.P,J7,2*%
%TO.N,/SCL*%
X163890800Y-102711800D03*
%TO.P,J7,3*%
%TO.N,/SDA*%
X166390800Y-102711800D03*
%TO.P,J7,4*%
%TO.N,GND*%
X168890800Y-102711800D03*
%TD*%
%TO.P,J8,1*%
%TO.N,/VPU*%
%TA.AperFunction,ComponentPad*%
G36*
G01*
X136360000Y-103386000D02*
X136360000Y-101936000D01*
G75*
G02*
X136610000Y-101686000I250000J0D01*
G01*
X137810000Y-101686000D01*
G75*
G02*
X138060000Y-101936000I0J-250000D01*
G01*
X138060000Y-103386000D01*
G75*
G02*
X137810000Y-103636000I-250000J0D01*
G01*
X136610000Y-103636000D01*
G75*
G02*
X136360000Y-103386000I0J250000D01*
G01*
G37*
%TD.AperFunction*%
%TO.P,J8,2*%
%TO.N,/WARN*%
X139710000Y-102661000D03*
%TO.P,J8,3*%
%TO.N,/CRIT*%
X142210000Y-102661000D03*
%TO.P,J8,4*%
%TO.N,/PV*%
X144710000Y-102661000D03*
%TO.P,J8,5*%
%TO.N,/TC*%
X147210000Y-102661000D03*
%TO.P,J8,6*%
%TO.N,GND*%
X149710000Y-102661000D03*
%TD*%
%TO.P,J3,1*%
%TO.N,/CHRG*%
%TA.AperFunction,ComponentPad*%
G36*
G01*
X108572400Y-103233600D02*
X108572400Y-101783600D01*
G75*
G02*
X108822400Y-101533600I250000J0D01*
G01*
X110022400Y-101533600D01*
G75*
G02*
X110272400Y-101783600I0J-250000D01*
G01*
X110272400Y-103233600D01*
G75*
G02*
X110022400Y-103483600I-250000J0D01*
G01*
X108822400Y-103483600D01*
G75*
G02*
X108572400Y-103233600I0J250000D01*
G01*
G37*
%TD.AperFunction*%
%TO.P,J3,2*%
%TO.N,/FAULT*%
X111922400Y-102508600D03*
%TO.P,J3,3*%
%TO.N,GND*%
X114422400Y-102508600D03*
%TD*%
D29*
%TO.N,GND*%
X97662200Y-47136600D03*
X97586000Y-50997400D03*
X99872000Y-51022800D03*
X99795800Y-47136600D03*
X103580400Y-74390800D03*
X106234700Y-84258700D03*
X110400300Y-68574200D03*
X110463800Y-79521600D03*
X141426400Y-69387000D03*
X130539600Y-92217200D03*
X133463500Y-86976500D03*
X128751800Y-87116200D03*
X155701200Y-86633600D03*
X169620400Y-90164200D03*
X173024000Y-90164200D03*
X152564300Y-62148000D03*
X151395900Y-62148000D03*
X154065440Y-96793600D03*
X160349400Y-90325490D03*
X160395120Y-83844680D03*
X160425600Y-96806300D03*
X159324932Y-96798680D03*
X158224266Y-96808840D03*
X157123600Y-96808840D03*
X161340000Y-78124600D03*
X158459640Y-78119520D03*
X158459640Y-76854600D03*
X148147240Y-71546000D03*
X148147240Y-70194720D03*
X123976600Y-92983600D03*
X112673600Y-93466200D03*
X121335006Y-90483670D03*
%TO.N,/CHRG*%
X104621800Y-80436000D03*
X104494800Y-96387200D03*
%TO.N,/NTC*%
X115594600Y-81604400D03*
%TO.N,Net-(R6-Pad2)*%
X103809000Y-79242200D03*
X97713000Y-78543700D03*
%TO.N,/VBAT+*%
X123819120Y-84205360D03*
%TO.N,/VSP-*%
X148163700Y-83147500D03*
X146969900Y-83147500D03*
X109676400Y-73755800D03*
X109676400Y-74975000D03*
%TO.N,Net-(C3-Pad2)*%
X146587680Y-84881000D03*
X168766960Y-72765200D03*
%TO.N,Net-(C3-Pad1)*%
X149178480Y-85714120D03*
X173003680Y-72749960D03*
%TO.N,Net-(C5-Pad2)*%
X103021600Y-64637200D03*
X121335000Y-92628000D03*
%TO.N,Net-(C5-Pad1)*%
X106755400Y-64611800D03*
X119709400Y-91789800D03*
%TO.N,Net-(C8-Pad2)*%
X130961600Y-78429400D03*
X118566400Y-76245000D03*
%TO.N,Net-(C11-Pad2)*%
X164931560Y-88574160D03*
X164946800Y-92023480D03*
%TO.N,Net-(C17-Pad1)*%
X158584100Y-87078100D03*
X163915560Y-85236600D03*
%TO.N,Net-(C20-Pad1)*%
X161644800Y-61030400D03*
X161644800Y-62122600D03*
X153466000Y-75432200D03*
X153466000Y-71520600D03*
X153466000Y-70174400D03*
%TO.N,/VSP+*%
X95604800Y-94685400D03*
%TO.N,/SCL*%
X166313320Y-99567280D03*
X131063200Y-97123800D03*
%TO.N,/SDA*%
X166435240Y-96859640D03*
X132130000Y-97022200D03*
%TO.N,/PV*%
X134517600Y-93009000D03*
X143179000Y-97327000D03*
%TO.N,/CRIT*%
X134289000Y-94177400D03*
X140461200Y-97301600D03*
%TO.N,/WARN*%
X132079200Y-95650600D03*
X137565600Y-97276200D03*
%TO.N,/TC*%
X134258520Y-90275960D03*
X145947600Y-97301600D03*
%TO.N,Net-(JP1-Pad1)*%
X129437600Y-95523600D03*
X127481800Y-97123800D03*
%TO.N,Net-(R30-Pad2)*%
X165327800Y-93517000D03*
X169569600Y-87034920D03*
%TO.N,/VPU_D*%
X129564600Y-88894202D03*
%TD*%
D30*
%TO.N,GND*%
X103586200Y-74385000D02*
X103580400Y-74390800D01*
X105152500Y-74385000D02*
X103586200Y-74385000D01*
D31*
X106252500Y-84276500D02*
X106234700Y-84258700D01*
X106252500Y-85810000D02*
X106252500Y-84276500D01*
X141424600Y-69385200D02*
X141426400Y-69387000D01*
X130539600Y-92217200D02*
X130539600Y-92218700D01*
X131290000Y-87047500D02*
X133392500Y-87047500D01*
X133392500Y-87047500D02*
X133463500Y-86976500D01*
X126430000Y-87047500D02*
X128683100Y-87047500D01*
X128683100Y-87047500D02*
X128751800Y-87116200D01*
X154446440Y-86618360D02*
X155685960Y-86618360D01*
X155685960Y-86618360D02*
X155701200Y-86633600D01*
D30*
X139167600Y-69387000D02*
X139165800Y-69385200D01*
X141426400Y-69387000D02*
X139167600Y-69387000D01*
D32*
X110410500Y-68564000D02*
X110400300Y-68574200D01*
X111826000Y-68564000D02*
X110410500Y-68564000D01*
D31*
X128677100Y-92542200D02*
X127186600Y-92542200D01*
X126719800Y-93009000D02*
X125373600Y-93009000D01*
X127186600Y-92542200D02*
X126719800Y-93009000D01*
X124002000Y-93009000D02*
X123976600Y-92983600D01*
X125373600Y-93009000D02*
X124002000Y-93009000D01*
X113395200Y-94187800D02*
X112673600Y-93466200D01*
X115264400Y-94187800D02*
X113395200Y-94187800D01*
X121335000Y-90483664D02*
X121335006Y-90483670D01*
X121335000Y-89271400D02*
X121335000Y-90483664D01*
%TO.N,Net-(D1-Pad2)*%
X98940000Y-94710000D02*
X101715000Y-94710000D01*
%TO.N,/FAULT*%
X103590000Y-94710000D02*
X104927400Y-94710000D01*
X104927400Y-94710000D02*
X105460000Y-95242600D01*
X105460000Y-95242600D02*
X105460000Y-98698600D01*
X103590000Y-94710000D02*
X103590000Y-93558200D01*
X103590000Y-93558200D02*
X104647200Y-92501000D01*
X104647200Y-92501000D02*
X104647200Y-81706000D01*
X105888200Y-80465000D02*
X105485400Y-80867800D01*
X108330000Y-80465000D02*
X105888200Y-80465000D01*
X105485400Y-80867800D02*
X105815600Y-80537600D01*
X104647200Y-81706000D02*
X105485400Y-80867800D01*
X111922400Y-102508600D02*
X111922400Y-100919200D01*
X111922400Y-100919200D02*
X110616200Y-99613000D01*
X106374400Y-99613000D02*
X105460000Y-98698600D01*
X110616200Y-99613000D02*
X106374400Y-99613000D01*
%TO.N,Net-(D2-Pad2)*%
X98940000Y-98610000D02*
X101690000Y-98610000D01*
%TO.N,/CHRG*%
X105242800Y-79815000D02*
X104621800Y-80436000D01*
X108330000Y-79815000D02*
X105242800Y-79815000D01*
X103565000Y-97317000D02*
X103565000Y-98610000D01*
X104494800Y-96387200D02*
X103565000Y-97317000D01*
X103565000Y-98610000D02*
X104279200Y-98610000D01*
X104279200Y-98610000D02*
X105993400Y-100324200D01*
X105993400Y-100324200D02*
X109244600Y-100324200D01*
X109422400Y-100502000D02*
X109422400Y-102508600D01*
X109244600Y-100324200D02*
X109422400Y-100502000D01*
%TO.N,/NTC*%
X114455200Y-80465000D02*
X115594600Y-81604400D01*
X112630000Y-80465000D02*
X114455200Y-80465000D01*
%TO.N,Net-(R6-Pad2)*%
X97665000Y-77085000D02*
X97590000Y-77010000D01*
X103809000Y-79242200D02*
X106577600Y-79242200D01*
X106654800Y-79165000D02*
X108330000Y-79165000D01*
X106577600Y-79242200D02*
X106654800Y-79165000D01*
X97677500Y-78508200D02*
X97713000Y-78543700D01*
X97677500Y-77010000D02*
X97677500Y-78508200D01*
D33*
%TO.N,Net-(D7-Pad2)*%
X156690000Y-66300000D02*
X160462800Y-66300000D01*
X161640000Y-67477200D02*
X161640000Y-68910000D01*
X160462800Y-66300000D02*
X161640000Y-67477200D01*
D31*
%TO.N,/VIN_SET*%
X98755000Y-88165000D02*
X98755000Y-81695000D01*
X101935000Y-78515000D02*
X108330000Y-78515000D01*
X98755000Y-81695000D02*
X101935000Y-78515000D01*
X94563400Y-92356600D02*
X98755000Y-88165000D01*
X94563400Y-98520800D02*
X94563400Y-92356600D01*
X100024400Y-103981800D02*
X94563400Y-98520800D01*
X102970800Y-103981800D02*
X100024400Y-103981800D01*
%TO.N,/VBAT+*%
X121340000Y-81101400D02*
X121340000Y-82227500D01*
X121030200Y-80791600D02*
X121340000Y-81101400D01*
D33*
X137159200Y-83712600D02*
X136117800Y-82671200D01*
X136117800Y-53232600D02*
X140131000Y-49219400D01*
X136117800Y-82671200D02*
X136117800Y-53232600D01*
X176057400Y-49219400D02*
X140131000Y-49219400D01*
D31*
X137159200Y-83712600D02*
X137159200Y-85414400D01*
X136990800Y-85582800D02*
X136990800Y-86648900D01*
X137159200Y-85414400D02*
X136990800Y-85582800D01*
X126322140Y-84205360D02*
X126430000Y-84097500D01*
X123819120Y-84205360D02*
X126322140Y-84205360D01*
D32*
X112630000Y-79815000D02*
X115024400Y-79815000D01*
X116001000Y-80791600D02*
X121030200Y-80791600D01*
X115024400Y-79815000D02*
X116001000Y-80791600D01*
D33*
%TO.N,/VSP-*%
X108277500Y-69897500D02*
X108165000Y-69785000D01*
D32*
X99590000Y-77010000D02*
X102215000Y-77010000D01*
X103070000Y-77865000D02*
X108330000Y-77865000D01*
X102215000Y-77010000D02*
X103070000Y-77865000D01*
X108330000Y-74437500D02*
X108277500Y-74385000D01*
D31*
X99590000Y-79710000D02*
X99590000Y-77010000D01*
X96215000Y-83085000D02*
X99590000Y-79710000D01*
X108265000Y-66397500D02*
X108190000Y-66322500D01*
X108265000Y-69785000D02*
X108265000Y-66397500D01*
D34*
X149895500Y-83103000D02*
X149940000Y-83147500D01*
D30*
X152328080Y-90330560D02*
X152322439Y-90324919D01*
D31*
X152476597Y-90479077D02*
X152328080Y-90330560D01*
D34*
X157965000Y-90125000D02*
X155103200Y-90125000D01*
X154446440Y-89468240D02*
X154446440Y-88168360D01*
X155103200Y-90125000D02*
X154446440Y-89468240D01*
D33*
X149940000Y-83147500D02*
X148163700Y-83147500D01*
D34*
X109707600Y-74385000D02*
X109727200Y-74365400D01*
D33*
X148163700Y-83147500D02*
X146969900Y-83147500D01*
D31*
%TO.N,Net-(C2-Pad1)*%
X108327500Y-81117500D02*
X108330000Y-81115000D01*
X108327500Y-85810000D02*
X108327500Y-81117500D01*
X108327500Y-91822500D02*
X108240000Y-91910000D01*
X108327500Y-85810000D02*
X108327500Y-91822500D01*
%TO.N,Net-(C3-Pad2)*%
X169290000Y-69922500D02*
X169290000Y-71007320D01*
X169902500Y-71619820D02*
X169902500Y-72710000D01*
X169290000Y-71007320D02*
X169902500Y-71619820D01*
X169847300Y-72765200D02*
X169902500Y-72710000D01*
X168766960Y-72765200D02*
X169847300Y-72765200D01*
X144347400Y-84881000D02*
X146587680Y-84881000D01*
X142833560Y-86394840D02*
X144347400Y-84881000D01*
X141601230Y-92468410D02*
X142833560Y-91236080D01*
X136783710Y-92468410D02*
X141601230Y-92468410D01*
X135557500Y-91242200D02*
X136783710Y-92468410D01*
X142833560Y-91236080D02*
X142833560Y-86394840D01*
X132402100Y-91242200D02*
X135557500Y-91242200D01*
%TO.N,Net-(C3-Pad1)*%
X172140000Y-69922500D02*
X172140000Y-70951720D01*
X171452500Y-71639220D02*
X171452500Y-72710000D01*
X172140000Y-70951720D02*
X171452500Y-71639220D01*
X171492460Y-72749960D02*
X171452500Y-72710000D01*
X173003680Y-72749960D02*
X171492460Y-72749960D01*
X143453320Y-86938400D02*
X144697920Y-85693800D01*
X149158160Y-85693800D02*
X149178480Y-85714120D01*
X144697920Y-85693800D02*
X149158160Y-85693800D01*
X143453320Y-91252730D02*
X143453320Y-86938400D01*
X141747850Y-92958200D02*
X143453320Y-91252730D01*
X136346400Y-92958200D02*
X141747850Y-92958200D01*
X135280400Y-91892200D02*
X136346400Y-92958200D01*
X132402100Y-91892200D02*
X135280400Y-91892200D01*
%TO.N,Net-(C4-Pad1)*%
X138896300Y-92018400D02*
X139428300Y-91486400D01*
X139428300Y-91486400D02*
X139428300Y-91011400D01*
X134917913Y-89497713D02*
X137438600Y-92018400D01*
X131209087Y-89497713D02*
X134917913Y-89497713D01*
X137438600Y-92018400D02*
X138896300Y-92018400D01*
X130864600Y-89842200D02*
X131209087Y-89497713D01*
X130864600Y-90354700D02*
X130864600Y-89842200D01*
X139428300Y-90104900D02*
X139428300Y-91011400D01*
X140340800Y-89192400D02*
X139428300Y-90104900D01*
X140340800Y-88298900D02*
X140340800Y-89192400D01*
%TO.N,Net-(C4-Pad2)*%
X136990800Y-88298900D02*
X136990800Y-89157600D01*
X137878300Y-90045100D02*
X137878300Y-91011400D01*
X136990800Y-89157600D02*
X137878300Y-90045100D01*
X137878300Y-90536400D02*
X137878300Y-91011400D01*
X130905698Y-89047702D02*
X135229902Y-89047702D01*
X130214600Y-89738800D02*
X130905698Y-89047702D01*
X130214600Y-90354700D02*
X130214600Y-89738800D01*
X135978704Y-88298900D02*
X135229902Y-89047702D01*
X136990800Y-88298900D02*
X135978704Y-88298900D01*
%TO.N,Net-(C5-Pad2)*%
X105000300Y-64637200D02*
X105090000Y-64547500D01*
X103021600Y-64637200D02*
X105000300Y-64637200D01*
X128677100Y-91892200D02*
X127101600Y-91892200D01*
X126618800Y-91409400D02*
X125399000Y-91409400D01*
X127101600Y-91892200D02*
X126618800Y-91409400D01*
X122553600Y-91409400D02*
X121335000Y-92628000D01*
X125399000Y-91409400D02*
X122553600Y-91409400D01*
%TO.N,Net-(C5-Pad1)*%
X106782200Y-64585000D02*
X106755400Y-64611800D01*
X108190000Y-64585000D02*
X106782200Y-64585000D01*
X128677100Y-91242200D02*
X127924800Y-91242200D01*
X126542000Y-89859400D02*
X125399000Y-89859400D01*
X127924800Y-91242200D02*
X126542000Y-89859400D01*
X121239604Y-91789800D02*
X119709400Y-91789800D01*
X125399000Y-89859400D02*
X123170004Y-89859400D01*
X123170004Y-89859400D02*
X121239604Y-91789800D01*
%TO.N,Net-(C8-Pad2)*%
X130992200Y-78460000D02*
X130961600Y-78429400D01*
X117137500Y-76245000D02*
X116902500Y-76010000D01*
D32*
X118331400Y-76010000D02*
X118566400Y-76245000D01*
X116902500Y-76010000D02*
X118331400Y-76010000D01*
X112630000Y-78515000D02*
X116448800Y-78515000D01*
X116902500Y-78061300D02*
X116902500Y-76010000D01*
X116448800Y-78515000D02*
X116902500Y-78061300D01*
X132359400Y-78429400D02*
X132390000Y-78460000D01*
X130961600Y-78429400D02*
X132359400Y-78429400D01*
D31*
%TO.N,Net-(C11-Pad1)*%
X169615320Y-92978520D02*
X175106800Y-92978520D01*
X175106800Y-92978520D02*
X176534280Y-91551040D01*
X176534280Y-91551040D02*
X176534280Y-88660520D01*
X176187560Y-88313800D02*
X174730880Y-88313800D01*
X176534280Y-88660520D02*
X176187560Y-88313800D01*
%TO.N,Net-(C11-Pad2)*%
X164937240Y-88568480D02*
X164931560Y-88574160D01*
X168065920Y-88568480D02*
X164937240Y-88568480D01*
X164946800Y-91721560D02*
X164620240Y-91395000D01*
X164946800Y-92023480D02*
X164946800Y-91721560D01*
X164620240Y-91395000D02*
X162915000Y-91395000D01*
X165481640Y-91395000D02*
X164620240Y-91395000D01*
X167065160Y-92978520D02*
X165481640Y-91395000D01*
X168065320Y-92978520D02*
X167065160Y-92978520D01*
%TO.N,/VS*%
X163149740Y-96773540D02*
X163139320Y-96763120D01*
X163149740Y-99559660D02*
X163149740Y-96773540D01*
X147293800Y-96444080D02*
X147313120Y-96463400D01*
X147261780Y-96476100D02*
X147293800Y-96444080D01*
X139118540Y-96476100D02*
X147261780Y-96476100D01*
X139099760Y-96494880D02*
X139118540Y-96476100D01*
X161390800Y-102711800D02*
X161390800Y-100832200D01*
X161390800Y-100832200D02*
X161568600Y-100654400D01*
X161568600Y-100654400D02*
X162940200Y-100654400D01*
X163149740Y-100444860D02*
X163149740Y-99559660D01*
X162940200Y-100654400D02*
X163149740Y-100444860D01*
X147293800Y-96444080D02*
X148112680Y-96444080D01*
X151228260Y-99559660D02*
X153488860Y-99559660D01*
X148112680Y-96444080D02*
X151228260Y-99559660D01*
X153488860Y-99559660D02*
X163149740Y-99559660D01*
X153209460Y-99559660D02*
X153488860Y-99559660D01*
X139099760Y-96494879D02*
X135629121Y-96494879D01*
X125373600Y-94559000D02*
X125931800Y-94559000D01*
X127298600Y-93192200D02*
X128677100Y-93192200D01*
X125931800Y-94559000D02*
X127298600Y-93192200D01*
X139099760Y-96494879D02*
X134536921Y-96494879D01*
X133182999Y-97848801D02*
X129807001Y-97848801D01*
X134536921Y-96494879D02*
X133182999Y-97848801D01*
X128677100Y-96718900D02*
X128677100Y-93192200D01*
X129807001Y-97848801D02*
X128677100Y-96718900D01*
X121183200Y-94559000D02*
X125373600Y-94559000D01*
X120611600Y-93987400D02*
X121183200Y-94559000D01*
X118769600Y-93987400D02*
X120611600Y-93987400D01*
%TO.N,Net-(C15-Pad2)*%
X157976440Y-92676440D02*
X157965000Y-92665000D01*
X155492920Y-94867680D02*
X155492920Y-93222360D01*
X156050280Y-92665000D02*
X157965000Y-92665000D01*
X155492920Y-93222360D02*
X156050280Y-92665000D01*
%TO.N,/VBAT-*%
X140084200Y-83712600D02*
X140084200Y-85266000D01*
X140340800Y-85522600D02*
X140340800Y-86648900D01*
X140084200Y-85266000D02*
X140340800Y-85522600D01*
%TO.N,Net-(C17-Pad1)*%
X158627880Y-85637920D02*
X158627880Y-87034320D01*
X158627880Y-87034320D02*
X158584100Y-87078100D01*
%TO.N,Net-(C17-Pad2)*%
X157965000Y-88855000D02*
X157965000Y-88160800D01*
X157077880Y-87273680D02*
X157077880Y-85637920D01*
X157965000Y-88160800D02*
X157077880Y-87273680D01*
D33*
%TO.N,/V_SPBC+*%
X156690000Y-68840000D02*
X156690000Y-71950600D01*
X158074400Y-73335000D02*
X160140000Y-73335000D01*
X156690000Y-71950600D02*
X158074400Y-73335000D01*
X164302500Y-73335000D02*
X164340000Y-73372500D01*
D30*
X175990720Y-85282320D02*
X173806320Y-85282320D01*
X176712080Y-84560960D02*
X175990720Y-85282320D01*
X176712080Y-77779160D02*
X176712080Y-84560960D01*
X176092920Y-77160000D02*
X176712080Y-77779160D01*
X171290000Y-77160000D02*
X176092920Y-77160000D01*
D33*
%TO.N,Net-(C20-Pad1)*%
X161594000Y-63814000D02*
X161640000Y-63860000D01*
X161640000Y-61035200D02*
X161644800Y-61030400D01*
X161640000Y-63860000D02*
X161640000Y-61035200D01*
%TO.N,/VOUT+*%
X165640000Y-63860000D02*
X168940000Y-63860000D01*
X165640000Y-63860000D02*
X165640000Y-68910000D01*
D31*
X165640000Y-68910000D02*
X167410080Y-68910000D01*
X168047580Y-68272500D02*
X169290000Y-68272500D01*
X167410080Y-68910000D02*
X168047580Y-68272500D01*
%TO.N,/VSP+*%
X105165000Y-66360000D02*
X105090000Y-66285000D01*
X105165000Y-69785000D02*
X105165000Y-66360000D01*
D33*
X97265000Y-69785000D02*
X97240000Y-69760000D01*
X105165000Y-69785000D02*
X97265000Y-69785000D01*
D31*
X96940000Y-98610000D02*
X96940000Y-94710000D01*
X95629400Y-94710000D02*
X95604800Y-94685400D01*
X97027500Y-94710000D02*
X95629400Y-94710000D01*
%TO.N,Net-(J5-Pad1)*%
X154969680Y-92155560D02*
X152328080Y-92155560D01*
X155730240Y-91395000D02*
X154969680Y-92155560D01*
X152333160Y-92160640D02*
X152328080Y-92155560D01*
X152333160Y-94592680D02*
X152333160Y-92160640D01*
X152328080Y-92155560D02*
X150136060Y-92155560D01*
X150136060Y-92155560D02*
X148805100Y-90824600D01*
X148805100Y-90824600D02*
X148805100Y-89922900D01*
X147979600Y-89097400D02*
X146519100Y-89097400D01*
X148805100Y-89922900D02*
X147979600Y-89097400D01*
X157965000Y-91395000D02*
X155730240Y-91395000D01*
%TO.N,/SCL*%
X164807360Y-99567280D02*
X164799740Y-99559660D01*
X166313320Y-99567280D02*
X164807360Y-99567280D01*
X163689500Y-102180940D02*
X163689500Y-103550000D01*
X164799740Y-99559660D02*
X164799740Y-99937860D01*
X163890800Y-100846800D02*
X163890800Y-102711800D01*
X164799740Y-99937860D02*
X163890800Y-100846800D01*
X130214600Y-96275200D02*
X131063200Y-97123800D01*
X130214600Y-94079700D02*
X130214600Y-96275200D01*
%TO.N,/SDA*%
X164885840Y-96859640D02*
X164789320Y-96763120D01*
X166435240Y-96859640D02*
X164885840Y-96859640D01*
X166435240Y-96859640D02*
X167159140Y-96859640D01*
X167575700Y-99943200D02*
X167582050Y-99949550D01*
X167159140Y-96859640D02*
X167575700Y-97276200D01*
X166390800Y-102711800D02*
X166390800Y-101572600D01*
X167575700Y-100387700D02*
X167575700Y-99778100D01*
X166390800Y-101572600D02*
X167575700Y-100387700D01*
X167575700Y-99778100D02*
X167575700Y-99943200D01*
X167575700Y-97276200D02*
X167575700Y-99778100D01*
X130864600Y-94079700D02*
X130864600Y-95756800D01*
X130864600Y-95756800D02*
X132130000Y-97022200D01*
%TO.N,/PV*%
X144562452Y-98111013D02*
X144562452Y-99345452D01*
X144710000Y-99493000D02*
X144710000Y-102661000D01*
X144562452Y-99345452D02*
X144710000Y-99493000D01*
X134050800Y-92542200D02*
X134517600Y-93009000D01*
X132402100Y-92542200D02*
X134050800Y-92542200D01*
X143179000Y-97327000D02*
X143179000Y-97784200D01*
X143505813Y-98111013D02*
X144562452Y-98111013D01*
X143179000Y-97784200D02*
X143505813Y-98111013D01*
%TO.N,/CRIT*%
X141831106Y-98127946D02*
X141831106Y-99687506D01*
X142210000Y-100066400D02*
X142210000Y-102661000D01*
X141831106Y-99687506D02*
X142210000Y-100066400D01*
X133303800Y-93192200D02*
X134289000Y-94177400D01*
X132402100Y-93192200D02*
X133303800Y-93192200D01*
X140461200Y-97301600D02*
X140461200Y-97657200D01*
X140931946Y-98127946D02*
X141831106Y-98127946D01*
X140461200Y-97657200D02*
X140931946Y-98127946D01*
%TO.N,/WARN*%
X131514600Y-94079700D02*
X131514600Y-95162200D01*
X132003000Y-95650600D02*
X132079200Y-95650600D01*
X131514600Y-95162200D02*
X132003000Y-95650600D01*
X139099760Y-98144879D02*
X139099760Y-99292960D01*
X139710000Y-99903200D02*
X139710000Y-102661000D01*
X139099760Y-99292960D02*
X139710000Y-99903200D01*
X137565600Y-97276200D02*
X137565600Y-97987400D01*
X137723079Y-98144879D02*
X139099760Y-98144879D01*
X137565600Y-97987400D02*
X137723079Y-98144879D01*
%TO.N,/TC*%
X133981660Y-89999100D02*
X134258520Y-90275960D01*
X132460200Y-89999100D02*
X133981660Y-89999100D01*
X132104600Y-90354700D02*
X132460200Y-89999100D01*
X131514600Y-90354700D02*
X132104600Y-90354700D01*
X147293800Y-98094080D02*
X147293800Y-98724000D01*
X147293800Y-98094080D02*
X147293800Y-99409800D01*
X147210000Y-99493600D02*
X147210000Y-102661000D01*
X147293800Y-99409800D02*
X147210000Y-99493600D01*
X145947600Y-97301600D02*
X145947600Y-97936600D01*
X146105080Y-98094080D02*
X147293800Y-98094080D01*
X145947600Y-97936600D02*
X146105080Y-98094080D01*
D33*
%TO.N,/VOUT-*%
X172040000Y-63860000D02*
X177340000Y-63860000D01*
X177740000Y-64260000D02*
X177740000Y-66710000D01*
X177340000Y-63860000D02*
X177740000Y-64260000D01*
D31*
X171952500Y-68085000D02*
X172140000Y-68272500D01*
X172140000Y-68272500D02*
X172140000Y-66846920D01*
X171952500Y-66659420D02*
X171952500Y-63860000D01*
X172140000Y-66846920D02*
X171952500Y-66659420D01*
%TO.N,Net-(JP1-Pad1)*%
X129564600Y-95396600D02*
X129437600Y-95523600D01*
X129564600Y-94079700D02*
X129564600Y-95396600D01*
X118769600Y-96514200D02*
X119379200Y-97123800D01*
X118769600Y-95637400D02*
X118769600Y-96514200D01*
X127481800Y-97123800D02*
X119379200Y-97123800D01*
X115264400Y-95487800D02*
X116930400Y-95487800D01*
X117080000Y-95637400D02*
X118769600Y-95637400D01*
X116930400Y-95487800D02*
X117080000Y-95637400D01*
%TO.N,Net-(L1-Pad2)*%
X123289600Y-78912000D02*
X123315000Y-78937400D01*
D32*
X112630000Y-79165000D02*
X117068800Y-79165000D01*
X117296400Y-78937400D02*
X123315000Y-78937400D01*
X117068800Y-79165000D02*
X117296400Y-78937400D01*
D31*
%TO.N,Net-(R13-Pad1)*%
X121340000Y-87441400D02*
X121335000Y-87446400D01*
X121340000Y-84052500D02*
X121340000Y-87441400D01*
X117829800Y-87446400D02*
X121335000Y-87446400D01*
%TO.N,Net-(R13-Pad2)*%
X117829800Y-85621400D02*
X117829800Y-84271400D01*
X117829800Y-84271400D02*
X116509000Y-82950600D01*
X116509000Y-82950600D02*
X113130800Y-82950600D01*
X112630000Y-82449800D02*
X112630000Y-81115000D01*
X113130800Y-82950600D02*
X112630000Y-82449800D01*
%TO.N,Net-(R30-Pad2)*%
X171418720Y-88301740D02*
X171418720Y-86943480D01*
X171981320Y-86380880D02*
X171981320Y-85282320D01*
X171418720Y-86943480D02*
X171981320Y-86380880D01*
X164475800Y-92665000D02*
X165327800Y-93517000D01*
X162915000Y-92665000D02*
X164475800Y-92665000D01*
X169569600Y-87034920D02*
X169569600Y-87639440D01*
X170231900Y-88301740D02*
X171418720Y-88301740D01*
X169569600Y-87639440D02*
X170231900Y-88301740D01*
%TO.N,/VPU*%
X126338800Y-99486000D02*
X129717000Y-102864200D01*
X137006800Y-102864200D02*
X137210000Y-102661000D01*
X129717000Y-102864200D02*
X137006800Y-102864200D01*
%TO.N,/VPU_D*%
X129564600Y-90354700D02*
X129564600Y-88894202D01*
%TO.N,Net-(J11-Pad1)*%
X144017200Y-69950800D02*
X144017200Y-69260000D01*
X144715200Y-68562000D02*
X144715200Y-67126400D01*
X144017200Y-69260000D02*
X144715200Y-68562000D01*
X144715200Y-67126400D02*
X144715200Y-66402000D01*
X144715200Y-66402000D02*
X144042600Y-65729400D01*
X144042600Y-65729400D02*
X144042600Y-63824400D01*
X144042600Y-63824400D02*
X143636200Y-63418000D01*
X143636200Y-63418000D02*
X142137600Y-63418000D01*
X142137600Y-63418000D02*
X142404300Y-63418000D01*
X139165800Y-63418000D02*
X142137600Y-63418000D01*
%TD*%
D35*
%TO.N,/VSP-*%
X108713000Y-73197000D02*
X108715440Y-73221776D01*
X108722667Y-73245601D01*
X108734403Y-73267557D01*
X108750197Y-73286803D01*
X108769443Y-73302597D01*
X108791399Y-73314333D01*
X108815224Y-73321560D01*
X108840000Y-73324000D01*
X110108200Y-73324000D01*
X110108200Y-75584600D01*
X108840000Y-75584600D01*
X108815224Y-75587040D01*
X108791399Y-75594267D01*
X108769443Y-75606003D01*
X108750197Y-75621797D01*
X108734403Y-75641043D01*
X108722667Y-75662999D01*
X108715440Y-75686824D01*
X108713000Y-75711600D01*
X108713000Y-77896000D01*
X107867000Y-77896000D01*
X107867000Y-69237000D01*
X108713000Y-69237000D01*
X108713000Y-73197000D01*
%TA.AperFunction,Conductor*%
D36*
G36*
X108713000Y-73197000D02*
G01*
X108715440Y-73221776D01*
X108722667Y-73245601D01*
X108734403Y-73267557D01*
X108750197Y-73286803D01*
X108769443Y-73302597D01*
X108791399Y-73314333D01*
X108815224Y-73321560D01*
X108840000Y-73324000D01*
X110108200Y-73324000D01*
X110108200Y-75584600D01*
X108840000Y-75584600D01*
X108815224Y-75587040D01*
X108791399Y-75594267D01*
X108769443Y-75606003D01*
X108750197Y-75621797D01*
X108734403Y-75641043D01*
X108722667Y-75662999D01*
X108715440Y-75686824D01*
X108713000Y-75711600D01*
X108713000Y-77896000D01*
X107867000Y-77896000D01*
X107867000Y-69237000D01*
X108713000Y-69237000D01*
X108713000Y-73197000D01*
G37*
%TD.AperFunction*%
%TD*%
D35*
%TO.N,Net-(C8-Pad1)*%
X120357100Y-71479878D02*
X115289922Y-71483000D01*
X115265147Y-71485456D01*
X115241327Y-71492697D01*
X115219378Y-71504447D01*
X115200142Y-71520253D01*
X115184360Y-71539508D01*
X115172637Y-71561472D01*
X115165425Y-71585300D01*
X115163000Y-71610000D01*
X115163000Y-77883000D01*
X112167000Y-77883000D01*
X112167000Y-74237000D01*
X113590000Y-74237000D01*
X113614776Y-74234560D01*
X113638601Y-74227333D01*
X113660557Y-74215597D01*
X113679803Y-74199803D01*
X113695597Y-74180557D01*
X113707333Y-74158601D01*
X113714560Y-74134776D01*
X113716997Y-74109164D01*
X113667838Y-66636941D01*
X120357100Y-66633859D01*
X120357100Y-71479878D01*
%TA.AperFunction,Conductor*%
D36*
G36*
X120357100Y-71479878D02*
G01*
X115289922Y-71483000D01*
X115265147Y-71485456D01*
X115241327Y-71492697D01*
X115219378Y-71504447D01*
X115200142Y-71520253D01*
X115184360Y-71539508D01*
X115172637Y-71561472D01*
X115165425Y-71585300D01*
X115163000Y-71610000D01*
X115163000Y-77883000D01*
X112167000Y-77883000D01*
X112167000Y-74237000D01*
X113590000Y-74237000D01*
X113614776Y-74234560D01*
X113638601Y-74227333D01*
X113660557Y-74215597D01*
X113679803Y-74199803D01*
X113695597Y-74180557D01*
X113707333Y-74158601D01*
X113714560Y-74134776D01*
X113716997Y-74109164D01*
X113667838Y-66636941D01*
X120357100Y-66633859D01*
X120357100Y-71479878D01*
G37*
%TD.AperFunction*%
%TD*%
D35*
%TO.N,Net-(C8-Pad1)*%
X120427000Y-68893000D02*
X120447000Y-68893000D01*
X120447000Y-69147000D01*
X120427000Y-69147000D01*
X120427000Y-69167000D01*
X120173000Y-69167000D01*
X120173000Y-69147000D01*
X120153000Y-69147000D01*
X120153000Y-68893000D01*
X120173000Y-68893000D01*
X120173000Y-68873000D01*
X120427000Y-68873000D01*
X120427000Y-68893000D01*
%TA.AperFunction,Conductor*%
D36*
G36*
X120427000Y-68893000D02*
G01*
X120447000Y-68893000D01*
X120447000Y-69147000D01*
X120427000Y-69147000D01*
X120427000Y-69167000D01*
X120173000Y-69167000D01*
X120173000Y-69147000D01*
X120153000Y-69147000D01*
X120153000Y-68893000D01*
X120173000Y-68893000D01*
X120173000Y-68873000D01*
X120427000Y-68873000D01*
X120427000Y-68893000D01*
G37*
%TD.AperFunction*%
%TD*%
D35*
%TO.N,/VBAT+*%
X126872205Y-80714276D02*
X126874426Y-80739073D01*
X126881442Y-80762961D01*
X126892983Y-80785020D01*
X126908606Y-80804404D01*
X126927711Y-80820368D01*
X126949563Y-80832298D01*
X126973322Y-80839736D01*
X126999200Y-80842400D01*
X133946100Y-80842400D01*
X133970876Y-80839960D01*
X133994701Y-80832733D01*
X134016657Y-80820997D01*
X134035903Y-80805203D01*
X134051697Y-80785957D01*
X134063433Y-80764001D01*
X134070660Y-80740176D01*
X134073100Y-80715400D01*
X134073100Y-79216800D01*
X134695400Y-79216800D01*
X134695400Y-80715400D01*
X134697840Y-80740176D01*
X134705067Y-80764001D01*
X134716803Y-80785957D01*
X134732597Y-80805203D01*
X134751843Y-80820997D01*
X134773799Y-80832733D01*
X134797624Y-80839960D01*
X134822400Y-80842400D01*
X137387800Y-80842400D01*
X137387800Y-84474600D01*
X125205960Y-84474600D01*
X125205960Y-82696600D01*
X125203520Y-82671824D01*
X125196293Y-82647999D01*
X125184557Y-82626043D01*
X125168763Y-82606797D01*
X125149517Y-82591003D01*
X125127561Y-82579267D01*
X125103736Y-82572040D01*
X125078960Y-82569600D01*
X120852808Y-82569600D01*
X120859608Y-80452645D01*
X125792568Y-80507112D01*
X125817370Y-80504946D01*
X125841272Y-80497982D01*
X125863357Y-80486489D01*
X125882776Y-80470909D01*
X125898781Y-80451839D01*
X125910759Y-80430013D01*
X125918249Y-80406270D01*
X125920969Y-80379730D01*
X125913723Y-78022461D01*
X126896419Y-77978114D01*
X126872205Y-80714276D01*
%TA.AperFunction,Conductor*%
D36*
G36*
X126872205Y-80714276D02*
G01*
X126874426Y-80739073D01*
X126881442Y-80762961D01*
X126892983Y-80785020D01*
X126908606Y-80804404D01*
X126927711Y-80820368D01*
X126949563Y-80832298D01*
X126973322Y-80839736D01*
X126999200Y-80842400D01*
X133946100Y-80842400D01*
X133970876Y-80839960D01*
X133994701Y-80832733D01*
X134016657Y-80820997D01*
X134035903Y-80805203D01*
X134051697Y-80785957D01*
X134063433Y-80764001D01*
X134070660Y-80740176D01*
X134073100Y-80715400D01*
X134073100Y-79216800D01*
X134695400Y-79216800D01*
X134695400Y-80715400D01*
X134697840Y-80740176D01*
X134705067Y-80764001D01*
X134716803Y-80785957D01*
X134732597Y-80805203D01*
X134751843Y-80820997D01*
X134773799Y-80832733D01*
X134797624Y-80839960D01*
X134822400Y-80842400D01*
X137387800Y-80842400D01*
X137387800Y-84474600D01*
X125205960Y-84474600D01*
X125205960Y-82696600D01*
X125203520Y-82671824D01*
X125196293Y-82647999D01*
X125184557Y-82626043D01*
X125168763Y-82606797D01*
X125149517Y-82591003D01*
X125127561Y-82579267D01*
X125103736Y-82572040D01*
X125078960Y-82569600D01*
X120852808Y-82569600D01*
X120859608Y-80452645D01*
X125792568Y-80507112D01*
X125817370Y-80504946D01*
X125841272Y-80497982D01*
X125863357Y-80486489D01*
X125882776Y-80470909D01*
X125898781Y-80451839D01*
X125910759Y-80430013D01*
X125918249Y-80406270D01*
X125920969Y-80379730D01*
X125913723Y-78022461D01*
X126896419Y-77978114D01*
X126872205Y-80714276D01*
G37*
%TD.AperFunction*%
%TD*%
D35*
%TO.N,Net-(L1-Pad2)*%
X123671800Y-79572400D02*
X117906000Y-79572400D01*
X117906000Y-78302400D01*
X123671800Y-78302400D01*
X123671800Y-79572400D01*
%TA.AperFunction,Conductor*%
D36*
G36*
X123671800Y-79572400D02*
G01*
X117906000Y-79572400D01*
X117906000Y-78302400D01*
X123671800Y-78302400D01*
X123671800Y-79572400D01*
G37*
%TD.AperFunction*%
%TD*%
D35*
%TO.N,/VBAT+*%
X121716000Y-82494544D02*
X120847561Y-82502403D01*
X120849860Y-81279519D01*
X120847466Y-81254738D01*
X120840284Y-81230900D01*
X120828589Y-81208921D01*
X120812831Y-81189646D01*
X120793616Y-81173816D01*
X120771681Y-81162039D01*
X120747871Y-81154767D01*
X120723796Y-81152283D01*
X116712200Y-81122732D01*
X116712200Y-80436000D01*
X121716000Y-80436000D01*
X121716000Y-82494544D01*
%TA.AperFunction,Conductor*%
D36*
G36*
X121716000Y-82494544D02*
G01*
X120847561Y-82502403D01*
X120849860Y-81279519D01*
X120847466Y-81254738D01*
X120840284Y-81230900D01*
X120828589Y-81208921D01*
X120812831Y-81189646D01*
X120793616Y-81173816D01*
X120771681Y-81162039D01*
X120747871Y-81154767D01*
X120723796Y-81152283D01*
X116712200Y-81122732D01*
X116712200Y-80436000D01*
X121716000Y-80436000D01*
X121716000Y-82494544D01*
G37*
%TD.AperFunction*%
%TD*%
D35*
%TO.N,Net-(L1-Pad2)*%
X131263562Y-77184800D02*
X123824200Y-77184800D01*
X123799424Y-77187240D01*
X123775599Y-77194467D01*
X123753643Y-77206203D01*
X123734397Y-77221997D01*
X123718603Y-77241243D01*
X123706867Y-77263199D01*
X123699640Y-77287024D01*
X123697200Y-77311800D01*
X123697200Y-79623200D01*
X122985839Y-79623200D01*
X122981082Y-75879240D01*
X128543520Y-75879240D01*
X128568296Y-75876800D01*
X128592121Y-75869573D01*
X128614077Y-75857837D01*
X128633323Y-75842043D01*
X128649117Y-75822797D01*
X128660853Y-75800841D01*
X128668080Y-75777016D01*
X128670520Y-75752309D01*
X128675531Y-66593000D01*
X131238757Y-66593000D01*
X131263562Y-77184800D01*
%TA.AperFunction,Conductor*%
D36*
G36*
X131263562Y-77184800D02*
G01*
X123824200Y-77184800D01*
X123799424Y-77187240D01*
X123775599Y-77194467D01*
X123753643Y-77206203D01*
X123734397Y-77221997D01*
X123718603Y-77241243D01*
X123706867Y-77263199D01*
X123699640Y-77287024D01*
X123697200Y-77311800D01*
X123697200Y-79623200D01*
X122985839Y-79623200D01*
X122981082Y-75879240D01*
X128543520Y-75879240D01*
X128568296Y-75876800D01*
X128592121Y-75869573D01*
X128614077Y-75857837D01*
X128633323Y-75842043D01*
X128649117Y-75822797D01*
X128660853Y-75800841D01*
X128668080Y-75777016D01*
X128670520Y-75752309D01*
X128675531Y-66593000D01*
X131238757Y-66593000D01*
X131263562Y-77184800D01*
G37*
%TD.AperFunction*%
%TD*%
D35*
%TO.N,/VBAT-*%
X143304435Y-68682761D02*
X143089180Y-68685974D01*
X143064442Y-68688784D01*
X143040729Y-68696366D01*
X143018950Y-68708428D01*
X142999942Y-68724508D01*
X142984437Y-68743986D01*
X142973030Y-68766116D01*
X142966159Y-68790045D01*
X142964075Y-68812797D01*
X142960560Y-71548377D01*
X142962969Y-71573156D01*
X142970165Y-71596990D01*
X142981873Y-71618962D01*
X142997642Y-71638227D01*
X143016867Y-71654046D01*
X143038808Y-71665810D01*
X143062624Y-71673068D01*
X143088004Y-71675539D01*
X144414471Y-71670901D01*
X144421000Y-72474456D01*
X140770700Y-72476910D01*
X140745925Y-72479367D01*
X140722105Y-72486610D01*
X140700157Y-72498361D01*
X140680922Y-72514168D01*
X140665141Y-72533424D01*
X140653420Y-72555388D01*
X140646209Y-72579217D01*
X140643785Y-72603627D01*
X140617398Y-84428880D01*
X140490115Y-84428880D01*
X140489473Y-84428882D01*
X139612406Y-84433317D01*
X139599845Y-72878092D01*
X139597378Y-72853318D01*
X139590125Y-72829502D01*
X139578365Y-72807558D01*
X139562550Y-72788330D01*
X139543288Y-72772557D01*
X139521318Y-72760845D01*
X139497486Y-72753643D01*
X139473846Y-72751234D01*
X138150216Y-72740800D01*
X138152897Y-71927000D01*
X142357015Y-71927000D01*
X142381791Y-71924560D01*
X142405616Y-71917333D01*
X142427572Y-71905597D01*
X142446818Y-71889803D01*
X142462612Y-71870557D01*
X142474348Y-71848601D01*
X142481575Y-71824776D01*
X142484015Y-71799909D01*
X142481567Y-68401480D01*
X142725315Y-68401480D01*
X142750091Y-68399040D01*
X142773916Y-68391813D01*
X142795872Y-68380077D01*
X142815118Y-68364283D01*
X142830912Y-68345037D01*
X142842648Y-68323081D01*
X142849875Y-68299256D01*
X142852315Y-68274480D01*
X142852315Y-66902880D01*
X143304435Y-66902880D01*
X143304435Y-68682761D01*
%TA.AperFunction,Conductor*%
D36*
G36*
X143304435Y-68682761D02*
G01*
X143089180Y-68685974D01*
X143064442Y-68688784D01*
X143040729Y-68696366D01*
X143018950Y-68708428D01*
X142999942Y-68724508D01*
X142984437Y-68743986D01*
X142973030Y-68766116D01*
X142966159Y-68790045D01*
X142964075Y-68812797D01*
X142960560Y-71548377D01*
X142962969Y-71573156D01*
X142970165Y-71596990D01*
X142981873Y-71618962D01*
X142997642Y-71638227D01*
X143016867Y-71654046D01*
X143038808Y-71665810D01*
X143062624Y-71673068D01*
X143088004Y-71675539D01*
X144414471Y-71670901D01*
X144421000Y-72474456D01*
X140770700Y-72476910D01*
X140745925Y-72479367D01*
X140722105Y-72486610D01*
X140700157Y-72498361D01*
X140680922Y-72514168D01*
X140665141Y-72533424D01*
X140653420Y-72555388D01*
X140646209Y-72579217D01*
X140643785Y-72603627D01*
X140617398Y-84428880D01*
X140490115Y-84428880D01*
X140489473Y-84428882D01*
X139612406Y-84433317D01*
X139599845Y-72878092D01*
X139597378Y-72853318D01*
X139590125Y-72829502D01*
X139578365Y-72807558D01*
X139562550Y-72788330D01*
X139543288Y-72772557D01*
X139521318Y-72760845D01*
X139497486Y-72753643D01*
X139473846Y-72751234D01*
X138150216Y-72740800D01*
X138152897Y-71927000D01*
X142357015Y-71927000D01*
X142381791Y-71924560D01*
X142405616Y-71917333D01*
X142427572Y-71905597D01*
X142446818Y-71889803D01*
X142462612Y-71870557D01*
X142474348Y-71848601D01*
X142481575Y-71824776D01*
X142484015Y-71799909D01*
X142481567Y-68401480D01*
X142725315Y-68401480D01*
X142750091Y-68399040D01*
X142773916Y-68391813D01*
X142795872Y-68380077D01*
X142815118Y-68364283D01*
X142830912Y-68345037D01*
X142842648Y-68323081D01*
X142849875Y-68299256D01*
X142852315Y-68274480D01*
X142852315Y-66902880D01*
X143304435Y-66902880D01*
X143304435Y-68682761D01*
G37*
%TD.AperFunction*%
%TD*%
D35*
%TO.N,Net-(D6-Pad2)*%
X149292878Y-76016400D02*
X145724080Y-76016400D01*
X145699304Y-76018840D01*
X145675479Y-76026067D01*
X145653523Y-76037803D01*
X145634277Y-76053597D01*
X145618483Y-76072843D01*
X145606747Y-76094799D01*
X145599520Y-76118624D01*
X145597082Y-76142782D01*
X145577375Y-80192599D01*
X143641158Y-80199338D01*
X143636321Y-75133613D01*
X149275947Y-75127536D01*
X149292878Y-76016400D01*
%TA.AperFunction,Conductor*%
D36*
G36*
X149292878Y-76016400D02*
G01*
X145724080Y-76016400D01*
X145699304Y-76018840D01*
X145675479Y-76026067D01*
X145653523Y-76037803D01*
X145634277Y-76053597D01*
X145618483Y-76072843D01*
X145606747Y-76094799D01*
X145599520Y-76118624D01*
X145597082Y-76142782D01*
X145577375Y-80192599D01*
X143641158Y-80199338D01*
X143636321Y-75133613D01*
X149275947Y-75127536D01*
X149292878Y-76016400D01*
G37*
%TD.AperFunction*%
%TD*%
D35*
%TO.N,Net-(D6-Pad2)*%
X145851263Y-71799820D02*
X145858027Y-71800000D01*
X146579387Y-71800000D01*
X146579387Y-75102000D01*
X146581827Y-75126776D01*
X146589054Y-75150601D01*
X146600790Y-75172557D01*
X146616584Y-75191803D01*
X146635830Y-75207597D01*
X146657786Y-75219333D01*
X146681611Y-75226560D01*
X146706387Y-75229000D01*
X149220138Y-75229000D01*
X149216751Y-75737000D01*
X145789601Y-75737000D01*
X145794365Y-71796785D01*
X145851263Y-71799820D01*
%TA.AperFunction,Conductor*%
D36*
G36*
X145851263Y-71799820D02*
G01*
X145858027Y-71800000D01*
X146579387Y-71800000D01*
X146579387Y-75102000D01*
X146581827Y-75126776D01*
X146589054Y-75150601D01*
X146600790Y-75172557D01*
X146616584Y-75191803D01*
X146635830Y-75207597D01*
X146657786Y-75219333D01*
X146681611Y-75226560D01*
X146706387Y-75229000D01*
X149220138Y-75229000D01*
X149216751Y-75737000D01*
X145789601Y-75737000D01*
X145794365Y-71796785D01*
X145851263Y-71799820D01*
G37*
%TD.AperFunction*%
%TD*%
D35*
%TO.N,Net-(C20-Pad2)*%
X148289673Y-68208440D02*
X146750240Y-68208440D01*
X146725464Y-68210880D01*
X146701639Y-68218107D01*
X146679683Y-68229843D01*
X146660437Y-68245637D01*
X146644643Y-68264883D01*
X146632907Y-68286839D01*
X146625680Y-68310664D01*
X146623240Y-68335440D01*
X146623240Y-70143920D01*
X145820600Y-70143920D01*
X145820600Y-69615762D01*
X145830598Y-61792400D01*
X148299446Y-61792400D01*
X148289673Y-68208440D01*
%TA.AperFunction,Conductor*%
D36*
G36*
X148289673Y-68208440D02*
G01*
X146750240Y-68208440D01*
X146725464Y-68210880D01*
X146701639Y-68218107D01*
X146679683Y-68229843D01*
X146660437Y-68245637D01*
X146644643Y-68264883D01*
X146632907Y-68286839D01*
X146625680Y-68310664D01*
X146623240Y-68335440D01*
X146623240Y-70143920D01*
X145820600Y-70143920D01*
X145820600Y-69615762D01*
X145830598Y-61792400D01*
X148299446Y-61792400D01*
X148289673Y-68208440D01*
G37*
%TD.AperFunction*%
%TD*%
D35*
%TO.N,GND*%
X149511710Y-71106417D02*
X145825776Y-71101661D01*
X145818015Y-70702720D01*
X149513269Y-70702720D01*
X149511710Y-71106417D01*
%TA.AperFunction,Conductor*%
D36*
G36*
X149511710Y-71106417D02*
G01*
X145825776Y-71101661D01*
X145818015Y-70702720D01*
X149513269Y-70702720D01*
X149511710Y-71106417D01*
G37*
%TD.AperFunction*%
%TD*%
D35*
%TO.N,GND*%
X149793160Y-71998120D02*
X147283640Y-71998120D01*
X147283640Y-69808640D01*
X149793160Y-69808640D01*
X149793160Y-71998120D01*
%TA.AperFunction,Conductor*%
D36*
G36*
X149793160Y-71998120D02*
G01*
X147283640Y-71998120D01*
X147283640Y-69808640D01*
X149793160Y-69808640D01*
X149793160Y-71998120D01*
G37*
%TD.AperFunction*%
%TD*%
D35*
%TO.N,Net-(C20-Pad1)*%
X152227778Y-67228138D02*
X152230740Y-67252858D01*
X152238468Y-67276524D01*
X152250665Y-67298228D01*
X152266861Y-67317136D01*
X152286435Y-67332521D01*
X152308634Y-67343791D01*
X152332606Y-67350514D01*
X152354431Y-67352460D01*
X154246419Y-67357220D01*
X154203231Y-76041665D01*
X152069891Y-76039395D01*
X152048679Y-68944660D01*
X152046165Y-68919891D01*
X152038867Y-68896089D01*
X152027065Y-68874167D01*
X152011214Y-68854969D01*
X151991921Y-68839233D01*
X151969930Y-68827563D01*
X151946084Y-68820407D01*
X151921940Y-68818040D01*
X149564627Y-68813219D01*
X149567033Y-64281600D01*
X152165630Y-64281600D01*
X152227778Y-67228138D01*
%TA.AperFunction,Conductor*%
D36*
G36*
X152227778Y-67228138D02*
G01*
X152230740Y-67252858D01*
X152238468Y-67276524D01*
X152250665Y-67298228D01*
X152266861Y-67317136D01*
X152286435Y-67332521D01*
X152308634Y-67343791D01*
X152332606Y-67350514D01*
X152354431Y-67352460D01*
X154246419Y-67357220D01*
X154203231Y-76041665D01*
X152069891Y-76039395D01*
X152048679Y-68944660D01*
X152046165Y-68919891D01*
X152038867Y-68896089D01*
X152027065Y-68874167D01*
X152011214Y-68854969D01*
X151991921Y-68839233D01*
X151969930Y-68827563D01*
X151946084Y-68820407D01*
X151921940Y-68818040D01*
X149564627Y-68813219D01*
X149567033Y-64281600D01*
X152165630Y-64281600D01*
X152227778Y-67228138D01*
G37*
%TD.AperFunction*%
%TD*%
D35*
%TO.N,GND*%
X164991766Y-76651400D02*
X162091840Y-76651400D01*
X162067064Y-76653840D01*
X162043239Y-76661067D01*
X162021283Y-76672803D01*
X162002037Y-76688597D01*
X161986243Y-76707843D01*
X161974507Y-76729799D01*
X161967280Y-76753624D01*
X161964840Y-76778343D01*
X161962357Y-82285120D01*
X161698140Y-82285120D01*
X161673364Y-82287560D01*
X161649539Y-82294787D01*
X161627583Y-82306523D01*
X161622712Y-82310520D01*
X161167280Y-82310520D01*
X161142504Y-82312960D01*
X161118679Y-82320187D01*
X161096723Y-82331923D01*
X161077477Y-82347717D01*
X161061683Y-82366963D01*
X161049947Y-82388919D01*
X161042720Y-82412744D01*
X161040281Y-82437946D01*
X161045359Y-83951331D01*
X161032660Y-89828646D01*
X161035047Y-89853427D01*
X161042223Y-89877267D01*
X161053911Y-89899249D01*
X161069664Y-89918528D01*
X161088875Y-89934364D01*
X161110806Y-89946147D01*
X161134614Y-89953426D01*
X161159569Y-89955920D01*
X175261740Y-89965989D01*
X175261740Y-90296189D01*
X161159751Y-90286120D01*
X161134972Y-90288543D01*
X161111143Y-90295753D01*
X161089178Y-90307473D01*
X161069922Y-90323253D01*
X161054114Y-90342487D01*
X161042362Y-90364435D01*
X161035118Y-90388255D01*
X161032660Y-90413428D01*
X161050131Y-97606332D01*
X151747022Y-97601386D01*
X151722988Y-96039138D01*
X159543969Y-96034153D01*
X159547239Y-96035243D01*
X159571516Y-96040763D01*
X159596403Y-96041440D01*
X159620944Y-96037250D01*
X159644196Y-96028352D01*
X159665266Y-96015089D01*
X159683343Y-95997971D01*
X159697733Y-95977654D01*
X159707883Y-95954921D01*
X159713403Y-95930644D01*
X159714400Y-95914717D01*
X159709729Y-82158077D01*
X159707280Y-82133301D01*
X159700045Y-82109479D01*
X159688302Y-82087527D01*
X159672501Y-82068287D01*
X159653251Y-82052499D01*
X159631290Y-82040771D01*
X159607463Y-82033552D01*
X159582729Y-82031120D01*
X159231800Y-82031120D01*
X159231800Y-80654440D01*
X159229360Y-80629664D01*
X159222133Y-80605839D01*
X159210397Y-80583883D01*
X159194603Y-80564637D01*
X159175357Y-80548843D01*
X159153401Y-80537107D01*
X159129576Y-80529880D01*
X159104926Y-80527440D01*
X148985440Y-80517406D01*
X148985440Y-79872050D01*
X157687553Y-79867040D01*
X157712328Y-79864585D01*
X157736148Y-79857345D01*
X157758098Y-79845596D01*
X157777334Y-79829791D01*
X157793117Y-79810537D01*
X157804841Y-79788573D01*
X157812054Y-79764745D01*
X157814480Y-79739870D01*
X157809569Y-76061860D01*
X164988191Y-76047139D01*
X164991766Y-76651400D01*
%TA.AperFunction,Conductor*%
D36*
G36*
X164991766Y-76651400D02*
G01*
X162091840Y-76651400D01*
X162067064Y-76653840D01*
X162043239Y-76661067D01*
X162021283Y-76672803D01*
X162002037Y-76688597D01*
X161986243Y-76707843D01*
X161974507Y-76729799D01*
X161967280Y-76753624D01*
X161964840Y-76778343D01*
X161962357Y-82285120D01*
X161698140Y-82285120D01*
X161673364Y-82287560D01*
X161649539Y-82294787D01*
X161627583Y-82306523D01*
X161622712Y-82310520D01*
X161167280Y-82310520D01*
X161142504Y-82312960D01*
X161118679Y-82320187D01*
X161096723Y-82331923D01*
X161077477Y-82347717D01*
X161061683Y-82366963D01*
X161049947Y-82388919D01*
X161042720Y-82412744D01*
X161040281Y-82437946D01*
X161045359Y-83951331D01*
X161032660Y-89828646D01*
X161035047Y-89853427D01*
X161042223Y-89877267D01*
X161053911Y-89899249D01*
X161069664Y-89918528D01*
X161088875Y-89934364D01*
X161110806Y-89946147D01*
X161134614Y-89953426D01*
X161159569Y-89955920D01*
X175261740Y-89965989D01*
X175261740Y-90296189D01*
X161159751Y-90286120D01*
X161134972Y-90288543D01*
X161111143Y-90295753D01*
X161089178Y-90307473D01*
X161069922Y-90323253D01*
X161054114Y-90342487D01*
X161042362Y-90364435D01*
X161035118Y-90388255D01*
X161032660Y-90413428D01*
X161050131Y-97606332D01*
X151747022Y-97601386D01*
X151722988Y-96039138D01*
X159543969Y-96034153D01*
X159547239Y-96035243D01*
X159571516Y-96040763D01*
X159596403Y-96041440D01*
X159620944Y-96037250D01*
X159644196Y-96028352D01*
X159665266Y-96015089D01*
X159683343Y-95997971D01*
X159697733Y-95977654D01*
X159707883Y-95954921D01*
X159713403Y-95930644D01*
X159714400Y-95914717D01*
X159709729Y-82158077D01*
X159707280Y-82133301D01*
X159700045Y-82109479D01*
X159688302Y-82087527D01*
X159672501Y-82068287D01*
X159653251Y-82052499D01*
X159631290Y-82040771D01*
X159607463Y-82033552D01*
X159582729Y-82031120D01*
X159231800Y-82031120D01*
X159231800Y-80654440D01*
X159229360Y-80629664D01*
X159222133Y-80605839D01*
X159210397Y-80583883D01*
X159194603Y-80564637D01*
X159175357Y-80548843D01*
X159153401Y-80537107D01*
X159129576Y-80529880D01*
X159104926Y-80527440D01*
X148985440Y-80517406D01*
X148985440Y-79872050D01*
X157687553Y-79867040D01*
X157712328Y-79864585D01*
X157736148Y-79857345D01*
X157758098Y-79845596D01*
X157777334Y-79829791D01*
X157793117Y-79810537D01*
X157804841Y-79788573D01*
X157812054Y-79764745D01*
X157814480Y-79739870D01*
X157809569Y-76061860D01*
X164988191Y-76047139D01*
X164991766Y-76651400D01*
G37*
%TD.AperFunction*%
%TD*%
D35*
%TO.N,/V_SPBC+*%
X167717634Y-72940385D02*
X167710320Y-75977994D01*
X167712701Y-76002776D01*
X167719871Y-76026618D01*
X167731554Y-76048603D01*
X167747301Y-76067886D01*
X167766509Y-76083726D01*
X167788437Y-76095515D01*
X167812244Y-76102800D01*
X167837047Y-76105300D01*
X173628520Y-76117728D01*
X173628520Y-78902010D01*
X166297829Y-78911830D01*
X166287920Y-73907949D01*
X166285430Y-73883177D01*
X166278156Y-73859367D01*
X166266377Y-73837434D01*
X166250545Y-73818220D01*
X166231268Y-73802464D01*
X166209288Y-73790771D01*
X166185450Y-73783591D01*
X166160920Y-73781200D01*
X159410577Y-73781200D01*
X159408624Y-72935456D01*
X167717634Y-72940385D01*
%TA.AperFunction,Conductor*%
D36*
G36*
X167717634Y-72940385D02*
G01*
X167710320Y-75977994D01*
X167712701Y-76002776D01*
X167719871Y-76026618D01*
X167731554Y-76048603D01*
X167747301Y-76067886D01*
X167766509Y-76083726D01*
X167788437Y-76095515D01*
X167812244Y-76102800D01*
X167837047Y-76105300D01*
X173628520Y-76117728D01*
X173628520Y-78902010D01*
X166297829Y-78911830D01*
X166287920Y-73907949D01*
X166285430Y-73883177D01*
X166278156Y-73859367D01*
X166266377Y-73837434D01*
X166250545Y-73818220D01*
X166231268Y-73802464D01*
X166209288Y-73790771D01*
X166185450Y-73783591D01*
X166160920Y-73781200D01*
X159410577Y-73781200D01*
X159408624Y-72935456D01*
X167717634Y-72940385D01*
G37*
%TD.AperFunction*%
%TD*%
D35*
%TO.N,Net-(C17-Pad1)*%
X173369164Y-82351160D02*
X168772040Y-82351160D01*
X168747264Y-82353600D01*
X168723439Y-82360827D01*
X168701483Y-82372563D01*
X168682237Y-82388357D01*
X168666443Y-82407603D01*
X168654707Y-82429559D01*
X168647480Y-82453384D01*
X168645042Y-82477492D01*
X168625387Y-86216784D01*
X163722777Y-86206880D01*
X163697995Y-86209270D01*
X163674156Y-86216449D01*
X163652176Y-86228141D01*
X163632899Y-86243896D01*
X163617066Y-86263109D01*
X163605286Y-86285042D01*
X163598011Y-86308852D01*
X163595520Y-86333642D01*
X163590674Y-88921615D01*
X162259156Y-88942953D01*
X162254721Y-87182240D01*
X162528720Y-87182240D01*
X162553496Y-87179800D01*
X162577321Y-87172573D01*
X162599277Y-87160837D01*
X162618523Y-87145043D01*
X162634317Y-87125797D01*
X162646053Y-87103841D01*
X162653280Y-87080016D01*
X162655720Y-87055240D01*
X162655720Y-83447831D01*
X163585971Y-83443359D01*
X163610735Y-83440799D01*
X163634524Y-83433458D01*
X163656424Y-83421616D01*
X163675593Y-83405730D01*
X163691295Y-83386409D01*
X163702925Y-83364396D01*
X163710037Y-83340537D01*
X163712360Y-83316141D01*
X163707491Y-80491880D01*
X168746640Y-80491880D01*
X168771416Y-80489440D01*
X168795241Y-80482213D01*
X168817197Y-80470477D01*
X168836443Y-80454683D01*
X168852237Y-80435437D01*
X168863973Y-80413481D01*
X168871200Y-80389656D01*
X168873640Y-80364880D01*
X168873640Y-80263280D01*
X173364635Y-80263280D01*
X173369164Y-82351160D01*
%TA.AperFunction,Conductor*%
D36*
G36*
X173369164Y-82351160D02*
G01*
X168772040Y-82351160D01*
X168747264Y-82353600D01*
X168723439Y-82360827D01*
X168701483Y-82372563D01*
X168682237Y-82388357D01*
X168666443Y-82407603D01*
X168654707Y-82429559D01*
X168647480Y-82453384D01*
X168645042Y-82477492D01*
X168625387Y-86216784D01*
X163722777Y-86206880D01*
X163697995Y-86209270D01*
X163674156Y-86216449D01*
X163652176Y-86228141D01*
X163632899Y-86243896D01*
X163617066Y-86263109D01*
X163605286Y-86285042D01*
X163598011Y-86308852D01*
X163595520Y-86333642D01*
X163590674Y-88921615D01*
X162259156Y-88942953D01*
X162254721Y-87182240D01*
X162528720Y-87182240D01*
X162553496Y-87179800D01*
X162577321Y-87172573D01*
X162599277Y-87160837D01*
X162618523Y-87145043D01*
X162634317Y-87125797D01*
X162646053Y-87103841D01*
X162653280Y-87080016D01*
X162655720Y-87055240D01*
X162655720Y-83447831D01*
X163585971Y-83443359D01*
X163610735Y-83440799D01*
X163634524Y-83433458D01*
X163656424Y-83421616D01*
X163675593Y-83405730D01*
X163691295Y-83386409D01*
X163702925Y-83364396D01*
X163710037Y-83340537D01*
X163712360Y-83316141D01*
X163707491Y-80491880D01*
X168746640Y-80491880D01*
X168771416Y-80489440D01*
X168795241Y-80482213D01*
X168817197Y-80470477D01*
X168836443Y-80454683D01*
X168852237Y-80435437D01*
X168863973Y-80413481D01*
X168871200Y-80389656D01*
X168873640Y-80364880D01*
X168873640Y-80263280D01*
X173364635Y-80263280D01*
X173369164Y-82351160D01*
G37*
%TD.AperFunction*%
%TD*%
D35*
%TO.N,GND*%
X153846764Y-64980100D02*
X153263451Y-64980100D01*
X153275498Y-62624900D01*
X153273185Y-62600111D01*
X153266080Y-62576250D01*
X153254456Y-62554234D01*
X153238761Y-62534908D01*
X153219597Y-62519016D01*
X153197700Y-62507167D01*
X153173913Y-62499819D01*
X153148061Y-62497251D01*
X149605200Y-62509510D01*
X149605200Y-61817800D01*
X153840886Y-61817800D01*
X153846764Y-64980100D01*
%TA.AperFunction,Conductor*%
D36*
G36*
X153846764Y-64980100D02*
G01*
X153263451Y-64980100D01*
X153275498Y-62624900D01*
X153273185Y-62600111D01*
X153266080Y-62576250D01*
X153254456Y-62554234D01*
X153238761Y-62534908D01*
X153219597Y-62519016D01*
X153197700Y-62507167D01*
X153173913Y-62499819D01*
X153148061Y-62497251D01*
X149605200Y-62509510D01*
X149605200Y-61817800D01*
X153840886Y-61817800D01*
X153846764Y-64980100D01*
G37*
%TD.AperFunction*%
%TD*%
D35*
%TO.N,GND*%
X175284600Y-90519800D02*
X167715400Y-90519800D01*
X167715400Y-89834000D01*
X175284600Y-89834000D01*
X175284600Y-90519800D01*
%TA.AperFunction,Conductor*%
D36*
G36*
X175284600Y-90519800D02*
G01*
X167715400Y-90519800D01*
X167715400Y-89834000D01*
X175284600Y-89834000D01*
X175284600Y-90519800D01*
G37*
%TD.AperFunction*%
%TD*%
D35*
%TO.N,/VSP-*%
X152602400Y-87802000D02*
X152604840Y-87826776D01*
X152612067Y-87850601D01*
X152623803Y-87872557D01*
X152639597Y-87891803D01*
X152658843Y-87907597D01*
X152680799Y-87919333D01*
X152704624Y-87926560D01*
X152729400Y-87929000D01*
X156031400Y-87929000D01*
X156031400Y-90697600D01*
X151789600Y-90697600D01*
X151789600Y-90468792D01*
X151777108Y-82823600D01*
X152602400Y-82823600D01*
X152602400Y-87802000D01*
%TA.AperFunction,Conductor*%
D36*
G36*
X152602400Y-87802000D02*
G01*
X152604840Y-87826776D01*
X152612067Y-87850601D01*
X152623803Y-87872557D01*
X152639597Y-87891803D01*
X152658843Y-87907597D01*
X152680799Y-87919333D01*
X152704624Y-87926560D01*
X152729400Y-87929000D01*
X156031400Y-87929000D01*
X156031400Y-90697600D01*
X151789600Y-90697600D01*
X151789600Y-90468792D01*
X151777108Y-82823600D01*
X152602400Y-82823600D01*
X152602400Y-87802000D01*
G37*
%TD.AperFunction*%
%TD*%
D35*
%TO.N,/VSP-*%
X154837600Y-83484000D02*
X149960800Y-83484000D01*
X149960800Y-82798200D01*
X154837600Y-82798200D01*
X154837600Y-83484000D01*
%TA.AperFunction,Conductor*%
D36*
G36*
X154837600Y-83484000D02*
G01*
X149960800Y-83484000D01*
X149960800Y-82798200D01*
X154837600Y-82798200D01*
X154837600Y-83484000D01*
G37*
%TD.AperFunction*%
%TD*%
M02*
