M48
; DRILL file {KiCad 5.1.12-84ad8e8a86~92~ubuntu20.04.1} date Sun 31 Jul 2022 12:46:43 PM PDT
; FORMAT={-:-/ absolute / inch / decimal}
; #@! TF.CreationDate,2022-07-31T12:46:43-07:00
; #@! TF.GenerationSoftware,Kicad,Pcbnew,5.1.12-84ad8e8a86~92~ubuntu20.04.1
; #@! TF.FileFunction,Plated,1,4,PTH
FMAT,2
INCH
T1C0.0157
T2C0.0276
T3C0.0315
T4C0.0374
T5C0.0394
T6C0.0433
%
G90
G05
T1
X3.764Y-3.7278
X3.842Y-2.0078
X3.845Y-1.8558
X3.847Y-3.0923
X3.929Y-1.8558
X3.932Y-2.0088
X4.056Y-2.5448
X4.078Y-2.9288
X4.087Y-3.1198
X4.114Y-3.7948
X4.119Y-3.1668
X4.1825Y-3.3173
X4.203Y-2.5438
X4.318Y-2.9038
X4.318Y-2.9518
X4.3465Y-2.6998
X4.349Y-3.1308
X4.436Y-3.6798
X4.551Y-3.2128
X4.668Y-3.0018
X4.713Y-3.6138
X4.777Y-3.6468
X4.777Y-3.5623
X4.8748Y-3.3152
X4.881Y-3.6608
X5.019Y-3.8238
X5.069Y-3.4298
X5.096Y-3.7608
X5.101Y-3.4998
X5.1394Y-3.6306
X5.156Y-3.0878
X5.16Y-3.8238
X5.2Y-3.7658
X5.202Y-3.8198
X5.2545Y-3.4243
X5.2858Y-3.5542
X5.287Y-3.7078
X5.296Y-3.6618
X5.416Y-3.8298
X5.53Y-3.8308
X5.568Y-2.7318
X5.637Y-3.8318
X5.746Y-3.8308
X5.7712Y-3.3418
X5.7862Y-3.2735
X5.8326Y-2.7636
X5.8326Y-2.8168
X5.8332Y-3.2735
X5.8732Y-3.3746
X5.9605Y-2.4468
X6.0065Y-2.4468
X6.042Y-2.7628
X6.042Y-2.8158
X6.042Y-2.9698
X6.0656Y-3.8108
X6.13Y-3.4108
X6.186Y-3.8114
X6.2293Y-3.8114
X6.2386Y-3.0258
X6.2386Y-3.0756
X6.2435Y-3.4283
X6.2726Y-3.811
X6.313Y-3.5561
X6.3148Y-3.301
X6.316Y-3.8113
X6.352Y-3.0758
X6.364Y-2.4028
X6.364Y-2.4458
X6.4534Y-3.3558
X6.4934Y-3.4872
X6.494Y-3.623
X6.509Y-3.6818
X6.5478Y-3.92
X6.5526Y-3.8134
X6.6444Y-2.8648
X6.676Y-3.4266
X6.678Y-3.5498
X6.8112Y-2.8642
X6.812Y-3.5498
T2
X4.054Y-4.0938
T3
X3.788Y-3.2711
X3.888Y-3.4711
X3.988Y-3.2711
T4
X4.308Y-4.0358
X4.4064Y-4.0358
X4.5048Y-4.0358
X5.402Y-4.0418
X5.5004Y-4.0418
X5.5988Y-4.0418
X5.6972Y-4.0418
X5.7957Y-4.0418
X5.8941Y-4.0418
X6.354Y-4.0438
X6.4524Y-4.0438
X6.5508Y-4.0438
X6.6492Y-4.0438
T5
X4.2614Y-3.6185
X4.2614Y-3.7185
X4.4681Y-3.4201
X4.4681Y-3.5201
X4.774Y-3.9168
X4.874Y-3.9168
X4.974Y-3.9168
X5.479Y-2.4968
X5.479Y-2.5968
X5.7685Y-3.5078
X5.7685Y-3.6078
X6.1689Y-2.5102
X6.1689Y-2.6102
X6.1689Y-2.7102
X6.9976Y-2.6264
X6.9976Y-2.7248
T6
X3.8283Y-2.7465
X3.8283Y-2.8465
T0
M30
