%TF.GenerationSoftware,KiCad,Pcbnew,5.1.12-84ad8e8a86~92~ubuntu20.04.1*%
%TF.CreationDate,2022-07-31T12:46:28-07:00*%
%TF.ProjectId,MPPTSolarPwrModule,4d505054-536f-46c6-9172-5077724d6f64,rev?*%
%TF.SameCoordinates,Original*%
%TF.FileFunction,Copper,L2,Inr*%
%TF.FilePolarity,Positive*%
%FSLAX46Y46*%
G04 Gerber Fmt 4.6, Leading zero omitted, Abs format (unit mm)*
G04 Created by KiCad (PCBNEW 5.1.12-84ad8e8a86~92~ubuntu20.04.1) date 2022-07-31 12:46:28*
%MOMM*%
%LPD*%
G01*
G04 APERTURE LIST*
%TA.AperFunction,ComponentPad*%
%ADD10R,1.700000X1.700000*%
%TD*%
%TA.AperFunction,ComponentPad*%
%ADD11O,1.700000X1.700000*%
%TD*%
%TA.AperFunction,ComponentPad*%
%ADD12O,2.000000X1.700000*%
%TD*%
%TA.AperFunction,ComponentPad*%
%ADD13R,2.200000X2.200000*%
%TD*%
%TA.AperFunction,ComponentPad*%
%ADD14C,2.200000*%
%TD*%
%TA.AperFunction,ComponentPad*%
%ADD15C,1.440000*%
%TD*%
%TA.AperFunction,ComponentPad*%
%ADD16R,1.500000X1.500000*%
%TD*%
%TA.AperFunction,ComponentPad*%
%ADD17O,1.700000X1.950000*%
%TD*%
%TA.AperFunction,ViaPad*%
%ADD18C,0.800000*%
%TD*%
%TA.AperFunction,Conductor*%
%ADD19C,0.254000*%
%TD*%
%TA.AperFunction,Conductor*%
%ADD20C,0.100000*%
%TD*%
G04 APERTURE END LIST*
D10*
%TO.N,/NTC*%
%TO.C,J2*%
X113490000Y-86870000D03*
D11*
%TO.N,GND*%
X113490000Y-89410000D03*
%TD*%
D10*
%TO.N,Net-(C2-Pad1)*%
%TO.C,J4*%
X108240000Y-91910000D03*
D11*
%TO.N,GND*%
X108240000Y-94450000D03*
%TD*%
%TO.N,GND*%
%TO.C,J5*%
X146519100Y-91637400D03*
D10*
%TO.N,Net-(J5-Pad1)*%
X146519100Y-89097400D03*
%TD*%
%TO.N,/VSP+*%
%TO.C,J9*%
X156690000Y-63760000D03*
D11*
%TO.N,Net-(D7-Pad2)*%
X156690000Y-66300000D03*
%TO.N,/V_SPBC+*%
X156690000Y-68840000D03*
%TD*%
D12*
%TO.N,GND*%
%TO.C,J10*%
X177740000Y-69210000D03*
%TO.N,/VOUT-*%
%TA.AperFunction,ComponentPad*%
G36*
G01*
X176990000Y-65860000D02*
X178490000Y-65860000D01*
G75*
G02*
X178740000Y-66110000I0J-250000D01*
G01*
X178740000Y-67310000D01*
G75*
G02*
X178490000Y-67560000I-250000J0D01*
G01*
X176990000Y-67560000D01*
G75*
G02*
X176740000Y-67310000I0J250000D01*
G01*
X176740000Y-66110000D01*
G75*
G02*
X176990000Y-65860000I250000J0D01*
G01*
G37*
%TD.AperFunction*%
%TD*%
D13*
%TO.N,/VSP+*%
%TO.C,J1*%
X97240000Y-69760000D03*
D14*
%TO.N,GND*%
X97240000Y-72300000D03*
%TD*%
D15*
%TO.N,GND*%
%TO.C,RV1*%
X101295000Y-83085000D03*
%TO.N,/VIN_SET*%
X98755000Y-88165000D03*
%TO.N,/VSP-*%
X96215000Y-83085000D03*
%TD*%
D10*
%TO.N,/VBAT+*%
%TO.C,J6*%
X121258800Y-99486000D03*
D11*
%TO.N,/VPU_D*%
X123798800Y-99486000D03*
%TO.N,/VPU*%
X126338800Y-99486000D03*
%TD*%
D16*
%TO.N,/VIN_SET*%
%TO.C,TP1*%
X102970800Y-103981800D03*
%TD*%
D10*
%TO.N,Net-(J11-Pad1)*%
%TO.C,J11*%
X139165800Y-63418000D03*
D11*
%TO.N,GND*%
X139165800Y-65958000D03*
%TD*%
%TO.N,/VS*%
%TO.C,J7*%
%TA.AperFunction,ComponentPad*%
G36*
G01*
X160540800Y-103436800D02*
X160540800Y-101986800D01*
G75*
G02*
X160790800Y-101736800I250000J0D01*
G01*
X161990800Y-101736800D01*
G75*
G02*
X162240800Y-101986800I0J-250000D01*
G01*
X162240800Y-103436800D01*
G75*
G02*
X161990800Y-103686800I-250000J0D01*
G01*
X160790800Y-103686800D01*
G75*
G02*
X160540800Y-103436800I0J250000D01*
G01*
G37*
%TD.AperFunction*%
D17*
%TO.N,/SCL*%
X163890800Y-102711800D03*
%TO.N,/SDA*%
X166390800Y-102711800D03*
%TO.N,GND*%
X168890800Y-102711800D03*
%TD*%
%TO.N,/VPU*%
%TO.C,J8*%
%TA.AperFunction,ComponentPad*%
G36*
G01*
X136360000Y-103386000D02*
X136360000Y-101936000D01*
G75*
G02*
X136610000Y-101686000I250000J0D01*
G01*
X137810000Y-101686000D01*
G75*
G02*
X138060000Y-101936000I0J-250000D01*
G01*
X138060000Y-103386000D01*
G75*
G02*
X137810000Y-103636000I-250000J0D01*
G01*
X136610000Y-103636000D01*
G75*
G02*
X136360000Y-103386000I0J250000D01*
G01*
G37*
%TD.AperFunction*%
%TO.N,/WARN*%
X139710000Y-102661000D03*
%TO.N,/CRIT*%
X142210000Y-102661000D03*
%TO.N,/PV*%
X144710000Y-102661000D03*
%TO.N,/TC*%
X147210000Y-102661000D03*
%TO.N,GND*%
X149710000Y-102661000D03*
%TD*%
%TO.N,/CHRG*%
%TO.C,J3*%
%TA.AperFunction,ComponentPad*%
G36*
G01*
X108572400Y-103233600D02*
X108572400Y-101783600D01*
G75*
G02*
X108822400Y-101533600I250000J0D01*
G01*
X110022400Y-101533600D01*
G75*
G02*
X110272400Y-101783600I0J-250000D01*
G01*
X110272400Y-103233600D01*
G75*
G02*
X110022400Y-103483600I-250000J0D01*
G01*
X108822400Y-103483600D01*
G75*
G02*
X108572400Y-103233600I0J250000D01*
G01*
G37*
%TD.AperFunction*%
%TO.N,/FAULT*%
X111922400Y-102508600D03*
%TO.N,GND*%
X114422400Y-102508600D03*
%TD*%
D18*
%TO.N,GND*%
X97662200Y-47136600D03*
X97586000Y-50997400D03*
X99872000Y-51022800D03*
X99795800Y-47136600D03*
X103580400Y-74390800D03*
X106234700Y-84258700D03*
X110400300Y-68574200D03*
X110463800Y-79521600D03*
X141426400Y-69387000D03*
X130539600Y-92217200D03*
X133463500Y-86976500D03*
X128751800Y-87116200D03*
X155701200Y-86633600D03*
X169620400Y-90164200D03*
X173024000Y-90164200D03*
X152564300Y-62148000D03*
X151395900Y-62148000D03*
X154065440Y-96793600D03*
X160349400Y-90325490D03*
X160395120Y-83844680D03*
X160425600Y-96806300D03*
X159324932Y-96798680D03*
X158224266Y-96808840D03*
X157123600Y-96808840D03*
X161340000Y-78124600D03*
X158459640Y-78119520D03*
X158459640Y-76854600D03*
X148147240Y-71546000D03*
X148147240Y-70194720D03*
X123976600Y-92983600D03*
X112673600Y-93466200D03*
X121335006Y-90483670D03*
%TO.N,/CHRG*%
X104621800Y-80436000D03*
X104494800Y-96387200D03*
%TO.N,/NTC*%
X115594600Y-81604400D03*
%TO.N,Net-(R6-Pad2)*%
X103809000Y-79242200D03*
X97713000Y-78543700D03*
%TO.N,/VBAT+*%
X123819120Y-84205360D03*
%TO.N,/VSP-*%
X148163700Y-83147500D03*
X146969900Y-83147500D03*
X109676400Y-73755800D03*
X109676400Y-74975000D03*
%TO.N,Net-(C3-Pad2)*%
X146587680Y-84881000D03*
X168766960Y-72765200D03*
%TO.N,Net-(C3-Pad1)*%
X149178480Y-85714120D03*
X173003680Y-72749960D03*
%TO.N,Net-(C5-Pad2)*%
X103021600Y-64637200D03*
X121335000Y-92628000D03*
%TO.N,Net-(C5-Pad1)*%
X106755400Y-64611800D03*
X119709400Y-91789800D03*
%TO.N,Net-(C8-Pad2)*%
X130961600Y-78429400D03*
X118566400Y-76245000D03*
%TO.N,Net-(C11-Pad2)*%
X164931560Y-88574160D03*
X164946800Y-92023480D03*
%TO.N,Net-(C17-Pad1)*%
X158584100Y-87078100D03*
X163915560Y-85236600D03*
%TO.N,Net-(C20-Pad1)*%
X161644800Y-61030400D03*
X161644800Y-62122600D03*
X153466000Y-75432200D03*
X153466000Y-71520600D03*
X153466000Y-70174400D03*
%TO.N,/VSP+*%
X95604800Y-94685400D03*
%TO.N,/SCL*%
X166313320Y-99567280D03*
X131063200Y-97123800D03*
%TO.N,/SDA*%
X166435240Y-96859640D03*
X132130000Y-97022200D03*
%TO.N,/PV*%
X134517600Y-93009000D03*
X143179000Y-97327000D03*
%TO.N,/CRIT*%
X134289000Y-94177400D03*
X140461200Y-97301600D03*
%TO.N,/WARN*%
X132079200Y-95650600D03*
X137565600Y-97276200D03*
%TO.N,/TC*%
X134258520Y-90275960D03*
X145947600Y-97301600D03*
%TO.N,Net-(JP1-Pad1)*%
X129437600Y-95523600D03*
X127481800Y-97123800D03*
%TO.N,Net-(R30-Pad2)*%
X165327800Y-93517000D03*
X169569600Y-87034920D03*
%TO.N,/VPU_D*%
X129564600Y-88894202D03*
%TD*%
D19*
%TO.N,GND*%
X180257906Y-106008779D02*
X92861648Y-106049301D01*
X92862379Y-104110959D01*
X93011800Y-104110959D01*
X93011800Y-104421601D01*
X93072404Y-104726274D01*
X93191281Y-105013269D01*
X93363864Y-105271559D01*
X93583521Y-105491216D01*
X93841811Y-105663799D01*
X94128806Y-105782676D01*
X94433479Y-105843280D01*
X94744121Y-105843280D01*
X95048794Y-105782676D01*
X95335789Y-105663799D01*
X95594079Y-105491216D01*
X95813736Y-105271559D01*
X95986319Y-105013269D01*
X96105196Y-104726274D01*
X96165800Y-104421601D01*
X96165800Y-104110959D01*
X96105196Y-103806286D01*
X95986319Y-103519291D01*
X95813736Y-103261001D01*
X95784535Y-103231800D01*
X101892218Y-103231800D01*
X101892218Y-104731800D01*
X101898532Y-104795903D01*
X101917230Y-104857543D01*
X101947594Y-104914350D01*
X101988457Y-104964143D01*
X102038250Y-105005006D01*
X102095057Y-105035370D01*
X102156697Y-105054068D01*
X102220800Y-105060382D01*
X103720800Y-105060382D01*
X103784903Y-105054068D01*
X103846543Y-105035370D01*
X103903350Y-105005006D01*
X103953143Y-104964143D01*
X103994006Y-104914350D01*
X104024370Y-104857543D01*
X104043068Y-104795903D01*
X104049382Y-104731800D01*
X104049382Y-103231800D01*
X104043068Y-103167697D01*
X104024370Y-103106057D01*
X103994006Y-103049250D01*
X103953143Y-102999457D01*
X103903350Y-102958594D01*
X103846543Y-102928230D01*
X103784903Y-102909532D01*
X103720800Y-102903218D01*
X102220800Y-102903218D01*
X102156697Y-102909532D01*
X102095057Y-102928230D01*
X102038250Y-102958594D01*
X101988457Y-102999457D01*
X101947594Y-103049250D01*
X101917230Y-103106057D01*
X101898532Y-103167697D01*
X101892218Y-103231800D01*
X95784535Y-103231800D01*
X95594079Y-103041344D01*
X95335789Y-102868761D01*
X95048794Y-102749884D01*
X94744121Y-102689280D01*
X94433479Y-102689280D01*
X94128806Y-102749884D01*
X93841811Y-102868761D01*
X93583521Y-103041344D01*
X93363864Y-103261001D01*
X93191281Y-103519291D01*
X93072404Y-103806286D01*
X93011800Y-104110959D01*
X92862379Y-104110959D01*
X92863257Y-101783600D01*
X108243818Y-101783600D01*
X108243818Y-103233600D01*
X108254935Y-103346476D01*
X108287860Y-103455014D01*
X108341327Y-103555043D01*
X108413281Y-103642719D01*
X108500957Y-103714673D01*
X108600986Y-103768140D01*
X108709524Y-103801065D01*
X108822400Y-103812182D01*
X110022400Y-103812182D01*
X110135276Y-103801065D01*
X110243814Y-103768140D01*
X110343843Y-103714673D01*
X110431519Y-103642719D01*
X110503473Y-103555043D01*
X110556940Y-103455014D01*
X110589865Y-103346476D01*
X110600982Y-103233600D01*
X110600982Y-102325789D01*
X110745400Y-102325789D01*
X110745400Y-102691412D01*
X110762431Y-102864332D01*
X110829733Y-103086197D01*
X110939026Y-103290670D01*
X111086110Y-103469891D01*
X111265331Y-103616974D01*
X111469804Y-103726267D01*
X111691669Y-103793569D01*
X111922400Y-103816294D01*
X112153132Y-103793569D01*
X112374997Y-103726267D01*
X112579470Y-103616974D01*
X112758691Y-103469891D01*
X112905774Y-103290669D01*
X113013926Y-103088330D01*
X113029958Y-103149430D01*
X113157347Y-103411170D01*
X113333351Y-103643029D01*
X113551207Y-103836096D01*
X113802542Y-103982952D01*
X114065510Y-104075076D01*
X114295400Y-103953755D01*
X114295400Y-102635600D01*
X114549400Y-102635600D01*
X114549400Y-103953755D01*
X114779290Y-104075076D01*
X115042258Y-103982952D01*
X115293593Y-103836096D01*
X115511449Y-103643029D01*
X115687453Y-103411170D01*
X115814842Y-103149430D01*
X115888720Y-102867867D01*
X115748565Y-102635600D01*
X114549400Y-102635600D01*
X114295400Y-102635600D01*
X114275400Y-102635600D01*
X114275400Y-102381600D01*
X114295400Y-102381600D01*
X114295400Y-101063445D01*
X114549400Y-101063445D01*
X114549400Y-102381600D01*
X115748565Y-102381600D01*
X115888720Y-102149333D01*
X115832745Y-101936000D01*
X136031418Y-101936000D01*
X136031418Y-103386000D01*
X136042535Y-103498876D01*
X136075460Y-103607414D01*
X136128927Y-103707443D01*
X136200881Y-103795119D01*
X136288557Y-103867073D01*
X136388586Y-103920540D01*
X136497124Y-103953465D01*
X136610000Y-103964582D01*
X137810000Y-103964582D01*
X137922876Y-103953465D01*
X138031414Y-103920540D01*
X138131443Y-103867073D01*
X138219119Y-103795119D01*
X138291073Y-103707443D01*
X138344540Y-103607414D01*
X138377465Y-103498876D01*
X138388582Y-103386000D01*
X138388582Y-102478189D01*
X138533000Y-102478189D01*
X138533000Y-102843812D01*
X138550031Y-103016732D01*
X138617333Y-103238597D01*
X138726626Y-103443070D01*
X138873710Y-103622291D01*
X139052931Y-103769374D01*
X139257404Y-103878667D01*
X139479269Y-103945969D01*
X139710000Y-103968694D01*
X139940732Y-103945969D01*
X140162597Y-103878667D01*
X140367070Y-103769374D01*
X140546291Y-103622291D01*
X140693374Y-103443069D01*
X140802667Y-103238596D01*
X140869969Y-103016731D01*
X140887000Y-102843811D01*
X140887000Y-102478189D01*
X141033000Y-102478189D01*
X141033000Y-102843812D01*
X141050031Y-103016732D01*
X141117333Y-103238597D01*
X141226626Y-103443070D01*
X141373710Y-103622291D01*
X141552931Y-103769374D01*
X141757404Y-103878667D01*
X141979269Y-103945969D01*
X142210000Y-103968694D01*
X142440732Y-103945969D01*
X142662597Y-103878667D01*
X142867070Y-103769374D01*
X143046291Y-103622291D01*
X143193374Y-103443069D01*
X143302667Y-103238596D01*
X143369969Y-103016731D01*
X143387000Y-102843811D01*
X143387000Y-102478189D01*
X143533000Y-102478189D01*
X143533000Y-102843812D01*
X143550031Y-103016732D01*
X143617333Y-103238597D01*
X143726626Y-103443070D01*
X143873710Y-103622291D01*
X144052931Y-103769374D01*
X144257404Y-103878667D01*
X144479269Y-103945969D01*
X144710000Y-103968694D01*
X144940732Y-103945969D01*
X145162597Y-103878667D01*
X145367070Y-103769374D01*
X145546291Y-103622291D01*
X145693374Y-103443069D01*
X145802667Y-103238596D01*
X145869969Y-103016731D01*
X145887000Y-102843811D01*
X145887000Y-102478189D01*
X146033000Y-102478189D01*
X146033000Y-102843812D01*
X146050031Y-103016732D01*
X146117333Y-103238597D01*
X146226626Y-103443070D01*
X146373710Y-103622291D01*
X146552931Y-103769374D01*
X146757404Y-103878667D01*
X146979269Y-103945969D01*
X147210000Y-103968694D01*
X147440732Y-103945969D01*
X147662597Y-103878667D01*
X147867070Y-103769374D01*
X148046291Y-103622291D01*
X148193374Y-103443069D01*
X148301526Y-103240730D01*
X148317558Y-103301830D01*
X148444947Y-103563570D01*
X148620951Y-103795429D01*
X148838807Y-103988496D01*
X149090142Y-104135352D01*
X149353110Y-104227476D01*
X149583000Y-104106155D01*
X149583000Y-102788000D01*
X149837000Y-102788000D01*
X149837000Y-104106155D01*
X150066890Y-104227476D01*
X150329858Y-104135352D01*
X150581193Y-103988496D01*
X150799049Y-103795429D01*
X150975053Y-103563570D01*
X151102442Y-103301830D01*
X151176320Y-103020267D01*
X151036165Y-102788000D01*
X149837000Y-102788000D01*
X149583000Y-102788000D01*
X149563000Y-102788000D01*
X149563000Y-102534000D01*
X149583000Y-102534000D01*
X149583000Y-101215845D01*
X149837000Y-101215845D01*
X149837000Y-102534000D01*
X151036165Y-102534000D01*
X151176320Y-102301733D01*
X151102442Y-102020170D01*
X151086201Y-101986800D01*
X160212218Y-101986800D01*
X160212218Y-103436800D01*
X160223335Y-103549676D01*
X160256260Y-103658214D01*
X160309727Y-103758243D01*
X160381681Y-103845919D01*
X160469357Y-103917873D01*
X160569386Y-103971340D01*
X160677924Y-104004265D01*
X160790800Y-104015382D01*
X161990800Y-104015382D01*
X162103676Y-104004265D01*
X162212214Y-103971340D01*
X162312243Y-103917873D01*
X162399919Y-103845919D01*
X162471873Y-103758243D01*
X162525340Y-103658214D01*
X162558265Y-103549676D01*
X162569382Y-103436800D01*
X162569382Y-102528989D01*
X162713800Y-102528989D01*
X162713800Y-102894612D01*
X162730831Y-103067532D01*
X162798133Y-103289397D01*
X162907426Y-103493870D01*
X163054510Y-103673091D01*
X163233731Y-103820174D01*
X163438204Y-103929467D01*
X163660069Y-103996769D01*
X163890800Y-104019494D01*
X164121532Y-103996769D01*
X164343397Y-103929467D01*
X164547870Y-103820174D01*
X164727091Y-103673091D01*
X164874174Y-103493869D01*
X164983467Y-103289396D01*
X165050769Y-103067531D01*
X165067800Y-102894611D01*
X165067800Y-102528989D01*
X165213800Y-102528989D01*
X165213800Y-102894612D01*
X165230831Y-103067532D01*
X165298133Y-103289397D01*
X165407426Y-103493870D01*
X165554510Y-103673091D01*
X165733731Y-103820174D01*
X165938204Y-103929467D01*
X166160069Y-103996769D01*
X166390800Y-104019494D01*
X166621532Y-103996769D01*
X166843397Y-103929467D01*
X167047870Y-103820174D01*
X167227091Y-103673091D01*
X167374174Y-103493869D01*
X167482326Y-103291530D01*
X167498358Y-103352630D01*
X167625747Y-103614370D01*
X167801751Y-103846229D01*
X168019607Y-104039296D01*
X168270942Y-104186152D01*
X168533910Y-104278276D01*
X168763800Y-104156955D01*
X168763800Y-102838800D01*
X169017800Y-102838800D01*
X169017800Y-104156955D01*
X169247690Y-104278276D01*
X169510658Y-104186152D01*
X169726287Y-104060159D01*
X176928320Y-104060159D01*
X176928320Y-104370801D01*
X176988924Y-104675474D01*
X177107801Y-104962469D01*
X177280384Y-105220759D01*
X177500041Y-105440416D01*
X177758331Y-105612999D01*
X178045326Y-105731876D01*
X178349999Y-105792480D01*
X178660641Y-105792480D01*
X178965314Y-105731876D01*
X179252309Y-105612999D01*
X179510599Y-105440416D01*
X179730256Y-105220759D01*
X179902839Y-104962469D01*
X180021716Y-104675474D01*
X180082320Y-104370801D01*
X180082320Y-104060159D01*
X180021716Y-103755486D01*
X179902839Y-103468491D01*
X179730256Y-103210201D01*
X179510599Y-102990544D01*
X179252309Y-102817961D01*
X178965314Y-102699084D01*
X178660641Y-102638480D01*
X178349999Y-102638480D01*
X178045326Y-102699084D01*
X177758331Y-102817961D01*
X177500041Y-102990544D01*
X177280384Y-103210201D01*
X177107801Y-103468491D01*
X176988924Y-103755486D01*
X176928320Y-104060159D01*
X169726287Y-104060159D01*
X169761993Y-104039296D01*
X169979849Y-103846229D01*
X170155853Y-103614370D01*
X170283242Y-103352630D01*
X170357120Y-103071067D01*
X170216965Y-102838800D01*
X169017800Y-102838800D01*
X168763800Y-102838800D01*
X168743800Y-102838800D01*
X168743800Y-102584800D01*
X168763800Y-102584800D01*
X168763800Y-101266645D01*
X169017800Y-101266645D01*
X169017800Y-102584800D01*
X170216965Y-102584800D01*
X170357120Y-102352533D01*
X170283242Y-102070970D01*
X170155853Y-101809230D01*
X169979849Y-101577371D01*
X169761993Y-101384304D01*
X169510658Y-101237448D01*
X169247690Y-101145324D01*
X169017800Y-101266645D01*
X168763800Y-101266645D01*
X168533910Y-101145324D01*
X168270942Y-101237448D01*
X168019607Y-101384304D01*
X167801751Y-101577371D01*
X167625747Y-101809230D01*
X167498358Y-102070970D01*
X167482326Y-102132069D01*
X167374174Y-101929730D01*
X167227091Y-101750509D01*
X167047869Y-101603426D01*
X166843396Y-101494133D01*
X166621531Y-101426831D01*
X166390800Y-101404106D01*
X166160068Y-101426831D01*
X165938203Y-101494133D01*
X165733730Y-101603426D01*
X165554509Y-101750509D01*
X165407426Y-101929731D01*
X165298133Y-102134204D01*
X165230831Y-102356069D01*
X165213800Y-102528989D01*
X165067800Y-102528989D01*
X165067800Y-102528988D01*
X165050769Y-102356068D01*
X164983467Y-102134203D01*
X164874174Y-101929730D01*
X164727091Y-101750509D01*
X164547869Y-101603426D01*
X164343396Y-101494133D01*
X164121531Y-101426831D01*
X163890800Y-101404106D01*
X163660068Y-101426831D01*
X163438203Y-101494133D01*
X163233730Y-101603426D01*
X163054509Y-101750509D01*
X162907426Y-101929731D01*
X162798133Y-102134204D01*
X162730831Y-102356069D01*
X162713800Y-102528989D01*
X162569382Y-102528989D01*
X162569382Y-101986800D01*
X162558265Y-101873924D01*
X162525340Y-101765386D01*
X162471873Y-101665357D01*
X162399919Y-101577681D01*
X162312243Y-101505727D01*
X162212214Y-101452260D01*
X162103676Y-101419335D01*
X161990800Y-101408218D01*
X160790800Y-101408218D01*
X160677924Y-101419335D01*
X160569386Y-101452260D01*
X160469357Y-101505727D01*
X160381681Y-101577681D01*
X160309727Y-101665357D01*
X160256260Y-101765386D01*
X160223335Y-101873924D01*
X160212218Y-101986800D01*
X151086201Y-101986800D01*
X150975053Y-101758430D01*
X150799049Y-101526571D01*
X150581193Y-101333504D01*
X150329858Y-101186648D01*
X150066890Y-101094524D01*
X149837000Y-101215845D01*
X149583000Y-101215845D01*
X149353110Y-101094524D01*
X149090142Y-101186648D01*
X148838807Y-101333504D01*
X148620951Y-101526571D01*
X148444947Y-101758430D01*
X148317558Y-102020170D01*
X148301526Y-102081269D01*
X148193374Y-101878930D01*
X148046291Y-101699709D01*
X147867069Y-101552626D01*
X147662596Y-101443333D01*
X147440731Y-101376031D01*
X147210000Y-101353306D01*
X146979268Y-101376031D01*
X146757403Y-101443333D01*
X146552930Y-101552626D01*
X146373709Y-101699709D01*
X146226626Y-101878931D01*
X146117333Y-102083404D01*
X146050031Y-102305269D01*
X146033000Y-102478189D01*
X145887000Y-102478189D01*
X145887000Y-102478188D01*
X145869969Y-102305268D01*
X145802667Y-102083403D01*
X145693374Y-101878930D01*
X145546291Y-101699709D01*
X145367069Y-101552626D01*
X145162596Y-101443333D01*
X144940731Y-101376031D01*
X144710000Y-101353306D01*
X144479268Y-101376031D01*
X144257403Y-101443333D01*
X144052930Y-101552626D01*
X143873709Y-101699709D01*
X143726626Y-101878931D01*
X143617333Y-102083404D01*
X143550031Y-102305269D01*
X143533000Y-102478189D01*
X143387000Y-102478189D01*
X143387000Y-102478188D01*
X143369969Y-102305268D01*
X143302667Y-102083403D01*
X143193374Y-101878930D01*
X143046291Y-101699709D01*
X142867069Y-101552626D01*
X142662596Y-101443333D01*
X142440731Y-101376031D01*
X142210000Y-101353306D01*
X141979268Y-101376031D01*
X141757403Y-101443333D01*
X141552930Y-101552626D01*
X141373709Y-101699709D01*
X141226626Y-101878931D01*
X141117333Y-102083404D01*
X141050031Y-102305269D01*
X141033000Y-102478189D01*
X140887000Y-102478189D01*
X140887000Y-102478188D01*
X140869969Y-102305268D01*
X140802667Y-102083403D01*
X140693374Y-101878930D01*
X140546291Y-101699709D01*
X140367069Y-101552626D01*
X140162596Y-101443333D01*
X139940731Y-101376031D01*
X139710000Y-101353306D01*
X139479268Y-101376031D01*
X139257403Y-101443333D01*
X139052930Y-101552626D01*
X138873709Y-101699709D01*
X138726626Y-101878931D01*
X138617333Y-102083404D01*
X138550031Y-102305269D01*
X138533000Y-102478189D01*
X138388582Y-102478189D01*
X138388582Y-101936000D01*
X138377465Y-101823124D01*
X138344540Y-101714586D01*
X138291073Y-101614557D01*
X138219119Y-101526881D01*
X138131443Y-101454927D01*
X138031414Y-101401460D01*
X137922876Y-101368535D01*
X137810000Y-101357418D01*
X136610000Y-101357418D01*
X136497124Y-101368535D01*
X136388586Y-101401460D01*
X136288557Y-101454927D01*
X136200881Y-101526881D01*
X136128927Y-101614557D01*
X136075460Y-101714586D01*
X136042535Y-101823124D01*
X136031418Y-101936000D01*
X115832745Y-101936000D01*
X115814842Y-101867770D01*
X115687453Y-101606030D01*
X115511449Y-101374171D01*
X115293593Y-101181104D01*
X115042258Y-101034248D01*
X114779290Y-100942124D01*
X114549400Y-101063445D01*
X114295400Y-101063445D01*
X114065510Y-100942124D01*
X113802542Y-101034248D01*
X113551207Y-101181104D01*
X113333351Y-101374171D01*
X113157347Y-101606030D01*
X113029958Y-101867770D01*
X113013926Y-101928869D01*
X112905774Y-101726530D01*
X112758691Y-101547309D01*
X112579469Y-101400226D01*
X112374996Y-101290933D01*
X112153131Y-101223631D01*
X111922400Y-101200906D01*
X111691668Y-101223631D01*
X111469803Y-101290933D01*
X111265330Y-101400226D01*
X111086109Y-101547309D01*
X110939026Y-101726531D01*
X110829733Y-101931004D01*
X110762431Y-102152869D01*
X110745400Y-102325789D01*
X110600982Y-102325789D01*
X110600982Y-101783600D01*
X110589865Y-101670724D01*
X110556940Y-101562186D01*
X110503473Y-101462157D01*
X110431519Y-101374481D01*
X110343843Y-101302527D01*
X110243814Y-101249060D01*
X110135276Y-101216135D01*
X110022400Y-101205018D01*
X108822400Y-101205018D01*
X108709524Y-101216135D01*
X108600986Y-101249060D01*
X108500957Y-101302527D01*
X108413281Y-101374481D01*
X108341327Y-101462157D01*
X108287860Y-101562186D01*
X108254935Y-101670724D01*
X108243818Y-101783600D01*
X92863257Y-101783600D01*
X92864445Y-98636000D01*
X120080218Y-98636000D01*
X120080218Y-100336000D01*
X120086532Y-100400103D01*
X120105230Y-100461743D01*
X120135594Y-100518550D01*
X120176457Y-100568343D01*
X120226250Y-100609206D01*
X120283057Y-100639570D01*
X120344697Y-100658268D01*
X120408800Y-100664582D01*
X122108800Y-100664582D01*
X122172903Y-100658268D01*
X122234543Y-100639570D01*
X122291350Y-100609206D01*
X122341143Y-100568343D01*
X122382006Y-100518550D01*
X122412370Y-100461743D01*
X122431068Y-100400103D01*
X122437382Y-100336000D01*
X122437382Y-99370076D01*
X122621800Y-99370076D01*
X122621800Y-99601924D01*
X122667031Y-99829318D01*
X122755756Y-100043519D01*
X122884564Y-100236294D01*
X123048506Y-100400236D01*
X123241281Y-100529044D01*
X123455482Y-100617769D01*
X123682876Y-100663000D01*
X123914724Y-100663000D01*
X124142118Y-100617769D01*
X124356319Y-100529044D01*
X124549094Y-100400236D01*
X124713036Y-100236294D01*
X124841844Y-100043519D01*
X124930569Y-99829318D01*
X124975800Y-99601924D01*
X124975800Y-99370076D01*
X125161800Y-99370076D01*
X125161800Y-99601924D01*
X125207031Y-99829318D01*
X125295756Y-100043519D01*
X125424564Y-100236294D01*
X125588506Y-100400236D01*
X125781281Y-100529044D01*
X125995482Y-100617769D01*
X126222876Y-100663000D01*
X126454724Y-100663000D01*
X126682118Y-100617769D01*
X126896319Y-100529044D01*
X127089094Y-100400236D01*
X127253036Y-100236294D01*
X127381844Y-100043519D01*
X127470569Y-99829318D01*
X127515800Y-99601924D01*
X127515800Y-99495677D01*
X165586320Y-99495677D01*
X165586320Y-99638883D01*
X165614258Y-99779338D01*
X165669061Y-99911644D01*
X165748622Y-100030716D01*
X165849884Y-100131978D01*
X165968956Y-100211539D01*
X166101262Y-100266342D01*
X166241717Y-100294280D01*
X166384923Y-100294280D01*
X166525378Y-100266342D01*
X166657684Y-100211539D01*
X166776756Y-100131978D01*
X166878018Y-100030716D01*
X166957579Y-99911644D01*
X167012382Y-99779338D01*
X167040320Y-99638883D01*
X167040320Y-99495677D01*
X167012382Y-99355222D01*
X166957579Y-99222916D01*
X166878018Y-99103844D01*
X166776756Y-99002582D01*
X166657684Y-98923021D01*
X166525378Y-98868218D01*
X166384923Y-98840280D01*
X166241717Y-98840280D01*
X166101262Y-98868218D01*
X165968956Y-98923021D01*
X165849884Y-99002582D01*
X165748622Y-99103844D01*
X165669061Y-99222916D01*
X165614258Y-99355222D01*
X165586320Y-99495677D01*
X127515800Y-99495677D01*
X127515800Y-99370076D01*
X127470569Y-99142682D01*
X127381844Y-98928481D01*
X127253036Y-98735706D01*
X127089094Y-98571764D01*
X126896319Y-98442956D01*
X126682118Y-98354231D01*
X126454724Y-98309000D01*
X126222876Y-98309000D01*
X125995482Y-98354231D01*
X125781281Y-98442956D01*
X125588506Y-98571764D01*
X125424564Y-98735706D01*
X125295756Y-98928481D01*
X125207031Y-99142682D01*
X125161800Y-99370076D01*
X124975800Y-99370076D01*
X124930569Y-99142682D01*
X124841844Y-98928481D01*
X124713036Y-98735706D01*
X124549094Y-98571764D01*
X124356319Y-98442956D01*
X124142118Y-98354231D01*
X123914724Y-98309000D01*
X123682876Y-98309000D01*
X123455482Y-98354231D01*
X123241281Y-98442956D01*
X123048506Y-98571764D01*
X122884564Y-98735706D01*
X122755756Y-98928481D01*
X122667031Y-99142682D01*
X122621800Y-99370076D01*
X122437382Y-99370076D01*
X122437382Y-98636000D01*
X122431068Y-98571897D01*
X122412370Y-98510257D01*
X122382006Y-98453450D01*
X122341143Y-98403657D01*
X122291350Y-98362794D01*
X122234543Y-98332430D01*
X122172903Y-98313732D01*
X122108800Y-98307418D01*
X120408800Y-98307418D01*
X120344697Y-98313732D01*
X120283057Y-98332430D01*
X120226250Y-98362794D01*
X120176457Y-98403657D01*
X120135594Y-98453450D01*
X120105230Y-98510257D01*
X120086532Y-98571897D01*
X120080218Y-98636000D01*
X92864445Y-98636000D01*
X92865321Y-96315597D01*
X103767800Y-96315597D01*
X103767800Y-96458803D01*
X103795738Y-96599258D01*
X103850541Y-96731564D01*
X103930102Y-96850636D01*
X104031364Y-96951898D01*
X104150436Y-97031459D01*
X104282742Y-97086262D01*
X104423197Y-97114200D01*
X104566403Y-97114200D01*
X104706858Y-97086262D01*
X104789098Y-97052197D01*
X126754800Y-97052197D01*
X126754800Y-97195403D01*
X126782738Y-97335858D01*
X126837541Y-97468164D01*
X126917102Y-97587236D01*
X127018364Y-97688498D01*
X127137436Y-97768059D01*
X127269742Y-97822862D01*
X127410197Y-97850800D01*
X127553403Y-97850800D01*
X127693858Y-97822862D01*
X127826164Y-97768059D01*
X127945236Y-97688498D01*
X128046498Y-97587236D01*
X128126059Y-97468164D01*
X128180862Y-97335858D01*
X128208800Y-97195403D01*
X128208800Y-97052197D01*
X130336200Y-97052197D01*
X130336200Y-97195403D01*
X130364138Y-97335858D01*
X130418941Y-97468164D01*
X130498502Y-97587236D01*
X130599764Y-97688498D01*
X130718836Y-97768059D01*
X130851142Y-97822862D01*
X130991597Y-97850800D01*
X131134803Y-97850800D01*
X131275258Y-97822862D01*
X131407564Y-97768059D01*
X131526636Y-97688498D01*
X131627898Y-97587236D01*
X131643521Y-97563855D01*
X131666564Y-97586898D01*
X131785636Y-97666459D01*
X131917942Y-97721262D01*
X132058397Y-97749200D01*
X132201603Y-97749200D01*
X132342058Y-97721262D01*
X132474364Y-97666459D01*
X132593436Y-97586898D01*
X132694698Y-97485636D01*
X132774259Y-97366564D01*
X132829062Y-97234258D01*
X132834961Y-97204597D01*
X136838600Y-97204597D01*
X136838600Y-97347803D01*
X136866538Y-97488258D01*
X136921341Y-97620564D01*
X137000902Y-97739636D01*
X137102164Y-97840898D01*
X137221236Y-97920459D01*
X137353542Y-97975262D01*
X137493997Y-98003200D01*
X137637203Y-98003200D01*
X137777658Y-97975262D01*
X137909964Y-97920459D01*
X138029036Y-97840898D01*
X138130298Y-97739636D01*
X138209859Y-97620564D01*
X138264662Y-97488258D01*
X138292600Y-97347803D01*
X138292600Y-97229997D01*
X139734200Y-97229997D01*
X139734200Y-97373203D01*
X139762138Y-97513658D01*
X139816941Y-97645964D01*
X139896502Y-97765036D01*
X139997764Y-97866298D01*
X140116836Y-97945859D01*
X140249142Y-98000662D01*
X140389597Y-98028600D01*
X140532803Y-98028600D01*
X140673258Y-98000662D01*
X140805564Y-97945859D01*
X140924636Y-97866298D01*
X141025898Y-97765036D01*
X141105459Y-97645964D01*
X141160262Y-97513658D01*
X141188200Y-97373203D01*
X141188200Y-97255397D01*
X142452000Y-97255397D01*
X142452000Y-97398603D01*
X142479938Y-97539058D01*
X142534741Y-97671364D01*
X142614302Y-97790436D01*
X142715564Y-97891698D01*
X142834636Y-97971259D01*
X142966942Y-98026062D01*
X143107397Y-98054000D01*
X143250603Y-98054000D01*
X143391058Y-98026062D01*
X143523364Y-97971259D01*
X143642436Y-97891698D01*
X143743698Y-97790436D01*
X143823259Y-97671364D01*
X143878062Y-97539058D01*
X143906000Y-97398603D01*
X143906000Y-97255397D01*
X143900948Y-97229997D01*
X145220600Y-97229997D01*
X145220600Y-97373203D01*
X145248538Y-97513658D01*
X145303341Y-97645964D01*
X145382902Y-97765036D01*
X145484164Y-97866298D01*
X145603236Y-97945859D01*
X145735542Y-98000662D01*
X145875997Y-98028600D01*
X146019203Y-98028600D01*
X146159658Y-98000662D01*
X146291964Y-97945859D01*
X146411036Y-97866298D01*
X146512298Y-97765036D01*
X146591859Y-97645964D01*
X146646662Y-97513658D01*
X146674600Y-97373203D01*
X146674600Y-97229997D01*
X146646662Y-97089542D01*
X146591859Y-96957236D01*
X146512298Y-96838164D01*
X146462171Y-96788037D01*
X165708240Y-96788037D01*
X165708240Y-96931243D01*
X165736178Y-97071698D01*
X165790981Y-97204004D01*
X165870542Y-97323076D01*
X165971804Y-97424338D01*
X166090876Y-97503899D01*
X166223182Y-97558702D01*
X166363637Y-97586640D01*
X166506843Y-97586640D01*
X166647298Y-97558702D01*
X166779604Y-97503899D01*
X166898676Y-97424338D01*
X166999938Y-97323076D01*
X167079499Y-97204004D01*
X167134302Y-97071698D01*
X167162240Y-96931243D01*
X167162240Y-96788037D01*
X167134302Y-96647582D01*
X167079499Y-96515276D01*
X166999938Y-96396204D01*
X166898676Y-96294942D01*
X166779604Y-96215381D01*
X166647298Y-96160578D01*
X166506843Y-96132640D01*
X166363637Y-96132640D01*
X166223182Y-96160578D01*
X166090876Y-96215381D01*
X165971804Y-96294942D01*
X165870542Y-96396204D01*
X165790981Y-96515276D01*
X165736178Y-96647582D01*
X165708240Y-96788037D01*
X146462171Y-96788037D01*
X146411036Y-96736902D01*
X146291964Y-96657341D01*
X146159658Y-96602538D01*
X146019203Y-96574600D01*
X145875997Y-96574600D01*
X145735542Y-96602538D01*
X145603236Y-96657341D01*
X145484164Y-96736902D01*
X145382902Y-96838164D01*
X145303341Y-96957236D01*
X145248538Y-97089542D01*
X145220600Y-97229997D01*
X143900948Y-97229997D01*
X143878062Y-97114942D01*
X143823259Y-96982636D01*
X143743698Y-96863564D01*
X143642436Y-96762302D01*
X143523364Y-96682741D01*
X143391058Y-96627938D01*
X143250603Y-96600000D01*
X143107397Y-96600000D01*
X142966942Y-96627938D01*
X142834636Y-96682741D01*
X142715564Y-96762302D01*
X142614302Y-96863564D01*
X142534741Y-96982636D01*
X142479938Y-97114942D01*
X142452000Y-97255397D01*
X141188200Y-97255397D01*
X141188200Y-97229997D01*
X141160262Y-97089542D01*
X141105459Y-96957236D01*
X141025898Y-96838164D01*
X140924636Y-96736902D01*
X140805564Y-96657341D01*
X140673258Y-96602538D01*
X140532803Y-96574600D01*
X140389597Y-96574600D01*
X140249142Y-96602538D01*
X140116836Y-96657341D01*
X139997764Y-96736902D01*
X139896502Y-96838164D01*
X139816941Y-96957236D01*
X139762138Y-97089542D01*
X139734200Y-97229997D01*
X138292600Y-97229997D01*
X138292600Y-97204597D01*
X138264662Y-97064142D01*
X138209859Y-96931836D01*
X138130298Y-96812764D01*
X138029036Y-96711502D01*
X137909964Y-96631941D01*
X137777658Y-96577138D01*
X137637203Y-96549200D01*
X137493997Y-96549200D01*
X137353542Y-96577138D01*
X137221236Y-96631941D01*
X137102164Y-96711502D01*
X137000902Y-96812764D01*
X136921341Y-96931836D01*
X136866538Y-97064142D01*
X136838600Y-97204597D01*
X132834961Y-97204597D01*
X132857000Y-97093803D01*
X132857000Y-96950597D01*
X132829062Y-96810142D01*
X132774259Y-96677836D01*
X132694698Y-96558764D01*
X132593436Y-96457502D01*
X132474364Y-96377941D01*
X132348675Y-96325879D01*
X132423564Y-96294859D01*
X132542636Y-96215298D01*
X132643898Y-96114036D01*
X132723459Y-95994964D01*
X132778262Y-95862658D01*
X132806200Y-95722203D01*
X132806200Y-95578997D01*
X132778262Y-95438542D01*
X132723459Y-95306236D01*
X132643898Y-95187164D01*
X132542636Y-95085902D01*
X132423564Y-95006341D01*
X132291258Y-94951538D01*
X132150803Y-94923600D01*
X132007597Y-94923600D01*
X131867142Y-94951538D01*
X131734836Y-95006341D01*
X131615764Y-95085902D01*
X131514502Y-95187164D01*
X131434941Y-95306236D01*
X131380138Y-95438542D01*
X131352200Y-95578997D01*
X131352200Y-95722203D01*
X131380138Y-95862658D01*
X131434941Y-95994964D01*
X131514502Y-96114036D01*
X131615764Y-96215298D01*
X131734836Y-96294859D01*
X131860525Y-96346921D01*
X131785636Y-96377941D01*
X131666564Y-96457502D01*
X131565302Y-96558764D01*
X131549679Y-96582145D01*
X131526636Y-96559102D01*
X131407564Y-96479541D01*
X131275258Y-96424738D01*
X131134803Y-96396800D01*
X130991597Y-96396800D01*
X130851142Y-96424738D01*
X130718836Y-96479541D01*
X130599764Y-96559102D01*
X130498502Y-96660364D01*
X130418941Y-96779436D01*
X130364138Y-96911742D01*
X130336200Y-97052197D01*
X128208800Y-97052197D01*
X128180862Y-96911742D01*
X128126059Y-96779436D01*
X128046498Y-96660364D01*
X127945236Y-96559102D01*
X127826164Y-96479541D01*
X127693858Y-96424738D01*
X127553403Y-96396800D01*
X127410197Y-96396800D01*
X127269742Y-96424738D01*
X127137436Y-96479541D01*
X127018364Y-96559102D01*
X126917102Y-96660364D01*
X126837541Y-96779436D01*
X126782738Y-96911742D01*
X126754800Y-97052197D01*
X104789098Y-97052197D01*
X104839164Y-97031459D01*
X104958236Y-96951898D01*
X105059498Y-96850636D01*
X105139059Y-96731564D01*
X105193862Y-96599258D01*
X105221800Y-96458803D01*
X105221800Y-96315597D01*
X105193862Y-96175142D01*
X105139059Y-96042836D01*
X105059498Y-95923764D01*
X104958236Y-95822502D01*
X104839164Y-95742941D01*
X104706858Y-95688138D01*
X104566403Y-95660200D01*
X104423197Y-95660200D01*
X104282742Y-95688138D01*
X104150436Y-95742941D01*
X104031364Y-95822502D01*
X103930102Y-95923764D01*
X103850541Y-96042836D01*
X103795738Y-96175142D01*
X103767800Y-96315597D01*
X92865321Y-96315597D01*
X92865964Y-94613797D01*
X94877800Y-94613797D01*
X94877800Y-94757003D01*
X94905738Y-94897458D01*
X94960541Y-95029764D01*
X95040102Y-95148836D01*
X95141364Y-95250098D01*
X95260436Y-95329659D01*
X95392742Y-95384462D01*
X95533197Y-95412400D01*
X95676403Y-95412400D01*
X95816858Y-95384462D01*
X95949164Y-95329659D01*
X96068236Y-95250098D01*
X96169498Y-95148836D01*
X96249059Y-95029764D01*
X96303862Y-94897458D01*
X96321876Y-94806890D01*
X106798524Y-94806890D01*
X106843175Y-94954099D01*
X106968359Y-95216920D01*
X107142412Y-95450269D01*
X107358645Y-95645178D01*
X107608748Y-95794157D01*
X107883109Y-95891481D01*
X108113000Y-95770814D01*
X108113000Y-94577000D01*
X108367000Y-94577000D01*
X108367000Y-95770814D01*
X108596891Y-95891481D01*
X108871252Y-95794157D01*
X109121355Y-95645178D01*
X109335670Y-95451997D01*
X128710600Y-95451997D01*
X128710600Y-95595203D01*
X128738538Y-95735658D01*
X128793341Y-95867964D01*
X128872902Y-95987036D01*
X128974164Y-96088298D01*
X129093236Y-96167859D01*
X129225542Y-96222662D01*
X129365997Y-96250600D01*
X129509203Y-96250600D01*
X129649658Y-96222662D01*
X129781964Y-96167859D01*
X129901036Y-96088298D01*
X130002298Y-95987036D01*
X130081859Y-95867964D01*
X130136662Y-95735658D01*
X130164600Y-95595203D01*
X130164600Y-95451997D01*
X130136662Y-95311542D01*
X130081859Y-95179236D01*
X130002298Y-95060164D01*
X129901036Y-94958902D01*
X129781964Y-94879341D01*
X129649658Y-94824538D01*
X129509203Y-94796600D01*
X129365997Y-94796600D01*
X129225542Y-94824538D01*
X129093236Y-94879341D01*
X128974164Y-94958902D01*
X128872902Y-95060164D01*
X128793341Y-95179236D01*
X128738538Y-95311542D01*
X128710600Y-95451997D01*
X109335670Y-95451997D01*
X109337588Y-95450269D01*
X109511641Y-95216920D01*
X109636825Y-94954099D01*
X109681476Y-94806890D01*
X109560155Y-94577000D01*
X108367000Y-94577000D01*
X108113000Y-94577000D01*
X106919845Y-94577000D01*
X106798524Y-94806890D01*
X96321876Y-94806890D01*
X96331800Y-94757003D01*
X96331800Y-94613797D01*
X96303862Y-94473342D01*
X96249059Y-94341036D01*
X96169498Y-94221964D01*
X96068236Y-94120702D01*
X96026942Y-94093110D01*
X106798524Y-94093110D01*
X106919845Y-94323000D01*
X108113000Y-94323000D01*
X108113000Y-94303000D01*
X108367000Y-94303000D01*
X108367000Y-94323000D01*
X109560155Y-94323000D01*
X109674780Y-94105797D01*
X133562000Y-94105797D01*
X133562000Y-94249003D01*
X133589938Y-94389458D01*
X133644741Y-94521764D01*
X133724302Y-94640836D01*
X133825564Y-94742098D01*
X133944636Y-94821659D01*
X134076942Y-94876462D01*
X134217397Y-94904400D01*
X134360603Y-94904400D01*
X134501058Y-94876462D01*
X134633364Y-94821659D01*
X134752436Y-94742098D01*
X134853698Y-94640836D01*
X134933259Y-94521764D01*
X134988062Y-94389458D01*
X135016000Y-94249003D01*
X135016000Y-94105797D01*
X134988062Y-93965342D01*
X134933259Y-93833036D01*
X134853698Y-93713964D01*
X134813194Y-93673460D01*
X134861964Y-93653259D01*
X134981036Y-93573698D01*
X135082298Y-93472436D01*
X135100364Y-93445397D01*
X164600800Y-93445397D01*
X164600800Y-93588603D01*
X164628738Y-93729058D01*
X164683541Y-93861364D01*
X164763102Y-93980436D01*
X164864364Y-94081698D01*
X164983436Y-94161259D01*
X165115742Y-94216062D01*
X165256197Y-94244000D01*
X165399403Y-94244000D01*
X165539858Y-94216062D01*
X165672164Y-94161259D01*
X165791236Y-94081698D01*
X165892498Y-93980436D01*
X165972059Y-93861364D01*
X166026862Y-93729058D01*
X166054800Y-93588603D01*
X166054800Y-93445397D01*
X166026862Y-93304942D01*
X165972059Y-93172636D01*
X165892498Y-93053564D01*
X165791236Y-92952302D01*
X165672164Y-92872741D01*
X165539858Y-92817938D01*
X165399403Y-92790000D01*
X165256197Y-92790000D01*
X165115742Y-92817938D01*
X164983436Y-92872741D01*
X164864364Y-92952302D01*
X164763102Y-93053564D01*
X164683541Y-93172636D01*
X164628738Y-93304942D01*
X164600800Y-93445397D01*
X135100364Y-93445397D01*
X135161859Y-93353364D01*
X135216662Y-93221058D01*
X135244600Y-93080603D01*
X135244600Y-92937397D01*
X135216662Y-92796942D01*
X135161859Y-92664636D01*
X135082298Y-92545564D01*
X134981036Y-92444302D01*
X134861964Y-92364741D01*
X134729658Y-92309938D01*
X134589203Y-92282000D01*
X134445997Y-92282000D01*
X134305542Y-92309938D01*
X134173236Y-92364741D01*
X134054164Y-92444302D01*
X133952902Y-92545564D01*
X133873341Y-92664636D01*
X133818538Y-92796942D01*
X133790600Y-92937397D01*
X133790600Y-93080603D01*
X133818538Y-93221058D01*
X133873341Y-93353364D01*
X133952902Y-93472436D01*
X133993406Y-93512940D01*
X133944636Y-93533141D01*
X133825564Y-93612702D01*
X133724302Y-93713964D01*
X133644741Y-93833036D01*
X133589938Y-93965342D01*
X133562000Y-94105797D01*
X109674780Y-94105797D01*
X109681476Y-94093110D01*
X109636825Y-93945901D01*
X109511641Y-93683080D01*
X109337588Y-93449731D01*
X109121355Y-93254822D01*
X108871252Y-93105843D01*
X108822592Y-93088582D01*
X109090000Y-93088582D01*
X109154103Y-93082268D01*
X109215743Y-93063570D01*
X109272550Y-93033206D01*
X109322343Y-92992343D01*
X109363206Y-92942550D01*
X109393570Y-92885743D01*
X109412268Y-92824103D01*
X109418582Y-92760000D01*
X109418582Y-92556397D01*
X120608000Y-92556397D01*
X120608000Y-92699603D01*
X120635938Y-92840058D01*
X120690741Y-92972364D01*
X120770302Y-93091436D01*
X120871564Y-93192698D01*
X120990636Y-93272259D01*
X121122942Y-93327062D01*
X121263397Y-93355000D01*
X121406603Y-93355000D01*
X121547058Y-93327062D01*
X121679364Y-93272259D01*
X121798436Y-93192698D01*
X121899698Y-93091436D01*
X121979259Y-92972364D01*
X122034062Y-92840058D01*
X122062000Y-92699603D01*
X122062000Y-92556397D01*
X122034062Y-92415942D01*
X121979259Y-92283636D01*
X121899698Y-92164564D01*
X121798436Y-92063302D01*
X121695152Y-91994290D01*
X145077624Y-91994290D01*
X145122275Y-92141499D01*
X145247459Y-92404320D01*
X145421512Y-92637669D01*
X145637745Y-92832578D01*
X145887848Y-92981557D01*
X146162209Y-93078881D01*
X146392100Y-92958214D01*
X146392100Y-91764400D01*
X146646100Y-91764400D01*
X146646100Y-92958214D01*
X146875991Y-93078881D01*
X147150352Y-92981557D01*
X147400455Y-92832578D01*
X147616688Y-92637669D01*
X147790741Y-92404320D01*
X147915925Y-92141499D01*
X147960576Y-91994290D01*
X147938194Y-91951877D01*
X164219800Y-91951877D01*
X164219800Y-92095083D01*
X164247738Y-92235538D01*
X164302541Y-92367844D01*
X164382102Y-92486916D01*
X164483364Y-92588178D01*
X164602436Y-92667739D01*
X164734742Y-92722542D01*
X164875197Y-92750480D01*
X165018403Y-92750480D01*
X165158858Y-92722542D01*
X165291164Y-92667739D01*
X165410236Y-92588178D01*
X165511498Y-92486916D01*
X165591059Y-92367844D01*
X165645862Y-92235538D01*
X165673800Y-92095083D01*
X165673800Y-91951877D01*
X165645862Y-91811422D01*
X165591059Y-91679116D01*
X165511498Y-91560044D01*
X165410236Y-91458782D01*
X165291164Y-91379221D01*
X165158858Y-91324418D01*
X165018403Y-91296480D01*
X164875197Y-91296480D01*
X164734742Y-91324418D01*
X164602436Y-91379221D01*
X164483364Y-91458782D01*
X164382102Y-91560044D01*
X164302541Y-91679116D01*
X164247738Y-91811422D01*
X164219800Y-91951877D01*
X147938194Y-91951877D01*
X147839255Y-91764400D01*
X146646100Y-91764400D01*
X146392100Y-91764400D01*
X145198945Y-91764400D01*
X145077624Y-91994290D01*
X121695152Y-91994290D01*
X121679364Y-91983741D01*
X121547058Y-91928938D01*
X121406603Y-91901000D01*
X121263397Y-91901000D01*
X121122942Y-91928938D01*
X120990636Y-91983741D01*
X120871564Y-92063302D01*
X120770302Y-92164564D01*
X120690741Y-92283636D01*
X120635938Y-92415942D01*
X120608000Y-92556397D01*
X109418582Y-92556397D01*
X109418582Y-91718197D01*
X118982400Y-91718197D01*
X118982400Y-91861403D01*
X119010338Y-92001858D01*
X119065141Y-92134164D01*
X119144702Y-92253236D01*
X119245964Y-92354498D01*
X119365036Y-92434059D01*
X119497342Y-92488862D01*
X119637797Y-92516800D01*
X119781003Y-92516800D01*
X119921458Y-92488862D01*
X120053764Y-92434059D01*
X120172836Y-92354498D01*
X120274098Y-92253236D01*
X120353659Y-92134164D01*
X120408462Y-92001858D01*
X120436400Y-91861403D01*
X120436400Y-91718197D01*
X120408462Y-91577742D01*
X120353659Y-91445436D01*
X120274098Y-91326364D01*
X120228244Y-91280510D01*
X145077624Y-91280510D01*
X145198945Y-91510400D01*
X146392100Y-91510400D01*
X146392100Y-91490400D01*
X146646100Y-91490400D01*
X146646100Y-91510400D01*
X147839255Y-91510400D01*
X147960576Y-91280510D01*
X147915925Y-91133301D01*
X147790741Y-90870480D01*
X147616688Y-90637131D01*
X147400455Y-90442222D01*
X147150352Y-90293243D01*
X147101692Y-90275982D01*
X147369100Y-90275982D01*
X147433203Y-90269668D01*
X147494843Y-90250970D01*
X147551650Y-90220606D01*
X147601443Y-90179743D01*
X147642306Y-90129950D01*
X147672670Y-90073143D01*
X147691368Y-90011503D01*
X147697682Y-89947400D01*
X147697682Y-88502557D01*
X164204560Y-88502557D01*
X164204560Y-88645763D01*
X164232498Y-88786218D01*
X164287301Y-88918524D01*
X164366862Y-89037596D01*
X164468124Y-89138858D01*
X164587196Y-89218419D01*
X164719502Y-89273222D01*
X164859957Y-89301160D01*
X165003163Y-89301160D01*
X165143618Y-89273222D01*
X165275924Y-89218419D01*
X165394996Y-89138858D01*
X165496258Y-89037596D01*
X165575819Y-88918524D01*
X165630622Y-88786218D01*
X165658560Y-88645763D01*
X165658560Y-88502557D01*
X165630622Y-88362102D01*
X165575819Y-88229796D01*
X165496258Y-88110724D01*
X165394996Y-88009462D01*
X165275924Y-87929901D01*
X165143618Y-87875098D01*
X165003163Y-87847160D01*
X164859957Y-87847160D01*
X164719502Y-87875098D01*
X164587196Y-87929901D01*
X164468124Y-88009462D01*
X164366862Y-88110724D01*
X164287301Y-88229796D01*
X164232498Y-88362102D01*
X164204560Y-88502557D01*
X147697682Y-88502557D01*
X147697682Y-88247400D01*
X147691368Y-88183297D01*
X147672670Y-88121657D01*
X147642306Y-88064850D01*
X147601443Y-88015057D01*
X147551650Y-87974194D01*
X147494843Y-87943830D01*
X147433203Y-87925132D01*
X147369100Y-87918818D01*
X145669100Y-87918818D01*
X145604997Y-87925132D01*
X145543357Y-87943830D01*
X145486550Y-87974194D01*
X145436757Y-88015057D01*
X145395894Y-88064850D01*
X145365530Y-88121657D01*
X145346832Y-88183297D01*
X145340518Y-88247400D01*
X145340518Y-89947400D01*
X145346832Y-90011503D01*
X145365530Y-90073143D01*
X145395894Y-90129950D01*
X145436757Y-90179743D01*
X145486550Y-90220606D01*
X145543357Y-90250970D01*
X145604997Y-90269668D01*
X145669100Y-90275982D01*
X145936508Y-90275982D01*
X145887848Y-90293243D01*
X145637745Y-90442222D01*
X145421512Y-90637131D01*
X145247459Y-90870480D01*
X145122275Y-91133301D01*
X145077624Y-91280510D01*
X120228244Y-91280510D01*
X120172836Y-91225102D01*
X120053764Y-91145541D01*
X119921458Y-91090738D01*
X119781003Y-91062800D01*
X119637797Y-91062800D01*
X119497342Y-91090738D01*
X119365036Y-91145541D01*
X119245964Y-91225102D01*
X119144702Y-91326364D01*
X119065141Y-91445436D01*
X119010338Y-91577742D01*
X118982400Y-91718197D01*
X109418582Y-91718197D01*
X109418582Y-91060000D01*
X109412268Y-90995897D01*
X109393570Y-90934257D01*
X109363206Y-90877450D01*
X109322343Y-90827657D01*
X109272550Y-90786794D01*
X109215743Y-90756430D01*
X109154103Y-90737732D01*
X109090000Y-90731418D01*
X107390000Y-90731418D01*
X107325897Y-90737732D01*
X107264257Y-90756430D01*
X107207450Y-90786794D01*
X107157657Y-90827657D01*
X107116794Y-90877450D01*
X107086430Y-90934257D01*
X107067732Y-90995897D01*
X107061418Y-91060000D01*
X107061418Y-92760000D01*
X107067732Y-92824103D01*
X107086430Y-92885743D01*
X107116794Y-92942550D01*
X107157657Y-92992343D01*
X107207450Y-93033206D01*
X107264257Y-93063570D01*
X107325897Y-93082268D01*
X107390000Y-93088582D01*
X107657408Y-93088582D01*
X107608748Y-93105843D01*
X107358645Y-93254822D01*
X107142412Y-93449731D01*
X106968359Y-93683080D01*
X106843175Y-93945901D01*
X106798524Y-94093110D01*
X96026942Y-94093110D01*
X95949164Y-94041141D01*
X95816858Y-93986338D01*
X95676403Y-93958400D01*
X95533197Y-93958400D01*
X95392742Y-93986338D01*
X95260436Y-94041141D01*
X95141364Y-94120702D01*
X95040102Y-94221964D01*
X94960541Y-94341036D01*
X94905738Y-94473342D01*
X94877800Y-94613797D01*
X92865964Y-94613797D01*
X92867793Y-89766890D01*
X112048524Y-89766890D01*
X112093175Y-89914099D01*
X112218359Y-90176920D01*
X112392412Y-90410269D01*
X112608645Y-90605178D01*
X112858748Y-90754157D01*
X113133109Y-90851481D01*
X113363000Y-90730814D01*
X113363000Y-89537000D01*
X113617000Y-89537000D01*
X113617000Y-90730814D01*
X113846891Y-90851481D01*
X114121252Y-90754157D01*
X114371355Y-90605178D01*
X114587588Y-90410269D01*
X114741175Y-90204357D01*
X133531520Y-90204357D01*
X133531520Y-90347563D01*
X133559458Y-90488018D01*
X133614261Y-90620324D01*
X133693822Y-90739396D01*
X133795084Y-90840658D01*
X133914156Y-90920219D01*
X134046462Y-90975022D01*
X134186917Y-91002960D01*
X134330123Y-91002960D01*
X134470578Y-90975022D01*
X134602884Y-90920219D01*
X134721956Y-90840658D01*
X134823218Y-90739396D01*
X134902779Y-90620324D01*
X134957582Y-90488018D01*
X134985520Y-90347563D01*
X134985520Y-90204357D01*
X134957582Y-90063902D01*
X134902779Y-89931596D01*
X134823218Y-89812524D01*
X134721956Y-89711262D01*
X134602884Y-89631701D01*
X134470578Y-89576898D01*
X134330123Y-89548960D01*
X134186917Y-89548960D01*
X134046462Y-89576898D01*
X133914156Y-89631701D01*
X133795084Y-89711262D01*
X133693822Y-89812524D01*
X133614261Y-89931596D01*
X133559458Y-90063902D01*
X133531520Y-90204357D01*
X114741175Y-90204357D01*
X114761641Y-90176920D01*
X114886825Y-89914099D01*
X114931476Y-89766890D01*
X114810155Y-89537000D01*
X113617000Y-89537000D01*
X113363000Y-89537000D01*
X112169845Y-89537000D01*
X112048524Y-89766890D01*
X92867793Y-89766890D01*
X92868437Y-88061879D01*
X97708000Y-88061879D01*
X97708000Y-88268121D01*
X97748236Y-88470399D01*
X97827161Y-88660940D01*
X97941742Y-88832424D01*
X98087576Y-88978258D01*
X98259060Y-89092839D01*
X98449601Y-89171764D01*
X98651879Y-89212000D01*
X98858121Y-89212000D01*
X99060399Y-89171764D01*
X99250940Y-89092839D01*
X99310399Y-89053110D01*
X112048524Y-89053110D01*
X112169845Y-89283000D01*
X113363000Y-89283000D01*
X113363000Y-89263000D01*
X113617000Y-89263000D01*
X113617000Y-89283000D01*
X114810155Y-89283000D01*
X114931476Y-89053110D01*
X114886825Y-88905901D01*
X114847148Y-88822599D01*
X128837600Y-88822599D01*
X128837600Y-88965805D01*
X128865538Y-89106260D01*
X128920341Y-89238566D01*
X128999902Y-89357638D01*
X129101164Y-89458900D01*
X129220236Y-89538461D01*
X129352542Y-89593264D01*
X129492997Y-89621202D01*
X129636203Y-89621202D01*
X129776658Y-89593264D01*
X129908964Y-89538461D01*
X130028036Y-89458900D01*
X130129298Y-89357638D01*
X130208859Y-89238566D01*
X130263662Y-89106260D01*
X130291600Y-88965805D01*
X130291600Y-88822599D01*
X130263662Y-88682144D01*
X130208859Y-88549838D01*
X130129298Y-88430766D01*
X130028036Y-88329504D01*
X129908964Y-88249943D01*
X129776658Y-88195140D01*
X129636203Y-88167202D01*
X129492997Y-88167202D01*
X129352542Y-88195140D01*
X129220236Y-88249943D01*
X129101164Y-88329504D01*
X128999902Y-88430766D01*
X128920341Y-88549838D01*
X128865538Y-88682144D01*
X128837600Y-88822599D01*
X114847148Y-88822599D01*
X114761641Y-88643080D01*
X114587588Y-88409731D01*
X114371355Y-88214822D01*
X114121252Y-88065843D01*
X114072592Y-88048582D01*
X114340000Y-88048582D01*
X114404103Y-88042268D01*
X114465743Y-88023570D01*
X114522550Y-87993206D01*
X114572343Y-87952343D01*
X114613206Y-87902550D01*
X114643570Y-87845743D01*
X114662268Y-87784103D01*
X114668582Y-87720000D01*
X114668582Y-87006497D01*
X157857100Y-87006497D01*
X157857100Y-87149703D01*
X157885038Y-87290158D01*
X157939841Y-87422464D01*
X158019402Y-87541536D01*
X158120664Y-87642798D01*
X158239736Y-87722359D01*
X158372042Y-87777162D01*
X158512497Y-87805100D01*
X158655703Y-87805100D01*
X158796158Y-87777162D01*
X158928464Y-87722359D01*
X159047536Y-87642798D01*
X159148798Y-87541536D01*
X159228359Y-87422464D01*
X159283162Y-87290158D01*
X159311100Y-87149703D01*
X159311100Y-87006497D01*
X159302512Y-86963317D01*
X168842600Y-86963317D01*
X168842600Y-87106523D01*
X168870538Y-87246978D01*
X168925341Y-87379284D01*
X169004902Y-87498356D01*
X169106164Y-87599618D01*
X169225236Y-87679179D01*
X169357542Y-87733982D01*
X169497997Y-87761920D01*
X169641203Y-87761920D01*
X169781658Y-87733982D01*
X169913964Y-87679179D01*
X170033036Y-87599618D01*
X170134298Y-87498356D01*
X170213859Y-87379284D01*
X170268662Y-87246978D01*
X170296600Y-87106523D01*
X170296600Y-86963317D01*
X170268662Y-86822862D01*
X170213859Y-86690556D01*
X170134298Y-86571484D01*
X170033036Y-86470222D01*
X169913964Y-86390661D01*
X169781658Y-86335858D01*
X169641203Y-86307920D01*
X169497997Y-86307920D01*
X169357542Y-86335858D01*
X169225236Y-86390661D01*
X169106164Y-86470222D01*
X169004902Y-86571484D01*
X168925341Y-86690556D01*
X168870538Y-86822862D01*
X168842600Y-86963317D01*
X159302512Y-86963317D01*
X159283162Y-86866042D01*
X159228359Y-86733736D01*
X159148798Y-86614664D01*
X159047536Y-86513402D01*
X158928464Y-86433841D01*
X158796158Y-86379038D01*
X158655703Y-86351100D01*
X158512497Y-86351100D01*
X158372042Y-86379038D01*
X158239736Y-86433841D01*
X158120664Y-86513402D01*
X158019402Y-86614664D01*
X157939841Y-86733736D01*
X157885038Y-86866042D01*
X157857100Y-87006497D01*
X114668582Y-87006497D01*
X114668582Y-86020000D01*
X114662268Y-85955897D01*
X114643570Y-85894257D01*
X114613206Y-85837450D01*
X114572343Y-85787657D01*
X114522550Y-85746794D01*
X114465743Y-85716430D01*
X114404103Y-85697732D01*
X114340000Y-85691418D01*
X112640000Y-85691418D01*
X112575897Y-85697732D01*
X112514257Y-85716430D01*
X112457450Y-85746794D01*
X112407657Y-85787657D01*
X112366794Y-85837450D01*
X112336430Y-85894257D01*
X112317732Y-85955897D01*
X112311418Y-86020000D01*
X112311418Y-87720000D01*
X112317732Y-87784103D01*
X112336430Y-87845743D01*
X112366794Y-87902550D01*
X112407657Y-87952343D01*
X112457450Y-87993206D01*
X112514257Y-88023570D01*
X112575897Y-88042268D01*
X112640000Y-88048582D01*
X112907408Y-88048582D01*
X112858748Y-88065843D01*
X112608645Y-88214822D01*
X112392412Y-88409731D01*
X112218359Y-88643080D01*
X112093175Y-88905901D01*
X112048524Y-89053110D01*
X99310399Y-89053110D01*
X99422424Y-88978258D01*
X99568258Y-88832424D01*
X99682839Y-88660940D01*
X99761764Y-88470399D01*
X99802000Y-88268121D01*
X99802000Y-88061879D01*
X99761764Y-87859601D01*
X99682839Y-87669060D01*
X99568258Y-87497576D01*
X99422424Y-87351742D01*
X99250940Y-87237161D01*
X99060399Y-87158236D01*
X98858121Y-87118000D01*
X98651879Y-87118000D01*
X98449601Y-87158236D01*
X98259060Y-87237161D01*
X98087576Y-87351742D01*
X97941742Y-87497576D01*
X97827161Y-87669060D01*
X97748236Y-87859601D01*
X97708000Y-88061879D01*
X92868437Y-88061879D01*
X92869350Y-85642517D01*
X148451480Y-85642517D01*
X148451480Y-85785723D01*
X148479418Y-85926178D01*
X148534221Y-86058484D01*
X148613782Y-86177556D01*
X148715044Y-86278818D01*
X148834116Y-86358379D01*
X148966422Y-86413182D01*
X149106877Y-86441120D01*
X149250083Y-86441120D01*
X149390538Y-86413182D01*
X149522844Y-86358379D01*
X149641916Y-86278818D01*
X149743178Y-86177556D01*
X149822739Y-86058484D01*
X149877542Y-85926178D01*
X149905480Y-85785723D01*
X149905480Y-85642517D01*
X149877542Y-85502062D01*
X149822739Y-85369756D01*
X149743178Y-85250684D01*
X149657491Y-85164997D01*
X163188560Y-85164997D01*
X163188560Y-85308203D01*
X163216498Y-85448658D01*
X163271301Y-85580964D01*
X163350862Y-85700036D01*
X163452124Y-85801298D01*
X163571196Y-85880859D01*
X163703502Y-85935662D01*
X163843957Y-85963600D01*
X163987163Y-85963600D01*
X164127618Y-85935662D01*
X164259924Y-85880859D01*
X164378996Y-85801298D01*
X164480258Y-85700036D01*
X164559819Y-85580964D01*
X164614622Y-85448658D01*
X164642560Y-85308203D01*
X164642560Y-85164997D01*
X164614622Y-85024542D01*
X164559819Y-84892236D01*
X164480258Y-84773164D01*
X164378996Y-84671902D01*
X164259924Y-84592341D01*
X164127618Y-84537538D01*
X163987163Y-84509600D01*
X163843957Y-84509600D01*
X163703502Y-84537538D01*
X163571196Y-84592341D01*
X163452124Y-84671902D01*
X163350862Y-84773164D01*
X163271301Y-84892236D01*
X163216498Y-85024542D01*
X163188560Y-85164997D01*
X149657491Y-85164997D01*
X149641916Y-85149422D01*
X149522844Y-85069861D01*
X149390538Y-85015058D01*
X149250083Y-84987120D01*
X149106877Y-84987120D01*
X148966422Y-85015058D01*
X148834116Y-85069861D01*
X148715044Y-85149422D01*
X148613782Y-85250684D01*
X148534221Y-85369756D01*
X148479418Y-85502062D01*
X148451480Y-85642517D01*
X92869350Y-85642517D01*
X92870355Y-82981879D01*
X95168000Y-82981879D01*
X95168000Y-83188121D01*
X95208236Y-83390399D01*
X95287161Y-83580940D01*
X95401742Y-83752424D01*
X95547576Y-83898258D01*
X95719060Y-84012839D01*
X95909601Y-84091764D01*
X96111879Y-84132000D01*
X96318121Y-84132000D01*
X96520399Y-84091764D01*
X96692299Y-84020560D01*
X100539045Y-84020560D01*
X100600932Y-84256368D01*
X100842790Y-84369266D01*
X101102027Y-84432811D01*
X101368680Y-84444561D01*
X101632501Y-84404063D01*
X101883353Y-84312875D01*
X101989068Y-84256368D01*
X102021246Y-84133757D01*
X123092120Y-84133757D01*
X123092120Y-84276963D01*
X123120058Y-84417418D01*
X123174861Y-84549724D01*
X123254422Y-84668796D01*
X123355684Y-84770058D01*
X123474756Y-84849619D01*
X123607062Y-84904422D01*
X123747517Y-84932360D01*
X123890723Y-84932360D01*
X124031178Y-84904422D01*
X124163484Y-84849619D01*
X124223680Y-84809397D01*
X145860680Y-84809397D01*
X145860680Y-84952603D01*
X145888618Y-85093058D01*
X145943421Y-85225364D01*
X146022982Y-85344436D01*
X146124244Y-85445698D01*
X146243316Y-85525259D01*
X146375622Y-85580062D01*
X146516077Y-85608000D01*
X146659283Y-85608000D01*
X146799738Y-85580062D01*
X146932044Y-85525259D01*
X147051116Y-85445698D01*
X147152378Y-85344436D01*
X147231939Y-85225364D01*
X147286742Y-85093058D01*
X147314680Y-84952603D01*
X147314680Y-84809397D01*
X147286742Y-84668942D01*
X147231939Y-84536636D01*
X147152378Y-84417564D01*
X147051116Y-84316302D01*
X146932044Y-84236741D01*
X146799738Y-84181938D01*
X146659283Y-84154000D01*
X146516077Y-84154000D01*
X146375622Y-84181938D01*
X146243316Y-84236741D01*
X146124244Y-84316302D01*
X146022982Y-84417564D01*
X145943421Y-84536636D01*
X145888618Y-84668942D01*
X145860680Y-84809397D01*
X124223680Y-84809397D01*
X124282556Y-84770058D01*
X124383818Y-84668796D01*
X124463379Y-84549724D01*
X124518182Y-84417418D01*
X124546120Y-84276963D01*
X124546120Y-84133757D01*
X124518182Y-83993302D01*
X124463379Y-83860996D01*
X124383818Y-83741924D01*
X124282556Y-83640662D01*
X124163484Y-83561101D01*
X124031178Y-83506298D01*
X123890723Y-83478360D01*
X123747517Y-83478360D01*
X123607062Y-83506298D01*
X123474756Y-83561101D01*
X123355684Y-83640662D01*
X123254422Y-83741924D01*
X123174861Y-83860996D01*
X123120058Y-83993302D01*
X123092120Y-84133757D01*
X102021246Y-84133757D01*
X102050955Y-84020560D01*
X101295000Y-83264605D01*
X100539045Y-84020560D01*
X96692299Y-84020560D01*
X96710940Y-84012839D01*
X96882424Y-83898258D01*
X97028258Y-83752424D01*
X97142839Y-83580940D01*
X97221764Y-83390399D01*
X97262000Y-83188121D01*
X97262000Y-83158680D01*
X99935439Y-83158680D01*
X99975937Y-83422501D01*
X100067125Y-83673353D01*
X100123632Y-83779068D01*
X100359440Y-83840955D01*
X101115395Y-83085000D01*
X101474605Y-83085000D01*
X102230560Y-83840955D01*
X102466368Y-83779068D01*
X102579266Y-83537210D01*
X102642811Y-83277973D01*
X102651715Y-83075897D01*
X146242900Y-83075897D01*
X146242900Y-83219103D01*
X146270838Y-83359558D01*
X146325641Y-83491864D01*
X146405202Y-83610936D01*
X146506464Y-83712198D01*
X146625536Y-83791759D01*
X146757842Y-83846562D01*
X146898297Y-83874500D01*
X147041503Y-83874500D01*
X147181958Y-83846562D01*
X147314264Y-83791759D01*
X147433336Y-83712198D01*
X147534598Y-83610936D01*
X147566800Y-83562742D01*
X147599002Y-83610936D01*
X147700264Y-83712198D01*
X147819336Y-83791759D01*
X147951642Y-83846562D01*
X148092097Y-83874500D01*
X148235303Y-83874500D01*
X148375758Y-83846562D01*
X148508064Y-83791759D01*
X148627136Y-83712198D01*
X148728398Y-83610936D01*
X148807959Y-83491864D01*
X148862762Y-83359558D01*
X148890700Y-83219103D01*
X148890700Y-83075897D01*
X148862762Y-82935442D01*
X148807959Y-82803136D01*
X148728398Y-82684064D01*
X148627136Y-82582802D01*
X148508064Y-82503241D01*
X148375758Y-82448438D01*
X148235303Y-82420500D01*
X148092097Y-82420500D01*
X147951642Y-82448438D01*
X147819336Y-82503241D01*
X147700264Y-82582802D01*
X147599002Y-82684064D01*
X147566800Y-82732258D01*
X147534598Y-82684064D01*
X147433336Y-82582802D01*
X147314264Y-82503241D01*
X147181958Y-82448438D01*
X147041503Y-82420500D01*
X146898297Y-82420500D01*
X146757842Y-82448438D01*
X146625536Y-82503241D01*
X146506464Y-82582802D01*
X146405202Y-82684064D01*
X146325641Y-82803136D01*
X146270838Y-82935442D01*
X146242900Y-83075897D01*
X102651715Y-83075897D01*
X102654561Y-83011320D01*
X102614063Y-82747499D01*
X102522875Y-82496647D01*
X102466368Y-82390932D01*
X102230560Y-82329045D01*
X101474605Y-83085000D01*
X101115395Y-83085000D01*
X100359440Y-82329045D01*
X100123632Y-82390932D01*
X100010734Y-82632790D01*
X99947189Y-82892027D01*
X99935439Y-83158680D01*
X97262000Y-83158680D01*
X97262000Y-82981879D01*
X97221764Y-82779601D01*
X97142839Y-82589060D01*
X97028258Y-82417576D01*
X96882424Y-82271742D01*
X96710940Y-82157161D01*
X96692300Y-82149440D01*
X100539045Y-82149440D01*
X101295000Y-82905395D01*
X102050955Y-82149440D01*
X101989068Y-81913632D01*
X101747210Y-81800734D01*
X101487973Y-81737189D01*
X101221320Y-81725439D01*
X100957499Y-81765937D01*
X100706647Y-81857125D01*
X100600932Y-81913632D01*
X100539045Y-82149440D01*
X96692300Y-82149440D01*
X96520399Y-82078236D01*
X96318121Y-82038000D01*
X96111879Y-82038000D01*
X95909601Y-82078236D01*
X95719060Y-82157161D01*
X95547576Y-82271742D01*
X95401742Y-82417576D01*
X95287161Y-82589060D01*
X95208236Y-82779601D01*
X95168000Y-82981879D01*
X92870355Y-82981879D01*
X92870901Y-81532797D01*
X114867600Y-81532797D01*
X114867600Y-81676003D01*
X114895538Y-81816458D01*
X114950341Y-81948764D01*
X115029902Y-82067836D01*
X115131164Y-82169098D01*
X115250236Y-82248659D01*
X115382542Y-82303462D01*
X115522997Y-82331400D01*
X115666203Y-82331400D01*
X115806658Y-82303462D01*
X115938964Y-82248659D01*
X116058036Y-82169098D01*
X116159298Y-82067836D01*
X116238859Y-81948764D01*
X116293662Y-81816458D01*
X116321600Y-81676003D01*
X116321600Y-81532797D01*
X116293662Y-81392342D01*
X116238859Y-81260036D01*
X116159298Y-81140964D01*
X116058036Y-81039702D01*
X115938964Y-80960141D01*
X115806658Y-80905338D01*
X115666203Y-80877400D01*
X115522997Y-80877400D01*
X115382542Y-80905338D01*
X115250236Y-80960141D01*
X115131164Y-81039702D01*
X115029902Y-81140964D01*
X114950341Y-81260036D01*
X114895538Y-81392342D01*
X114867600Y-81532797D01*
X92870901Y-81532797D01*
X92872057Y-78472097D01*
X96986000Y-78472097D01*
X96986000Y-78615303D01*
X97013938Y-78755758D01*
X97068741Y-78888064D01*
X97148302Y-79007136D01*
X97249564Y-79108398D01*
X97368636Y-79187959D01*
X97500942Y-79242762D01*
X97641397Y-79270700D01*
X97784603Y-79270700D01*
X97925058Y-79242762D01*
X98057364Y-79187959D01*
X98083348Y-79170597D01*
X103082000Y-79170597D01*
X103082000Y-79313803D01*
X103109938Y-79454258D01*
X103164741Y-79586564D01*
X103244302Y-79705636D01*
X103345564Y-79806898D01*
X103464636Y-79886459D01*
X103596942Y-79941262D01*
X103737397Y-79969200D01*
X103880603Y-79969200D01*
X104021058Y-79941262D01*
X104136025Y-79893641D01*
X104057102Y-79972564D01*
X103977541Y-80091636D01*
X103922738Y-80223942D01*
X103894800Y-80364397D01*
X103894800Y-80507603D01*
X103922738Y-80648058D01*
X103977541Y-80780364D01*
X104057102Y-80899436D01*
X104158364Y-81000698D01*
X104277436Y-81080259D01*
X104409742Y-81135062D01*
X104550197Y-81163000D01*
X104693403Y-81163000D01*
X104833858Y-81135062D01*
X104966164Y-81080259D01*
X105085236Y-81000698D01*
X105186498Y-80899436D01*
X105266059Y-80780364D01*
X105320862Y-80648058D01*
X105348800Y-80507603D01*
X105348800Y-80364397D01*
X105320862Y-80223942D01*
X105266059Y-80091636D01*
X105186498Y-79972564D01*
X105085236Y-79871302D01*
X104966164Y-79791741D01*
X104833858Y-79736938D01*
X104693403Y-79709000D01*
X104550197Y-79709000D01*
X104409742Y-79736938D01*
X104294775Y-79784559D01*
X104373698Y-79705636D01*
X104453259Y-79586564D01*
X104508062Y-79454258D01*
X104536000Y-79313803D01*
X104536000Y-79170597D01*
X104508062Y-79030142D01*
X104453259Y-78897836D01*
X104373698Y-78778764D01*
X104272436Y-78677502D01*
X104153364Y-78597941D01*
X104021058Y-78543138D01*
X103880603Y-78515200D01*
X103737397Y-78515200D01*
X103596942Y-78543138D01*
X103464636Y-78597941D01*
X103345564Y-78677502D01*
X103244302Y-78778764D01*
X103164741Y-78897836D01*
X103109938Y-79030142D01*
X103082000Y-79170597D01*
X98083348Y-79170597D01*
X98176436Y-79108398D01*
X98277698Y-79007136D01*
X98357259Y-78888064D01*
X98412062Y-78755758D01*
X98440000Y-78615303D01*
X98440000Y-78472097D01*
X98417265Y-78357797D01*
X130234600Y-78357797D01*
X130234600Y-78501003D01*
X130262538Y-78641458D01*
X130317341Y-78773764D01*
X130396902Y-78892836D01*
X130498164Y-78994098D01*
X130617236Y-79073659D01*
X130749542Y-79128462D01*
X130889997Y-79156400D01*
X131033203Y-79156400D01*
X131173658Y-79128462D01*
X131305964Y-79073659D01*
X131425036Y-78994098D01*
X131526298Y-78892836D01*
X131605859Y-78773764D01*
X131660662Y-78641458D01*
X131688600Y-78501003D01*
X131688600Y-78357797D01*
X131660662Y-78217342D01*
X131605859Y-78085036D01*
X131526298Y-77965964D01*
X131425036Y-77864702D01*
X131305964Y-77785141D01*
X131173658Y-77730338D01*
X131033203Y-77702400D01*
X130889997Y-77702400D01*
X130749542Y-77730338D01*
X130617236Y-77785141D01*
X130498164Y-77864702D01*
X130396902Y-77965964D01*
X130317341Y-78085036D01*
X130262538Y-78217342D01*
X130234600Y-78357797D01*
X98417265Y-78357797D01*
X98412062Y-78331642D01*
X98357259Y-78199336D01*
X98277698Y-78080264D01*
X98176436Y-77979002D01*
X98057364Y-77899441D01*
X97925058Y-77844638D01*
X97784603Y-77816700D01*
X97641397Y-77816700D01*
X97500942Y-77844638D01*
X97368636Y-77899441D01*
X97249564Y-77979002D01*
X97148302Y-78080264D01*
X97068741Y-78199336D01*
X97013938Y-78331642D01*
X96986000Y-78472097D01*
X92872057Y-78472097D01*
X92872925Y-76173397D01*
X117839400Y-76173397D01*
X117839400Y-76316603D01*
X117867338Y-76457058D01*
X117922141Y-76589364D01*
X118001702Y-76708436D01*
X118102964Y-76809698D01*
X118222036Y-76889259D01*
X118354342Y-76944062D01*
X118494797Y-76972000D01*
X118638003Y-76972000D01*
X118778458Y-76944062D01*
X118910764Y-76889259D01*
X119029836Y-76809698D01*
X119131098Y-76708436D01*
X119210659Y-76589364D01*
X119265462Y-76457058D01*
X119293400Y-76316603D01*
X119293400Y-76173397D01*
X119265462Y-76032942D01*
X119210659Y-75900636D01*
X119131098Y-75781564D01*
X119029836Y-75680302D01*
X118910764Y-75600741D01*
X118778458Y-75545938D01*
X118638003Y-75518000D01*
X118494797Y-75518000D01*
X118354342Y-75545938D01*
X118222036Y-75600741D01*
X118102964Y-75680302D01*
X118001702Y-75781564D01*
X117922141Y-75900636D01*
X117867338Y-76032942D01*
X117839400Y-76173397D01*
X92872925Y-76173397D01*
X92873932Y-73506712D01*
X96212893Y-73506712D01*
X96320726Y-73781338D01*
X96627384Y-73932216D01*
X96957585Y-74020369D01*
X97298639Y-74042409D01*
X97637439Y-73997489D01*
X97960966Y-73887336D01*
X98159274Y-73781338D01*
X98197416Y-73684197D01*
X108949400Y-73684197D01*
X108949400Y-73827403D01*
X108977338Y-73967858D01*
X109032141Y-74100164D01*
X109111702Y-74219236D01*
X109212964Y-74320498D01*
X109280165Y-74365400D01*
X109212964Y-74410302D01*
X109111702Y-74511564D01*
X109032141Y-74630636D01*
X108977338Y-74762942D01*
X108949400Y-74903397D01*
X108949400Y-75046603D01*
X108977338Y-75187058D01*
X109032141Y-75319364D01*
X109111702Y-75438436D01*
X109212964Y-75539698D01*
X109332036Y-75619259D01*
X109464342Y-75674062D01*
X109604797Y-75702000D01*
X109748003Y-75702000D01*
X109888458Y-75674062D01*
X110020764Y-75619259D01*
X110139836Y-75539698D01*
X110241098Y-75438436D01*
X110293108Y-75360597D01*
X152739000Y-75360597D01*
X152739000Y-75503803D01*
X152766938Y-75644258D01*
X152821741Y-75776564D01*
X152901302Y-75895636D01*
X153002564Y-75996898D01*
X153121636Y-76076459D01*
X153253942Y-76131262D01*
X153394397Y-76159200D01*
X153537603Y-76159200D01*
X153678058Y-76131262D01*
X153810364Y-76076459D01*
X153929436Y-75996898D01*
X154030698Y-75895636D01*
X154110259Y-75776564D01*
X154165062Y-75644258D01*
X154193000Y-75503803D01*
X154193000Y-75360597D01*
X154165062Y-75220142D01*
X154110259Y-75087836D01*
X154030698Y-74968764D01*
X153929436Y-74867502D01*
X153810364Y-74787941D01*
X153678058Y-74733138D01*
X153537603Y-74705200D01*
X153394397Y-74705200D01*
X153253942Y-74733138D01*
X153121636Y-74787941D01*
X153002564Y-74867502D01*
X152901302Y-74968764D01*
X152821741Y-75087836D01*
X152766938Y-75220142D01*
X152739000Y-75360597D01*
X110293108Y-75360597D01*
X110320659Y-75319364D01*
X110375462Y-75187058D01*
X110403400Y-75046603D01*
X110403400Y-74903397D01*
X110375462Y-74762942D01*
X110320659Y-74630636D01*
X110241098Y-74511564D01*
X110139836Y-74410302D01*
X110072635Y-74365400D01*
X110139836Y-74320498D01*
X110241098Y-74219236D01*
X110320659Y-74100164D01*
X110375462Y-73967858D01*
X110403400Y-73827403D01*
X110403400Y-73684197D01*
X110375462Y-73543742D01*
X110320659Y-73411436D01*
X110241098Y-73292364D01*
X110139836Y-73191102D01*
X110020764Y-73111541D01*
X109888458Y-73056738D01*
X109748003Y-73028800D01*
X109604797Y-73028800D01*
X109464342Y-73056738D01*
X109332036Y-73111541D01*
X109212964Y-73191102D01*
X109111702Y-73292364D01*
X109032141Y-73411436D01*
X108977338Y-73543742D01*
X108949400Y-73684197D01*
X98197416Y-73684197D01*
X98267107Y-73506712D01*
X97240000Y-72479605D01*
X96212893Y-73506712D01*
X92873932Y-73506712D01*
X92874421Y-72213623D01*
X93823000Y-72213623D01*
X93823000Y-72386377D01*
X93856703Y-72555811D01*
X93922813Y-72715415D01*
X94018790Y-72859055D01*
X94140945Y-72981210D01*
X94284585Y-73077187D01*
X94444189Y-73143297D01*
X94613623Y-73177000D01*
X94786377Y-73177000D01*
X94955811Y-73143297D01*
X95115415Y-73077187D01*
X95259055Y-72981210D01*
X95381210Y-72859055D01*
X95477187Y-72715415D01*
X95528477Y-72591590D01*
X95542511Y-72697439D01*
X95652664Y-73020966D01*
X95758662Y-73219274D01*
X96033288Y-73327107D01*
X97060395Y-72300000D01*
X97046253Y-72285858D01*
X97225858Y-72106253D01*
X97240000Y-72120395D01*
X97254143Y-72106253D01*
X97433748Y-72285858D01*
X97419605Y-72300000D01*
X98446712Y-73327107D01*
X98721338Y-73219274D01*
X98872216Y-72912616D01*
X98930686Y-72693597D01*
X168039960Y-72693597D01*
X168039960Y-72836803D01*
X168067898Y-72977258D01*
X168122701Y-73109564D01*
X168202262Y-73228636D01*
X168303524Y-73329898D01*
X168422596Y-73409459D01*
X168554902Y-73464262D01*
X168695357Y-73492200D01*
X168838563Y-73492200D01*
X168979018Y-73464262D01*
X169111324Y-73409459D01*
X169230396Y-73329898D01*
X169331658Y-73228636D01*
X169411219Y-73109564D01*
X169466022Y-72977258D01*
X169493960Y-72836803D01*
X169493960Y-72693597D01*
X169490929Y-72678357D01*
X172276680Y-72678357D01*
X172276680Y-72821563D01*
X172304618Y-72962018D01*
X172359421Y-73094324D01*
X172438982Y-73213396D01*
X172540244Y-73314658D01*
X172659316Y-73394219D01*
X172791622Y-73449022D01*
X172932077Y-73476960D01*
X173075283Y-73476960D01*
X173215738Y-73449022D01*
X173348044Y-73394219D01*
X173467116Y-73314658D01*
X173568378Y-73213396D01*
X173647939Y-73094324D01*
X173702742Y-72962018D01*
X173730680Y-72821563D01*
X173730680Y-72678357D01*
X173702742Y-72537902D01*
X173647939Y-72405596D01*
X173568378Y-72286524D01*
X173467116Y-72185262D01*
X173348044Y-72105701D01*
X173215738Y-72050898D01*
X173075283Y-72022960D01*
X172932077Y-72022960D01*
X172791622Y-72050898D01*
X172659316Y-72105701D01*
X172540244Y-72185262D01*
X172438982Y-72286524D01*
X172359421Y-72405596D01*
X172304618Y-72537902D01*
X172276680Y-72678357D01*
X169490929Y-72678357D01*
X169466022Y-72553142D01*
X169411219Y-72420836D01*
X169331658Y-72301764D01*
X169230396Y-72200502D01*
X169111324Y-72120941D01*
X168979018Y-72066138D01*
X168838563Y-72038200D01*
X168695357Y-72038200D01*
X168554902Y-72066138D01*
X168422596Y-72120941D01*
X168303524Y-72200502D01*
X168202262Y-72301764D01*
X168122701Y-72420836D01*
X168067898Y-72553142D01*
X168039960Y-72693597D01*
X98930686Y-72693597D01*
X98960369Y-72582415D01*
X98982409Y-72241361D01*
X98937489Y-71902561D01*
X98827336Y-71579034D01*
X98721338Y-71380726D01*
X98446714Y-71272894D01*
X98562136Y-71157472D01*
X98530965Y-71126301D01*
X98572343Y-71092343D01*
X98613206Y-71042550D01*
X98643570Y-70985743D01*
X98662268Y-70924103D01*
X98668582Y-70860000D01*
X98668582Y-70102797D01*
X152739000Y-70102797D01*
X152739000Y-70246003D01*
X152766938Y-70386458D01*
X152821741Y-70518764D01*
X152901302Y-70637836D01*
X153002564Y-70739098D01*
X153121636Y-70818659D01*
X153191264Y-70847500D01*
X153121636Y-70876341D01*
X153002564Y-70955902D01*
X152901302Y-71057164D01*
X152821741Y-71176236D01*
X152766938Y-71308542D01*
X152739000Y-71448997D01*
X152739000Y-71592203D01*
X152766938Y-71732658D01*
X152821741Y-71864964D01*
X152901302Y-71984036D01*
X153002564Y-72085298D01*
X153121636Y-72164859D01*
X153253942Y-72219662D01*
X153394397Y-72247600D01*
X153537603Y-72247600D01*
X153678058Y-72219662D01*
X153810364Y-72164859D01*
X153929436Y-72085298D01*
X154030698Y-71984036D01*
X154110259Y-71864964D01*
X154165062Y-71732658D01*
X154193000Y-71592203D01*
X154193000Y-71448997D01*
X154165062Y-71308542D01*
X154110259Y-71176236D01*
X154030698Y-71057164D01*
X153929436Y-70955902D01*
X153810364Y-70876341D01*
X153740736Y-70847500D01*
X153810364Y-70818659D01*
X153929436Y-70739098D01*
X154030698Y-70637836D01*
X154110259Y-70518764D01*
X154165062Y-70386458D01*
X154193000Y-70246003D01*
X154193000Y-70102797D01*
X154165062Y-69962342D01*
X154110259Y-69830036D01*
X154030698Y-69710964D01*
X153929436Y-69609702D01*
X153810364Y-69530141D01*
X153678058Y-69475338D01*
X153537603Y-69447400D01*
X153394397Y-69447400D01*
X153253942Y-69475338D01*
X153121636Y-69530141D01*
X153002564Y-69609702D01*
X152901302Y-69710964D01*
X152821741Y-69830036D01*
X152766938Y-69962342D01*
X152739000Y-70102797D01*
X98668582Y-70102797D01*
X98668582Y-68724076D01*
X155513000Y-68724076D01*
X155513000Y-68955924D01*
X155558231Y-69183318D01*
X155646956Y-69397519D01*
X155775764Y-69590294D01*
X155939706Y-69754236D01*
X156132481Y-69883044D01*
X156346682Y-69971769D01*
X156574076Y-70017000D01*
X156805924Y-70017000D01*
X157033318Y-69971769D01*
X157247519Y-69883044D01*
X157440294Y-69754236D01*
X157604236Y-69590294D01*
X157619874Y-69566890D01*
X176148524Y-69566890D01*
X176150446Y-69579261D01*
X176250146Y-69853009D01*
X176401336Y-70102046D01*
X176598205Y-70316802D01*
X176833188Y-70489025D01*
X177097255Y-70612096D01*
X177380258Y-70681285D01*
X177613000Y-70537232D01*
X177613000Y-69337000D01*
X177867000Y-69337000D01*
X177867000Y-70537232D01*
X178099742Y-70681285D01*
X178382745Y-70612096D01*
X178646812Y-70489025D01*
X178881795Y-70316802D01*
X179078664Y-70102046D01*
X179229854Y-69853009D01*
X179329554Y-69579261D01*
X179331476Y-69566890D01*
X179210155Y-69337000D01*
X177867000Y-69337000D01*
X177613000Y-69337000D01*
X176269845Y-69337000D01*
X176148524Y-69566890D01*
X157619874Y-69566890D01*
X157733044Y-69397519D01*
X157821769Y-69183318D01*
X157867000Y-68955924D01*
X157867000Y-68853110D01*
X176148524Y-68853110D01*
X176269845Y-69083000D01*
X177613000Y-69083000D01*
X177613000Y-69063000D01*
X177867000Y-69063000D01*
X177867000Y-69083000D01*
X179210155Y-69083000D01*
X179331476Y-68853110D01*
X179329554Y-68840739D01*
X179229854Y-68566991D01*
X179078664Y-68317954D01*
X178881795Y-68103198D01*
X178646812Y-67930975D01*
X178544363Y-67883228D01*
X178602876Y-67877465D01*
X178711414Y-67844540D01*
X178811443Y-67791073D01*
X178899119Y-67719119D01*
X178971073Y-67631443D01*
X179024540Y-67531414D01*
X179057465Y-67422876D01*
X179068582Y-67310000D01*
X179068582Y-66110000D01*
X179057465Y-65997124D01*
X179024540Y-65888586D01*
X178971073Y-65788557D01*
X178899119Y-65700881D01*
X178811443Y-65628927D01*
X178711414Y-65575460D01*
X178602876Y-65542535D01*
X178490000Y-65531418D01*
X176990000Y-65531418D01*
X176877124Y-65542535D01*
X176768586Y-65575460D01*
X176668557Y-65628927D01*
X176580881Y-65700881D01*
X176508927Y-65788557D01*
X176455460Y-65888586D01*
X176422535Y-65997124D01*
X176411418Y-66110000D01*
X176411418Y-67310000D01*
X176422535Y-67422876D01*
X176455460Y-67531414D01*
X176508927Y-67631443D01*
X176580881Y-67719119D01*
X176668557Y-67791073D01*
X176768586Y-67844540D01*
X176877124Y-67877465D01*
X176935637Y-67883228D01*
X176833188Y-67930975D01*
X176598205Y-68103198D01*
X176401336Y-68317954D01*
X176250146Y-68566991D01*
X176150446Y-68840739D01*
X176148524Y-68853110D01*
X157867000Y-68853110D01*
X157867000Y-68724076D01*
X157821769Y-68496682D01*
X157733044Y-68282481D01*
X157604236Y-68089706D01*
X157440294Y-67925764D01*
X157247519Y-67796956D01*
X157033318Y-67708231D01*
X156805924Y-67663000D01*
X156574076Y-67663000D01*
X156346682Y-67708231D01*
X156132481Y-67796956D01*
X155939706Y-67925764D01*
X155775764Y-68089706D01*
X155646956Y-68282481D01*
X155558231Y-68496682D01*
X155513000Y-68724076D01*
X98668582Y-68724076D01*
X98668582Y-68660000D01*
X98662268Y-68595897D01*
X98643570Y-68534257D01*
X98613206Y-68477450D01*
X98572343Y-68427657D01*
X98522550Y-68386794D01*
X98465743Y-68356430D01*
X98404103Y-68337732D01*
X98340000Y-68331418D01*
X96140000Y-68331418D01*
X96075897Y-68337732D01*
X96014257Y-68356430D01*
X95957450Y-68386794D01*
X95907657Y-68427657D01*
X95866794Y-68477450D01*
X95836430Y-68534257D01*
X95817732Y-68595897D01*
X95811418Y-68660000D01*
X95811418Y-70860000D01*
X95817732Y-70924103D01*
X95836430Y-70985743D01*
X95866794Y-71042550D01*
X95907657Y-71092343D01*
X95949035Y-71126301D01*
X95917864Y-71157472D01*
X96033286Y-71272894D01*
X95758662Y-71380726D01*
X95607784Y-71687384D01*
X95524587Y-71999020D01*
X95477187Y-71884585D01*
X95381210Y-71740945D01*
X95259055Y-71618790D01*
X95115415Y-71522813D01*
X94955811Y-71456703D01*
X94786377Y-71423000D01*
X94613623Y-71423000D01*
X94444189Y-71456703D01*
X94284585Y-71522813D01*
X94140945Y-71618790D01*
X94018790Y-71740945D01*
X93922813Y-71884585D01*
X93856703Y-72044189D01*
X93823000Y-72213623D01*
X92874421Y-72213623D01*
X92875379Y-69673623D01*
X93823000Y-69673623D01*
X93823000Y-69846377D01*
X93856703Y-70015811D01*
X93922813Y-70175415D01*
X94018790Y-70319055D01*
X94140945Y-70441210D01*
X94284585Y-70537187D01*
X94444189Y-70603297D01*
X94613623Y-70637000D01*
X94786377Y-70637000D01*
X94955811Y-70603297D01*
X95115415Y-70537187D01*
X95259055Y-70441210D01*
X95381210Y-70319055D01*
X95477187Y-70175415D01*
X95543297Y-70015811D01*
X95577000Y-69846377D01*
X95577000Y-69673623D01*
X95543297Y-69504189D01*
X95477187Y-69344585D01*
X95381210Y-69200945D01*
X95259055Y-69078790D01*
X95115415Y-68982813D01*
X94955811Y-68916703D01*
X94786377Y-68883000D01*
X94613623Y-68883000D01*
X94444189Y-68916703D01*
X94284585Y-68982813D01*
X94140945Y-69078790D01*
X94018790Y-69200945D01*
X93922813Y-69344585D01*
X93856703Y-69504189D01*
X93823000Y-69673623D01*
X92875379Y-69673623D01*
X92876646Y-66314890D01*
X137724324Y-66314890D01*
X137768975Y-66462099D01*
X137894159Y-66724920D01*
X138068212Y-66958269D01*
X138284445Y-67153178D01*
X138534548Y-67302157D01*
X138808909Y-67399481D01*
X139038800Y-67278814D01*
X139038800Y-66085000D01*
X139292800Y-66085000D01*
X139292800Y-67278814D01*
X139522691Y-67399481D01*
X139797052Y-67302157D01*
X140047155Y-67153178D01*
X140263388Y-66958269D01*
X140437441Y-66724920D01*
X140562625Y-66462099D01*
X140607276Y-66314890D01*
X140538241Y-66184076D01*
X155513000Y-66184076D01*
X155513000Y-66415924D01*
X155558231Y-66643318D01*
X155646956Y-66857519D01*
X155775764Y-67050294D01*
X155939706Y-67214236D01*
X156132481Y-67343044D01*
X156346682Y-67431769D01*
X156574076Y-67477000D01*
X156805924Y-67477000D01*
X157033318Y-67431769D01*
X157247519Y-67343044D01*
X157440294Y-67214236D01*
X157604236Y-67050294D01*
X157733044Y-66857519D01*
X157821769Y-66643318D01*
X157867000Y-66415924D01*
X157867000Y-66184076D01*
X157821769Y-65956682D01*
X157733044Y-65742481D01*
X157604236Y-65549706D01*
X157440294Y-65385764D01*
X157247519Y-65256956D01*
X157033318Y-65168231D01*
X156805924Y-65123000D01*
X156574076Y-65123000D01*
X156346682Y-65168231D01*
X156132481Y-65256956D01*
X155939706Y-65385764D01*
X155775764Y-65549706D01*
X155646956Y-65742481D01*
X155558231Y-65956682D01*
X155513000Y-66184076D01*
X140538241Y-66184076D01*
X140485955Y-66085000D01*
X139292800Y-66085000D01*
X139038800Y-66085000D01*
X137845645Y-66085000D01*
X137724324Y-66314890D01*
X92876646Y-66314890D01*
X92876915Y-65601110D01*
X137724324Y-65601110D01*
X137845645Y-65831000D01*
X139038800Y-65831000D01*
X139038800Y-65811000D01*
X139292800Y-65811000D01*
X139292800Y-65831000D01*
X140485955Y-65831000D01*
X140607276Y-65601110D01*
X140562625Y-65453901D01*
X140437441Y-65191080D01*
X140263388Y-64957731D01*
X140047155Y-64762822D01*
X139797052Y-64613843D01*
X139748392Y-64596582D01*
X140015800Y-64596582D01*
X140079903Y-64590268D01*
X140141543Y-64571570D01*
X140198350Y-64541206D01*
X140248143Y-64500343D01*
X140289006Y-64450550D01*
X140319370Y-64393743D01*
X140338068Y-64332103D01*
X140344382Y-64268000D01*
X140344382Y-62910000D01*
X155511418Y-62910000D01*
X155511418Y-64610000D01*
X155517732Y-64674103D01*
X155536430Y-64735743D01*
X155566794Y-64792550D01*
X155607657Y-64842343D01*
X155657450Y-64883206D01*
X155714257Y-64913570D01*
X155775897Y-64932268D01*
X155840000Y-64938582D01*
X157540000Y-64938582D01*
X157604103Y-64932268D01*
X157665743Y-64913570D01*
X157722550Y-64883206D01*
X157772343Y-64842343D01*
X157813206Y-64792550D01*
X157843570Y-64735743D01*
X157862268Y-64674103D01*
X157868582Y-64610000D01*
X157868582Y-62910000D01*
X157862268Y-62845897D01*
X157843570Y-62784257D01*
X157813206Y-62727450D01*
X157772343Y-62677657D01*
X157722550Y-62636794D01*
X157665743Y-62606430D01*
X157604103Y-62587732D01*
X157540000Y-62581418D01*
X155840000Y-62581418D01*
X155775897Y-62587732D01*
X155714257Y-62606430D01*
X155657450Y-62636794D01*
X155607657Y-62677657D01*
X155566794Y-62727450D01*
X155536430Y-62784257D01*
X155517732Y-62845897D01*
X155511418Y-62910000D01*
X140344382Y-62910000D01*
X140344382Y-62568000D01*
X140338068Y-62503897D01*
X140319370Y-62442257D01*
X140289006Y-62385450D01*
X140248143Y-62335657D01*
X140198350Y-62294794D01*
X140141543Y-62264430D01*
X140079903Y-62245732D01*
X140015800Y-62239418D01*
X138315800Y-62239418D01*
X138251697Y-62245732D01*
X138190057Y-62264430D01*
X138133250Y-62294794D01*
X138083457Y-62335657D01*
X138042594Y-62385450D01*
X138012230Y-62442257D01*
X137993532Y-62503897D01*
X137987218Y-62568000D01*
X137987218Y-64268000D01*
X137993532Y-64332103D01*
X138012230Y-64393743D01*
X138042594Y-64450550D01*
X138083457Y-64500343D01*
X138133250Y-64541206D01*
X138190057Y-64571570D01*
X138251697Y-64590268D01*
X138315800Y-64596582D01*
X138583208Y-64596582D01*
X138534548Y-64613843D01*
X138284445Y-64762822D01*
X138068212Y-64957731D01*
X137894159Y-65191080D01*
X137768975Y-65453901D01*
X137724324Y-65601110D01*
X92876915Y-65601110D01*
X92877307Y-64565597D01*
X102294600Y-64565597D01*
X102294600Y-64708803D01*
X102322538Y-64849258D01*
X102377341Y-64981564D01*
X102456902Y-65100636D01*
X102558164Y-65201898D01*
X102677236Y-65281459D01*
X102809542Y-65336262D01*
X102949997Y-65364200D01*
X103093203Y-65364200D01*
X103233658Y-65336262D01*
X103365964Y-65281459D01*
X103485036Y-65201898D01*
X103586298Y-65100636D01*
X103665859Y-64981564D01*
X103720662Y-64849258D01*
X103748600Y-64708803D01*
X103748600Y-64565597D01*
X103743548Y-64540197D01*
X106028400Y-64540197D01*
X106028400Y-64683403D01*
X106056338Y-64823858D01*
X106111141Y-64956164D01*
X106190702Y-65075236D01*
X106291964Y-65176498D01*
X106411036Y-65256059D01*
X106543342Y-65310862D01*
X106683797Y-65338800D01*
X106827003Y-65338800D01*
X106967458Y-65310862D01*
X107099764Y-65256059D01*
X107218836Y-65176498D01*
X107320098Y-65075236D01*
X107399659Y-64956164D01*
X107454462Y-64823858D01*
X107482400Y-64683403D01*
X107482400Y-64540197D01*
X107454462Y-64399742D01*
X107399659Y-64267436D01*
X107320098Y-64148364D01*
X107218836Y-64047102D01*
X107099764Y-63967541D01*
X106967458Y-63912738D01*
X106827003Y-63884800D01*
X106683797Y-63884800D01*
X106543342Y-63912738D01*
X106411036Y-63967541D01*
X106291964Y-64047102D01*
X106190702Y-64148364D01*
X106111141Y-64267436D01*
X106056338Y-64399742D01*
X106028400Y-64540197D01*
X103743548Y-64540197D01*
X103720662Y-64425142D01*
X103665859Y-64292836D01*
X103586298Y-64173764D01*
X103485036Y-64072502D01*
X103365964Y-63992941D01*
X103233658Y-63938138D01*
X103093203Y-63910200D01*
X102949997Y-63910200D01*
X102809542Y-63938138D01*
X102677236Y-63992941D01*
X102558164Y-64072502D01*
X102456902Y-64173764D01*
X102377341Y-64292836D01*
X102322538Y-64425142D01*
X102294600Y-64565597D01*
X92877307Y-64565597D01*
X92878668Y-60958797D01*
X160917800Y-60958797D01*
X160917800Y-61102003D01*
X160945738Y-61242458D01*
X161000541Y-61374764D01*
X161080102Y-61493836D01*
X161162766Y-61576500D01*
X161080102Y-61659164D01*
X161000541Y-61778236D01*
X160945738Y-61910542D01*
X160917800Y-62050997D01*
X160917800Y-62194203D01*
X160945738Y-62334658D01*
X161000541Y-62466964D01*
X161080102Y-62586036D01*
X161181364Y-62687298D01*
X161300436Y-62766859D01*
X161432742Y-62821662D01*
X161573197Y-62849600D01*
X161716403Y-62849600D01*
X161856858Y-62821662D01*
X161989164Y-62766859D01*
X162108236Y-62687298D01*
X162209498Y-62586036D01*
X162289059Y-62466964D01*
X162343862Y-62334658D01*
X162371800Y-62194203D01*
X162371800Y-62050997D01*
X162343862Y-61910542D01*
X162289059Y-61778236D01*
X162209498Y-61659164D01*
X162126834Y-61576500D01*
X162209498Y-61493836D01*
X162289059Y-61374764D01*
X162343862Y-61242458D01*
X162371800Y-61102003D01*
X162371800Y-60958797D01*
X162343862Y-60818342D01*
X162289059Y-60686036D01*
X162209498Y-60566964D01*
X162108236Y-60465702D01*
X161989164Y-60386141D01*
X161856858Y-60331338D01*
X161716403Y-60303400D01*
X161573197Y-60303400D01*
X161432742Y-60331338D01*
X161300436Y-60386141D01*
X161181364Y-60465702D01*
X161080102Y-60566964D01*
X161000541Y-60686036D01*
X160945738Y-60818342D01*
X160917800Y-60958797D01*
X92878668Y-60958797D01*
X92880157Y-57017296D01*
X107075400Y-57017296D01*
X107075400Y-57421504D01*
X107154257Y-57817946D01*
X107308941Y-58191387D01*
X107533507Y-58527474D01*
X107819326Y-58813293D01*
X108155413Y-59037859D01*
X108528854Y-59192543D01*
X108925296Y-59271400D01*
X109329504Y-59271400D01*
X109725946Y-59192543D01*
X110099387Y-59037859D01*
X110435474Y-58813293D01*
X110721293Y-58527474D01*
X110945859Y-58191387D01*
X111100543Y-57817946D01*
X111179400Y-57421504D01*
X111179400Y-57069496D01*
X171135400Y-57069496D01*
X171135400Y-57369304D01*
X171193890Y-57663351D01*
X171308621Y-57940337D01*
X171475186Y-58189618D01*
X171687182Y-58401614D01*
X171936463Y-58568179D01*
X172213449Y-58682910D01*
X172507496Y-58741400D01*
X172807304Y-58741400D01*
X173101351Y-58682910D01*
X173378337Y-58568179D01*
X173627618Y-58401614D01*
X173839614Y-58189618D01*
X174006179Y-57940337D01*
X174120910Y-57663351D01*
X174179400Y-57369304D01*
X174179400Y-57069496D01*
X174120910Y-56775449D01*
X174006179Y-56498463D01*
X173839614Y-56249182D01*
X173627618Y-56037186D01*
X173378337Y-55870621D01*
X173101351Y-55755890D01*
X172807304Y-55697400D01*
X172507496Y-55697400D01*
X172213449Y-55755890D01*
X171936463Y-55870621D01*
X171687182Y-56037186D01*
X171475186Y-56249182D01*
X171308621Y-56498463D01*
X171193890Y-56775449D01*
X171135400Y-57069496D01*
X111179400Y-57069496D01*
X111179400Y-57017296D01*
X111100543Y-56620854D01*
X110945859Y-56247413D01*
X110721293Y-55911326D01*
X110435474Y-55625507D01*
X110099387Y-55400941D01*
X109725946Y-55246257D01*
X109329504Y-55167400D01*
X108925296Y-55167400D01*
X108528854Y-55246257D01*
X108155413Y-55400941D01*
X107819326Y-55625507D01*
X107533507Y-55911326D01*
X107308941Y-56247413D01*
X107154257Y-56620854D01*
X107075400Y-57017296D01*
X92880157Y-57017296D01*
X92886392Y-40504679D01*
X93113000Y-40504679D01*
X93113000Y-40815321D01*
X93173604Y-41119994D01*
X93292481Y-41406989D01*
X93465064Y-41665279D01*
X93684721Y-41884936D01*
X93943011Y-42057519D01*
X94230006Y-42176396D01*
X94534679Y-42237000D01*
X94845321Y-42237000D01*
X95149994Y-42176396D01*
X95436989Y-42057519D01*
X95695279Y-41884936D01*
X95914936Y-41665279D01*
X96087519Y-41406989D01*
X96206396Y-41119994D01*
X96226824Y-41017296D01*
X162275400Y-41017296D01*
X162275400Y-41421504D01*
X162354257Y-41817946D01*
X162508941Y-42191387D01*
X162733507Y-42527474D01*
X163019326Y-42813293D01*
X163355413Y-43037859D01*
X163728854Y-43192543D01*
X164125296Y-43271400D01*
X164529504Y-43271400D01*
X164925946Y-43192543D01*
X165299387Y-43037859D01*
X165635474Y-42813293D01*
X165921293Y-42527474D01*
X166145859Y-42191387D01*
X166300543Y-41817946D01*
X166379400Y-41421504D01*
X166379400Y-41017296D01*
X166300543Y-40620854D01*
X166273299Y-40555079D01*
X177085800Y-40555079D01*
X177085800Y-40865721D01*
X177146404Y-41170394D01*
X177265281Y-41457389D01*
X177437864Y-41715679D01*
X177657521Y-41935336D01*
X177915811Y-42107919D01*
X178202806Y-42226796D01*
X178507479Y-42287400D01*
X178818121Y-42287400D01*
X179122794Y-42226796D01*
X179409789Y-42107919D01*
X179668079Y-41935336D01*
X179887736Y-41715679D01*
X180060319Y-41457389D01*
X180179196Y-41170394D01*
X180239800Y-40865721D01*
X180239800Y-40555079D01*
X180179196Y-40250406D01*
X180060319Y-39963411D01*
X179887736Y-39705121D01*
X179668079Y-39485464D01*
X179409789Y-39312881D01*
X179122794Y-39194004D01*
X178818121Y-39133400D01*
X178507479Y-39133400D01*
X178202806Y-39194004D01*
X177915811Y-39312881D01*
X177657521Y-39485464D01*
X177437864Y-39705121D01*
X177265281Y-39963411D01*
X177146404Y-40250406D01*
X177085800Y-40555079D01*
X166273299Y-40555079D01*
X166145859Y-40247413D01*
X165921293Y-39911326D01*
X165635474Y-39625507D01*
X165299387Y-39400941D01*
X164925946Y-39246257D01*
X164529504Y-39167400D01*
X164125296Y-39167400D01*
X163728854Y-39246257D01*
X163355413Y-39400941D01*
X163019326Y-39625507D01*
X162733507Y-39911326D01*
X162508941Y-40247413D01*
X162354257Y-40620854D01*
X162275400Y-41017296D01*
X96226824Y-41017296D01*
X96267000Y-40815321D01*
X96267000Y-40504679D01*
X96206396Y-40200006D01*
X96087519Y-39913011D01*
X95914936Y-39654721D01*
X95695279Y-39435064D01*
X95436989Y-39262481D01*
X95149994Y-39143604D01*
X94845321Y-39083000D01*
X94534679Y-39083000D01*
X94230006Y-39143604D01*
X93943011Y-39262481D01*
X93684721Y-39435064D01*
X93465064Y-39654721D01*
X93292481Y-39913011D01*
X93173604Y-40200006D01*
X93113000Y-40504679D01*
X92886392Y-40504679D01*
X92887000Y-38896888D01*
X92887000Y-38894208D01*
X180250314Y-38830892D01*
X180257906Y-106008779D01*
%TA.AperFunction,Conductor*%
D20*
G36*
X180257906Y-106008779D02*
G01*
X92861648Y-106049301D01*
X92862379Y-104110959D01*
X93011800Y-104110959D01*
X93011800Y-104421601D01*
X93072404Y-104726274D01*
X93191281Y-105013269D01*
X93363864Y-105271559D01*
X93583521Y-105491216D01*
X93841811Y-105663799D01*
X94128806Y-105782676D01*
X94433479Y-105843280D01*
X94744121Y-105843280D01*
X95048794Y-105782676D01*
X95335789Y-105663799D01*
X95594079Y-105491216D01*
X95813736Y-105271559D01*
X95986319Y-105013269D01*
X96105196Y-104726274D01*
X96165800Y-104421601D01*
X96165800Y-104110959D01*
X96105196Y-103806286D01*
X95986319Y-103519291D01*
X95813736Y-103261001D01*
X95784535Y-103231800D01*
X101892218Y-103231800D01*
X101892218Y-104731800D01*
X101898532Y-104795903D01*
X101917230Y-104857543D01*
X101947594Y-104914350D01*
X101988457Y-104964143D01*
X102038250Y-105005006D01*
X102095057Y-105035370D01*
X102156697Y-105054068D01*
X102220800Y-105060382D01*
X103720800Y-105060382D01*
X103784903Y-105054068D01*
X103846543Y-105035370D01*
X103903350Y-105005006D01*
X103953143Y-104964143D01*
X103994006Y-104914350D01*
X104024370Y-104857543D01*
X104043068Y-104795903D01*
X104049382Y-104731800D01*
X104049382Y-103231800D01*
X104043068Y-103167697D01*
X104024370Y-103106057D01*
X103994006Y-103049250D01*
X103953143Y-102999457D01*
X103903350Y-102958594D01*
X103846543Y-102928230D01*
X103784903Y-102909532D01*
X103720800Y-102903218D01*
X102220800Y-102903218D01*
X102156697Y-102909532D01*
X102095057Y-102928230D01*
X102038250Y-102958594D01*
X101988457Y-102999457D01*
X101947594Y-103049250D01*
X101917230Y-103106057D01*
X101898532Y-103167697D01*
X101892218Y-103231800D01*
X95784535Y-103231800D01*
X95594079Y-103041344D01*
X95335789Y-102868761D01*
X95048794Y-102749884D01*
X94744121Y-102689280D01*
X94433479Y-102689280D01*
X94128806Y-102749884D01*
X93841811Y-102868761D01*
X93583521Y-103041344D01*
X93363864Y-103261001D01*
X93191281Y-103519291D01*
X93072404Y-103806286D01*
X93011800Y-104110959D01*
X92862379Y-104110959D01*
X92863257Y-101783600D01*
X108243818Y-101783600D01*
X108243818Y-103233600D01*
X108254935Y-103346476D01*
X108287860Y-103455014D01*
X108341327Y-103555043D01*
X108413281Y-103642719D01*
X108500957Y-103714673D01*
X108600986Y-103768140D01*
X108709524Y-103801065D01*
X108822400Y-103812182D01*
X110022400Y-103812182D01*
X110135276Y-103801065D01*
X110243814Y-103768140D01*
X110343843Y-103714673D01*
X110431519Y-103642719D01*
X110503473Y-103555043D01*
X110556940Y-103455014D01*
X110589865Y-103346476D01*
X110600982Y-103233600D01*
X110600982Y-102325789D01*
X110745400Y-102325789D01*
X110745400Y-102691412D01*
X110762431Y-102864332D01*
X110829733Y-103086197D01*
X110939026Y-103290670D01*
X111086110Y-103469891D01*
X111265331Y-103616974D01*
X111469804Y-103726267D01*
X111691669Y-103793569D01*
X111922400Y-103816294D01*
X112153132Y-103793569D01*
X112374997Y-103726267D01*
X112579470Y-103616974D01*
X112758691Y-103469891D01*
X112905774Y-103290669D01*
X113013926Y-103088330D01*
X113029958Y-103149430D01*
X113157347Y-103411170D01*
X113333351Y-103643029D01*
X113551207Y-103836096D01*
X113802542Y-103982952D01*
X114065510Y-104075076D01*
X114295400Y-103953755D01*
X114295400Y-102635600D01*
X114549400Y-102635600D01*
X114549400Y-103953755D01*
X114779290Y-104075076D01*
X115042258Y-103982952D01*
X115293593Y-103836096D01*
X115511449Y-103643029D01*
X115687453Y-103411170D01*
X115814842Y-103149430D01*
X115888720Y-102867867D01*
X115748565Y-102635600D01*
X114549400Y-102635600D01*
X114295400Y-102635600D01*
X114275400Y-102635600D01*
X114275400Y-102381600D01*
X114295400Y-102381600D01*
X114295400Y-101063445D01*
X114549400Y-101063445D01*
X114549400Y-102381600D01*
X115748565Y-102381600D01*
X115888720Y-102149333D01*
X115832745Y-101936000D01*
X136031418Y-101936000D01*
X136031418Y-103386000D01*
X136042535Y-103498876D01*
X136075460Y-103607414D01*
X136128927Y-103707443D01*
X136200881Y-103795119D01*
X136288557Y-103867073D01*
X136388586Y-103920540D01*
X136497124Y-103953465D01*
X136610000Y-103964582D01*
X137810000Y-103964582D01*
X137922876Y-103953465D01*
X138031414Y-103920540D01*
X138131443Y-103867073D01*
X138219119Y-103795119D01*
X138291073Y-103707443D01*
X138344540Y-103607414D01*
X138377465Y-103498876D01*
X138388582Y-103386000D01*
X138388582Y-102478189D01*
X138533000Y-102478189D01*
X138533000Y-102843812D01*
X138550031Y-103016732D01*
X138617333Y-103238597D01*
X138726626Y-103443070D01*
X138873710Y-103622291D01*
X139052931Y-103769374D01*
X139257404Y-103878667D01*
X139479269Y-103945969D01*
X139710000Y-103968694D01*
X139940732Y-103945969D01*
X140162597Y-103878667D01*
X140367070Y-103769374D01*
X140546291Y-103622291D01*
X140693374Y-103443069D01*
X140802667Y-103238596D01*
X140869969Y-103016731D01*
X140887000Y-102843811D01*
X140887000Y-102478189D01*
X141033000Y-102478189D01*
X141033000Y-102843812D01*
X141050031Y-103016732D01*
X141117333Y-103238597D01*
X141226626Y-103443070D01*
X141373710Y-103622291D01*
X141552931Y-103769374D01*
X141757404Y-103878667D01*
X141979269Y-103945969D01*
X142210000Y-103968694D01*
X142440732Y-103945969D01*
X142662597Y-103878667D01*
X142867070Y-103769374D01*
X143046291Y-103622291D01*
X143193374Y-103443069D01*
X143302667Y-103238596D01*
X143369969Y-103016731D01*
X143387000Y-102843811D01*
X143387000Y-102478189D01*
X143533000Y-102478189D01*
X143533000Y-102843812D01*
X143550031Y-103016732D01*
X143617333Y-103238597D01*
X143726626Y-103443070D01*
X143873710Y-103622291D01*
X144052931Y-103769374D01*
X144257404Y-103878667D01*
X144479269Y-103945969D01*
X144710000Y-103968694D01*
X144940732Y-103945969D01*
X145162597Y-103878667D01*
X145367070Y-103769374D01*
X145546291Y-103622291D01*
X145693374Y-103443069D01*
X145802667Y-103238596D01*
X145869969Y-103016731D01*
X145887000Y-102843811D01*
X145887000Y-102478189D01*
X146033000Y-102478189D01*
X146033000Y-102843812D01*
X146050031Y-103016732D01*
X146117333Y-103238597D01*
X146226626Y-103443070D01*
X146373710Y-103622291D01*
X146552931Y-103769374D01*
X146757404Y-103878667D01*
X146979269Y-103945969D01*
X147210000Y-103968694D01*
X147440732Y-103945969D01*
X147662597Y-103878667D01*
X147867070Y-103769374D01*
X148046291Y-103622291D01*
X148193374Y-103443069D01*
X148301526Y-103240730D01*
X148317558Y-103301830D01*
X148444947Y-103563570D01*
X148620951Y-103795429D01*
X148838807Y-103988496D01*
X149090142Y-104135352D01*
X149353110Y-104227476D01*
X149583000Y-104106155D01*
X149583000Y-102788000D01*
X149837000Y-102788000D01*
X149837000Y-104106155D01*
X150066890Y-104227476D01*
X150329858Y-104135352D01*
X150581193Y-103988496D01*
X150799049Y-103795429D01*
X150975053Y-103563570D01*
X151102442Y-103301830D01*
X151176320Y-103020267D01*
X151036165Y-102788000D01*
X149837000Y-102788000D01*
X149583000Y-102788000D01*
X149563000Y-102788000D01*
X149563000Y-102534000D01*
X149583000Y-102534000D01*
X149583000Y-101215845D01*
X149837000Y-101215845D01*
X149837000Y-102534000D01*
X151036165Y-102534000D01*
X151176320Y-102301733D01*
X151102442Y-102020170D01*
X151086201Y-101986800D01*
X160212218Y-101986800D01*
X160212218Y-103436800D01*
X160223335Y-103549676D01*
X160256260Y-103658214D01*
X160309727Y-103758243D01*
X160381681Y-103845919D01*
X160469357Y-103917873D01*
X160569386Y-103971340D01*
X160677924Y-104004265D01*
X160790800Y-104015382D01*
X161990800Y-104015382D01*
X162103676Y-104004265D01*
X162212214Y-103971340D01*
X162312243Y-103917873D01*
X162399919Y-103845919D01*
X162471873Y-103758243D01*
X162525340Y-103658214D01*
X162558265Y-103549676D01*
X162569382Y-103436800D01*
X162569382Y-102528989D01*
X162713800Y-102528989D01*
X162713800Y-102894612D01*
X162730831Y-103067532D01*
X162798133Y-103289397D01*
X162907426Y-103493870D01*
X163054510Y-103673091D01*
X163233731Y-103820174D01*
X163438204Y-103929467D01*
X163660069Y-103996769D01*
X163890800Y-104019494D01*
X164121532Y-103996769D01*
X164343397Y-103929467D01*
X164547870Y-103820174D01*
X164727091Y-103673091D01*
X164874174Y-103493869D01*
X164983467Y-103289396D01*
X165050769Y-103067531D01*
X165067800Y-102894611D01*
X165067800Y-102528989D01*
X165213800Y-102528989D01*
X165213800Y-102894612D01*
X165230831Y-103067532D01*
X165298133Y-103289397D01*
X165407426Y-103493870D01*
X165554510Y-103673091D01*
X165733731Y-103820174D01*
X165938204Y-103929467D01*
X166160069Y-103996769D01*
X166390800Y-104019494D01*
X166621532Y-103996769D01*
X166843397Y-103929467D01*
X167047870Y-103820174D01*
X167227091Y-103673091D01*
X167374174Y-103493869D01*
X167482326Y-103291530D01*
X167498358Y-103352630D01*
X167625747Y-103614370D01*
X167801751Y-103846229D01*
X168019607Y-104039296D01*
X168270942Y-104186152D01*
X168533910Y-104278276D01*
X168763800Y-104156955D01*
X168763800Y-102838800D01*
X169017800Y-102838800D01*
X169017800Y-104156955D01*
X169247690Y-104278276D01*
X169510658Y-104186152D01*
X169726287Y-104060159D01*
X176928320Y-104060159D01*
X176928320Y-104370801D01*
X176988924Y-104675474D01*
X177107801Y-104962469D01*
X177280384Y-105220759D01*
X177500041Y-105440416D01*
X177758331Y-105612999D01*
X178045326Y-105731876D01*
X178349999Y-105792480D01*
X178660641Y-105792480D01*
X178965314Y-105731876D01*
X179252309Y-105612999D01*
X179510599Y-105440416D01*
X179730256Y-105220759D01*
X179902839Y-104962469D01*
X180021716Y-104675474D01*
X180082320Y-104370801D01*
X180082320Y-104060159D01*
X180021716Y-103755486D01*
X179902839Y-103468491D01*
X179730256Y-103210201D01*
X179510599Y-102990544D01*
X179252309Y-102817961D01*
X178965314Y-102699084D01*
X178660641Y-102638480D01*
X178349999Y-102638480D01*
X178045326Y-102699084D01*
X177758331Y-102817961D01*
X177500041Y-102990544D01*
X177280384Y-103210201D01*
X177107801Y-103468491D01*
X176988924Y-103755486D01*
X176928320Y-104060159D01*
X169726287Y-104060159D01*
X169761993Y-104039296D01*
X169979849Y-103846229D01*
X170155853Y-103614370D01*
X170283242Y-103352630D01*
X170357120Y-103071067D01*
X170216965Y-102838800D01*
X169017800Y-102838800D01*
X168763800Y-102838800D01*
X168743800Y-102838800D01*
X168743800Y-102584800D01*
X168763800Y-102584800D01*
X168763800Y-101266645D01*
X169017800Y-101266645D01*
X169017800Y-102584800D01*
X170216965Y-102584800D01*
X170357120Y-102352533D01*
X170283242Y-102070970D01*
X170155853Y-101809230D01*
X169979849Y-101577371D01*
X169761993Y-101384304D01*
X169510658Y-101237448D01*
X169247690Y-101145324D01*
X169017800Y-101266645D01*
X168763800Y-101266645D01*
X168533910Y-101145324D01*
X168270942Y-101237448D01*
X168019607Y-101384304D01*
X167801751Y-101577371D01*
X167625747Y-101809230D01*
X167498358Y-102070970D01*
X167482326Y-102132069D01*
X167374174Y-101929730D01*
X167227091Y-101750509D01*
X167047869Y-101603426D01*
X166843396Y-101494133D01*
X166621531Y-101426831D01*
X166390800Y-101404106D01*
X166160068Y-101426831D01*
X165938203Y-101494133D01*
X165733730Y-101603426D01*
X165554509Y-101750509D01*
X165407426Y-101929731D01*
X165298133Y-102134204D01*
X165230831Y-102356069D01*
X165213800Y-102528989D01*
X165067800Y-102528989D01*
X165067800Y-102528988D01*
X165050769Y-102356068D01*
X164983467Y-102134203D01*
X164874174Y-101929730D01*
X164727091Y-101750509D01*
X164547869Y-101603426D01*
X164343396Y-101494133D01*
X164121531Y-101426831D01*
X163890800Y-101404106D01*
X163660068Y-101426831D01*
X163438203Y-101494133D01*
X163233730Y-101603426D01*
X163054509Y-101750509D01*
X162907426Y-101929731D01*
X162798133Y-102134204D01*
X162730831Y-102356069D01*
X162713800Y-102528989D01*
X162569382Y-102528989D01*
X162569382Y-101986800D01*
X162558265Y-101873924D01*
X162525340Y-101765386D01*
X162471873Y-101665357D01*
X162399919Y-101577681D01*
X162312243Y-101505727D01*
X162212214Y-101452260D01*
X162103676Y-101419335D01*
X161990800Y-101408218D01*
X160790800Y-101408218D01*
X160677924Y-101419335D01*
X160569386Y-101452260D01*
X160469357Y-101505727D01*
X160381681Y-101577681D01*
X160309727Y-101665357D01*
X160256260Y-101765386D01*
X160223335Y-101873924D01*
X160212218Y-101986800D01*
X151086201Y-101986800D01*
X150975053Y-101758430D01*
X150799049Y-101526571D01*
X150581193Y-101333504D01*
X150329858Y-101186648D01*
X150066890Y-101094524D01*
X149837000Y-101215845D01*
X149583000Y-101215845D01*
X149353110Y-101094524D01*
X149090142Y-101186648D01*
X148838807Y-101333504D01*
X148620951Y-101526571D01*
X148444947Y-101758430D01*
X148317558Y-102020170D01*
X148301526Y-102081269D01*
X148193374Y-101878930D01*
X148046291Y-101699709D01*
X147867069Y-101552626D01*
X147662596Y-101443333D01*
X147440731Y-101376031D01*
X147210000Y-101353306D01*
X146979268Y-101376031D01*
X146757403Y-101443333D01*
X146552930Y-101552626D01*
X146373709Y-101699709D01*
X146226626Y-101878931D01*
X146117333Y-102083404D01*
X146050031Y-102305269D01*
X146033000Y-102478189D01*
X145887000Y-102478189D01*
X145887000Y-102478188D01*
X145869969Y-102305268D01*
X145802667Y-102083403D01*
X145693374Y-101878930D01*
X145546291Y-101699709D01*
X145367069Y-101552626D01*
X145162596Y-101443333D01*
X144940731Y-101376031D01*
X144710000Y-101353306D01*
X144479268Y-101376031D01*
X144257403Y-101443333D01*
X144052930Y-101552626D01*
X143873709Y-101699709D01*
X143726626Y-101878931D01*
X143617333Y-102083404D01*
X143550031Y-102305269D01*
X143533000Y-102478189D01*
X143387000Y-102478189D01*
X143387000Y-102478188D01*
X143369969Y-102305268D01*
X143302667Y-102083403D01*
X143193374Y-101878930D01*
X143046291Y-101699709D01*
X142867069Y-101552626D01*
X142662596Y-101443333D01*
X142440731Y-101376031D01*
X142210000Y-101353306D01*
X141979268Y-101376031D01*
X141757403Y-101443333D01*
X141552930Y-101552626D01*
X141373709Y-101699709D01*
X141226626Y-101878931D01*
X141117333Y-102083404D01*
X141050031Y-102305269D01*
X141033000Y-102478189D01*
X140887000Y-102478189D01*
X140887000Y-102478188D01*
X140869969Y-102305268D01*
X140802667Y-102083403D01*
X140693374Y-101878930D01*
X140546291Y-101699709D01*
X140367069Y-101552626D01*
X140162596Y-101443333D01*
X139940731Y-101376031D01*
X139710000Y-101353306D01*
X139479268Y-101376031D01*
X139257403Y-101443333D01*
X139052930Y-101552626D01*
X138873709Y-101699709D01*
X138726626Y-101878931D01*
X138617333Y-102083404D01*
X138550031Y-102305269D01*
X138533000Y-102478189D01*
X138388582Y-102478189D01*
X138388582Y-101936000D01*
X138377465Y-101823124D01*
X138344540Y-101714586D01*
X138291073Y-101614557D01*
X138219119Y-101526881D01*
X138131443Y-101454927D01*
X138031414Y-101401460D01*
X137922876Y-101368535D01*
X137810000Y-101357418D01*
X136610000Y-101357418D01*
X136497124Y-101368535D01*
X136388586Y-101401460D01*
X136288557Y-101454927D01*
X136200881Y-101526881D01*
X136128927Y-101614557D01*
X136075460Y-101714586D01*
X136042535Y-101823124D01*
X136031418Y-101936000D01*
X115832745Y-101936000D01*
X115814842Y-101867770D01*
X115687453Y-101606030D01*
X115511449Y-101374171D01*
X115293593Y-101181104D01*
X115042258Y-101034248D01*
X114779290Y-100942124D01*
X114549400Y-101063445D01*
X114295400Y-101063445D01*
X114065510Y-100942124D01*
X113802542Y-101034248D01*
X113551207Y-101181104D01*
X113333351Y-101374171D01*
X113157347Y-101606030D01*
X113029958Y-101867770D01*
X113013926Y-101928869D01*
X112905774Y-101726530D01*
X112758691Y-101547309D01*
X112579469Y-101400226D01*
X112374996Y-101290933D01*
X112153131Y-101223631D01*
X111922400Y-101200906D01*
X111691668Y-101223631D01*
X111469803Y-101290933D01*
X111265330Y-101400226D01*
X111086109Y-101547309D01*
X110939026Y-101726531D01*
X110829733Y-101931004D01*
X110762431Y-102152869D01*
X110745400Y-102325789D01*
X110600982Y-102325789D01*
X110600982Y-101783600D01*
X110589865Y-101670724D01*
X110556940Y-101562186D01*
X110503473Y-101462157D01*
X110431519Y-101374481D01*
X110343843Y-101302527D01*
X110243814Y-101249060D01*
X110135276Y-101216135D01*
X110022400Y-101205018D01*
X108822400Y-101205018D01*
X108709524Y-101216135D01*
X108600986Y-101249060D01*
X108500957Y-101302527D01*
X108413281Y-101374481D01*
X108341327Y-101462157D01*
X108287860Y-101562186D01*
X108254935Y-101670724D01*
X108243818Y-101783600D01*
X92863257Y-101783600D01*
X92864445Y-98636000D01*
X120080218Y-98636000D01*
X120080218Y-100336000D01*
X120086532Y-100400103D01*
X120105230Y-100461743D01*
X120135594Y-100518550D01*
X120176457Y-100568343D01*
X120226250Y-100609206D01*
X120283057Y-100639570D01*
X120344697Y-100658268D01*
X120408800Y-100664582D01*
X122108800Y-100664582D01*
X122172903Y-100658268D01*
X122234543Y-100639570D01*
X122291350Y-100609206D01*
X122341143Y-100568343D01*
X122382006Y-100518550D01*
X122412370Y-100461743D01*
X122431068Y-100400103D01*
X122437382Y-100336000D01*
X122437382Y-99370076D01*
X122621800Y-99370076D01*
X122621800Y-99601924D01*
X122667031Y-99829318D01*
X122755756Y-100043519D01*
X122884564Y-100236294D01*
X123048506Y-100400236D01*
X123241281Y-100529044D01*
X123455482Y-100617769D01*
X123682876Y-100663000D01*
X123914724Y-100663000D01*
X124142118Y-100617769D01*
X124356319Y-100529044D01*
X124549094Y-100400236D01*
X124713036Y-100236294D01*
X124841844Y-100043519D01*
X124930569Y-99829318D01*
X124975800Y-99601924D01*
X124975800Y-99370076D01*
X125161800Y-99370076D01*
X125161800Y-99601924D01*
X125207031Y-99829318D01*
X125295756Y-100043519D01*
X125424564Y-100236294D01*
X125588506Y-100400236D01*
X125781281Y-100529044D01*
X125995482Y-100617769D01*
X126222876Y-100663000D01*
X126454724Y-100663000D01*
X126682118Y-100617769D01*
X126896319Y-100529044D01*
X127089094Y-100400236D01*
X127253036Y-100236294D01*
X127381844Y-100043519D01*
X127470569Y-99829318D01*
X127515800Y-99601924D01*
X127515800Y-99495677D01*
X165586320Y-99495677D01*
X165586320Y-99638883D01*
X165614258Y-99779338D01*
X165669061Y-99911644D01*
X165748622Y-100030716D01*
X165849884Y-100131978D01*
X165968956Y-100211539D01*
X166101262Y-100266342D01*
X166241717Y-100294280D01*
X166384923Y-100294280D01*
X166525378Y-100266342D01*
X166657684Y-100211539D01*
X166776756Y-100131978D01*
X166878018Y-100030716D01*
X166957579Y-99911644D01*
X167012382Y-99779338D01*
X167040320Y-99638883D01*
X167040320Y-99495677D01*
X167012382Y-99355222D01*
X166957579Y-99222916D01*
X166878018Y-99103844D01*
X166776756Y-99002582D01*
X166657684Y-98923021D01*
X166525378Y-98868218D01*
X166384923Y-98840280D01*
X166241717Y-98840280D01*
X166101262Y-98868218D01*
X165968956Y-98923021D01*
X165849884Y-99002582D01*
X165748622Y-99103844D01*
X165669061Y-99222916D01*
X165614258Y-99355222D01*
X165586320Y-99495677D01*
X127515800Y-99495677D01*
X127515800Y-99370076D01*
X127470569Y-99142682D01*
X127381844Y-98928481D01*
X127253036Y-98735706D01*
X127089094Y-98571764D01*
X126896319Y-98442956D01*
X126682118Y-98354231D01*
X126454724Y-98309000D01*
X126222876Y-98309000D01*
X125995482Y-98354231D01*
X125781281Y-98442956D01*
X125588506Y-98571764D01*
X125424564Y-98735706D01*
X125295756Y-98928481D01*
X125207031Y-99142682D01*
X125161800Y-99370076D01*
X124975800Y-99370076D01*
X124930569Y-99142682D01*
X124841844Y-98928481D01*
X124713036Y-98735706D01*
X124549094Y-98571764D01*
X124356319Y-98442956D01*
X124142118Y-98354231D01*
X123914724Y-98309000D01*
X123682876Y-98309000D01*
X123455482Y-98354231D01*
X123241281Y-98442956D01*
X123048506Y-98571764D01*
X122884564Y-98735706D01*
X122755756Y-98928481D01*
X122667031Y-99142682D01*
X122621800Y-99370076D01*
X122437382Y-99370076D01*
X122437382Y-98636000D01*
X122431068Y-98571897D01*
X122412370Y-98510257D01*
X122382006Y-98453450D01*
X122341143Y-98403657D01*
X122291350Y-98362794D01*
X122234543Y-98332430D01*
X122172903Y-98313732D01*
X122108800Y-98307418D01*
X120408800Y-98307418D01*
X120344697Y-98313732D01*
X120283057Y-98332430D01*
X120226250Y-98362794D01*
X120176457Y-98403657D01*
X120135594Y-98453450D01*
X120105230Y-98510257D01*
X120086532Y-98571897D01*
X120080218Y-98636000D01*
X92864445Y-98636000D01*
X92865321Y-96315597D01*
X103767800Y-96315597D01*
X103767800Y-96458803D01*
X103795738Y-96599258D01*
X103850541Y-96731564D01*
X103930102Y-96850636D01*
X104031364Y-96951898D01*
X104150436Y-97031459D01*
X104282742Y-97086262D01*
X104423197Y-97114200D01*
X104566403Y-97114200D01*
X104706858Y-97086262D01*
X104789098Y-97052197D01*
X126754800Y-97052197D01*
X126754800Y-97195403D01*
X126782738Y-97335858D01*
X126837541Y-97468164D01*
X126917102Y-97587236D01*
X127018364Y-97688498D01*
X127137436Y-97768059D01*
X127269742Y-97822862D01*
X127410197Y-97850800D01*
X127553403Y-97850800D01*
X127693858Y-97822862D01*
X127826164Y-97768059D01*
X127945236Y-97688498D01*
X128046498Y-97587236D01*
X128126059Y-97468164D01*
X128180862Y-97335858D01*
X128208800Y-97195403D01*
X128208800Y-97052197D01*
X130336200Y-97052197D01*
X130336200Y-97195403D01*
X130364138Y-97335858D01*
X130418941Y-97468164D01*
X130498502Y-97587236D01*
X130599764Y-97688498D01*
X130718836Y-97768059D01*
X130851142Y-97822862D01*
X130991597Y-97850800D01*
X131134803Y-97850800D01*
X131275258Y-97822862D01*
X131407564Y-97768059D01*
X131526636Y-97688498D01*
X131627898Y-97587236D01*
X131643521Y-97563855D01*
X131666564Y-97586898D01*
X131785636Y-97666459D01*
X131917942Y-97721262D01*
X132058397Y-97749200D01*
X132201603Y-97749200D01*
X132342058Y-97721262D01*
X132474364Y-97666459D01*
X132593436Y-97586898D01*
X132694698Y-97485636D01*
X132774259Y-97366564D01*
X132829062Y-97234258D01*
X132834961Y-97204597D01*
X136838600Y-97204597D01*
X136838600Y-97347803D01*
X136866538Y-97488258D01*
X136921341Y-97620564D01*
X137000902Y-97739636D01*
X137102164Y-97840898D01*
X137221236Y-97920459D01*
X137353542Y-97975262D01*
X137493997Y-98003200D01*
X137637203Y-98003200D01*
X137777658Y-97975262D01*
X137909964Y-97920459D01*
X138029036Y-97840898D01*
X138130298Y-97739636D01*
X138209859Y-97620564D01*
X138264662Y-97488258D01*
X138292600Y-97347803D01*
X138292600Y-97229997D01*
X139734200Y-97229997D01*
X139734200Y-97373203D01*
X139762138Y-97513658D01*
X139816941Y-97645964D01*
X139896502Y-97765036D01*
X139997764Y-97866298D01*
X140116836Y-97945859D01*
X140249142Y-98000662D01*
X140389597Y-98028600D01*
X140532803Y-98028600D01*
X140673258Y-98000662D01*
X140805564Y-97945859D01*
X140924636Y-97866298D01*
X141025898Y-97765036D01*
X141105459Y-97645964D01*
X141160262Y-97513658D01*
X141188200Y-97373203D01*
X141188200Y-97255397D01*
X142452000Y-97255397D01*
X142452000Y-97398603D01*
X142479938Y-97539058D01*
X142534741Y-97671364D01*
X142614302Y-97790436D01*
X142715564Y-97891698D01*
X142834636Y-97971259D01*
X142966942Y-98026062D01*
X143107397Y-98054000D01*
X143250603Y-98054000D01*
X143391058Y-98026062D01*
X143523364Y-97971259D01*
X143642436Y-97891698D01*
X143743698Y-97790436D01*
X143823259Y-97671364D01*
X143878062Y-97539058D01*
X143906000Y-97398603D01*
X143906000Y-97255397D01*
X143900948Y-97229997D01*
X145220600Y-97229997D01*
X145220600Y-97373203D01*
X145248538Y-97513658D01*
X145303341Y-97645964D01*
X145382902Y-97765036D01*
X145484164Y-97866298D01*
X145603236Y-97945859D01*
X145735542Y-98000662D01*
X145875997Y-98028600D01*
X146019203Y-98028600D01*
X146159658Y-98000662D01*
X146291964Y-97945859D01*
X146411036Y-97866298D01*
X146512298Y-97765036D01*
X146591859Y-97645964D01*
X146646662Y-97513658D01*
X146674600Y-97373203D01*
X146674600Y-97229997D01*
X146646662Y-97089542D01*
X146591859Y-96957236D01*
X146512298Y-96838164D01*
X146462171Y-96788037D01*
X165708240Y-96788037D01*
X165708240Y-96931243D01*
X165736178Y-97071698D01*
X165790981Y-97204004D01*
X165870542Y-97323076D01*
X165971804Y-97424338D01*
X166090876Y-97503899D01*
X166223182Y-97558702D01*
X166363637Y-97586640D01*
X166506843Y-97586640D01*
X166647298Y-97558702D01*
X166779604Y-97503899D01*
X166898676Y-97424338D01*
X166999938Y-97323076D01*
X167079499Y-97204004D01*
X167134302Y-97071698D01*
X167162240Y-96931243D01*
X167162240Y-96788037D01*
X167134302Y-96647582D01*
X167079499Y-96515276D01*
X166999938Y-96396204D01*
X166898676Y-96294942D01*
X166779604Y-96215381D01*
X166647298Y-96160578D01*
X166506843Y-96132640D01*
X166363637Y-96132640D01*
X166223182Y-96160578D01*
X166090876Y-96215381D01*
X165971804Y-96294942D01*
X165870542Y-96396204D01*
X165790981Y-96515276D01*
X165736178Y-96647582D01*
X165708240Y-96788037D01*
X146462171Y-96788037D01*
X146411036Y-96736902D01*
X146291964Y-96657341D01*
X146159658Y-96602538D01*
X146019203Y-96574600D01*
X145875997Y-96574600D01*
X145735542Y-96602538D01*
X145603236Y-96657341D01*
X145484164Y-96736902D01*
X145382902Y-96838164D01*
X145303341Y-96957236D01*
X145248538Y-97089542D01*
X145220600Y-97229997D01*
X143900948Y-97229997D01*
X143878062Y-97114942D01*
X143823259Y-96982636D01*
X143743698Y-96863564D01*
X143642436Y-96762302D01*
X143523364Y-96682741D01*
X143391058Y-96627938D01*
X143250603Y-96600000D01*
X143107397Y-96600000D01*
X142966942Y-96627938D01*
X142834636Y-96682741D01*
X142715564Y-96762302D01*
X142614302Y-96863564D01*
X142534741Y-96982636D01*
X142479938Y-97114942D01*
X142452000Y-97255397D01*
X141188200Y-97255397D01*
X141188200Y-97229997D01*
X141160262Y-97089542D01*
X141105459Y-96957236D01*
X141025898Y-96838164D01*
X140924636Y-96736902D01*
X140805564Y-96657341D01*
X140673258Y-96602538D01*
X140532803Y-96574600D01*
X140389597Y-96574600D01*
X140249142Y-96602538D01*
X140116836Y-96657341D01*
X139997764Y-96736902D01*
X139896502Y-96838164D01*
X139816941Y-96957236D01*
X139762138Y-97089542D01*
X139734200Y-97229997D01*
X138292600Y-97229997D01*
X138292600Y-97204597D01*
X138264662Y-97064142D01*
X138209859Y-96931836D01*
X138130298Y-96812764D01*
X138029036Y-96711502D01*
X137909964Y-96631941D01*
X137777658Y-96577138D01*
X137637203Y-96549200D01*
X137493997Y-96549200D01*
X137353542Y-96577138D01*
X137221236Y-96631941D01*
X137102164Y-96711502D01*
X137000902Y-96812764D01*
X136921341Y-96931836D01*
X136866538Y-97064142D01*
X136838600Y-97204597D01*
X132834961Y-97204597D01*
X132857000Y-97093803D01*
X132857000Y-96950597D01*
X132829062Y-96810142D01*
X132774259Y-96677836D01*
X132694698Y-96558764D01*
X132593436Y-96457502D01*
X132474364Y-96377941D01*
X132348675Y-96325879D01*
X132423564Y-96294859D01*
X132542636Y-96215298D01*
X132643898Y-96114036D01*
X132723459Y-95994964D01*
X132778262Y-95862658D01*
X132806200Y-95722203D01*
X132806200Y-95578997D01*
X132778262Y-95438542D01*
X132723459Y-95306236D01*
X132643898Y-95187164D01*
X132542636Y-95085902D01*
X132423564Y-95006341D01*
X132291258Y-94951538D01*
X132150803Y-94923600D01*
X132007597Y-94923600D01*
X131867142Y-94951538D01*
X131734836Y-95006341D01*
X131615764Y-95085902D01*
X131514502Y-95187164D01*
X131434941Y-95306236D01*
X131380138Y-95438542D01*
X131352200Y-95578997D01*
X131352200Y-95722203D01*
X131380138Y-95862658D01*
X131434941Y-95994964D01*
X131514502Y-96114036D01*
X131615764Y-96215298D01*
X131734836Y-96294859D01*
X131860525Y-96346921D01*
X131785636Y-96377941D01*
X131666564Y-96457502D01*
X131565302Y-96558764D01*
X131549679Y-96582145D01*
X131526636Y-96559102D01*
X131407564Y-96479541D01*
X131275258Y-96424738D01*
X131134803Y-96396800D01*
X130991597Y-96396800D01*
X130851142Y-96424738D01*
X130718836Y-96479541D01*
X130599764Y-96559102D01*
X130498502Y-96660364D01*
X130418941Y-96779436D01*
X130364138Y-96911742D01*
X130336200Y-97052197D01*
X128208800Y-97052197D01*
X128180862Y-96911742D01*
X128126059Y-96779436D01*
X128046498Y-96660364D01*
X127945236Y-96559102D01*
X127826164Y-96479541D01*
X127693858Y-96424738D01*
X127553403Y-96396800D01*
X127410197Y-96396800D01*
X127269742Y-96424738D01*
X127137436Y-96479541D01*
X127018364Y-96559102D01*
X126917102Y-96660364D01*
X126837541Y-96779436D01*
X126782738Y-96911742D01*
X126754800Y-97052197D01*
X104789098Y-97052197D01*
X104839164Y-97031459D01*
X104958236Y-96951898D01*
X105059498Y-96850636D01*
X105139059Y-96731564D01*
X105193862Y-96599258D01*
X105221800Y-96458803D01*
X105221800Y-96315597D01*
X105193862Y-96175142D01*
X105139059Y-96042836D01*
X105059498Y-95923764D01*
X104958236Y-95822502D01*
X104839164Y-95742941D01*
X104706858Y-95688138D01*
X104566403Y-95660200D01*
X104423197Y-95660200D01*
X104282742Y-95688138D01*
X104150436Y-95742941D01*
X104031364Y-95822502D01*
X103930102Y-95923764D01*
X103850541Y-96042836D01*
X103795738Y-96175142D01*
X103767800Y-96315597D01*
X92865321Y-96315597D01*
X92865964Y-94613797D01*
X94877800Y-94613797D01*
X94877800Y-94757003D01*
X94905738Y-94897458D01*
X94960541Y-95029764D01*
X95040102Y-95148836D01*
X95141364Y-95250098D01*
X95260436Y-95329659D01*
X95392742Y-95384462D01*
X95533197Y-95412400D01*
X95676403Y-95412400D01*
X95816858Y-95384462D01*
X95949164Y-95329659D01*
X96068236Y-95250098D01*
X96169498Y-95148836D01*
X96249059Y-95029764D01*
X96303862Y-94897458D01*
X96321876Y-94806890D01*
X106798524Y-94806890D01*
X106843175Y-94954099D01*
X106968359Y-95216920D01*
X107142412Y-95450269D01*
X107358645Y-95645178D01*
X107608748Y-95794157D01*
X107883109Y-95891481D01*
X108113000Y-95770814D01*
X108113000Y-94577000D01*
X108367000Y-94577000D01*
X108367000Y-95770814D01*
X108596891Y-95891481D01*
X108871252Y-95794157D01*
X109121355Y-95645178D01*
X109335670Y-95451997D01*
X128710600Y-95451997D01*
X128710600Y-95595203D01*
X128738538Y-95735658D01*
X128793341Y-95867964D01*
X128872902Y-95987036D01*
X128974164Y-96088298D01*
X129093236Y-96167859D01*
X129225542Y-96222662D01*
X129365997Y-96250600D01*
X129509203Y-96250600D01*
X129649658Y-96222662D01*
X129781964Y-96167859D01*
X129901036Y-96088298D01*
X130002298Y-95987036D01*
X130081859Y-95867964D01*
X130136662Y-95735658D01*
X130164600Y-95595203D01*
X130164600Y-95451997D01*
X130136662Y-95311542D01*
X130081859Y-95179236D01*
X130002298Y-95060164D01*
X129901036Y-94958902D01*
X129781964Y-94879341D01*
X129649658Y-94824538D01*
X129509203Y-94796600D01*
X129365997Y-94796600D01*
X129225542Y-94824538D01*
X129093236Y-94879341D01*
X128974164Y-94958902D01*
X128872902Y-95060164D01*
X128793341Y-95179236D01*
X128738538Y-95311542D01*
X128710600Y-95451997D01*
X109335670Y-95451997D01*
X109337588Y-95450269D01*
X109511641Y-95216920D01*
X109636825Y-94954099D01*
X109681476Y-94806890D01*
X109560155Y-94577000D01*
X108367000Y-94577000D01*
X108113000Y-94577000D01*
X106919845Y-94577000D01*
X106798524Y-94806890D01*
X96321876Y-94806890D01*
X96331800Y-94757003D01*
X96331800Y-94613797D01*
X96303862Y-94473342D01*
X96249059Y-94341036D01*
X96169498Y-94221964D01*
X96068236Y-94120702D01*
X96026942Y-94093110D01*
X106798524Y-94093110D01*
X106919845Y-94323000D01*
X108113000Y-94323000D01*
X108113000Y-94303000D01*
X108367000Y-94303000D01*
X108367000Y-94323000D01*
X109560155Y-94323000D01*
X109674780Y-94105797D01*
X133562000Y-94105797D01*
X133562000Y-94249003D01*
X133589938Y-94389458D01*
X133644741Y-94521764D01*
X133724302Y-94640836D01*
X133825564Y-94742098D01*
X133944636Y-94821659D01*
X134076942Y-94876462D01*
X134217397Y-94904400D01*
X134360603Y-94904400D01*
X134501058Y-94876462D01*
X134633364Y-94821659D01*
X134752436Y-94742098D01*
X134853698Y-94640836D01*
X134933259Y-94521764D01*
X134988062Y-94389458D01*
X135016000Y-94249003D01*
X135016000Y-94105797D01*
X134988062Y-93965342D01*
X134933259Y-93833036D01*
X134853698Y-93713964D01*
X134813194Y-93673460D01*
X134861964Y-93653259D01*
X134981036Y-93573698D01*
X135082298Y-93472436D01*
X135100364Y-93445397D01*
X164600800Y-93445397D01*
X164600800Y-93588603D01*
X164628738Y-93729058D01*
X164683541Y-93861364D01*
X164763102Y-93980436D01*
X164864364Y-94081698D01*
X164983436Y-94161259D01*
X165115742Y-94216062D01*
X165256197Y-94244000D01*
X165399403Y-94244000D01*
X165539858Y-94216062D01*
X165672164Y-94161259D01*
X165791236Y-94081698D01*
X165892498Y-93980436D01*
X165972059Y-93861364D01*
X166026862Y-93729058D01*
X166054800Y-93588603D01*
X166054800Y-93445397D01*
X166026862Y-93304942D01*
X165972059Y-93172636D01*
X165892498Y-93053564D01*
X165791236Y-92952302D01*
X165672164Y-92872741D01*
X165539858Y-92817938D01*
X165399403Y-92790000D01*
X165256197Y-92790000D01*
X165115742Y-92817938D01*
X164983436Y-92872741D01*
X164864364Y-92952302D01*
X164763102Y-93053564D01*
X164683541Y-93172636D01*
X164628738Y-93304942D01*
X164600800Y-93445397D01*
X135100364Y-93445397D01*
X135161859Y-93353364D01*
X135216662Y-93221058D01*
X135244600Y-93080603D01*
X135244600Y-92937397D01*
X135216662Y-92796942D01*
X135161859Y-92664636D01*
X135082298Y-92545564D01*
X134981036Y-92444302D01*
X134861964Y-92364741D01*
X134729658Y-92309938D01*
X134589203Y-92282000D01*
X134445997Y-92282000D01*
X134305542Y-92309938D01*
X134173236Y-92364741D01*
X134054164Y-92444302D01*
X133952902Y-92545564D01*
X133873341Y-92664636D01*
X133818538Y-92796942D01*
X133790600Y-92937397D01*
X133790600Y-93080603D01*
X133818538Y-93221058D01*
X133873341Y-93353364D01*
X133952902Y-93472436D01*
X133993406Y-93512940D01*
X133944636Y-93533141D01*
X133825564Y-93612702D01*
X133724302Y-93713964D01*
X133644741Y-93833036D01*
X133589938Y-93965342D01*
X133562000Y-94105797D01*
X109674780Y-94105797D01*
X109681476Y-94093110D01*
X109636825Y-93945901D01*
X109511641Y-93683080D01*
X109337588Y-93449731D01*
X109121355Y-93254822D01*
X108871252Y-93105843D01*
X108822592Y-93088582D01*
X109090000Y-93088582D01*
X109154103Y-93082268D01*
X109215743Y-93063570D01*
X109272550Y-93033206D01*
X109322343Y-92992343D01*
X109363206Y-92942550D01*
X109393570Y-92885743D01*
X109412268Y-92824103D01*
X109418582Y-92760000D01*
X109418582Y-92556397D01*
X120608000Y-92556397D01*
X120608000Y-92699603D01*
X120635938Y-92840058D01*
X120690741Y-92972364D01*
X120770302Y-93091436D01*
X120871564Y-93192698D01*
X120990636Y-93272259D01*
X121122942Y-93327062D01*
X121263397Y-93355000D01*
X121406603Y-93355000D01*
X121547058Y-93327062D01*
X121679364Y-93272259D01*
X121798436Y-93192698D01*
X121899698Y-93091436D01*
X121979259Y-92972364D01*
X122034062Y-92840058D01*
X122062000Y-92699603D01*
X122062000Y-92556397D01*
X122034062Y-92415942D01*
X121979259Y-92283636D01*
X121899698Y-92164564D01*
X121798436Y-92063302D01*
X121695152Y-91994290D01*
X145077624Y-91994290D01*
X145122275Y-92141499D01*
X145247459Y-92404320D01*
X145421512Y-92637669D01*
X145637745Y-92832578D01*
X145887848Y-92981557D01*
X146162209Y-93078881D01*
X146392100Y-92958214D01*
X146392100Y-91764400D01*
X146646100Y-91764400D01*
X146646100Y-92958214D01*
X146875991Y-93078881D01*
X147150352Y-92981557D01*
X147400455Y-92832578D01*
X147616688Y-92637669D01*
X147790741Y-92404320D01*
X147915925Y-92141499D01*
X147960576Y-91994290D01*
X147938194Y-91951877D01*
X164219800Y-91951877D01*
X164219800Y-92095083D01*
X164247738Y-92235538D01*
X164302541Y-92367844D01*
X164382102Y-92486916D01*
X164483364Y-92588178D01*
X164602436Y-92667739D01*
X164734742Y-92722542D01*
X164875197Y-92750480D01*
X165018403Y-92750480D01*
X165158858Y-92722542D01*
X165291164Y-92667739D01*
X165410236Y-92588178D01*
X165511498Y-92486916D01*
X165591059Y-92367844D01*
X165645862Y-92235538D01*
X165673800Y-92095083D01*
X165673800Y-91951877D01*
X165645862Y-91811422D01*
X165591059Y-91679116D01*
X165511498Y-91560044D01*
X165410236Y-91458782D01*
X165291164Y-91379221D01*
X165158858Y-91324418D01*
X165018403Y-91296480D01*
X164875197Y-91296480D01*
X164734742Y-91324418D01*
X164602436Y-91379221D01*
X164483364Y-91458782D01*
X164382102Y-91560044D01*
X164302541Y-91679116D01*
X164247738Y-91811422D01*
X164219800Y-91951877D01*
X147938194Y-91951877D01*
X147839255Y-91764400D01*
X146646100Y-91764400D01*
X146392100Y-91764400D01*
X145198945Y-91764400D01*
X145077624Y-91994290D01*
X121695152Y-91994290D01*
X121679364Y-91983741D01*
X121547058Y-91928938D01*
X121406603Y-91901000D01*
X121263397Y-91901000D01*
X121122942Y-91928938D01*
X120990636Y-91983741D01*
X120871564Y-92063302D01*
X120770302Y-92164564D01*
X120690741Y-92283636D01*
X120635938Y-92415942D01*
X120608000Y-92556397D01*
X109418582Y-92556397D01*
X109418582Y-91718197D01*
X118982400Y-91718197D01*
X118982400Y-91861403D01*
X119010338Y-92001858D01*
X119065141Y-92134164D01*
X119144702Y-92253236D01*
X119245964Y-92354498D01*
X119365036Y-92434059D01*
X119497342Y-92488862D01*
X119637797Y-92516800D01*
X119781003Y-92516800D01*
X119921458Y-92488862D01*
X120053764Y-92434059D01*
X120172836Y-92354498D01*
X120274098Y-92253236D01*
X120353659Y-92134164D01*
X120408462Y-92001858D01*
X120436400Y-91861403D01*
X120436400Y-91718197D01*
X120408462Y-91577742D01*
X120353659Y-91445436D01*
X120274098Y-91326364D01*
X120228244Y-91280510D01*
X145077624Y-91280510D01*
X145198945Y-91510400D01*
X146392100Y-91510400D01*
X146392100Y-91490400D01*
X146646100Y-91490400D01*
X146646100Y-91510400D01*
X147839255Y-91510400D01*
X147960576Y-91280510D01*
X147915925Y-91133301D01*
X147790741Y-90870480D01*
X147616688Y-90637131D01*
X147400455Y-90442222D01*
X147150352Y-90293243D01*
X147101692Y-90275982D01*
X147369100Y-90275982D01*
X147433203Y-90269668D01*
X147494843Y-90250970D01*
X147551650Y-90220606D01*
X147601443Y-90179743D01*
X147642306Y-90129950D01*
X147672670Y-90073143D01*
X147691368Y-90011503D01*
X147697682Y-89947400D01*
X147697682Y-88502557D01*
X164204560Y-88502557D01*
X164204560Y-88645763D01*
X164232498Y-88786218D01*
X164287301Y-88918524D01*
X164366862Y-89037596D01*
X164468124Y-89138858D01*
X164587196Y-89218419D01*
X164719502Y-89273222D01*
X164859957Y-89301160D01*
X165003163Y-89301160D01*
X165143618Y-89273222D01*
X165275924Y-89218419D01*
X165394996Y-89138858D01*
X165496258Y-89037596D01*
X165575819Y-88918524D01*
X165630622Y-88786218D01*
X165658560Y-88645763D01*
X165658560Y-88502557D01*
X165630622Y-88362102D01*
X165575819Y-88229796D01*
X165496258Y-88110724D01*
X165394996Y-88009462D01*
X165275924Y-87929901D01*
X165143618Y-87875098D01*
X165003163Y-87847160D01*
X164859957Y-87847160D01*
X164719502Y-87875098D01*
X164587196Y-87929901D01*
X164468124Y-88009462D01*
X164366862Y-88110724D01*
X164287301Y-88229796D01*
X164232498Y-88362102D01*
X164204560Y-88502557D01*
X147697682Y-88502557D01*
X147697682Y-88247400D01*
X147691368Y-88183297D01*
X147672670Y-88121657D01*
X147642306Y-88064850D01*
X147601443Y-88015057D01*
X147551650Y-87974194D01*
X147494843Y-87943830D01*
X147433203Y-87925132D01*
X147369100Y-87918818D01*
X145669100Y-87918818D01*
X145604997Y-87925132D01*
X145543357Y-87943830D01*
X145486550Y-87974194D01*
X145436757Y-88015057D01*
X145395894Y-88064850D01*
X145365530Y-88121657D01*
X145346832Y-88183297D01*
X145340518Y-88247400D01*
X145340518Y-89947400D01*
X145346832Y-90011503D01*
X145365530Y-90073143D01*
X145395894Y-90129950D01*
X145436757Y-90179743D01*
X145486550Y-90220606D01*
X145543357Y-90250970D01*
X145604997Y-90269668D01*
X145669100Y-90275982D01*
X145936508Y-90275982D01*
X145887848Y-90293243D01*
X145637745Y-90442222D01*
X145421512Y-90637131D01*
X145247459Y-90870480D01*
X145122275Y-91133301D01*
X145077624Y-91280510D01*
X120228244Y-91280510D01*
X120172836Y-91225102D01*
X120053764Y-91145541D01*
X119921458Y-91090738D01*
X119781003Y-91062800D01*
X119637797Y-91062800D01*
X119497342Y-91090738D01*
X119365036Y-91145541D01*
X119245964Y-91225102D01*
X119144702Y-91326364D01*
X119065141Y-91445436D01*
X119010338Y-91577742D01*
X118982400Y-91718197D01*
X109418582Y-91718197D01*
X109418582Y-91060000D01*
X109412268Y-90995897D01*
X109393570Y-90934257D01*
X109363206Y-90877450D01*
X109322343Y-90827657D01*
X109272550Y-90786794D01*
X109215743Y-90756430D01*
X109154103Y-90737732D01*
X109090000Y-90731418D01*
X107390000Y-90731418D01*
X107325897Y-90737732D01*
X107264257Y-90756430D01*
X107207450Y-90786794D01*
X107157657Y-90827657D01*
X107116794Y-90877450D01*
X107086430Y-90934257D01*
X107067732Y-90995897D01*
X107061418Y-91060000D01*
X107061418Y-92760000D01*
X107067732Y-92824103D01*
X107086430Y-92885743D01*
X107116794Y-92942550D01*
X107157657Y-92992343D01*
X107207450Y-93033206D01*
X107264257Y-93063570D01*
X107325897Y-93082268D01*
X107390000Y-93088582D01*
X107657408Y-93088582D01*
X107608748Y-93105843D01*
X107358645Y-93254822D01*
X107142412Y-93449731D01*
X106968359Y-93683080D01*
X106843175Y-93945901D01*
X106798524Y-94093110D01*
X96026942Y-94093110D01*
X95949164Y-94041141D01*
X95816858Y-93986338D01*
X95676403Y-93958400D01*
X95533197Y-93958400D01*
X95392742Y-93986338D01*
X95260436Y-94041141D01*
X95141364Y-94120702D01*
X95040102Y-94221964D01*
X94960541Y-94341036D01*
X94905738Y-94473342D01*
X94877800Y-94613797D01*
X92865964Y-94613797D01*
X92867793Y-89766890D01*
X112048524Y-89766890D01*
X112093175Y-89914099D01*
X112218359Y-90176920D01*
X112392412Y-90410269D01*
X112608645Y-90605178D01*
X112858748Y-90754157D01*
X113133109Y-90851481D01*
X113363000Y-90730814D01*
X113363000Y-89537000D01*
X113617000Y-89537000D01*
X113617000Y-90730814D01*
X113846891Y-90851481D01*
X114121252Y-90754157D01*
X114371355Y-90605178D01*
X114587588Y-90410269D01*
X114741175Y-90204357D01*
X133531520Y-90204357D01*
X133531520Y-90347563D01*
X133559458Y-90488018D01*
X133614261Y-90620324D01*
X133693822Y-90739396D01*
X133795084Y-90840658D01*
X133914156Y-90920219D01*
X134046462Y-90975022D01*
X134186917Y-91002960D01*
X134330123Y-91002960D01*
X134470578Y-90975022D01*
X134602884Y-90920219D01*
X134721956Y-90840658D01*
X134823218Y-90739396D01*
X134902779Y-90620324D01*
X134957582Y-90488018D01*
X134985520Y-90347563D01*
X134985520Y-90204357D01*
X134957582Y-90063902D01*
X134902779Y-89931596D01*
X134823218Y-89812524D01*
X134721956Y-89711262D01*
X134602884Y-89631701D01*
X134470578Y-89576898D01*
X134330123Y-89548960D01*
X134186917Y-89548960D01*
X134046462Y-89576898D01*
X133914156Y-89631701D01*
X133795084Y-89711262D01*
X133693822Y-89812524D01*
X133614261Y-89931596D01*
X133559458Y-90063902D01*
X133531520Y-90204357D01*
X114741175Y-90204357D01*
X114761641Y-90176920D01*
X114886825Y-89914099D01*
X114931476Y-89766890D01*
X114810155Y-89537000D01*
X113617000Y-89537000D01*
X113363000Y-89537000D01*
X112169845Y-89537000D01*
X112048524Y-89766890D01*
X92867793Y-89766890D01*
X92868437Y-88061879D01*
X97708000Y-88061879D01*
X97708000Y-88268121D01*
X97748236Y-88470399D01*
X97827161Y-88660940D01*
X97941742Y-88832424D01*
X98087576Y-88978258D01*
X98259060Y-89092839D01*
X98449601Y-89171764D01*
X98651879Y-89212000D01*
X98858121Y-89212000D01*
X99060399Y-89171764D01*
X99250940Y-89092839D01*
X99310399Y-89053110D01*
X112048524Y-89053110D01*
X112169845Y-89283000D01*
X113363000Y-89283000D01*
X113363000Y-89263000D01*
X113617000Y-89263000D01*
X113617000Y-89283000D01*
X114810155Y-89283000D01*
X114931476Y-89053110D01*
X114886825Y-88905901D01*
X114847148Y-88822599D01*
X128837600Y-88822599D01*
X128837600Y-88965805D01*
X128865538Y-89106260D01*
X128920341Y-89238566D01*
X128999902Y-89357638D01*
X129101164Y-89458900D01*
X129220236Y-89538461D01*
X129352542Y-89593264D01*
X129492997Y-89621202D01*
X129636203Y-89621202D01*
X129776658Y-89593264D01*
X129908964Y-89538461D01*
X130028036Y-89458900D01*
X130129298Y-89357638D01*
X130208859Y-89238566D01*
X130263662Y-89106260D01*
X130291600Y-88965805D01*
X130291600Y-88822599D01*
X130263662Y-88682144D01*
X130208859Y-88549838D01*
X130129298Y-88430766D01*
X130028036Y-88329504D01*
X129908964Y-88249943D01*
X129776658Y-88195140D01*
X129636203Y-88167202D01*
X129492997Y-88167202D01*
X129352542Y-88195140D01*
X129220236Y-88249943D01*
X129101164Y-88329504D01*
X128999902Y-88430766D01*
X128920341Y-88549838D01*
X128865538Y-88682144D01*
X128837600Y-88822599D01*
X114847148Y-88822599D01*
X114761641Y-88643080D01*
X114587588Y-88409731D01*
X114371355Y-88214822D01*
X114121252Y-88065843D01*
X114072592Y-88048582D01*
X114340000Y-88048582D01*
X114404103Y-88042268D01*
X114465743Y-88023570D01*
X114522550Y-87993206D01*
X114572343Y-87952343D01*
X114613206Y-87902550D01*
X114643570Y-87845743D01*
X114662268Y-87784103D01*
X114668582Y-87720000D01*
X114668582Y-87006497D01*
X157857100Y-87006497D01*
X157857100Y-87149703D01*
X157885038Y-87290158D01*
X157939841Y-87422464D01*
X158019402Y-87541536D01*
X158120664Y-87642798D01*
X158239736Y-87722359D01*
X158372042Y-87777162D01*
X158512497Y-87805100D01*
X158655703Y-87805100D01*
X158796158Y-87777162D01*
X158928464Y-87722359D01*
X159047536Y-87642798D01*
X159148798Y-87541536D01*
X159228359Y-87422464D01*
X159283162Y-87290158D01*
X159311100Y-87149703D01*
X159311100Y-87006497D01*
X159302512Y-86963317D01*
X168842600Y-86963317D01*
X168842600Y-87106523D01*
X168870538Y-87246978D01*
X168925341Y-87379284D01*
X169004902Y-87498356D01*
X169106164Y-87599618D01*
X169225236Y-87679179D01*
X169357542Y-87733982D01*
X169497997Y-87761920D01*
X169641203Y-87761920D01*
X169781658Y-87733982D01*
X169913964Y-87679179D01*
X170033036Y-87599618D01*
X170134298Y-87498356D01*
X170213859Y-87379284D01*
X170268662Y-87246978D01*
X170296600Y-87106523D01*
X170296600Y-86963317D01*
X170268662Y-86822862D01*
X170213859Y-86690556D01*
X170134298Y-86571484D01*
X170033036Y-86470222D01*
X169913964Y-86390661D01*
X169781658Y-86335858D01*
X169641203Y-86307920D01*
X169497997Y-86307920D01*
X169357542Y-86335858D01*
X169225236Y-86390661D01*
X169106164Y-86470222D01*
X169004902Y-86571484D01*
X168925341Y-86690556D01*
X168870538Y-86822862D01*
X168842600Y-86963317D01*
X159302512Y-86963317D01*
X159283162Y-86866042D01*
X159228359Y-86733736D01*
X159148798Y-86614664D01*
X159047536Y-86513402D01*
X158928464Y-86433841D01*
X158796158Y-86379038D01*
X158655703Y-86351100D01*
X158512497Y-86351100D01*
X158372042Y-86379038D01*
X158239736Y-86433841D01*
X158120664Y-86513402D01*
X158019402Y-86614664D01*
X157939841Y-86733736D01*
X157885038Y-86866042D01*
X157857100Y-87006497D01*
X114668582Y-87006497D01*
X114668582Y-86020000D01*
X114662268Y-85955897D01*
X114643570Y-85894257D01*
X114613206Y-85837450D01*
X114572343Y-85787657D01*
X114522550Y-85746794D01*
X114465743Y-85716430D01*
X114404103Y-85697732D01*
X114340000Y-85691418D01*
X112640000Y-85691418D01*
X112575897Y-85697732D01*
X112514257Y-85716430D01*
X112457450Y-85746794D01*
X112407657Y-85787657D01*
X112366794Y-85837450D01*
X112336430Y-85894257D01*
X112317732Y-85955897D01*
X112311418Y-86020000D01*
X112311418Y-87720000D01*
X112317732Y-87784103D01*
X112336430Y-87845743D01*
X112366794Y-87902550D01*
X112407657Y-87952343D01*
X112457450Y-87993206D01*
X112514257Y-88023570D01*
X112575897Y-88042268D01*
X112640000Y-88048582D01*
X112907408Y-88048582D01*
X112858748Y-88065843D01*
X112608645Y-88214822D01*
X112392412Y-88409731D01*
X112218359Y-88643080D01*
X112093175Y-88905901D01*
X112048524Y-89053110D01*
X99310399Y-89053110D01*
X99422424Y-88978258D01*
X99568258Y-88832424D01*
X99682839Y-88660940D01*
X99761764Y-88470399D01*
X99802000Y-88268121D01*
X99802000Y-88061879D01*
X99761764Y-87859601D01*
X99682839Y-87669060D01*
X99568258Y-87497576D01*
X99422424Y-87351742D01*
X99250940Y-87237161D01*
X99060399Y-87158236D01*
X98858121Y-87118000D01*
X98651879Y-87118000D01*
X98449601Y-87158236D01*
X98259060Y-87237161D01*
X98087576Y-87351742D01*
X97941742Y-87497576D01*
X97827161Y-87669060D01*
X97748236Y-87859601D01*
X97708000Y-88061879D01*
X92868437Y-88061879D01*
X92869350Y-85642517D01*
X148451480Y-85642517D01*
X148451480Y-85785723D01*
X148479418Y-85926178D01*
X148534221Y-86058484D01*
X148613782Y-86177556D01*
X148715044Y-86278818D01*
X148834116Y-86358379D01*
X148966422Y-86413182D01*
X149106877Y-86441120D01*
X149250083Y-86441120D01*
X149390538Y-86413182D01*
X149522844Y-86358379D01*
X149641916Y-86278818D01*
X149743178Y-86177556D01*
X149822739Y-86058484D01*
X149877542Y-85926178D01*
X149905480Y-85785723D01*
X149905480Y-85642517D01*
X149877542Y-85502062D01*
X149822739Y-85369756D01*
X149743178Y-85250684D01*
X149657491Y-85164997D01*
X163188560Y-85164997D01*
X163188560Y-85308203D01*
X163216498Y-85448658D01*
X163271301Y-85580964D01*
X163350862Y-85700036D01*
X163452124Y-85801298D01*
X163571196Y-85880859D01*
X163703502Y-85935662D01*
X163843957Y-85963600D01*
X163987163Y-85963600D01*
X164127618Y-85935662D01*
X164259924Y-85880859D01*
X164378996Y-85801298D01*
X164480258Y-85700036D01*
X164559819Y-85580964D01*
X164614622Y-85448658D01*
X164642560Y-85308203D01*
X164642560Y-85164997D01*
X164614622Y-85024542D01*
X164559819Y-84892236D01*
X164480258Y-84773164D01*
X164378996Y-84671902D01*
X164259924Y-84592341D01*
X164127618Y-84537538D01*
X163987163Y-84509600D01*
X163843957Y-84509600D01*
X163703502Y-84537538D01*
X163571196Y-84592341D01*
X163452124Y-84671902D01*
X163350862Y-84773164D01*
X163271301Y-84892236D01*
X163216498Y-85024542D01*
X163188560Y-85164997D01*
X149657491Y-85164997D01*
X149641916Y-85149422D01*
X149522844Y-85069861D01*
X149390538Y-85015058D01*
X149250083Y-84987120D01*
X149106877Y-84987120D01*
X148966422Y-85015058D01*
X148834116Y-85069861D01*
X148715044Y-85149422D01*
X148613782Y-85250684D01*
X148534221Y-85369756D01*
X148479418Y-85502062D01*
X148451480Y-85642517D01*
X92869350Y-85642517D01*
X92870355Y-82981879D01*
X95168000Y-82981879D01*
X95168000Y-83188121D01*
X95208236Y-83390399D01*
X95287161Y-83580940D01*
X95401742Y-83752424D01*
X95547576Y-83898258D01*
X95719060Y-84012839D01*
X95909601Y-84091764D01*
X96111879Y-84132000D01*
X96318121Y-84132000D01*
X96520399Y-84091764D01*
X96692299Y-84020560D01*
X100539045Y-84020560D01*
X100600932Y-84256368D01*
X100842790Y-84369266D01*
X101102027Y-84432811D01*
X101368680Y-84444561D01*
X101632501Y-84404063D01*
X101883353Y-84312875D01*
X101989068Y-84256368D01*
X102021246Y-84133757D01*
X123092120Y-84133757D01*
X123092120Y-84276963D01*
X123120058Y-84417418D01*
X123174861Y-84549724D01*
X123254422Y-84668796D01*
X123355684Y-84770058D01*
X123474756Y-84849619D01*
X123607062Y-84904422D01*
X123747517Y-84932360D01*
X123890723Y-84932360D01*
X124031178Y-84904422D01*
X124163484Y-84849619D01*
X124223680Y-84809397D01*
X145860680Y-84809397D01*
X145860680Y-84952603D01*
X145888618Y-85093058D01*
X145943421Y-85225364D01*
X146022982Y-85344436D01*
X146124244Y-85445698D01*
X146243316Y-85525259D01*
X146375622Y-85580062D01*
X146516077Y-85608000D01*
X146659283Y-85608000D01*
X146799738Y-85580062D01*
X146932044Y-85525259D01*
X147051116Y-85445698D01*
X147152378Y-85344436D01*
X147231939Y-85225364D01*
X147286742Y-85093058D01*
X147314680Y-84952603D01*
X147314680Y-84809397D01*
X147286742Y-84668942D01*
X147231939Y-84536636D01*
X147152378Y-84417564D01*
X147051116Y-84316302D01*
X146932044Y-84236741D01*
X146799738Y-84181938D01*
X146659283Y-84154000D01*
X146516077Y-84154000D01*
X146375622Y-84181938D01*
X146243316Y-84236741D01*
X146124244Y-84316302D01*
X146022982Y-84417564D01*
X145943421Y-84536636D01*
X145888618Y-84668942D01*
X145860680Y-84809397D01*
X124223680Y-84809397D01*
X124282556Y-84770058D01*
X124383818Y-84668796D01*
X124463379Y-84549724D01*
X124518182Y-84417418D01*
X124546120Y-84276963D01*
X124546120Y-84133757D01*
X124518182Y-83993302D01*
X124463379Y-83860996D01*
X124383818Y-83741924D01*
X124282556Y-83640662D01*
X124163484Y-83561101D01*
X124031178Y-83506298D01*
X123890723Y-83478360D01*
X123747517Y-83478360D01*
X123607062Y-83506298D01*
X123474756Y-83561101D01*
X123355684Y-83640662D01*
X123254422Y-83741924D01*
X123174861Y-83860996D01*
X123120058Y-83993302D01*
X123092120Y-84133757D01*
X102021246Y-84133757D01*
X102050955Y-84020560D01*
X101295000Y-83264605D01*
X100539045Y-84020560D01*
X96692299Y-84020560D01*
X96710940Y-84012839D01*
X96882424Y-83898258D01*
X97028258Y-83752424D01*
X97142839Y-83580940D01*
X97221764Y-83390399D01*
X97262000Y-83188121D01*
X97262000Y-83158680D01*
X99935439Y-83158680D01*
X99975937Y-83422501D01*
X100067125Y-83673353D01*
X100123632Y-83779068D01*
X100359440Y-83840955D01*
X101115395Y-83085000D01*
X101474605Y-83085000D01*
X102230560Y-83840955D01*
X102466368Y-83779068D01*
X102579266Y-83537210D01*
X102642811Y-83277973D01*
X102651715Y-83075897D01*
X146242900Y-83075897D01*
X146242900Y-83219103D01*
X146270838Y-83359558D01*
X146325641Y-83491864D01*
X146405202Y-83610936D01*
X146506464Y-83712198D01*
X146625536Y-83791759D01*
X146757842Y-83846562D01*
X146898297Y-83874500D01*
X147041503Y-83874500D01*
X147181958Y-83846562D01*
X147314264Y-83791759D01*
X147433336Y-83712198D01*
X147534598Y-83610936D01*
X147566800Y-83562742D01*
X147599002Y-83610936D01*
X147700264Y-83712198D01*
X147819336Y-83791759D01*
X147951642Y-83846562D01*
X148092097Y-83874500D01*
X148235303Y-83874500D01*
X148375758Y-83846562D01*
X148508064Y-83791759D01*
X148627136Y-83712198D01*
X148728398Y-83610936D01*
X148807959Y-83491864D01*
X148862762Y-83359558D01*
X148890700Y-83219103D01*
X148890700Y-83075897D01*
X148862762Y-82935442D01*
X148807959Y-82803136D01*
X148728398Y-82684064D01*
X148627136Y-82582802D01*
X148508064Y-82503241D01*
X148375758Y-82448438D01*
X148235303Y-82420500D01*
X148092097Y-82420500D01*
X147951642Y-82448438D01*
X147819336Y-82503241D01*
X147700264Y-82582802D01*
X147599002Y-82684064D01*
X147566800Y-82732258D01*
X147534598Y-82684064D01*
X147433336Y-82582802D01*
X147314264Y-82503241D01*
X147181958Y-82448438D01*
X147041503Y-82420500D01*
X146898297Y-82420500D01*
X146757842Y-82448438D01*
X146625536Y-82503241D01*
X146506464Y-82582802D01*
X146405202Y-82684064D01*
X146325641Y-82803136D01*
X146270838Y-82935442D01*
X146242900Y-83075897D01*
X102651715Y-83075897D01*
X102654561Y-83011320D01*
X102614063Y-82747499D01*
X102522875Y-82496647D01*
X102466368Y-82390932D01*
X102230560Y-82329045D01*
X101474605Y-83085000D01*
X101115395Y-83085000D01*
X100359440Y-82329045D01*
X100123632Y-82390932D01*
X100010734Y-82632790D01*
X99947189Y-82892027D01*
X99935439Y-83158680D01*
X97262000Y-83158680D01*
X97262000Y-82981879D01*
X97221764Y-82779601D01*
X97142839Y-82589060D01*
X97028258Y-82417576D01*
X96882424Y-82271742D01*
X96710940Y-82157161D01*
X96692300Y-82149440D01*
X100539045Y-82149440D01*
X101295000Y-82905395D01*
X102050955Y-82149440D01*
X101989068Y-81913632D01*
X101747210Y-81800734D01*
X101487973Y-81737189D01*
X101221320Y-81725439D01*
X100957499Y-81765937D01*
X100706647Y-81857125D01*
X100600932Y-81913632D01*
X100539045Y-82149440D01*
X96692300Y-82149440D01*
X96520399Y-82078236D01*
X96318121Y-82038000D01*
X96111879Y-82038000D01*
X95909601Y-82078236D01*
X95719060Y-82157161D01*
X95547576Y-82271742D01*
X95401742Y-82417576D01*
X95287161Y-82589060D01*
X95208236Y-82779601D01*
X95168000Y-82981879D01*
X92870355Y-82981879D01*
X92870901Y-81532797D01*
X114867600Y-81532797D01*
X114867600Y-81676003D01*
X114895538Y-81816458D01*
X114950341Y-81948764D01*
X115029902Y-82067836D01*
X115131164Y-82169098D01*
X115250236Y-82248659D01*
X115382542Y-82303462D01*
X115522997Y-82331400D01*
X115666203Y-82331400D01*
X115806658Y-82303462D01*
X115938964Y-82248659D01*
X116058036Y-82169098D01*
X116159298Y-82067836D01*
X116238859Y-81948764D01*
X116293662Y-81816458D01*
X116321600Y-81676003D01*
X116321600Y-81532797D01*
X116293662Y-81392342D01*
X116238859Y-81260036D01*
X116159298Y-81140964D01*
X116058036Y-81039702D01*
X115938964Y-80960141D01*
X115806658Y-80905338D01*
X115666203Y-80877400D01*
X115522997Y-80877400D01*
X115382542Y-80905338D01*
X115250236Y-80960141D01*
X115131164Y-81039702D01*
X115029902Y-81140964D01*
X114950341Y-81260036D01*
X114895538Y-81392342D01*
X114867600Y-81532797D01*
X92870901Y-81532797D01*
X92872057Y-78472097D01*
X96986000Y-78472097D01*
X96986000Y-78615303D01*
X97013938Y-78755758D01*
X97068741Y-78888064D01*
X97148302Y-79007136D01*
X97249564Y-79108398D01*
X97368636Y-79187959D01*
X97500942Y-79242762D01*
X97641397Y-79270700D01*
X97784603Y-79270700D01*
X97925058Y-79242762D01*
X98057364Y-79187959D01*
X98083348Y-79170597D01*
X103082000Y-79170597D01*
X103082000Y-79313803D01*
X103109938Y-79454258D01*
X103164741Y-79586564D01*
X103244302Y-79705636D01*
X103345564Y-79806898D01*
X103464636Y-79886459D01*
X103596942Y-79941262D01*
X103737397Y-79969200D01*
X103880603Y-79969200D01*
X104021058Y-79941262D01*
X104136025Y-79893641D01*
X104057102Y-79972564D01*
X103977541Y-80091636D01*
X103922738Y-80223942D01*
X103894800Y-80364397D01*
X103894800Y-80507603D01*
X103922738Y-80648058D01*
X103977541Y-80780364D01*
X104057102Y-80899436D01*
X104158364Y-81000698D01*
X104277436Y-81080259D01*
X104409742Y-81135062D01*
X104550197Y-81163000D01*
X104693403Y-81163000D01*
X104833858Y-81135062D01*
X104966164Y-81080259D01*
X105085236Y-81000698D01*
X105186498Y-80899436D01*
X105266059Y-80780364D01*
X105320862Y-80648058D01*
X105348800Y-80507603D01*
X105348800Y-80364397D01*
X105320862Y-80223942D01*
X105266059Y-80091636D01*
X105186498Y-79972564D01*
X105085236Y-79871302D01*
X104966164Y-79791741D01*
X104833858Y-79736938D01*
X104693403Y-79709000D01*
X104550197Y-79709000D01*
X104409742Y-79736938D01*
X104294775Y-79784559D01*
X104373698Y-79705636D01*
X104453259Y-79586564D01*
X104508062Y-79454258D01*
X104536000Y-79313803D01*
X104536000Y-79170597D01*
X104508062Y-79030142D01*
X104453259Y-78897836D01*
X104373698Y-78778764D01*
X104272436Y-78677502D01*
X104153364Y-78597941D01*
X104021058Y-78543138D01*
X103880603Y-78515200D01*
X103737397Y-78515200D01*
X103596942Y-78543138D01*
X103464636Y-78597941D01*
X103345564Y-78677502D01*
X103244302Y-78778764D01*
X103164741Y-78897836D01*
X103109938Y-79030142D01*
X103082000Y-79170597D01*
X98083348Y-79170597D01*
X98176436Y-79108398D01*
X98277698Y-79007136D01*
X98357259Y-78888064D01*
X98412062Y-78755758D01*
X98440000Y-78615303D01*
X98440000Y-78472097D01*
X98417265Y-78357797D01*
X130234600Y-78357797D01*
X130234600Y-78501003D01*
X130262538Y-78641458D01*
X130317341Y-78773764D01*
X130396902Y-78892836D01*
X130498164Y-78994098D01*
X130617236Y-79073659D01*
X130749542Y-79128462D01*
X130889997Y-79156400D01*
X131033203Y-79156400D01*
X131173658Y-79128462D01*
X131305964Y-79073659D01*
X131425036Y-78994098D01*
X131526298Y-78892836D01*
X131605859Y-78773764D01*
X131660662Y-78641458D01*
X131688600Y-78501003D01*
X131688600Y-78357797D01*
X131660662Y-78217342D01*
X131605859Y-78085036D01*
X131526298Y-77965964D01*
X131425036Y-77864702D01*
X131305964Y-77785141D01*
X131173658Y-77730338D01*
X131033203Y-77702400D01*
X130889997Y-77702400D01*
X130749542Y-77730338D01*
X130617236Y-77785141D01*
X130498164Y-77864702D01*
X130396902Y-77965964D01*
X130317341Y-78085036D01*
X130262538Y-78217342D01*
X130234600Y-78357797D01*
X98417265Y-78357797D01*
X98412062Y-78331642D01*
X98357259Y-78199336D01*
X98277698Y-78080264D01*
X98176436Y-77979002D01*
X98057364Y-77899441D01*
X97925058Y-77844638D01*
X97784603Y-77816700D01*
X97641397Y-77816700D01*
X97500942Y-77844638D01*
X97368636Y-77899441D01*
X97249564Y-77979002D01*
X97148302Y-78080264D01*
X97068741Y-78199336D01*
X97013938Y-78331642D01*
X96986000Y-78472097D01*
X92872057Y-78472097D01*
X92872925Y-76173397D01*
X117839400Y-76173397D01*
X117839400Y-76316603D01*
X117867338Y-76457058D01*
X117922141Y-76589364D01*
X118001702Y-76708436D01*
X118102964Y-76809698D01*
X118222036Y-76889259D01*
X118354342Y-76944062D01*
X118494797Y-76972000D01*
X118638003Y-76972000D01*
X118778458Y-76944062D01*
X118910764Y-76889259D01*
X119029836Y-76809698D01*
X119131098Y-76708436D01*
X119210659Y-76589364D01*
X119265462Y-76457058D01*
X119293400Y-76316603D01*
X119293400Y-76173397D01*
X119265462Y-76032942D01*
X119210659Y-75900636D01*
X119131098Y-75781564D01*
X119029836Y-75680302D01*
X118910764Y-75600741D01*
X118778458Y-75545938D01*
X118638003Y-75518000D01*
X118494797Y-75518000D01*
X118354342Y-75545938D01*
X118222036Y-75600741D01*
X118102964Y-75680302D01*
X118001702Y-75781564D01*
X117922141Y-75900636D01*
X117867338Y-76032942D01*
X117839400Y-76173397D01*
X92872925Y-76173397D01*
X92873932Y-73506712D01*
X96212893Y-73506712D01*
X96320726Y-73781338D01*
X96627384Y-73932216D01*
X96957585Y-74020369D01*
X97298639Y-74042409D01*
X97637439Y-73997489D01*
X97960966Y-73887336D01*
X98159274Y-73781338D01*
X98197416Y-73684197D01*
X108949400Y-73684197D01*
X108949400Y-73827403D01*
X108977338Y-73967858D01*
X109032141Y-74100164D01*
X109111702Y-74219236D01*
X109212964Y-74320498D01*
X109280165Y-74365400D01*
X109212964Y-74410302D01*
X109111702Y-74511564D01*
X109032141Y-74630636D01*
X108977338Y-74762942D01*
X108949400Y-74903397D01*
X108949400Y-75046603D01*
X108977338Y-75187058D01*
X109032141Y-75319364D01*
X109111702Y-75438436D01*
X109212964Y-75539698D01*
X109332036Y-75619259D01*
X109464342Y-75674062D01*
X109604797Y-75702000D01*
X109748003Y-75702000D01*
X109888458Y-75674062D01*
X110020764Y-75619259D01*
X110139836Y-75539698D01*
X110241098Y-75438436D01*
X110293108Y-75360597D01*
X152739000Y-75360597D01*
X152739000Y-75503803D01*
X152766938Y-75644258D01*
X152821741Y-75776564D01*
X152901302Y-75895636D01*
X153002564Y-75996898D01*
X153121636Y-76076459D01*
X153253942Y-76131262D01*
X153394397Y-76159200D01*
X153537603Y-76159200D01*
X153678058Y-76131262D01*
X153810364Y-76076459D01*
X153929436Y-75996898D01*
X154030698Y-75895636D01*
X154110259Y-75776564D01*
X154165062Y-75644258D01*
X154193000Y-75503803D01*
X154193000Y-75360597D01*
X154165062Y-75220142D01*
X154110259Y-75087836D01*
X154030698Y-74968764D01*
X153929436Y-74867502D01*
X153810364Y-74787941D01*
X153678058Y-74733138D01*
X153537603Y-74705200D01*
X153394397Y-74705200D01*
X153253942Y-74733138D01*
X153121636Y-74787941D01*
X153002564Y-74867502D01*
X152901302Y-74968764D01*
X152821741Y-75087836D01*
X152766938Y-75220142D01*
X152739000Y-75360597D01*
X110293108Y-75360597D01*
X110320659Y-75319364D01*
X110375462Y-75187058D01*
X110403400Y-75046603D01*
X110403400Y-74903397D01*
X110375462Y-74762942D01*
X110320659Y-74630636D01*
X110241098Y-74511564D01*
X110139836Y-74410302D01*
X110072635Y-74365400D01*
X110139836Y-74320498D01*
X110241098Y-74219236D01*
X110320659Y-74100164D01*
X110375462Y-73967858D01*
X110403400Y-73827403D01*
X110403400Y-73684197D01*
X110375462Y-73543742D01*
X110320659Y-73411436D01*
X110241098Y-73292364D01*
X110139836Y-73191102D01*
X110020764Y-73111541D01*
X109888458Y-73056738D01*
X109748003Y-73028800D01*
X109604797Y-73028800D01*
X109464342Y-73056738D01*
X109332036Y-73111541D01*
X109212964Y-73191102D01*
X109111702Y-73292364D01*
X109032141Y-73411436D01*
X108977338Y-73543742D01*
X108949400Y-73684197D01*
X98197416Y-73684197D01*
X98267107Y-73506712D01*
X97240000Y-72479605D01*
X96212893Y-73506712D01*
X92873932Y-73506712D01*
X92874421Y-72213623D01*
X93823000Y-72213623D01*
X93823000Y-72386377D01*
X93856703Y-72555811D01*
X93922813Y-72715415D01*
X94018790Y-72859055D01*
X94140945Y-72981210D01*
X94284585Y-73077187D01*
X94444189Y-73143297D01*
X94613623Y-73177000D01*
X94786377Y-73177000D01*
X94955811Y-73143297D01*
X95115415Y-73077187D01*
X95259055Y-72981210D01*
X95381210Y-72859055D01*
X95477187Y-72715415D01*
X95528477Y-72591590D01*
X95542511Y-72697439D01*
X95652664Y-73020966D01*
X95758662Y-73219274D01*
X96033288Y-73327107D01*
X97060395Y-72300000D01*
X97046253Y-72285858D01*
X97225858Y-72106253D01*
X97240000Y-72120395D01*
X97254143Y-72106253D01*
X97433748Y-72285858D01*
X97419605Y-72300000D01*
X98446712Y-73327107D01*
X98721338Y-73219274D01*
X98872216Y-72912616D01*
X98930686Y-72693597D01*
X168039960Y-72693597D01*
X168039960Y-72836803D01*
X168067898Y-72977258D01*
X168122701Y-73109564D01*
X168202262Y-73228636D01*
X168303524Y-73329898D01*
X168422596Y-73409459D01*
X168554902Y-73464262D01*
X168695357Y-73492200D01*
X168838563Y-73492200D01*
X168979018Y-73464262D01*
X169111324Y-73409459D01*
X169230396Y-73329898D01*
X169331658Y-73228636D01*
X169411219Y-73109564D01*
X169466022Y-72977258D01*
X169493960Y-72836803D01*
X169493960Y-72693597D01*
X169490929Y-72678357D01*
X172276680Y-72678357D01*
X172276680Y-72821563D01*
X172304618Y-72962018D01*
X172359421Y-73094324D01*
X172438982Y-73213396D01*
X172540244Y-73314658D01*
X172659316Y-73394219D01*
X172791622Y-73449022D01*
X172932077Y-73476960D01*
X173075283Y-73476960D01*
X173215738Y-73449022D01*
X173348044Y-73394219D01*
X173467116Y-73314658D01*
X173568378Y-73213396D01*
X173647939Y-73094324D01*
X173702742Y-72962018D01*
X173730680Y-72821563D01*
X173730680Y-72678357D01*
X173702742Y-72537902D01*
X173647939Y-72405596D01*
X173568378Y-72286524D01*
X173467116Y-72185262D01*
X173348044Y-72105701D01*
X173215738Y-72050898D01*
X173075283Y-72022960D01*
X172932077Y-72022960D01*
X172791622Y-72050898D01*
X172659316Y-72105701D01*
X172540244Y-72185262D01*
X172438982Y-72286524D01*
X172359421Y-72405596D01*
X172304618Y-72537902D01*
X172276680Y-72678357D01*
X169490929Y-72678357D01*
X169466022Y-72553142D01*
X169411219Y-72420836D01*
X169331658Y-72301764D01*
X169230396Y-72200502D01*
X169111324Y-72120941D01*
X168979018Y-72066138D01*
X168838563Y-72038200D01*
X168695357Y-72038200D01*
X168554902Y-72066138D01*
X168422596Y-72120941D01*
X168303524Y-72200502D01*
X168202262Y-72301764D01*
X168122701Y-72420836D01*
X168067898Y-72553142D01*
X168039960Y-72693597D01*
X98930686Y-72693597D01*
X98960369Y-72582415D01*
X98982409Y-72241361D01*
X98937489Y-71902561D01*
X98827336Y-71579034D01*
X98721338Y-71380726D01*
X98446714Y-71272894D01*
X98562136Y-71157472D01*
X98530965Y-71126301D01*
X98572343Y-71092343D01*
X98613206Y-71042550D01*
X98643570Y-70985743D01*
X98662268Y-70924103D01*
X98668582Y-70860000D01*
X98668582Y-70102797D01*
X152739000Y-70102797D01*
X152739000Y-70246003D01*
X152766938Y-70386458D01*
X152821741Y-70518764D01*
X152901302Y-70637836D01*
X153002564Y-70739098D01*
X153121636Y-70818659D01*
X153191264Y-70847500D01*
X153121636Y-70876341D01*
X153002564Y-70955902D01*
X152901302Y-71057164D01*
X152821741Y-71176236D01*
X152766938Y-71308542D01*
X152739000Y-71448997D01*
X152739000Y-71592203D01*
X152766938Y-71732658D01*
X152821741Y-71864964D01*
X152901302Y-71984036D01*
X153002564Y-72085298D01*
X153121636Y-72164859D01*
X153253942Y-72219662D01*
X153394397Y-72247600D01*
X153537603Y-72247600D01*
X153678058Y-72219662D01*
X153810364Y-72164859D01*
X153929436Y-72085298D01*
X154030698Y-71984036D01*
X154110259Y-71864964D01*
X154165062Y-71732658D01*
X154193000Y-71592203D01*
X154193000Y-71448997D01*
X154165062Y-71308542D01*
X154110259Y-71176236D01*
X154030698Y-71057164D01*
X153929436Y-70955902D01*
X153810364Y-70876341D01*
X153740736Y-70847500D01*
X153810364Y-70818659D01*
X153929436Y-70739098D01*
X154030698Y-70637836D01*
X154110259Y-70518764D01*
X154165062Y-70386458D01*
X154193000Y-70246003D01*
X154193000Y-70102797D01*
X154165062Y-69962342D01*
X154110259Y-69830036D01*
X154030698Y-69710964D01*
X153929436Y-69609702D01*
X153810364Y-69530141D01*
X153678058Y-69475338D01*
X153537603Y-69447400D01*
X153394397Y-69447400D01*
X153253942Y-69475338D01*
X153121636Y-69530141D01*
X153002564Y-69609702D01*
X152901302Y-69710964D01*
X152821741Y-69830036D01*
X152766938Y-69962342D01*
X152739000Y-70102797D01*
X98668582Y-70102797D01*
X98668582Y-68724076D01*
X155513000Y-68724076D01*
X155513000Y-68955924D01*
X155558231Y-69183318D01*
X155646956Y-69397519D01*
X155775764Y-69590294D01*
X155939706Y-69754236D01*
X156132481Y-69883044D01*
X156346682Y-69971769D01*
X156574076Y-70017000D01*
X156805924Y-70017000D01*
X157033318Y-69971769D01*
X157247519Y-69883044D01*
X157440294Y-69754236D01*
X157604236Y-69590294D01*
X157619874Y-69566890D01*
X176148524Y-69566890D01*
X176150446Y-69579261D01*
X176250146Y-69853009D01*
X176401336Y-70102046D01*
X176598205Y-70316802D01*
X176833188Y-70489025D01*
X177097255Y-70612096D01*
X177380258Y-70681285D01*
X177613000Y-70537232D01*
X177613000Y-69337000D01*
X177867000Y-69337000D01*
X177867000Y-70537232D01*
X178099742Y-70681285D01*
X178382745Y-70612096D01*
X178646812Y-70489025D01*
X178881795Y-70316802D01*
X179078664Y-70102046D01*
X179229854Y-69853009D01*
X179329554Y-69579261D01*
X179331476Y-69566890D01*
X179210155Y-69337000D01*
X177867000Y-69337000D01*
X177613000Y-69337000D01*
X176269845Y-69337000D01*
X176148524Y-69566890D01*
X157619874Y-69566890D01*
X157733044Y-69397519D01*
X157821769Y-69183318D01*
X157867000Y-68955924D01*
X157867000Y-68853110D01*
X176148524Y-68853110D01*
X176269845Y-69083000D01*
X177613000Y-69083000D01*
X177613000Y-69063000D01*
X177867000Y-69063000D01*
X177867000Y-69083000D01*
X179210155Y-69083000D01*
X179331476Y-68853110D01*
X179329554Y-68840739D01*
X179229854Y-68566991D01*
X179078664Y-68317954D01*
X178881795Y-68103198D01*
X178646812Y-67930975D01*
X178544363Y-67883228D01*
X178602876Y-67877465D01*
X178711414Y-67844540D01*
X178811443Y-67791073D01*
X178899119Y-67719119D01*
X178971073Y-67631443D01*
X179024540Y-67531414D01*
X179057465Y-67422876D01*
X179068582Y-67310000D01*
X179068582Y-66110000D01*
X179057465Y-65997124D01*
X179024540Y-65888586D01*
X178971073Y-65788557D01*
X178899119Y-65700881D01*
X178811443Y-65628927D01*
X178711414Y-65575460D01*
X178602876Y-65542535D01*
X178490000Y-65531418D01*
X176990000Y-65531418D01*
X176877124Y-65542535D01*
X176768586Y-65575460D01*
X176668557Y-65628927D01*
X176580881Y-65700881D01*
X176508927Y-65788557D01*
X176455460Y-65888586D01*
X176422535Y-65997124D01*
X176411418Y-66110000D01*
X176411418Y-67310000D01*
X176422535Y-67422876D01*
X176455460Y-67531414D01*
X176508927Y-67631443D01*
X176580881Y-67719119D01*
X176668557Y-67791073D01*
X176768586Y-67844540D01*
X176877124Y-67877465D01*
X176935637Y-67883228D01*
X176833188Y-67930975D01*
X176598205Y-68103198D01*
X176401336Y-68317954D01*
X176250146Y-68566991D01*
X176150446Y-68840739D01*
X176148524Y-68853110D01*
X157867000Y-68853110D01*
X157867000Y-68724076D01*
X157821769Y-68496682D01*
X157733044Y-68282481D01*
X157604236Y-68089706D01*
X157440294Y-67925764D01*
X157247519Y-67796956D01*
X157033318Y-67708231D01*
X156805924Y-67663000D01*
X156574076Y-67663000D01*
X156346682Y-67708231D01*
X156132481Y-67796956D01*
X155939706Y-67925764D01*
X155775764Y-68089706D01*
X155646956Y-68282481D01*
X155558231Y-68496682D01*
X155513000Y-68724076D01*
X98668582Y-68724076D01*
X98668582Y-68660000D01*
X98662268Y-68595897D01*
X98643570Y-68534257D01*
X98613206Y-68477450D01*
X98572343Y-68427657D01*
X98522550Y-68386794D01*
X98465743Y-68356430D01*
X98404103Y-68337732D01*
X98340000Y-68331418D01*
X96140000Y-68331418D01*
X96075897Y-68337732D01*
X96014257Y-68356430D01*
X95957450Y-68386794D01*
X95907657Y-68427657D01*
X95866794Y-68477450D01*
X95836430Y-68534257D01*
X95817732Y-68595897D01*
X95811418Y-68660000D01*
X95811418Y-70860000D01*
X95817732Y-70924103D01*
X95836430Y-70985743D01*
X95866794Y-71042550D01*
X95907657Y-71092343D01*
X95949035Y-71126301D01*
X95917864Y-71157472D01*
X96033286Y-71272894D01*
X95758662Y-71380726D01*
X95607784Y-71687384D01*
X95524587Y-71999020D01*
X95477187Y-71884585D01*
X95381210Y-71740945D01*
X95259055Y-71618790D01*
X95115415Y-71522813D01*
X94955811Y-71456703D01*
X94786377Y-71423000D01*
X94613623Y-71423000D01*
X94444189Y-71456703D01*
X94284585Y-71522813D01*
X94140945Y-71618790D01*
X94018790Y-71740945D01*
X93922813Y-71884585D01*
X93856703Y-72044189D01*
X93823000Y-72213623D01*
X92874421Y-72213623D01*
X92875379Y-69673623D01*
X93823000Y-69673623D01*
X93823000Y-69846377D01*
X93856703Y-70015811D01*
X93922813Y-70175415D01*
X94018790Y-70319055D01*
X94140945Y-70441210D01*
X94284585Y-70537187D01*
X94444189Y-70603297D01*
X94613623Y-70637000D01*
X94786377Y-70637000D01*
X94955811Y-70603297D01*
X95115415Y-70537187D01*
X95259055Y-70441210D01*
X95381210Y-70319055D01*
X95477187Y-70175415D01*
X95543297Y-70015811D01*
X95577000Y-69846377D01*
X95577000Y-69673623D01*
X95543297Y-69504189D01*
X95477187Y-69344585D01*
X95381210Y-69200945D01*
X95259055Y-69078790D01*
X95115415Y-68982813D01*
X94955811Y-68916703D01*
X94786377Y-68883000D01*
X94613623Y-68883000D01*
X94444189Y-68916703D01*
X94284585Y-68982813D01*
X94140945Y-69078790D01*
X94018790Y-69200945D01*
X93922813Y-69344585D01*
X93856703Y-69504189D01*
X93823000Y-69673623D01*
X92875379Y-69673623D01*
X92876646Y-66314890D01*
X137724324Y-66314890D01*
X137768975Y-66462099D01*
X137894159Y-66724920D01*
X138068212Y-66958269D01*
X138284445Y-67153178D01*
X138534548Y-67302157D01*
X138808909Y-67399481D01*
X139038800Y-67278814D01*
X139038800Y-66085000D01*
X139292800Y-66085000D01*
X139292800Y-67278814D01*
X139522691Y-67399481D01*
X139797052Y-67302157D01*
X140047155Y-67153178D01*
X140263388Y-66958269D01*
X140437441Y-66724920D01*
X140562625Y-66462099D01*
X140607276Y-66314890D01*
X140538241Y-66184076D01*
X155513000Y-66184076D01*
X155513000Y-66415924D01*
X155558231Y-66643318D01*
X155646956Y-66857519D01*
X155775764Y-67050294D01*
X155939706Y-67214236D01*
X156132481Y-67343044D01*
X156346682Y-67431769D01*
X156574076Y-67477000D01*
X156805924Y-67477000D01*
X157033318Y-67431769D01*
X157247519Y-67343044D01*
X157440294Y-67214236D01*
X157604236Y-67050294D01*
X157733044Y-66857519D01*
X157821769Y-66643318D01*
X157867000Y-66415924D01*
X157867000Y-66184076D01*
X157821769Y-65956682D01*
X157733044Y-65742481D01*
X157604236Y-65549706D01*
X157440294Y-65385764D01*
X157247519Y-65256956D01*
X157033318Y-65168231D01*
X156805924Y-65123000D01*
X156574076Y-65123000D01*
X156346682Y-65168231D01*
X156132481Y-65256956D01*
X155939706Y-65385764D01*
X155775764Y-65549706D01*
X155646956Y-65742481D01*
X155558231Y-65956682D01*
X155513000Y-66184076D01*
X140538241Y-66184076D01*
X140485955Y-66085000D01*
X139292800Y-66085000D01*
X139038800Y-66085000D01*
X137845645Y-66085000D01*
X137724324Y-66314890D01*
X92876646Y-66314890D01*
X92876915Y-65601110D01*
X137724324Y-65601110D01*
X137845645Y-65831000D01*
X139038800Y-65831000D01*
X139038800Y-65811000D01*
X139292800Y-65811000D01*
X139292800Y-65831000D01*
X140485955Y-65831000D01*
X140607276Y-65601110D01*
X140562625Y-65453901D01*
X140437441Y-65191080D01*
X140263388Y-64957731D01*
X140047155Y-64762822D01*
X139797052Y-64613843D01*
X139748392Y-64596582D01*
X140015800Y-64596582D01*
X140079903Y-64590268D01*
X140141543Y-64571570D01*
X140198350Y-64541206D01*
X140248143Y-64500343D01*
X140289006Y-64450550D01*
X140319370Y-64393743D01*
X140338068Y-64332103D01*
X140344382Y-64268000D01*
X140344382Y-62910000D01*
X155511418Y-62910000D01*
X155511418Y-64610000D01*
X155517732Y-64674103D01*
X155536430Y-64735743D01*
X155566794Y-64792550D01*
X155607657Y-64842343D01*
X155657450Y-64883206D01*
X155714257Y-64913570D01*
X155775897Y-64932268D01*
X155840000Y-64938582D01*
X157540000Y-64938582D01*
X157604103Y-64932268D01*
X157665743Y-64913570D01*
X157722550Y-64883206D01*
X157772343Y-64842343D01*
X157813206Y-64792550D01*
X157843570Y-64735743D01*
X157862268Y-64674103D01*
X157868582Y-64610000D01*
X157868582Y-62910000D01*
X157862268Y-62845897D01*
X157843570Y-62784257D01*
X157813206Y-62727450D01*
X157772343Y-62677657D01*
X157722550Y-62636794D01*
X157665743Y-62606430D01*
X157604103Y-62587732D01*
X157540000Y-62581418D01*
X155840000Y-62581418D01*
X155775897Y-62587732D01*
X155714257Y-62606430D01*
X155657450Y-62636794D01*
X155607657Y-62677657D01*
X155566794Y-62727450D01*
X155536430Y-62784257D01*
X155517732Y-62845897D01*
X155511418Y-62910000D01*
X140344382Y-62910000D01*
X140344382Y-62568000D01*
X140338068Y-62503897D01*
X140319370Y-62442257D01*
X140289006Y-62385450D01*
X140248143Y-62335657D01*
X140198350Y-62294794D01*
X140141543Y-62264430D01*
X140079903Y-62245732D01*
X140015800Y-62239418D01*
X138315800Y-62239418D01*
X138251697Y-62245732D01*
X138190057Y-62264430D01*
X138133250Y-62294794D01*
X138083457Y-62335657D01*
X138042594Y-62385450D01*
X138012230Y-62442257D01*
X137993532Y-62503897D01*
X137987218Y-62568000D01*
X137987218Y-64268000D01*
X137993532Y-64332103D01*
X138012230Y-64393743D01*
X138042594Y-64450550D01*
X138083457Y-64500343D01*
X138133250Y-64541206D01*
X138190057Y-64571570D01*
X138251697Y-64590268D01*
X138315800Y-64596582D01*
X138583208Y-64596582D01*
X138534548Y-64613843D01*
X138284445Y-64762822D01*
X138068212Y-64957731D01*
X137894159Y-65191080D01*
X137768975Y-65453901D01*
X137724324Y-65601110D01*
X92876915Y-65601110D01*
X92877307Y-64565597D01*
X102294600Y-64565597D01*
X102294600Y-64708803D01*
X102322538Y-64849258D01*
X102377341Y-64981564D01*
X102456902Y-65100636D01*
X102558164Y-65201898D01*
X102677236Y-65281459D01*
X102809542Y-65336262D01*
X102949997Y-65364200D01*
X103093203Y-65364200D01*
X103233658Y-65336262D01*
X103365964Y-65281459D01*
X103485036Y-65201898D01*
X103586298Y-65100636D01*
X103665859Y-64981564D01*
X103720662Y-64849258D01*
X103748600Y-64708803D01*
X103748600Y-64565597D01*
X103743548Y-64540197D01*
X106028400Y-64540197D01*
X106028400Y-64683403D01*
X106056338Y-64823858D01*
X106111141Y-64956164D01*
X106190702Y-65075236D01*
X106291964Y-65176498D01*
X106411036Y-65256059D01*
X106543342Y-65310862D01*
X106683797Y-65338800D01*
X106827003Y-65338800D01*
X106967458Y-65310862D01*
X107099764Y-65256059D01*
X107218836Y-65176498D01*
X107320098Y-65075236D01*
X107399659Y-64956164D01*
X107454462Y-64823858D01*
X107482400Y-64683403D01*
X107482400Y-64540197D01*
X107454462Y-64399742D01*
X107399659Y-64267436D01*
X107320098Y-64148364D01*
X107218836Y-64047102D01*
X107099764Y-63967541D01*
X106967458Y-63912738D01*
X106827003Y-63884800D01*
X106683797Y-63884800D01*
X106543342Y-63912738D01*
X106411036Y-63967541D01*
X106291964Y-64047102D01*
X106190702Y-64148364D01*
X106111141Y-64267436D01*
X106056338Y-64399742D01*
X106028400Y-64540197D01*
X103743548Y-64540197D01*
X103720662Y-64425142D01*
X103665859Y-64292836D01*
X103586298Y-64173764D01*
X103485036Y-64072502D01*
X103365964Y-63992941D01*
X103233658Y-63938138D01*
X103093203Y-63910200D01*
X102949997Y-63910200D01*
X102809542Y-63938138D01*
X102677236Y-63992941D01*
X102558164Y-64072502D01*
X102456902Y-64173764D01*
X102377341Y-64292836D01*
X102322538Y-64425142D01*
X102294600Y-64565597D01*
X92877307Y-64565597D01*
X92878668Y-60958797D01*
X160917800Y-60958797D01*
X160917800Y-61102003D01*
X160945738Y-61242458D01*
X161000541Y-61374764D01*
X161080102Y-61493836D01*
X161162766Y-61576500D01*
X161080102Y-61659164D01*
X161000541Y-61778236D01*
X160945738Y-61910542D01*
X160917800Y-62050997D01*
X160917800Y-62194203D01*
X160945738Y-62334658D01*
X161000541Y-62466964D01*
X161080102Y-62586036D01*
X161181364Y-62687298D01*
X161300436Y-62766859D01*
X161432742Y-62821662D01*
X161573197Y-62849600D01*
X161716403Y-62849600D01*
X161856858Y-62821662D01*
X161989164Y-62766859D01*
X162108236Y-62687298D01*
X162209498Y-62586036D01*
X162289059Y-62466964D01*
X162343862Y-62334658D01*
X162371800Y-62194203D01*
X162371800Y-62050997D01*
X162343862Y-61910542D01*
X162289059Y-61778236D01*
X162209498Y-61659164D01*
X162126834Y-61576500D01*
X162209498Y-61493836D01*
X162289059Y-61374764D01*
X162343862Y-61242458D01*
X162371800Y-61102003D01*
X162371800Y-60958797D01*
X162343862Y-60818342D01*
X162289059Y-60686036D01*
X162209498Y-60566964D01*
X162108236Y-60465702D01*
X161989164Y-60386141D01*
X161856858Y-60331338D01*
X161716403Y-60303400D01*
X161573197Y-60303400D01*
X161432742Y-60331338D01*
X161300436Y-60386141D01*
X161181364Y-60465702D01*
X161080102Y-60566964D01*
X161000541Y-60686036D01*
X160945738Y-60818342D01*
X160917800Y-60958797D01*
X92878668Y-60958797D01*
X92880157Y-57017296D01*
X107075400Y-57017296D01*
X107075400Y-57421504D01*
X107154257Y-57817946D01*
X107308941Y-58191387D01*
X107533507Y-58527474D01*
X107819326Y-58813293D01*
X108155413Y-59037859D01*
X108528854Y-59192543D01*
X108925296Y-59271400D01*
X109329504Y-59271400D01*
X109725946Y-59192543D01*
X110099387Y-59037859D01*
X110435474Y-58813293D01*
X110721293Y-58527474D01*
X110945859Y-58191387D01*
X111100543Y-57817946D01*
X111179400Y-57421504D01*
X111179400Y-57069496D01*
X171135400Y-57069496D01*
X171135400Y-57369304D01*
X171193890Y-57663351D01*
X171308621Y-57940337D01*
X171475186Y-58189618D01*
X171687182Y-58401614D01*
X171936463Y-58568179D01*
X172213449Y-58682910D01*
X172507496Y-58741400D01*
X172807304Y-58741400D01*
X173101351Y-58682910D01*
X173378337Y-58568179D01*
X173627618Y-58401614D01*
X173839614Y-58189618D01*
X174006179Y-57940337D01*
X174120910Y-57663351D01*
X174179400Y-57369304D01*
X174179400Y-57069496D01*
X174120910Y-56775449D01*
X174006179Y-56498463D01*
X173839614Y-56249182D01*
X173627618Y-56037186D01*
X173378337Y-55870621D01*
X173101351Y-55755890D01*
X172807304Y-55697400D01*
X172507496Y-55697400D01*
X172213449Y-55755890D01*
X171936463Y-55870621D01*
X171687182Y-56037186D01*
X171475186Y-56249182D01*
X171308621Y-56498463D01*
X171193890Y-56775449D01*
X171135400Y-57069496D01*
X111179400Y-57069496D01*
X111179400Y-57017296D01*
X111100543Y-56620854D01*
X110945859Y-56247413D01*
X110721293Y-55911326D01*
X110435474Y-55625507D01*
X110099387Y-55400941D01*
X109725946Y-55246257D01*
X109329504Y-55167400D01*
X108925296Y-55167400D01*
X108528854Y-55246257D01*
X108155413Y-55400941D01*
X107819326Y-55625507D01*
X107533507Y-55911326D01*
X107308941Y-56247413D01*
X107154257Y-56620854D01*
X107075400Y-57017296D01*
X92880157Y-57017296D01*
X92886392Y-40504679D01*
X93113000Y-40504679D01*
X93113000Y-40815321D01*
X93173604Y-41119994D01*
X93292481Y-41406989D01*
X93465064Y-41665279D01*
X93684721Y-41884936D01*
X93943011Y-42057519D01*
X94230006Y-42176396D01*
X94534679Y-42237000D01*
X94845321Y-42237000D01*
X95149994Y-42176396D01*
X95436989Y-42057519D01*
X95695279Y-41884936D01*
X95914936Y-41665279D01*
X96087519Y-41406989D01*
X96206396Y-41119994D01*
X96226824Y-41017296D01*
X162275400Y-41017296D01*
X162275400Y-41421504D01*
X162354257Y-41817946D01*
X162508941Y-42191387D01*
X162733507Y-42527474D01*
X163019326Y-42813293D01*
X163355413Y-43037859D01*
X163728854Y-43192543D01*
X164125296Y-43271400D01*
X164529504Y-43271400D01*
X164925946Y-43192543D01*
X165299387Y-43037859D01*
X165635474Y-42813293D01*
X165921293Y-42527474D01*
X166145859Y-42191387D01*
X166300543Y-41817946D01*
X166379400Y-41421504D01*
X166379400Y-41017296D01*
X166300543Y-40620854D01*
X166273299Y-40555079D01*
X177085800Y-40555079D01*
X177085800Y-40865721D01*
X177146404Y-41170394D01*
X177265281Y-41457389D01*
X177437864Y-41715679D01*
X177657521Y-41935336D01*
X177915811Y-42107919D01*
X178202806Y-42226796D01*
X178507479Y-42287400D01*
X178818121Y-42287400D01*
X179122794Y-42226796D01*
X179409789Y-42107919D01*
X179668079Y-41935336D01*
X179887736Y-41715679D01*
X180060319Y-41457389D01*
X180179196Y-41170394D01*
X180239800Y-40865721D01*
X180239800Y-40555079D01*
X180179196Y-40250406D01*
X180060319Y-39963411D01*
X179887736Y-39705121D01*
X179668079Y-39485464D01*
X179409789Y-39312881D01*
X179122794Y-39194004D01*
X178818121Y-39133400D01*
X178507479Y-39133400D01*
X178202806Y-39194004D01*
X177915811Y-39312881D01*
X177657521Y-39485464D01*
X177437864Y-39705121D01*
X177265281Y-39963411D01*
X177146404Y-40250406D01*
X177085800Y-40555079D01*
X166273299Y-40555079D01*
X166145859Y-40247413D01*
X165921293Y-39911326D01*
X165635474Y-39625507D01*
X165299387Y-39400941D01*
X164925946Y-39246257D01*
X164529504Y-39167400D01*
X164125296Y-39167400D01*
X163728854Y-39246257D01*
X163355413Y-39400941D01*
X163019326Y-39625507D01*
X162733507Y-39911326D01*
X162508941Y-40247413D01*
X162354257Y-40620854D01*
X162275400Y-41017296D01*
X96226824Y-41017296D01*
X96267000Y-40815321D01*
X96267000Y-40504679D01*
X96206396Y-40200006D01*
X96087519Y-39913011D01*
X95914936Y-39654721D01*
X95695279Y-39435064D01*
X95436989Y-39262481D01*
X95149994Y-39143604D01*
X94845321Y-39083000D01*
X94534679Y-39083000D01*
X94230006Y-39143604D01*
X93943011Y-39262481D01*
X93684721Y-39435064D01*
X93465064Y-39654721D01*
X93292481Y-39913011D01*
X93173604Y-40200006D01*
X93113000Y-40504679D01*
X92886392Y-40504679D01*
X92887000Y-38896888D01*
X92887000Y-38894208D01*
X180250314Y-38830892D01*
X180257906Y-106008779D01*
G37*
%TD.AperFunction*%
%TD*%
M02*
